<?xml version="1.0" encoding="UTF-8" standalone="no"?>
<svg width="37px" height="37px" viewBox="0 0 37 37" version="1.1" xmlns="http://www.w3.org/2000/svg" xmlns:xlink="http://www.w3.org/1999/xlink" xmlns:sketch="http://www.bohemiancoding.com/sketch/ns">
    <!-- Generator: Sketch 3.3.2 (12043) - http://www.bohemiancoding.com/sketch -->
    <title>Phone</title>
    <desc>Created with Sketch.</desc>
    <defs></defs>
    <g id="Page-1" stroke="none" stroke-width="1" fill="none" fill-rule="evenodd" sketch:type="MSPage">
        <g id="Phone" sketch:type="MSArtboardGroup" transform="translate(0.300781, 0.039062)" fill="#FFFFFF">
            <path d="M25.470458,28.6186802 L22.1992188,28.9609381 C22.1992188,28.9609381 15.1010035,29.1937491 11.9001111,20.558584 C8.69921879,11.9234189 12.1992187,7.46093754 12.1992187,7.46093754 C12.1992187,7.46093754 14.1011893,6.02002649 14.7248183,5.88893191 C15.3484473,5.75783733 15.8223079,6.1939693 15.9716575,6.66792397 C16.4428931,8.16337045 17.430427,11.3404924 17.5009201,11.923419 C17.5937548,12.6910937 16.5884575,13.0305925 16.5884575,13.0305925 L14.2991284,13.3893099 C14.2991284,13.3893099 13.1880787,13.897629 14.874796,18.1507373 C16.5612376,22.4048068 19.3430804,24.2426226 19.3430804,24.2426226 L21.0021735,22.526795 C21.0021735,22.526795 21.3360264,21.2103325 22.9508719,22.768334 C24.5657173,24.3263356 27.0158686,26.2710441 27.0158686,26.2710441 L25.470458,28.6186802 Z" id="Imported-Layers-Copy" sketch:type="MSShapeGroup"></path>
        </g>
    </g>
</svg>