<svg xmlns="http://www.w3.org/2000/svg" xmlns:xlink="http://www.w3.org/1999/xlink" preserveAspectRatio="xMidYMid" width="111" height="67" viewBox="0 0 111 67">
  <defs>
    <style>

      .cls-3 {
        fill: #222222;
      }

      .cls-4 {
        fill: #2c62b6;
      }

      .cls-5 {
        fill: #ddd9ce;
      }
    </style>
  </defs>
  <g id="disksvg">
    <path d="M45.006,0.947 C54.606,-1.625 65.329,1.201 73.125,8.365 C80.300,14.744 90.175,15.754 90.175,15.754 C90.175,15.754 82.196,58.275 61.829,63.732 C41.463,69.190 14.638,54.794 13.292,36.355 C13.292,36.355 21.460,30.502 24.367,21.419 C27.538,11.323 35.410,3.519 45.006,0.947 Z" id="path-1" class="cls-3" fill-rule="evenodd"/>
    <path d="M49.365,17.379 C78.265,9.635 105.290,12.256 109.945,23.778 C114.863,35.948 93.185,53.260 61.271,61.811 C29.356,70.363 1.926,66.209 0.100,53.211 C-1.629,40.905 20.464,25.123 49.365,17.379 Z" id="path-2" class="cls-4" fill-rule="evenodd"/>
    <path d="M56.702,45.436 C71.105,41.577 83.940,42.773 85.370,48.107 C86.799,53.442 76.282,60.895 61.878,64.755 C47.475,68.614 34.639,67.418 33.210,62.084 C31.780,56.749 42.298,49.296 56.702,45.436 Z" id="path-3" class="cls-5" fill-rule="evenodd"/>
  </g>
</svg>
