<?xml version="1.0" encoding="utf-8"?>
<!-- Generator: Adobe Illustrator 18.1.0, SVG Export Plug-In . SVG Version: 6.00 Build 0)  -->
<svg version="1.1" id="Layer_1" xmlns="http://www.w3.org/2000/svg" xmlns:xlink="http://www.w3.org/1999/xlink" x="0px" y="0px"
	 viewBox="0 0 150 180" enable-background="new 0 0 150 180" xml:space="preserve">
<path fill="#333333" d="M69.1,51.4l-5.9-21.7l-5.1,1.3L64,52.8C65.6,52.2,67.2,51.7,69.1,51.4z"/>
<path fill="#333333" d="M39.6,76.9l-21.7-5.6l-1.3,5.1l21.7,5.9C38.6,80.4,39.1,78.5,39.6,76.9z"/>
<path fill="#333333" d="M50.9,60.3L35.1,44.5l-3.7,3.8L47.1,64C48.2,62.4,49.6,61.3,50.9,60.3z"/>
<path fill="#333333" d="M89.2,52.8l5.9-21.7L90,29.7l-5.9,21.7C85.7,51.7,87.6,52.2,89.2,52.8z"/>
<path fill="#333333" d="M114.6,82.2l22-5.9l-1.3-5.1l-22,5.9C113.8,78.8,114.1,80.4,114.6,82.2z"/>
<path fill="#333333" d="M105.8,64l16.1-16.1l-3.8-3.8l-16.1,16.1C103.4,61.6,104.7,62.7,105.8,64z"/>
<path fill="#333333" d="M102.1,118.7l16.1,16.1l3.8-3.8l-16.1-16.1C104.5,116.2,103.4,117.6,102.1,118.7z"/>
<path fill="#333333" d="M113,102.1l22,5.9l1.3-5.1l-22-5.9C114.1,98.8,113.8,100.4,113,102.1z"/>
<path fill="#333333" d="M38.3,97l-21.7,5.9l1.3,5.1l21.7-5.9C39.1,100.4,38.6,98.8,38.3,97z"/>
<path fill="#333333" d="M84.1,127.5l5.9,22l5.1-1.3l-5.9-22C87.6,126.7,85.7,127.2,84.1,127.5z"/>
<path fill="#333333" d="M64,126.4l-5.9,22l5.1,1.3l5.9-22C67.5,127.2,65.6,127,64,126.4z"/>
<path fill="#333333" d="M47.1,115.2l-16.1,16.1l3.8,3.8l16.1-16.1C49.6,117.9,48.5,116.5,47.1,115.2z"/>
<path fill="#333333" d="M91.9,62.9c-14.7-8.6-33.5-3.5-42.1,11.2s-3.5,33.5,11.2,42.1s33.5,3.5,42.1-11.2S106.6,71.5,91.9,62.9z
	 M96.2,101c-6.2,10.7-20.1,14.5-30.8,8.3c-10.7-6.2-14.5-20.1-8.3-30.8S77.1,64,87.9,70.2C98.6,76.3,102.3,90,96.2,101z"/>
<path opacity="0.4" fill="#333333" enable-background="new    " d="M96.2,101c-6.2,10.7-20.1,14.5-30.8,8.3
	c-10.7-6.2-14.5-20.1-8.3-30.8S77.1,64,87.9,70.2C98.6,76.3,102.3,90,96.2,101z"/>
</svg>
