<?xml version="1.0" encoding="utf-8"?>
<!-- Generator: Adobe Illustrator 16.0.0, SVG Export Plug-In . SVG Version: 6.00 Build 0)  -->
<!DOCTYPE svg PUBLIC "-//W3C//DTD SVG 1.1//EN" "http://www.w3.org/Graphics/SVG/1.1/DTD/svg11.dtd">
<svg version="1.1" id="Afisha_1_" xmlns="http://www.w3.org/2000/svg" xmlns:xlink="http://www.w3.org/1999/xlink" x="0px" y="0px"
	 width="56px" height="56px" viewBox="0 0 56 56" enable-background="new 0 0 56 56" xml:space="preserve">
<g id="Rectangle_132">
	<g>
		<rect x="24" y="22.5" fill="#F6F5F3" width="14" height="19.5"/>
	</g>
</g>
<g id="Rectangle_92">
	<g>
		<path fill="#FFCC00" d="M16,19v29h24V19H16z M36,39.985h-8V25.003h8V39.985z"/>
	</g>
</g>
<g id="Rectangle_153" opacity="0.051">
	<g>
		<rect x="33" y="19" width="7" height="26"/>
	</g>
</g>
<g id="Ellipse_25">
	<g>
		<path fill="#61605F" d="M39.606,15C38.272,9.828,33.589,6,28,6c-5.589,0-10.272,3.828-11.606,9H14v5h28v-5H39.606z M14,50h28v-5
			H14V50z"/>
	</g>
</g>
<g id="Rectangle_152">
	<g>
		<path fill="#393837" d="M31,50h11v-5H31V50z M39.606,15C38.272,9.828,33.589,6,28,6c0,0,3,2.5,3,14h11v-5H39.606z"/>
	</g>
</g>
</svg>
