<?xml version="1.0" encoding="utf-8"?>
<!-- Generator: Adobe Illustrator 16.0.0, SVG Export Plug-In . SVG Version: 6.00 Build 0)  -->
<!DOCTYPE svg PUBLIC "-//W3C//DTD SVG 1.1//EN" "http://www.w3.org/Graphics/SVG/1.1/DTD/svg11.dtd">
<svg version="1.1" id="Browser_1_" xmlns="http://www.w3.org/2000/svg" xmlns:xlink="http://www.w3.org/1999/xlink" x="0px" y="0px"
	 width="56px" height="56px" viewBox="0 0 56 56" enable-background="new 0 0 56 56" xml:space="preserve">
<g id="Ellipse_12">
	<g>
		<circle fill="#F6F5F3" cx="28" cy="28" r="20"/>
	</g>
</g>
<g id="Shape_24" opacity="0.102">
	<g>
		<path d="M28,8c-2.259,0-4.423,0.392-6.448,1.082c1.336-0.324,2.725-0.515,4.161-0.515c9.734,0,17.625,7.895,17.625,17.635
			c0,9.739-7.892,17.635-17.625,17.635c-9.729,0-17.617-7.888-17.625-17.621c-0.052,0.589-0.09,1.181-0.09,1.783
			c0,11.045,8.955,19.998,20.002,19.998s20.002-8.953,20.002-19.998S39.047,8,28,8z"/>
	</g>
</g>
<g id="Shape_24_1_">
	<g>
		<path fill="#DD0000" d="M44.573,13.928c-1.869-2.075-6.222-3.537-13.684,1.351c-4.252,2.785-7.727,6.442-7.727,6.442
			s-7.449-5.183-7.219-9.548c-0.879,0.129-6.634,0.586-5.893,7.524c0.792,5.609,7.966,10.533,8.368,10.906
			c0.127,4.819,0.593,8.592,1.638,11.772C21.347,46.301,24.251,49,28.232,49c2.402,0,4.516-1.562,5.143-2.187
			c-2.304-0.973-4.479-2.233-4.891-16.15c5.147-6.579,13.879-12.29,17.449-11.396C45.982,18.698,46.341,15.891,44.573,13.928z"/>
	</g>
</g>
<g id="Shape_24_2_" opacity="0.102">
	<g>
		<path d="M44.573,13.928c-1.129-1.253-3.171-2.272-6.249-1.814c2.08,2.07,3.675,4.62,4.638,7.461
			c1.171-0.369,2.197-0.501,2.972-0.308C45.982,18.698,46.341,15.891,44.573,13.928z M30.461,44.129
			c-1.807,0.561-3.727,0.863-5.718,0.863c-1.263,0-2.492-0.135-3.687-0.367C22.591,47.293,25.07,49,28.232,49
			c2.402,0,4.516-1.562,5.143-2.187C32.325,46.37,31.303,45.863,30.461,44.129z"/>
	</g>
</g>
</svg>
