<?xml version="1.0" encoding="utf-8"?>
<!-- Generator: Adobe Illustrator 16.0.0, SVG Export Plug-In . SVG Version: 6.00 Build 0)  -->
<!DOCTYPE svg PUBLIC "-//W3C//DTD SVG 1.1//EN" "http://www.w3.org/Graphics/SVG/1.1/DTD/svg11.dtd">
<svg version="1.1" xmlns="http://www.w3.org/2000/svg" xmlns:xlink="http://www.w3.org/1999/xlink" x="0px" y="0px" width="56px"
	 height="56px" viewBox="0 0 56 56" enable-background="new 0 0 56 56" xml:space="preserve">
<g id="Rectangle_279_1_" enable-background="new    ">
</g>
<g id="kino_1_">
	<g id="Ellipse_61">
		<g>
			<path fill="#222222" d="M45.253,27.992l-6.255,15.012L27.99,42.003v6.005c12.104,0,22.198-8.596,24.517-20.016H45.253z"/>
		</g>
	</g>
	<g id="Ellipse_59">
		<g>
			<path fill="#222222" d="M27.99,16.983c-6.079,0-11.007,4.929-11.007,11.009s4.928,11.009,11.007,11.009
				c6.08,0,11.008-4.929,11.008-11.009S34.07,16.983,27.99,16.983z M27.74,31.995c-2.072,0-3.752-1.68-3.752-3.753
				c0-2.072,1.68-3.753,3.752-3.753s3.753,1.681,3.753,3.753C31.493,30.315,29.812,31.995,27.74,31.995z"/>
		</g>
	</g>
	<g id="Shape_22">
		<g>
			<path fill="#FFCC00" d="M27.991,7.989c-11.047,0-20.001,8.956-20.001,20.003c0,11.045,8.955,20.003,20.001,20.003
				c11.044,0,20.001-8.958,20.001-20.003C47.992,16.945,39.035,7.989,27.991,7.989z M20.485,41.002c-3.04,0-5.504-2.464-5.504-5.504
				s2.464-5.504,5.504-5.504s5.504,2.464,5.504,5.504S23.525,41.002,20.485,41.002z M20.485,25.99c-3.04,0-5.504-2.464-5.504-5.504
				s2.464-5.504,5.504-5.504s5.504,2.464,5.504,5.504S23.525,25.99,20.485,25.99z M35.496,41.002c-3.04,0-5.504-2.464-5.504-5.504
				s2.464-5.504,5.504-5.504c3.039,0,5.503,2.464,5.503,5.504S38.535,41.002,35.496,41.002z M35.496,25.99
				c-3.04,0-5.504-2.464-5.504-5.504s2.464-5.504,5.504-5.504c3.039,0,5.503,2.464,5.503,5.504S38.535,25.99,35.496,25.99z"/>
		</g>
	</g>
</g>
</svg>
