<?xml version="1.0" encoding="utf-8"?>
<!-- Generator: Adobe Illustrator 16.0.0, SVG Export Plug-In . SVG Version: 6.00 Build 0)  -->
<!DOCTYPE svg PUBLIC "-//W3C//DTD SVG 1.1//EN" "http://www.w3.org/Graphics/SVG/1.1/DTD/svg11.dtd">
<svg version="1.1" xmlns="http://www.w3.org/2000/svg" xmlns:xlink="http://www.w3.org/1999/xlink" x="0px" y="0px" width="56px"
	 height="56px" viewBox="0 0 56 56" enable-background="new 0 0 56 56" xml:space="preserve">
<g id="Rectangle_279_1_" enable-background="new    ">
</g>
<g id="Dict_1_">
	<g id="Rectangle_8">
		<g>
			<path fill="#EE0000" d="M18.5,40H43V8H18.5c0,0-5.5,0-5.5,5.5v29c0,0,0,5.5,5.357,5.5H43v-3H18.5c0,0-2.5,0-2.5-2.5
				S18.5,40,18.5,40z"/>
		</g>
	</g>
	<g id="Rectangle_111">
		<g>
			<path fill="#E8E7E4" d="M15.5,40v5H43v-5H15.5z M31.062,21.958h4.875L37,25h3l-5-13h-3l-5,12.997L30,25L31.062,21.958z
				 M33.5,14.6l1.734,5.2H31.75L33.5,14.6z"/>
		</g>
	</g>
	<g id="Rectangle_8_1_">
		<g>
			<path fill="#CC0000" d="M18.5,40H43v-3H18.5c0,0-5.5,0-5.5,5.5c0,0,0,5.5,5.357,5.5H43v-3H18.5c0,0-2.5,0-2.5-2.5
				S18.5,40,18.5,40z"/>
		</g>
	</g>
</g>
</svg>
