<?xml version="1.0" encoding="utf-8"?>
<!-- Generator: Adobe Illustrator 16.0.0, SVG Export Plug-In . SVG Version: 6.00 Build 0)  -->
<!DOCTYPE svg PUBLIC "-//W3C//DTD SVG 1.1//EN" "http://www.w3.org/Graphics/SVG/1.1/DTD/svg11.dtd">
<svg version="1.1" id="Direct_1_" xmlns="http://www.w3.org/2000/svg" xmlns:xlink="http://www.w3.org/1999/xlink" x="0px" y="0px"
	 width="56px" height="56px" viewBox="0 0 56 56" enable-background="new 0 0 56 56" xml:space="preserve">
<g id="бумажка">
	<g>
		<polygon fill="#FFCC00" points="8,8 8,48 12,48 16,48 16,38 18,38 18,48 21,48 26,48 26,38 29,38 29,40 37,40 37,38 40,38 40,48 
			42,48 48,48 48,8 		"/>
	</g>
</g>
<g id="Rectangle_144" opacity="0.102">
	<g>
		<path d="M8,18v10h40V18H8z M8,48h8V38H8V48z M18,48h8V38h-8V48z M29,40h8v-2h-8V40z M40,48h8V38h-8V48z"/>
	</g>
</g>
<g id="Rectangle_109">
	<g>
		<path fill="#393837" d="M19,16v2h18v-2H19z M19,24h18v-2H19V24z M19,30h18v-2H19V30z"/>
	</g>
</g>
</svg>
