<?xml version="1.0" encoding="utf-8"?>
<!-- Generator: Adobe Illustrator 16.0.0, SVG Export Plug-In . SVG Version: 6.00 Build 0)  -->
<!DOCTYPE svg PUBLIC "-//W3C//DTD SVG 1.1//EN" "http://www.w3.org/Graphics/SVG/1.1/DTD/svg11.dtd">
<svg version="1.1" id="Weather_1_" xmlns="http://www.w3.org/2000/svg" xmlns:xlink="http://www.w3.org/1999/xlink" x="0px" y="0px"
	 width="56px" height="56px" viewBox="0 0 56 56" enable-background="new 0 0 56 56" xml:space="preserve">
<g id="Rectangle_133">
	<g>
		<path fill="#DD0000" d="M28,7C16.955,7,8,15.954,8,27c17.5,0,22.5,0,40,0C48,15.954,39.046,7,28,7z"/>
	</g>
</g>
<g id="Rectangle_133_1_" opacity="0.102">
	<g>
		<path d="M48,27c0-11.046-8.954-20-20-20c5.24,9.571,4.5,20,4.5,20C32.899,27,35.374,27,48,27z"/>
	</g>
</g>
<g id="Ellipse_26">
	<g>
		<path fill="#BDB7A5" d="M34,43v2c0,0,0,2-2,2s-2-2-2-2V27h-4v18c0,0,0,6,6,6s6-6,6-6v-2H34z"/>
	</g>
</g>
<g id="Rectangle_141" opacity="0.2">
	<g>
		<rect x="26" y="27" width="4" height="5"/>
	</g>
</g>
</svg>
