<?xml version="1.0" encoding="UTF-8" standalone="no"?>
<svg width="15px" height="14px" viewBox="0 0 15 14" version="1.1" xmlns="http://www.w3.org/2000/svg" xmlns:xlink="http://www.w3.org/1999/xlink" xmlns:sketch="http://www.bohemiancoding.com/sketch/ns">
    <!-- Generator: Sketch 3.1.1 (8761) - http://www.bohemiancoding.com/sketch -->
    <title>Oval 1</title>
    <desc>Created with Sketch.</desc>
    <defs></defs>
    <g id="Page-1" stroke="none" stroke-width="1" fill="none" fill-rule="evenodd" sketch:type="MSPage">
        <path d="M10.0232056,10.4513351 C8.95895719,11.4138228 7.54793311,12 6,12 C2.6862915,12 0,9.3137085 0,6 C0,2.6862915 2.6862915,-1.42108547e-14 6,-1.42108547e-14 C9.3137085,-1.42108547e-14 12,2.6862915 12,6 C12,7.03963161 11.7355866,8.01750615 11.2703405,8.87004292 L14.7219818,12.3216843 L13.3077682,13.7358978 L10.0232056,10.4513351 Z M6,10 C8.209139,10 10,8.209139 10,6 C10,3.790861 8.209139,2 6,2 C3.790861,2 2,3.790861 2,6 C2,8.209139 3.790861,10 6,10 Z" id="Oval-1" fill="#000000" sketch:type="MSShapeGroup"></path>
    </g>
</svg>