<svg xmlns="http://www.w3.org/2000/svg" xmlns:xlink="http://www.w3.org/1999/xlink" preserveAspectRatio="xMidYMid" width="68" height="100" viewBox="0 0 68 100">
  <defs>
    <style>

      .cls-3 {
        fill: #ffcc00;
      }

      .cls-4 {
        fill: #ee0000;
      }
    </style>
  </defs>
  <g id="musicsvg">
    <circle id="circle-1" class="cls-3" cx="34" cy="66" r="34"/>
    <path d="M33.990,47.985 C43.928,47.985 51.985,56.044 51.985,65.985 C51.985,75.925 43.928,83.984 33.990,83.984 C24.052,83.984 15.995,75.925 15.995,65.985 C15.995,56.044 24.052,47.985 33.990,47.985 Z" id="path-1" class="cls-4" fill-rule="evenodd"/>
    <path d="M44.003,0.000 C44.003,0.000 68.000,10.109 68.000,10.109 C68.000,10.109 68.000,26.445 68.000,26.445 C68.000,26.445 51.917,19.604 51.917,19.604 C51.917,19.604 51.917,67.000 51.917,67.000 C51.917,67.000 44.003,67.000 44.003,67.000 C44.003,67.000 44.003,0.000 44.003,0.000 Z" id="path-2" class="cls-4" fill-rule="evenodd"/>
  </g>
</svg>
