<svg xmlns="http://www.w3.org/2000/svg" xmlns:xlink="http://www.w3.org/1999/xlink" preserveAspectRatio="xMidYMid" width="100" height="100" viewBox="0 0 100 100">
  <defs>
    <style>

      .cls-2 {
        fill: #ffffff;
      }
    </style>
  </defs>
  <path d="M50.000,100.010 C22.382,100.010 -0.008,77.621 -0.008,50.003 C-0.008,22.384 22.382,-0.005 50.000,-0.005 C77.618,-0.005 100.008,22.384 100.008,50.003 C100.008,77.621 77.618,100.010 50.000,100.010 ZM80.546,23.521 C78.329,21.304 76.194,19.867 75.743,20.318 C75.743,20.318 49.959,45.486 49.959,45.486 C49.959,45.486 24.175,20.318 24.175,20.318 C23.764,19.867 21.588,21.304 19.371,23.521 C17.154,25.738 15.717,27.873 16.169,28.324 C16.169,28.324 44.293,55.833 44.293,55.833 C44.293,55.833 44.293,90.033 44.293,90.033 C44.293,90.649 47.085,91.142 50.000,91.183 C53.038,91.142 55.707,90.649 55.707,90.033 C55.707,90.033 55.707,55.833 55.707,55.833 C55.707,55.833 83.831,28.324 83.831,28.324 C84.242,27.873 82.764,25.738 80.546,23.521 Z" id="path-1" class="cls-2" fill-rule="evenodd"/>
</svg>
