<svg xmlns="http://www.w3.org/2000/svg" xmlns:xlink="http://www.w3.org/1999/xlink" preserveAspectRatio="xMidYMid" width="28" height="45" viewBox="0 0 28 45">
  <defs>
    <style>

      .cls-3 {
        fill: #f6f5f3;
      }

      .cls-4 {
        fill: #ee0000;
      }

      .cls-5 {
        fill: #ffcc02;
      }

      .cls-6 {
        fill: #222222;
      }

      .cls-7 {
        fill: #000000;
        opacity: 0.08;
      }
    </style>
  </defs>
  <g id="afishasvg">
    <path d="M0.000,14.000 C0.000,14.000 28.000,14.000 28.000,14.000 C28.000,14.000 25.000,17.000 25.000,17.000 C25.000,17.000 25.000,40.000 25.000,40.000 C25.000,40.000 3.000,40.000 3.000,40.000 C3.000,40.000 3.000,17.000 3.000,17.000 C3.000,17.000 0.000,14.000 0.000,14.000 Z" id="path-1" class="cls-3" fill-rule="evenodd"/>
    <rect id="rect-1" class="cls-4" x="7" y="17" width="13" height="19"/>
    <rect id="rect-2" class="cls-5" x="3" y="20" width="9" height="9"/>
    <path d="M0.000,45.000 C0.000,45.000 0.000,40.000 0.000,40.000 C0.000,40.000 28.000,40.000 28.000,40.000 C28.000,40.000 28.000,45.000 28.000,45.000 C28.000,45.000 0.000,45.000 0.000,45.000 ZM0.000,9.000 C0.000,9.000 2.781,9.000 2.781,9.000 C3.923,3.852 8.508,0.000 14.000,0.000 C19.492,0.000 24.077,3.852 25.219,9.000 C25.219,9.000 28.000,9.000 28.000,9.000 C28.000,9.000 28.000,14.000 28.000,14.000 C28.000,14.000 0.000,14.000 0.000,14.000 C0.000,14.000 0.000,9.000 0.000,9.000 Z" id="path-2" class="cls-6" fill-rule="evenodd"/>
    <path d="M25.000,17.000 C25.000,17.000 25.000,40.000 25.000,40.000 C25.000,40.000 20.000,40.000 20.000,40.000 C20.000,40.000 20.000,17.000 20.000,17.000 C20.000,17.000 22.500,14.000 22.500,14.000 C22.500,14.000 25.000,14.000 25.000,14.000 C25.000,14.000 28.000,14.000 28.000,14.000 C28.000,14.000 25.000,17.000 25.000,17.000 Z" id="path-3" class="cls-7" fill-rule="evenodd"/>
  </g>
</svg>
