<svg xmlns="http://www.w3.org/2000/svg" xmlns:xlink="http://www.w3.org/1999/xlink" preserveAspectRatio="xMidYMid" width="45" height="45" viewBox="0 0 45 45">
  <defs>
    <style>

      .cls-3 {
        fill: #222222;
      }

      .cls-4 {
        fill: #ffcc00;
      }
    </style>
  </defs>
  <g id="airplanesvg">
    <path d="M35.696,45.007 C35.696,45.007 23.401,26.565 23.401,26.565 C23.401,26.565 23.552,26.446 23.552,26.446 C23.552,26.446 22.864,25.758 22.864,25.758 C22.864,25.758 21.415,23.585 21.415,23.585 C21.415,23.585 19.242,22.136 19.242,22.136 C19.242,22.136 18.554,21.448 18.554,21.448 C18.554,21.448 18.435,21.599 18.435,21.599 C18.435,21.599 -0.007,9.304 -0.007,9.304 C-0.007,9.304 3.564,5.734 3.564,5.734 C3.564,5.734 32.483,12.517 32.483,12.517 C32.483,12.517 39.266,41.436 39.266,41.436 C39.266,41.436 35.696,45.007 35.696,45.007 ZM11.649,30.258 C11.649,30.258 8.204,34.652 8.204,34.652 C8.204,34.652 3.921,30.369 3.921,30.369 C3.921,30.369 6.063,28.226 6.063,28.226 C6.063,28.226 11.649,30.258 11.649,30.258 ZM14.742,33.351 C14.742,33.351 16.774,38.937 16.774,38.937 C16.774,38.937 14.631,41.079 14.631,41.079 C14.631,41.079 10.348,36.796 10.348,36.796 C10.348,36.796 14.742,33.351 14.742,33.351 Z" id="path-1" class="cls-3" fill-rule="evenodd"/>
    <path d="M43.907,1.093 C45.287,2.473 45.358,4.641 44.064,5.934 C44.064,5.934 23.552,26.446 23.552,26.446 C23.552,26.446 10.342,36.800 10.342,36.800 C10.342,36.800 8.200,34.658 8.200,34.658 C8.200,34.658 18.554,21.448 18.554,21.448 C18.554,21.448 39.066,0.936 39.066,0.936 C40.359,-0.358 42.527,-0.287 43.907,1.093 Z" id="path-2" class="cls-4" fill-rule="evenodd"/>
  </g>
</svg>
