<svg xmlns="http://www.w3.org/2000/svg" xmlns:xlink="http://www.w3.org/1999/xlink" preserveAspectRatio="xMidYMid" width="41" height="41" viewBox="0 0 41 41">
  <defs>
    <style>

      .cls-3 {
        fill: #f3f1ed;
      }

      .cls-4 {
        fill: #ff0000;
      }
    </style>
  </defs>
  <g id="browsersvg">
    <circle id="circle-1" class="cls-3" cx="20" cy="20" r="20"/>
    <path d="M33.111,11.189 C33.111,11.189 22.004,22.052 22.004,22.052 C22.004,22.052 22.004,35.559 22.004,35.559 C22.004,35.802 20.950,35.997 19.750,36.013 C19.750,36.013 19.750,36.013 19.750,36.013 C18.599,35.997 17.496,35.802 17.496,35.559 C17.496,35.559 17.496,22.052 17.496,22.052 C17.496,22.052 6.389,11.189 6.389,11.189 C6.211,11.010 6.778,10.167 7.654,9.292 C8.529,8.416 9.389,7.848 9.551,8.027 C9.551,8.027 19.734,17.966 19.734,17.966 C19.734,17.966 29.917,8.027 29.917,8.027 C30.095,7.848 30.938,8.416 31.814,9.292 C32.689,10.167 33.273,11.010 33.111,11.189 Z" id="path-1" class="cls-4" fill-rule="evenodd"/>
  </g>
</svg>
