<svg xmlns="http://www.w3.org/2000/svg" xmlns:xlink="http://www.w3.org/1999/xlink" preserveAspectRatio="xMidYMid" width="30" height="40" viewBox="0 0 30 40">
  <defs>
    <style>

      .cls-3 {
        fill: #ee0000;
      }

      .cls-4 {
        fill: #e8e7e4;
      }

      .cls-5 {
        fill: #cc0000;
      }

      .cls-6 {
        fill: #ffcc02;
      }
    </style>
  </defs>
  <g id="dictsvg">
    <path d="M0.000,5.500 C0.000,0.000 5.500,0.000 5.500,0.000 C5.500,0.000 30.000,0.000 30.000,0.000 C30.000,0.000 30.000,32.000 30.000,32.000 C30.000,32.000 5.500,32.000 5.500,32.000 C5.500,32.000 3.000,32.000 3.000,34.500 C3.000,37.000 5.500,37.000 5.500,37.000 C5.500,37.000 30.000,37.000 30.000,37.000 C30.000,37.000 30.000,40.000 30.000,40.000 C30.000,40.000 5.357,40.000 5.357,40.000 C0.000,40.000 0.000,34.500 0.000,34.500 C0.000,34.500 0.000,5.500 0.000,5.500 Z" id="path-1" class="cls-3" fill-rule="evenodd"/>
    <path d="M2.500,37.000 C2.500,37.000 2.500,32.000 2.500,32.000 C2.500,32.000 30.000,32.000 30.000,32.000 C30.000,32.000 30.000,37.000 30.000,37.000 C30.000,37.000 2.500,37.000 2.500,37.000 ZM22.438,13.458 C22.438,13.458 17.563,13.458 17.563,13.458 C17.563,13.458 16.500,16.500 16.500,16.500 C16.500,16.500 13.500,16.497 13.500,16.497 C13.500,16.497 18.500,3.500 18.500,3.500 C18.500,3.500 21.500,3.500 21.500,3.500 C21.500,3.500 26.500,16.500 26.500,16.500 C26.500,16.500 23.500,16.500 23.500,16.500 C23.500,16.500 22.438,13.458 22.438,13.458 ZM20.000,6.100 C20.000,6.100 18.250,11.300 18.250,11.300 C18.250,11.300 21.734,11.300 21.734,11.300 C21.734,11.300 20.000,6.100 20.000,6.100 Z" id="path-2" class="cls-4" fill-rule="evenodd"/>
    <path d="M0.000,34.500 C0.000,29.000 5.500,29.000 5.500,29.000 C5.500,29.000 30.000,29.000 30.000,29.000 C30.000,29.000 30.000,32.000 30.000,32.000 C30.000,32.000 5.500,32.000 5.500,32.000 C5.500,32.000 3.000,32.000 3.000,34.500 C3.000,37.000 5.500,37.000 5.500,37.000 C5.500,37.000 30.000,37.000 30.000,37.000 C30.000,37.000 30.000,40.000 30.000,40.000 C30.000,40.000 5.357,40.000 5.357,40.000 C0.000,40.000 0.000,34.500 0.000,34.500 C0.000,34.500 0.000,34.500 0.000,34.500 Z" id="path-3" class="cls-5" fill-rule="evenodd"/>
  </g>
</svg>
