<svg xmlns="http://www.w3.org/2000/svg" xmlns:xlink="http://www.w3.org/1999/xlink" preserveAspectRatio="xMidYMid" width="55" height="34" viewBox="0 0 55 34">
  <defs>
    <style>

      .cls-3 {
        fill: #222222;
      }

      .cls-4 {
        fill: #4277ca;
      }

      .cls-5 {
        fill: #ddd9ce;
      }
    </style>
  </defs>
  <g id="disksvg">
    <path d="M22.363,0.457 C27.133,-0.847 32.462,0.586 36.335,4.218 C39.901,7.451 44.807,7.964 44.807,7.964 C44.807,7.964 40.843,29.522 30.723,32.288 C20.603,35.055 7.274,27.757 6.605,18.408 C6.605,18.408 10.664,15.441 12.108,10.836 C13.684,5.717 17.595,1.761 22.363,0.457 Z" id="path-1" class="cls-3" fill-rule="evenodd"/>
    <path d="M24.529,8.788 C38.890,4.862 52.318,6.191 54.631,12.032 C57.075,18.202 46.303,26.979 30.445,31.314 C14.587,35.650 0.957,33.544 0.050,26.954 C-0.809,20.715 10.169,12.714 24.529,8.788 Z" id="path-2" class="cls-4" fill-rule="evenodd"/>
    <path d="M28.175,23.012 C35.332,21.056 41.710,21.662 42.420,24.367 C43.130,27.071 37.904,30.850 30.747,32.807 C23.590,34.763 17.212,34.157 16.502,31.452 C15.792,28.748 21.018,24.969 28.175,23.012 Z" id="path-3" class="cls-5" fill-rule="evenodd"/>
  </g>
</svg>
