<svg xmlns="http://www.w3.org/2000/svg" xmlns:xlink="http://www.w3.org/1999/xlink" preserveAspectRatio="xMidYMid" width="41" height="36" viewBox="0 0 41 36">
  <defs>
    <style>

      .cls-3 {
        fill: #dfb021;
      }

      .cls-4 {
        fill: #ff0000;
      }

      .cls-5 {
        fill: #ffcc00;
      }

      .cls-6 {
        fill: #000000;
      }
    </style>
  </defs>
  <g id="jobsvg">
    <path d="M6.066,35.989 C6.066,35.989 13.697,33.206 13.697,33.206 C13.697,33.206 8.854,28.370 8.854,28.370 C8.854,28.370 6.066,35.989 6.066,35.989 Z" id="path-1" class="cls-3" fill-rule="evenodd"/>
    <path d="M36.168,35.982 C36.168,35.982 6.568,6.427 6.568,6.427 C6.568,6.427 11.402,1.601 11.402,1.601 C11.402,1.601 41.001,31.155 41.001,31.155 C41.001,31.155 36.168,35.982 36.168,35.982 Z" id="path-2" class="cls-4" fill-rule="evenodd"/>
    <path d="M8.852,28.381 C8.852,28.381 36.043,1.230 36.043,1.230 C36.043,1.230 40.877,6.057 40.877,6.057 C40.877,6.057 13.685,33.207 13.685,33.207 C13.685,33.207 8.852,28.381 8.852,28.381 Z" id="path-3" class="cls-5" fill-rule="evenodd"/>
    <path d="M7.517,19.845 C7.517,19.845 0.012,12.339 0.012,12.339 C0.012,12.339 12.372,-0.002 12.372,-0.002 C12.372,-0.002 27.381,-0.002 27.381,-0.002 C27.381,-0.002 7.517,19.845 7.517,19.845 ZM9.459,34.755 C9.459,34.755 6.066,35.989 6.066,35.989 C6.066,35.989 7.302,32.614 7.302,32.614 C7.302,32.614 9.459,34.755 9.459,34.755 Z" id="path-4" class="cls-6" fill-rule="evenodd"/>
  </g>
</svg>
