<svg xmlns="http://www.w3.org/2000/svg" xmlns:xlink="http://www.w3.org/1999/xlink" preserveAspectRatio="xMidYMid" width="40" height="40" viewBox="0 0 40 40">
  <defs>
    <style>

      .cls-3 {
        fill: #222222;
      }

      .cls-4 {
        fill: #ffcc00;
      }
    </style>
  </defs>
  <g id="kinosvg">
    <path d="M20.000,31.000 C13.925,31.000 9.000,26.075 9.000,20.000 C9.000,13.925 13.925,9.000 20.000,9.000 C26.075,9.000 31.000,13.925 31.000,20.000 C31.000,26.075 26.075,31.000 20.000,31.000 ZM19.750,16.500 C17.679,16.500 16.000,18.179 16.000,20.250 C16.000,22.321 17.679,24.000 19.750,24.000 C21.821,24.000 23.500,22.321 23.500,20.250 C23.500,18.179 21.821,16.500 19.750,16.500 Z" id="path-1" class="cls-3" fill-rule="evenodd"/>
    <path d="M20.000,39.987 C8.961,39.987 0.013,31.037 0.013,20.000 C0.013,8.962 8.961,0.013 20.000,0.013 C31.037,0.013 39.987,8.962 39.987,20.000 C39.987,31.037 31.037,39.987 20.000,39.987 ZM12.500,7.000 C9.462,7.000 7.000,9.462 7.000,12.500 C7.000,15.538 9.462,18.000 12.500,18.000 C15.538,18.000 18.000,15.538 18.000,12.500 C18.000,9.462 15.538,7.000 12.500,7.000 ZM12.500,22.000 C9.462,22.000 7.000,24.462 7.000,27.500 C7.000,30.538 9.462,33.000 12.500,33.000 C15.538,33.000 18.000,30.538 18.000,27.500 C18.000,24.462 15.538,22.000 12.500,22.000 ZM27.500,7.000 C24.462,7.000 22.000,9.462 22.000,12.500 C22.000,15.538 24.462,18.000 27.500,18.000 C30.538,18.000 33.000,15.538 33.000,12.500 C33.000,9.462 30.538,7.000 27.500,7.000 ZM27.500,22.000 C24.462,22.000 22.000,24.462 22.000,27.500 C22.000,30.538 24.462,33.000 27.500,33.000 C30.538,33.000 33.000,30.538 33.000,27.500 C33.000,24.462 30.538,22.000 27.500,22.000 Z" id="path-2" class="cls-4" fill-rule="evenodd"/>
  </g>
</svg>
