<svg xmlns="http://www.w3.org/2000/svg" xmlns:xlink="http://www.w3.org/1999/xlink" preserveAspectRatio="xMidYMid" width="46" height="46" viewBox="0 0 46 46">
  <defs>
    <style>

      .cls-3 {
        fill: #4277ca;
      }

      .cls-4 {
        fill: #222222;
      }
    </style>
  </defs>
  <g id="marketsvg">
    <path d="M10.506,0.000 C10.506,0.000 13.736,9.018 13.736,9.018 C13.736,9.018 46.000,9.018 46.000,9.018 C46.000,9.018 46.000,21.075 46.000,21.075 C46.000,25.308 42.764,26.022 42.764,26.022 C42.764,26.022 16.682,33.300 16.682,33.300 C16.682,33.300 6.500,5.055 6.500,5.055 C6.500,5.055 0.000,5.055 0.000,5.055 C0.000,5.055 0.000,0.000 0.000,0.000 C0.000,0.000 10.506,0.000 10.506,0.000 Z" id="path-1" class="cls-3" fill-rule="evenodd"/>
    <path d="M35.996,46.000 C33.787,46.000 31.995,44.210 31.995,42.002 C31.995,39.793 33.787,38.003 35.996,38.003 C38.206,38.003 39.998,39.793 39.998,42.002 C39.998,44.210 38.206,46.000 35.996,46.000 ZM12.997,46.000 C10.787,46.000 8.996,44.210 8.996,42.002 C8.996,39.793 10.787,38.003 12.997,38.003 C15.207,38.003 16.998,39.793 16.998,42.002 C16.998,44.210 15.207,46.000 12.997,46.000 Z" id="path-2" class="cls-4" fill-rule="evenodd"/>
  </g>
</svg>
