<svg xmlns="http://www.w3.org/2000/svg" xmlns:xlink="http://www.w3.org/1999/xlink" preserveAspectRatio="xMidYMid" width="44" height="30" viewBox="0 0 44 30">
  <defs>
    <style>

      .cls-3 {
        fill: #ee0000;
      }

      .cls-4 {
        fill: #cc0000;
      }

      .cls-5 {
        fill: #222222;
      }

      .cls-6 {
        fill: #ebbc02;
      }

      .cls-7 {
        fill: #454545;
      }

      .cls-8 {
        fill: #ffcc02;
      }
    </style>
  </defs>
  <g id="metrikasvg">
    <path d="M-0.005,29.985 C-0.005,29.985 0.000,19.979 0.000,19.979 C0.000,19.979 11.127,19.979 11.127,19.979 C11.127,19.979 11.137,29.985 11.137,29.985 C11.137,29.985 -0.005,29.985 -0.005,29.985 Z" id="path-1" class="cls-3" fill-rule="evenodd"/>
    <path d="M11.002,19.987 C11.002,19.987 15.012,19.987 15.012,19.987 C15.012,19.987 15.012,30.008 15.012,30.008 C15.012,30.008 11.002,30.008 11.002,30.008 C11.002,30.008 11.002,19.987 11.002,19.987 Z" id="path-2" class="cls-4" fill-rule="evenodd"/>
    <path d="M25.793,9.997 C25.793,9.997 29.333,9.997 29.333,9.997 C29.333,9.997 29.333,29.977 29.333,29.977 C29.333,29.977 25.793,29.977 25.793,29.977 C25.793,29.977 25.793,9.997 25.793,9.997 Z" id="path-3" class="cls-5" fill-rule="evenodd"/>
    <path d="M39.990,0.008 C39.990,0.008 44.000,0.008 44.000,0.008 C44.000,0.008 44.000,30.008 44.000,30.008 C44.000,30.008 39.990,30.008 39.990,30.008 C39.990,30.008 39.990,0.008 39.990,0.008 Z" id="path-4" class="cls-6" fill-rule="evenodd"/>
    <path d="M15.005,29.985 C15.005,29.985 15.010,9.990 15.010,9.990 C15.010,9.990 25.981,9.990 25.981,9.990 C25.981,9.990 25.991,29.985 25.991,29.985 C25.991,29.985 15.005,29.985 15.005,29.985 Z" id="path-5" class="cls-7" fill-rule="evenodd"/>
    <path d="M28.985,29.985 C28.985,29.985 28.990,0.000 28.990,0.000 C28.990,0.000 39.991,0.000 39.991,0.000 C39.991,0.000 40.002,29.985 40.002,29.985 C40.002,29.985 28.985,29.985 28.985,29.985 Z" id="path-6" class="cls-8" fill-rule="evenodd"/>
  </g>
</svg>
