<svg xmlns="http://www.w3.org/2000/svg" xmlns:xlink="http://www.w3.org/1999/xlink" preserveAspectRatio="xMidYMid" width="42" height="32" viewBox="0 0 42 32">
  <defs>
    <style>

      .cls-3 {
        fill: #ff0000;
      }
    </style>
  </defs>
  <g id="metrosvg">
    <path d="M31.647,31.987 C31.647,31.987 42.006,31.987 42.006,31.987 C42.006,31.987 40.971,29.379 40.971,29.379 C40.971,29.379 29.530,-0.002 29.530,-0.002 C29.530,-0.002 21.000,16.531 21.000,16.531 C21.000,16.531 12.580,0.020 12.580,0.020 C12.580,0.020 1.023,29.398 1.023,29.398 C1.023,29.398 0.009,31.984 0.009,31.984 C0.009,31.984 10.201,31.984 10.201,31.984 C10.201,31.984 11.188,29.380 11.188,29.380 C11.188,29.380 14.434,20.446 14.434,20.446 C14.434,20.446 21.000,32.000 21.000,32.000 C21.000,32.000 27.644,20.368 27.644,20.368 C27.644,20.368 30.757,29.378 30.757,29.378 C30.757,29.378 31.647,31.987 31.647,31.987 Z" id="path-1" class="cls-3" fill-rule="evenodd"/>
  </g>
</svg>
