<svg xmlns="http://www.w3.org/2000/svg" xmlns:xlink="http://www.w3.org/1999/xlink" preserveAspectRatio="xMidYMid" width="33" height="43" viewBox="0 0 33 43">
  <defs>
    <style>

      .cls-3 {
        fill: #ffcc00;
      }

      .cls-4 {
        fill: #000000;
      }

      .cls-5 {
        fill: #000000;
        opacity: 0.15;
      }
    </style>
  </defs>
  <g id="moneysvg">
    <path d="M0.000,20.741 C0.000,17.622 2.607,15.686 2.607,15.686 C2.607,15.686 22.846,0.000 22.846,0.000 C22.846,0.000 23.000,18.000 23.000,18.000 C23.000,18.000 33.000,18.000 33.000,18.000 C33.000,18.000 33.000,43.000 33.000,43.000 C33.000,43.000 3.046,43.000 3.046,43.000 C0.032,43.000 0.000,39.965 0.000,39.965 C0.000,39.965 0.000,20.741 0.000,20.741 Z" id="path-1" class="cls-3" fill-rule="evenodd"/>
    <path d="M15.738,15.919 C17.140,15.296 18.277,15.931 18.277,17.336 C18.277,18.741 17.140,20.384 15.738,21.006 C14.337,21.629 13.200,20.994 13.200,19.589 C13.200,18.184 14.337,16.541 15.738,15.919 Z" id="path-2" class="cls-4" fill-rule="evenodd"/>
    <path d="M22.882,17.987 C22.882,17.987 27.985,17.987 27.985,17.987 C27.985,17.987 27.985,33.330 27.985,33.330 C27.985,33.330 3.999,41.002 3.999,41.002 C3.999,41.002 22.882,28.216 22.882,28.216 C22.882,28.216 22.882,17.987 22.882,17.987 Z" id="path-3" class="cls-5" fill-rule="evenodd"/>
  </g>
</svg>
