<svg xmlns="http://www.w3.org/2000/svg" xmlns:xlink="http://www.w3.org/1999/xlink" preserveAspectRatio="xMidYMid" width="30" height="40" viewBox="0 0 30 40">
  <defs>
    <style>

      .cls-3 {
        fill: #ddd9ce;
      }

      .cls-4 {
        fill: #222222;
      }

      .cls-6 {
        fill: #ee0000;
      }

      .cls-7 {
        fill: #bdb7a5;
      }
    </style>
  </defs>
  <g id="newssvg">
    <rect id="rect-1" class="cls-3" width="30" height="35"/>
    <path d="M17.000,25.000 C17.000,25.000 17.000,21.993 17.000,21.993 C17.000,21.993 25.000,21.993 25.000,21.993 C25.000,21.993 25.000,25.000 25.000,25.000 C25.000,25.000 17.000,25.000 17.000,25.000 ZM17.000,17.014 C17.000,17.014 25.000,17.014 25.000,17.014 C25.000,17.014 25.000,19.986 25.000,19.986 C25.000,19.986 17.000,19.986 17.000,19.986 C17.000,19.986 17.000,17.014 17.000,17.014 ZM17.000,12.000 C17.000,12.000 25.000,12.000 25.000,12.000 C25.000,12.000 25.000,15.007 25.000,15.007 C25.000,15.007 17.000,15.007 17.000,15.007 C17.000,15.007 17.000,12.000 17.000,12.000 Z" id="path-1" class="cls-4" fill-rule="evenodd"/>
    <path d="M25.000,5.000 C25.000,5.000 5.000,5.000 5.000,5.000 C5.000,5.000 5.000,10.000 5.000,10.000 C5.000,10.000 25.000,10.000 25.000,10.000 C25.000,10.000 25.000,5.000 25.000,5.000 Z" id="path-2" class="cls-4" fill-rule="evenodd"/>
    <path d="M15.000,12.000 C15.000,12.000 5.000,12.000 5.000,12.000 C5.000,12.000 5.000,25.000 5.000,25.000 C5.000,25.000 15.000,25.000 15.000,25.000 C15.000,25.000 15.000,12.000 15.000,12.000 Z" id="path-3" class="cls-6" fill-rule="evenodd"/>
    <path d="M0.000,35.000 C0.000,35.000 25.000,35.000 25.000,35.000 C25.000,35.000 25.000,40.000 25.000,40.000 C25.000,40.000 0.000,35.000 0.000,35.000 Z" id="path-4" class="cls-7" fill-rule="evenodd"/>
  </g>
</svg>
