<svg xmlns="http://www.w3.org/2000/svg" xmlns:xlink="http://www.w3.org/1999/xlink" preserveAspectRatio="xMidYMid" width="38" height="38" viewBox="0 0 38 38">
  <defs>
    <style>

      .cls-3 {
        fill: #ffcc00;
      }

      .cls-4 {
        fill: #ff0000;
      }
    </style>
  </defs>
  <g id="raspsvg">
    <path d="M24.514,37.997 C24.514,37.997 37.997,26.468 37.997,26.468 C37.997,26.468 24.502,14.939 24.502,14.939 C24.502,14.939 14.185,14.939 14.185,14.939 C14.185,14.939 23.812,23.059 23.812,23.059 C23.812,23.059 0.000,23.059 0.000,23.059 C0.000,23.059 0.000,29.890 0.000,29.890 C0.000,29.890 23.812,29.890 23.812,29.890 C23.812,29.890 14.185,37.997 14.185,37.997 C14.185,37.997 24.514,37.997 24.514,37.997 Z" id="path-1" class="cls-3" fill-rule="evenodd"/>
    <path d="M13.483,0.000 C13.483,0.000 0.000,11.530 0.000,11.530 C0.000,11.530 13.496,23.059 13.496,23.059 C13.496,23.059 23.812,23.059 23.812,23.059 C23.812,23.059 14.185,14.939 14.185,14.939 C14.185,14.939 37.997,14.939 37.997,14.939 C37.997,14.939 37.997,8.108 37.997,8.108 C37.997,8.108 14.185,8.108 14.185,8.108 C14.185,8.108 23.812,0.000 23.812,0.000 C23.812,0.000 13.483,0.000 13.483,0.000 Z" id="path-2" class="cls-4" fill-rule="evenodd"/>
  </g>
</svg>
