<svg xmlns="http://www.w3.org/2000/svg" xmlns:xlink="http://www.w3.org/1999/xlink" preserveAspectRatio="xMidYMid" width="39" height="43" viewBox="0 0 39 43">
  <defs>
    <style>

      .cls-3 {
        fill: #ffcc00;
      }

      .cls-4 {
        fill: #edbe00;
      }
    </style>
  </defs>
  <g id="servicessvg">
    <path d="M35.310,39.151 C30.096,44.322 21.692,44.274 16.538,39.043 C16.342,38.843 16.167,38.631 15.986,38.422 C15.986,38.422 0.731,22.936 0.731,22.936 C-0.245,21.946 -0.230,20.344 0.763,19.359 C1.756,18.374 3.351,18.378 4.327,19.368 C4.327,19.368 12.822,27.992 12.822,27.992 C12.896,27.411 13.010,26.835 13.160,26.266 C13.160,26.266 1.161,14.085 1.161,14.085 C0.101,13.009 0.113,11.271 1.189,10.203 C2.265,9.136 3.997,9.143 5.057,10.220 C5.057,10.220 15.804,21.130 15.804,21.130 C16.069,20.813 16.347,20.503 16.646,20.207 C16.718,20.135 16.797,20.075 16.871,20.005 C16.871,20.005 4.182,7.124 4.182,7.124 C3.122,6.048 3.135,4.310 4.210,3.243 C5.286,2.175 7.018,2.183 8.078,3.259 C8.078,3.259 21.697,17.084 21.697,17.084 C22.259,16.893 22.827,16.729 23.405,16.615 C23.405,16.615 11.644,4.675 11.644,4.675 C10.583,3.599 10.596,1.861 11.672,0.794 C12.747,-0.274 14.479,-0.266 15.539,0.810 C15.539,0.810 32.636,18.166 32.636,18.166 C32.638,18.168 32.639,18.171 32.642,18.174 C33.633,18.752 34.572,19.457 35.417,20.314 C40.571,25.546 40.523,33.979 35.310,39.151 Z" id="path-1" class="cls-3" fill-rule="evenodd"/>
    <path d="M35.310,39.151 C35.231,39.229 35.145,39.295 35.065,39.370 C33.419,38.824 31.871,37.902 30.568,36.583 C26.157,32.117 26.198,24.919 30.660,20.504 C31.460,19.713 32.350,19.071 33.294,18.565 C34.045,19.065 34.758,19.646 35.417,20.314 C40.571,25.546 40.523,33.979 35.310,39.151 Z" id="path-2" class="cls-4" fill-rule="evenodd"/>
    <path d="M39.408,29.224 C39.408,29.224 36.830,34.777 34.634,34.386 C32.438,33.996 30.985,31.905 31.387,29.717 C31.387,29.717 34.701,9.384 34.701,9.384 C35.104,7.195 37.210,5.738 39.406,6.128 C39.406,6.128 39.408,29.224 39.408,29.224 Z" id="path-3" class="cls-4" fill-rule="evenodd"/>
  </g>
</svg>
