<svg xmlns="http://www.w3.org/2000/svg" xmlns:xlink="http://www.w3.org/1999/xlink" preserveAspectRatio="xMidYMid" width="38" height="34" viewBox="0 0 38 34">
  <defs>
    <style>

      .cls-3 {
        fill: #ffcc00;
      }

      .cls-4 {
        fill: #ff0000;
      }

      .cls-5 {
        fill: #d20202;
      }
    </style>
  </defs>
  <g id="storesvg">
    <path d="M2.987,0.005 C2.987,0.005 2.987,33.981 2.987,33.981 C2.987,33.981 28.448,33.981 28.448,33.981 C28.448,33.981 37.999,16.948 37.999,16.948 C37.999,16.948 28.448,0.005 28.448,0.005 C28.448,0.005 2.987,0.005 2.987,0.005 Z" id="path-1" class="cls-3" fill-rule="evenodd"/>
    <path d="M10.206,18.702 C9.108,19.844 7.328,19.844 6.230,18.702 C5.131,17.559 5.131,15.703 6.230,14.561 C7.328,13.418 9.108,13.418 10.206,14.561 C11.304,15.703 11.304,17.559 10.206,18.702 M11.115,8.109 C11.115,8.109 5.699,8.109 5.699,8.109 C5.699,8.109 0.007,14.028 0.007,14.028 C0.007,14.028 0.007,19.663 0.007,19.663 C0.007,19.663 13.892,34.085 13.892,34.085 C13.892,34.085 25.013,22.532 25.013,22.532 C25.013,22.532 11.115,8.109 11.115,8.109 Z" id="path-2" class="cls-4" fill-rule="evenodd"/>
    <path d="M10.184,14.740 C9.711,14.236 9.110,13.958 8.483,13.891 C7.306,13.759 6.014,13.083 4.953,11.982 C3.584,10.563 3.085,8.999 3.085,7.726 C3.085,7.726 3.085,3.099 3.085,3.099 C2.459,3.350 1.896,3.709 1.410,4.212 C-0.918,6.626 -0.317,11.014 2.766,14.223 C4.518,16.039 6.731,17.087 8.815,17.087 C9.608,17.087 10.350,16.928 11.003,16.636 C10.964,15.947 10.683,15.270 10.184,14.740 Z" id="path-3" class="cls-5" fill-rule="evenodd"/>
  </g>
</svg>
