<svg xmlns="http://www.w3.org/2000/svg" xmlns:xlink="http://www.w3.org/1999/xlink" preserveAspectRatio="xMidYMid" width="40" height="31" viewBox="0 0 40 31">
  <defs>
    <style>

      .cls-3 {
        fill: #ffcc00;
      }

      .cls-4 {
        fill: #222222;
      }

      .cls-5 {
        fill: #000000;
        opacity: 0.12;
      }
    </style>
  </defs>
  <g id="taxisvg">
    <path d="M0.000,5.082 C0.000,-0.000 4.833,-0.000 4.833,-0.000 C4.833,-0.000 35.000,-0.000 35.000,-0.000 C39.917,-0.000 40.000,5.082 40.000,5.082 C40.000,5.082 40.000,31.000 40.000,31.000 C40.000,31.000 0.000,31.000 0.000,31.000 C0.000,31.000 0.000,5.082 0.000,5.082 Z" id="path-1" class="cls-3" fill-rule="evenodd"/>
    <path d="M29.000,18.991 C29.000,18.991 29.000,13.002 29.000,13.002 C29.000,13.002 35.000,13.002 35.000,13.002 C35.000,13.002 35.000,18.991 35.000,18.991 C35.000,18.991 29.000,18.991 29.000,18.991 ZM17.000,18.991 C17.000,18.991 17.000,13.002 17.000,13.002 C17.000,13.002 23.000,13.002 23.000,13.002 C23.000,13.002 23.000,18.991 23.000,18.991 C23.000,18.991 17.000,18.991 17.000,18.991 ZM5.000,18.991 C5.000,18.991 5.000,13.002 5.000,13.002 C5.000,13.002 11.000,13.002 11.000,13.002 C11.000,13.002 11.000,18.991 11.000,18.991 C11.000,18.991 5.000,18.991 5.000,18.991 ZM11.000,7.013 C11.000,7.013 17.000,7.013 17.000,7.013 C17.000,7.013 17.000,13.002 17.000,13.002 C17.000,13.002 11.000,13.002 11.000,13.002 C11.000,13.002 11.000,7.013 11.000,7.013 ZM23.000,7.013 C23.000,7.013 29.000,7.013 29.000,7.013 C29.000,7.013 29.000,13.002 29.000,13.002 C29.000,13.002 23.000,13.002 23.000,13.002 C23.000,13.002 23.000,7.013 23.000,7.013 Z" id="path-2" class="cls-4" fill-rule="evenodd"/>
    <path d="M0.000,24.902 C0.000,24.902 40.000,24.902 40.000,24.902 C40.000,24.902 40.000,31.000 40.000,31.000 C40.000,31.000 0.000,31.000 0.000,31.000 C0.000,31.000 0.000,24.902 0.000,24.902 Z" id="path-3" class="cls-5" fill-rule="evenodd"/>
  </g>
</svg>
