<svg xmlns="http://www.w3.org/2000/svg" xmlns:xlink="http://www.w3.org/1999/xlink" preserveAspectRatio="xMidYMid" width="54" height="49" viewBox="0 0 54 49">
  <defs>
    <style>

      .cls-3 {
        fill: #ffcc00;
      }

      .cls-4 {
        fill: #ff0000;
      }
    </style>
  </defs>
  <g id="ticketsvg">
    <path d="M47.490,29.740 C46.800,28.545 45.271,28.135 44.075,28.825 C42.880,29.516 42.470,31.045 43.160,32.240 C43.160,32.240 15.014,48.490 15.014,48.490 C15.014,48.490 0.014,22.510 0.014,22.510 C0.014,22.510 28.160,6.260 28.160,6.260 C28.851,7.455 30.380,7.865 31.575,7.175 C32.771,6.484 33.181,4.955 32.490,3.760 C32.490,3.760 38.986,0.010 38.986,0.010 C38.986,0.010 53.986,25.990 53.986,25.990 C53.986,25.990 47.490,29.740 47.490,29.740 ZM37.490,12.420 C36.800,11.224 35.271,10.814 34.075,11.505 C32.880,12.195 32.470,13.724 33.160,14.920 C33.851,16.116 35.380,16.525 36.575,15.835 C37.771,15.145 38.181,13.616 37.490,12.420 ZM42.490,21.080 C41.800,19.884 40.271,19.475 39.075,20.165 C37.880,20.855 37.470,22.384 38.160,23.580 C38.851,24.776 40.380,25.186 41.575,24.495 C42.771,23.805 43.181,22.276 42.490,21.080 Z" id="path-1" class="cls-3" fill-rule="evenodd"/>
    <path d="M47.490,29.740 C46.800,28.545 45.271,28.135 44.075,28.825 C44.075,28.825 41.575,24.495 41.575,24.495 C42.771,23.805 43.181,22.276 42.490,21.080 C41.800,19.884 40.271,19.475 39.075,20.165 C39.075,20.165 36.575,15.835 36.575,15.835 C36.575,15.835 36.575,15.835 36.575,15.835 C37.771,15.145 38.181,13.616 37.490,12.420 C36.800,11.224 35.271,10.814 34.075,11.505 C34.075,11.505 34.075,11.505 34.075,11.505 C34.075,11.505 31.575,7.175 31.575,7.175 C32.771,6.484 33.181,4.955 32.490,3.760 C32.490,3.760 38.986,0.010 38.986,0.010 C38.986,0.010 53.986,25.990 53.986,25.990 C53.986,25.990 47.490,29.740 47.490,29.740 Z" id="path-2" class="cls-4" fill-rule="evenodd"/>
  </g>
</svg>
