<svg xmlns="http://www.w3.org/2000/svg" xmlns:xlink="http://www.w3.org/1999/xlink" preserveAspectRatio="xMidYMid" width="39" height="34" viewBox="0 0 39 34">
  <defs>
    <style>

      .cls-3 {
        fill: #e5b701;
      }

      .cls-4 {
        fill: #ffcc00;
      }

      .cls-5 {
        fill: #222222;
      }
    </style>
  </defs>
  <g id="traffic-yellowsvg">
    <path d="M16.716,0.054 C16.737,0.036 16.778,0.000 16.778,0.000 C16.778,0.000 20.448,0.000 22.333,0.000 C31.538,0.000 39.000,7.611 39.000,17.000 C39.000,17.000 32.333,17.000 32.333,17.000 C32.333,7.972 25.429,0.609 16.716,0.054 Z" id="path-1" class="cls-3" fill-rule="evenodd"/>
    <path d="M16.497,0.000 C7.378,0.000 -0.014,7.611 -0.014,17.000 C-0.014,26.389 7.378,34.000 16.497,34.000 C25.615,34.000 33.007,26.389 33.007,17.000 C33.007,7.611 25.615,0.000 16.497,0.000 Z" id="path-2" class="cls-4" fill-rule="evenodd"/>
    <path d="M5.667,17.000 C5.667,17.000 0.111,17.000 0.111,17.000 C0.111,7.611 7.573,0.000 16.778,0.000 C17.559,0.000 22.333,0.000 22.333,0.000 C13.129,0.000 5.667,7.611 5.667,17.000 Z" id="path-3" class="cls-5" fill-rule="evenodd"/>
  </g>
</svg>
