<svg xmlns="http://www.w3.org/2000/svg" xmlns:xlink="http://www.w3.org/1999/xlink" preserveAspectRatio="xMidYMid" width="30" height="47" viewBox="0 0 30 47">
  <defs>
    <style>

      .cls-3 {
        fill: #222222;
      }

      .cls-4 {
        fill: #f6f5f3;
      }

      .cls-5 {
        fill: #4277ca;
      }
    </style>
  </defs>
  <g id="transportsvg">
    <path d="M25.000,47.000 C25.000,47.000 19.500,35.882 19.500,35.882 C19.500,35.882 24.500,35.882 24.500,35.882 C24.500,35.882 30.000,47.000 30.000,47.000 C30.000,47.000 25.000,47.000 25.000,47.000 ZM0.000,47.000 C0.000,47.000 5.500,35.882 5.500,35.882 C5.500,35.882 10.500,35.882 10.500,35.882 C10.500,35.882 5.000,47.000 5.000,47.000 C5.000,47.000 0.000,47.000 0.000,47.000 Z" id="path-1" class="cls-3" fill-rule="evenodd"/>
    <rect id="rect-1" class="cls-4" x="5" y="9" width="21" height="23"/>
    <path d="M15.436,45.008 C15.436,45.008 2.000,38.155 2.000,38.155 C2.000,38.155 2.000,8.615 2.000,8.615 C2.000,4.012 6.500,4.012 6.500,4.012 C6.500,4.012 24.500,4.012 24.500,4.012 C29.000,4.012 29.000,8.615 29.000,8.615 C29.000,8.615 29.000,38.155 29.000,38.155 C29.000,38.155 15.436,45.008 15.436,45.008 ZM8.500,29.986 C9.881,29.986 11.000,28.867 11.000,27.487 C11.000,26.106 9.881,24.987 8.500,24.987 C7.119,24.987 6.000,26.106 6.000,27.487 C6.000,28.867 7.119,29.986 8.500,29.986 ZM25.000,10.995 C25.000,10.995 6.000,10.995 6.000,10.995 C6.000,10.995 6.000,19.993 6.000,19.993 C6.000,19.993 25.000,19.993 25.000,19.993 C25.000,19.993 25.000,10.995 25.000,10.995 ZM22.500,24.987 C21.119,24.987 20.000,26.106 20.000,27.487 C20.000,28.867 21.119,29.986 22.500,29.986 C23.881,29.986 25.000,28.867 25.000,27.487 C25.000,26.106 23.881,24.987 22.500,24.987 Z" id="path-2" class="cls-5" fill-rule="evenodd"/>
    <circle id="circle-1" class="cls-5" cx="15" cy="5" r="5"/>
    <circle id="circle-2" class="cls-4" cx="15" cy="5" r="2"/>
  </g>
</svg>
