<svg xmlns="http://www.w3.org/2000/svg" xmlns:xlink="http://www.w3.org/1999/xlink" preserveAspectRatio="xMidYMid" width="42" height="42" viewBox="0 0 42 42">
  <defs>
    <style>

      .cls-3 {
        fill: #222222;
      }

      .cls-4 {
        fill: #ffffff;
      }

      .cls-5 {
        fill: #ff0000;
      }
    </style>
  </defs>
  <g id="translatesvg">
    <path d="M14.595,13.692 C14.595,6.130 20.730,-0.000 28.298,-0.000 C35.865,-0.000 42.000,6.130 42.000,13.692 C42.000,21.254 35.865,27.384 28.298,27.384 C20.730,27.384 14.595,21.254 14.595,13.692 " id="path-1" class="cls-3" fill-rule="evenodd"/>
    <path d="M28.846,17.290 C28.705,17.455 28.553,17.609 28.402,17.763 C27.901,16.743 27.415,15.504 27.047,14.037 C28.175,13.582 29.339,13.341 30.416,13.341 C30.662,13.341 30.903,13.353 31.138,13.378 C30.688,14.604 29.974,15.974 28.846,17.290 M23.796,20.027 C23.338,19.958 23.053,19.739 22.872,19.318 C22.372,18.161 23.455,16.273 25.219,15.014 C25.660,16.617 26.226,17.973 26.801,19.074 C25.723,19.771 24.619,20.150 23.796,20.027 M36.089,14.451 C35.652,13.368 34.809,12.522 33.634,11.980 C33.827,11.055 33.892,10.304 33.912,9.814 C33.912,9.814 31.892,9.814 31.892,9.814 C31.873,10.186 31.822,10.738 31.688,11.419 C30.112,11.193 28.336,11.412 26.635,12.035 C26.445,10.912 26.329,9.871 26.263,8.946 C32.319,8.598 35.893,7.139 36.058,7.070 C36.058,7.070 35.282,5.209 35.282,5.209 C35.244,5.225 31.862,6.594 26.184,6.930 C26.177,5.541 26.272,4.696 26.277,4.649 C26.277,4.649 24.250,4.649 24.250,4.649 C24.214,5.040 24.155,5.857 24.163,7.002 C24.100,7.002 24.040,7.005 23.976,7.006 C22.166,7.010 20.484,6.871 20.087,6.836 C20.087,6.836 20.087,8.861 20.087,8.861 C20.681,8.913 22.117,9.022 23.750,9.022 C23.829,9.022 23.910,9.022 23.991,9.022 C24.077,9.021 24.157,9.017 24.242,9.016 C24.322,10.167 24.475,11.485 24.743,12.923 C22.062,14.515 19.935,17.605 21.019,20.117 C21.475,21.172 22.353,21.848 23.494,22.020 C23.685,22.050 23.883,22.064 24.086,22.064 C25.239,22.064 26.563,21.597 27.826,20.802 C28.653,22.032 29.320,22.678 29.379,22.734 C29.379,22.734 30.766,21.270 30.766,21.270 C30.753,21.258 30.167,20.688 29.430,19.570 C29.759,19.267 30.080,18.949 30.378,18.602 C31.720,17.037 32.555,15.411 33.075,13.960 C33.531,14.222 33.980,14.617 34.217,15.205 C35.025,17.206 33.858,19.522 32.772,20.526 C32.772,20.526 34.142,22.006 34.142,22.006 C35.949,20.335 37.199,17.203 36.089,14.451 " id="path-2" class="cls-4" fill-rule="evenodd"/>
    <path d="M0.000,28.308 C0.000,20.746 6.135,14.616 13.702,14.616 C21.270,14.616 27.405,20.746 27.405,28.308 C27.405,35.870 21.270,42.000 13.702,42.000 C6.135,42.000 0.000,35.870 0.000,28.308 " id="path-3" class="cls-5" fill-rule="evenodd"/>
    <path d="M16.491,28.838 C16.491,28.838 11.476,28.838 11.476,28.838 C11.476,28.838 13.984,22.503 13.984,22.503 C13.984,22.503 16.491,28.838 16.491,28.838 C16.491,28.838 16.491,28.838 16.491,28.838 ZM15.066,19.165 C15.066,19.165 12.901,19.165 12.901,19.165 C12.901,19.165 6.171,35.344 6.171,35.344 C6.171,35.344 8.925,35.344 8.925,35.344 C8.925,35.344 10.580,31.040 10.580,31.040 C10.580,31.040 17.387,31.040 17.387,31.040 C17.387,31.040 19.042,35.344 19.042,35.344 C19.042,35.344 21.797,35.344 21.797,35.344 C21.797,35.344 15.066,19.165 15.066,19.165 C15.066,19.165 15.066,19.165 15.066,19.165 Z" id="path-4" class="cls-4" fill-rule="evenodd"/>
  </g>
</svg>
