<svg xmlns="http://www.w3.org/2000/svg" xmlns:xlink="http://www.w3.org/1999/xlink" preserveAspectRatio="xMidYMid" width="50" height="33" viewBox="0 0 50 33">
  <defs>
    <style>

      .cls-3 {
        fill: #555555;
      }

      .cls-4 {
        fill: #222222;
      }

      .cls-5 {
        fill: #ee0000;
      }
    </style>
  </defs>
  <g id="tvsvg">
    <rect id="rect-1" class="cls-3" width="50" height="28"/>
    <path d="M50.000,0.000 C50.000,0.000 50.000,28.000 50.000,28.000 C50.000,28.000 0.000,28.000 0.000,28.000 " id="path-1" class="cls-4" fill-rule="evenodd"/>
    <path d="M16.000,33.000 C16.000,33.000 16.000,31.000 16.000,31.000 C16.000,31.000 21.000,31.000 21.000,31.000 C21.000,31.000 21.000,28.000 21.000,28.000 C21.000,28.000 29.000,28.000 29.000,28.000 C29.000,28.000 29.000,31.000 29.000,31.000 C29.000,31.000 34.000,31.000 34.000,31.000 C34.000,31.000 34.000,33.000 34.000,33.000 C34.000,33.000 16.000,33.000 16.000,33.000 Z" id="path-2" class="cls-5" fill-rule="evenodd"/>
  </g>
</svg>
