<svg xmlns="http://www.w3.org/2000/svg" xmlns:xlink="http://www.w3.org/1999/xlink" preserveAspectRatio="xMidYMid" width="51" height="37" viewBox="0 0 51 37">
  <defs>
    <style>

      .cls-3 {
        fill: #ffcc00;
      }

      .cls-4 {
        fill: #6998e1;
      }

      .cls-5 {
        fill: #4b7cc8;
      }
    </style>
  </defs>
  <g id="weathersvg">
    <path d="M28.186,10.561 C27.823,10.156 27.437,9.767 27.016,9.404 C27.016,9.404 32.086,4.502 32.086,4.502 C32.086,4.502 33.270,5.647 33.270,5.647 C33.270,5.647 28.186,10.561 28.186,10.561 ZM18.108,19.901 C18.108,19.901 17.397,19.866 17.397,19.866 C14.604,19.866 12.156,21.268 10.750,23.382 C9.777,21.920 9.206,20.185 9.206,18.317 C9.206,13.140 13.548,8.940 18.905,8.940 C22.003,8.940 24.755,10.350 26.530,12.535 C22.595,13.454 19.417,16.241 18.108,19.901 ZM21.133,6.650 C21.133,6.650 22.903,0.269 22.903,0.269 C22.903,0.269 24.517,0.687 24.517,0.687 C24.517,0.687 22.756,7.040 22.756,7.040 C22.221,6.870 21.679,6.745 21.133,6.650 ZM13.124,0.429 C13.124,0.429 14.742,0.010 14.742,0.010 C14.742,0.010 16.583,6.660 16.583,6.660 C16.034,6.762 15.496,6.902 14.967,7.075 C14.967,7.075 13.124,0.429 13.124,0.429 ZM4.644,5.649 C4.644,5.649 5.826,4.504 5.826,4.504 C5.826,4.504 10.842,9.356 10.842,9.356 C10.424,9.707 10.023,10.080 9.652,10.491 C9.652,10.491 4.644,5.649 4.644,5.649 ZM6.841,16.042 C6.841,16.042 -0.011,14.267 -0.011,14.267 C-0.011,14.267 0.421,12.706 0.421,12.706 C0.421,12.706 7.266,14.478 7.266,14.478 C7.086,14.994 6.946,15.516 6.841,16.042 ZM7.291,22.202 C7.291,22.202 0.422,23.982 0.422,23.982 C0.422,23.982 -0.011,22.420 -0.011,22.420 C-0.011,22.420 6.853,20.641 6.853,20.641 C6.964,21.170 7.108,21.693 7.291,22.202 Z" id="path-1" class="cls-3" fill-rule="evenodd"/>
    <path d="M29.301,12.183 C24.112,12.183 19.714,15.411 18.108,19.901 C18.108,19.901 17.397,19.866 17.397,19.866 C13.689,19.866 10.584,22.335 9.727,25.665 C9.727,25.665 9.516,25.643 9.516,25.643 C6.270,25.643 3.640,28.187 3.640,31.324 C3.640,34.437 6.232,36.958 9.440,36.996 C9.440,36.996 9.430,37.005 9.430,37.005 C9.430,37.005 42.877,37.005 42.877,37.005 C42.877,37.005 42.869,36.990 42.869,36.990 C42.869,36.990 43.111,37.003 43.111,37.003 C47.474,37.003 51.014,33.582 51.014,29.364 C51.014,25.146 47.477,21.724 43.113,21.724 C43.113,21.724 43.113,21.724 43.113,21.724 C42.388,21.724 41.688,21.828 41.019,22.004 C40.194,16.453 35.271,12.183 29.301,12.183 " id="path-2" class="cls-4" fill-rule="evenodd"/>
    <path d="M10.750,23.382 C12.476,25.974 15.480,27.695 18.905,27.695 C24.262,27.695 28.602,23.497 28.602,18.317 C28.602,16.133 27.824,14.129 26.530,12.535 C22.595,13.454 19.417,16.241 18.108,19.901 C18.108,19.901 17.397,19.866 17.397,19.866 C14.604,19.866 12.156,21.268 10.750,23.382 Z" id="path-3" class="cls-5" fill-rule="evenodd"/>
  </g>
</svg>
