<?xml version="1.0" encoding="utf-8"?>
<!-- Generator: Adobe Illustrator 15.0.2, SVG Export Plug-In . SVG Version: 6.00 Build 0)  -->
<!DOCTYPE svg PUBLIC "-//W3C//DTD SVG 1.1//EN" "http://www.w3.org/Graphics/SVG/1.1/DTD/svg11.dtd">
<svg version="1.1" xmlns="http://www.w3.org/2000/svg" xmlns:xlink="http://www.w3.org/1999/xlink" x="0px" y="0px" width="32px"
	 height="32px" viewBox="0 0 32 32" enable-background="new 0 0 32 32" xml:space="preserve">
<g id="Layer_1" display="none">
	<g display="inline">
		<path fill-rule="evenodd" clip-rule="evenodd" d="M16.043,0.884c-8.329,0-15.082,6.752-15.082,15.081
			c0,8.329,6.753,15.082,15.082,15.082c8.327,0,15.08-6.753,15.08-15.082C31.123,7.636,24.37,0.884,16.043,0.884z M16.044,22.015
			c-3.341,0-6.049-2.708-6.049-6.048c0-3.341,2.708-6.049,6.049-6.049c3.34,0,6.049,2.708,6.049,6.049
			C22.093,19.307,19.384,22.015,16.044,22.015z"/>
	</g>
</g>
<g id="Layer_2" display="none">
	<path display="inline" d="M28.14,18.761l-5.246-6.008l-9.447,8.019l-3.822-3.337l-5.725,3.942v1.939H28.14V18.761z M10.058,19.963
		l-1.709,1.853l0.297-1.752l-1.768,0.151l2.589-1.896l2.561,2.126L10.058,19.963z M25.215,19.981l-2.132-2.054l-2.579,3.286
		l0.202-4.277l-2.398,0.768l4.571-4.021l3.831,4.186l-1.966-0.697L25.215,19.981z M12.721,14.898c1.246,0,2.256-1.009,2.256-2.255
		c0-1.246-1.01-2.255-2.256-2.255c-1.245,0-2.255,1.01-2.255,2.255C10.466,13.889,11.476,14.898,12.721,14.898z M0.035,4.866v22.268
		H32V4.866H0.035z M29.137,24.292H2.926V7.706h26.21V24.292z"/>
</g>
<g id="Layer_3" display="none">
	<path display="inline" d="M16.5-0.005c-5.345,0-9.678,4.333-9.678,9.679s4.333,9.679,9.678,9.679l0.063-0.003
		c-1.367,4.4-3.459,10.522-3.708,11.193c-0.227,0.612-0.253,1.462-0.03,1.462c0.054,0,0.124-0.051,0.208-0.167
		c3.132-4.32,12.531-13.526,13.09-21.141c0.035-0.336,0.056-0.678,0.056-1.023C26.179,4.328,21.846-0.005,16.5-0.005z
		 M16.428,13.318c-2.134,0-3.864-1.73-3.864-3.865s1.73-3.865,3.864-3.865c2.134,0,3.865,1.73,3.865,3.865
		S18.562,13.318,16.428,13.318z"/>
</g>
<g id="Layer_4" display="none">
	<path display="inline" d="M12.418,26.897c-1.402,0-2.54,1.137-2.54,2.54c0,1.402,1.138,2.539,2.54,2.539
		c1.403,0,2.542-1.137,2.542-2.539C14.96,28.034,13.821,26.897,12.418,26.897z M30.938,17.787l0.012-12.03L8.929,3.886L8.069-0.032
		L2.968-0.005c0,0-1.657,0.046-1.623,1.487c0.032,1.381,1.968,1.456,1.968,1.456l2.5,0.011l3.456,17.043l-1.36,4.375
		c0,0.893,0.725,1.617,1.618,1.617l16.972-0.062c0.894,0,1.617-0.537,1.617-1.43S27.392,23,26.498,23L11.25,22.98l0.798-3.055
		L30.938,17.787z M25.712,7.824L28.336,8l0.016,3.192h-2.64V7.824z M25.712,12.83h2.647l0.013,2.67l-2.66,0.275V12.83z
		 M20.712,7.488l3.362,0.226v3.478h-3.362V7.488z M20.712,12.83h3.362v3.115l-3.362,0.348V12.83z M15.629,7.147l3.362,0.226v3.819
		h-3.362V7.147z M15.629,12.83h3.362v3.642l-3.362,0.348V12.83z M10.013,6.77l3.979,0.267v4.155h-3.258L10.013,6.77z M11.319,14.784
		L11,12.83h2.991v4.16l-2.14,0.222L11.319,14.784z M23.418,26.897c-1.402,0-2.54,1.137-2.54,2.54c0,1.402,1.138,2.539,2.54,2.539
		c1.403,0,2.542-1.137,2.542-2.539C25.96,28.034,24.821,26.897,23.418,26.897z"/>
</g>
<g id="Layer_5" display="none">
	<path display="inline" d="M11.009,24.963h12.957v-1.996H11.009V24.963z M3.006,24.963h5.961v-1.996H3.006V24.963z M3.006,21.963
		h5.961v-1.996H3.006V21.963z M8.917,10.989H3.005v7.938h5.912V10.989z M23.927,6.926H2.99v2.993h20.937V6.926z M29,12V2H-2v25
		c0,1.656,1.343,3,3,3h30c1.657,0,3-1.344,3-3V12H29z M26,26c0,0.553-0.447,1-1,1H2c-0.553,0-1-0.447-1-1V6c0-0.552,0.447-1,1-1h23
		c0.553,0,1,0.448,1,1V26z M31,26c0,0.553-0.447,1-1,1s-1-0.447-1-1V14h2V26z M11.009,12.963h12.957v-1.996H11.009V12.963z
		 M11.009,15.963h12.957v-1.996H11.009V15.963z M11.009,21.963h12.957v-1.996H11.009V21.963z M11.009,18.963h12.957v-1.996H11.009
		V18.963z"/>
</g>
<g id="Layer_6" display="none">
	<path display="inline" d="M12.009,22.327L22.968,16L12.009,9.672V22.327z M15.969,0.011C7.139,0.011-0.021,7.17-0.021,16
		c0,8.831,7.159,15.99,15.99,15.99c8.83,0,15.989-7.159,15.989-15.99C31.958,7.17,24.799,0.011,15.969,0.011z M15.969,29
		C8.79,29,2.968,23.18,2.968,16c0-7.179,5.821-13,13.001-13c7.179,0,13,5.821,13,13C28.97,23.18,23.148,29,15.969,29z"/>
</g>
<g id="Layer_7" display="none">
	<path display="inline" d="M16.134,14.416c-0.925,0-1.675,0.75-1.675,1.676c0,0.924,0.75,1.674,1.675,1.674
		c0.926,0,1.676-0.75,1.676-1.674C17.81,15.166,17.06,14.416,16.134,14.416z M10.806,14.416c-0.925,0-1.675,0.75-1.675,1.676
		c0,0.924,0.75,1.674,1.675,1.674c0.926,0,1.676-0.75,1.676-1.674C12.481,15.166,11.731,14.416,10.806,14.416z M16,3.85
		c-8.832,0-15.992,5.407-15.992,12.077c0,2.75,1.231,5.277,3.28,7.307L1.432,28.15l5.657-2.195c2.547,1.293,5.612,2.049,8.912,2.049
		c8.833,0,15.992-5.406,15.992-12.077C31.992,9.257,24.833,3.85,16,3.85z M16.116,24.924c-7.204,0-13.044-4.051-13.044-9.045
		c0-4.996,5.84-9.045,13.044-9.045c7.205,0,13.045,4.05,13.045,9.045C29.161,20.873,23.321,24.924,16.116,24.924z M21.479,14.416
		c-0.925,0-1.675,0.75-1.675,1.676c0,0.924,0.75,1.674,1.675,1.674c0.926,0,1.676-0.75,1.676-1.674
		C23.155,15.166,22.405,14.416,21.479,14.416z"/>
</g>
<g id="Layer_8" display="none">
	<path display="inline" d="M22.201,21.076c0,0-0.68-0.018-0.761,1.01c-0.08,1.029,0.25,1.406,0.391,1.211
		C21.972,23.104,22.818,20.876,22.201,21.076z M15.938,0.001C7.115,0.001-0.062,7.178-0.062,16c0,8.822,7.177,15.999,15.999,15.999
		c8.821,0,15.999-7.177,15.999-15.999C31.937,7.178,24.759,0.001,15.938,0.001z M3.335,18.814C3.133,17.907,3.018,16.967,3.018,16
		c0-0.361,0.025-0.716,0.054-1.07c0.277,0.678,0.834,1.522,1.333,2.041C4.919,17.504,3.888,18.072,3.335,18.814z M3.983,20.885
		c0.385,0.254,0.836,0.497,1.263,0.758c1.142,0.699,0.705,1.142,0.947,2.139c0.076,0.311,0.269,0.761,0.509,1.235
		C5.548,23.835,4.62,22.436,3.983,20.885z M15.938,28.92c-2.697,0-5.201-0.833-7.275-2.252c-0.071-0.556-0.2-1.327,0.083-1.908
		c0.517-1.057,0.967-3.197,0.898-4.707c-0.069-1.511-1.255-1-2.049-1.691c-0.793-0.691-1.93-1.773-2.662-2.041
		c-0.731-0.268-1.74-1.463-1.293-1.26c0.447,0.203-0.005-0.561-0.296-0.938c-0.084-0.109-0.116-0.207-0.126-0.303
		c0.07-0.409,0.159-0.81,0.266-1.205c0.239-0.402,0.824-0.663,1.402-1.247c0.711-0.718,0.858-1.164,1.175-1.17
		c0.317-0.007,1.372-0.368,2.202-0.904s0.432-0.669,0.057-1.209c-0.376-0.54-0.186-0.948,0.624-1.677
		c0.589-0.53,0.392-1.03,0.097-1.313c0.562-0.356,1.147-0.676,1.763-0.944c-0.003,0.074-0.008,0.15-0.017,0.246
		c-0.089,0.922-0.631,2.392,0.5,1.635c1.131-0.757,1.589-1.035,2.058-1.514c0.357-0.365,1.054-0.887,1.181-1.356
		c0.465-0.051,0.935-0.081,1.413-0.081c1.949,0,3.791,0.446,5.45,1.223c-0.4,0.123-0.814,0.25-1.27,0.388
		c-1.126,0.34-1.325-0.774-2.065-1.093c-0.741-0.319-0.816,0.715-1.393,1.337c-0.577,0.622-0.515,1.125-0.461,1.691
		c0.053,0.566-0.511,0.091-1.25,0.145c-0.739,0.055-0.456,0.987,0.02,1.502s0.389,1.153,0.389,1.153s-0.33,0.032-1.009,0.296
		c-0.679,0.265-0.161,1.388-0.161,1.388s0.453,0.043,0.042,0.194c-0.411,0.15-0.65,1.363-1.047,1.992
		c-0.397,0.629-0.945,0.498-1.037,2.362c-0.091,1.865,3.065,1.815,4.042,2.077c0.977,0.261,0.292,3.345,0.369,4.465
		c0.077,1.119,0.642,2.957,1.489,3.429s1.431-0.937,1.855-1.604c0.426-0.667,1.117-2.248,1.132-2.788
		c0.015-0.539,1.202-2.793,1.793-3.616c0.592-0.823,0.017-1.099-0.317-1.538c-0.334-0.44,0.929-1.4,1.677-2.26
		s1.013-0.189,1.565,0.154c0.554,0.343,0.953,2.162,1.349,2.602c0.396,0.44,1.031-1.584,1.531-2.225
		c0.034-0.043,0.065-0.053,0.099-0.077c0.076,0.565,0.129,1.138,0.129,1.724C28.857,23.124,23.062,28.92,15.938,28.92z
		 M19.478,11.235c-0.731,0.429-1.498,0.869-2.142,0.438c-0.645-0.431-1.783-1.3-1.783-1.3s0.053-0.832,0.642-0.629
		s0.672,1.351,1.022,0.868c0.35-0.484,0.412-1.065,0.845-0.617C18.494,10.443,20.209,10.806,19.478,11.235z"/>
</g>
<g id="Layer_9">
	<path d="M25.041,8.059H7.12v1.97h17.921V8.059z M2.001,2.026v27.949h27.997V2.026H2.001z M27.127,27.039h-4.042v-8.688h-2.03v1.688
		h-4.041v-1.688h-1.959v8.688h-4.042v-8.688H9.055v8.688H5.013v-11h0.001v-10h22.113V27.039z M20.032,11.999H7.12v1.971h12.913
		V11.999z"/>
</g>
<g id="Layer_10" display="none">
	<g display="inline">
		<path d="M33,2H6.075v5.223c-3.241,1.185-5.65,4.11-6.032,7.717l-0.121,1.144h6.066c0.004,0.399,0,13.917,0,13.917H33V2z M7,9.281
			c0.956-0.688,2.757-0.633,2.778-0.632C7.696,9.931,6.14,13.376,6.2,12.982h0.875H4C4.389,11.615,6,10,7,9.281z M22.293,14.014
			h-4.012c-0.438-2.098-1.574-3.915-3.148-5.219c1.771,0,3.072,0.321,4.647,1.567C21.244,11.52,22.044,13.085,22.293,14.014z
			 M8.145,15.695l0.054-0.544c0.076-0.76,0.266-1.485,0.547-2.159c0.227-0.509,0.508-0.99,0.845-1.43
			c0.003-0.004,0.006-0.009,0.01-0.013c0.057-0.074,0.118-0.146,0.178-0.217c0.689-0.807,1.553-1.46,2.533-1.902
			c2.197,1.048,3.785,3.167,4.056,5.727l0.098,0.926h6.053c-0.05,3.927-3.273,7.105-7.231,7.105c-3.603,0-6.598-2.635-7.144-6.069
			V15.695z M30,26.944H8.987V23c2.055,2,3.433,2.258,6.301,2.258c5.099,0,9.251-4.107,9.302-9.175h0.021l-0.021-0.202
			c-0.019-1.629-0.462-3.156-1.224-4.481c-1.596-2.854-4.649-4.746-8.128-4.746h-5.062v0.003c-0.037,0-0.073,0.002-0.109,0.003
			C9.984,6.661,9.902,6.662,9.821,6.666C9.706,6.671,9.591,6.68,9.477,6.69C9.43,6.694,9.384,6.698,9.338,6.703
			C9.273,6.71,9.064,6.713,9,6.722V5h21V26.944z"/>
	</g>
</g>
<g id="Layer_11" display="none">
	<path display="inline" d="M10.892,6.744L9.923,1.605L7.466,2.242L8.96,7.191C9.347,7.062,10.491,6.821,10.892,6.744z M5.355,19.635
		c0.353-0.594,1.413-1.526,1.924-1.984c-1.028-1.797-0.27-3.544,0.613-4.684c0.72-0.93,3.194-2.272,5.117-1.318
		c0.313,0.156,0.801,0.613,1.055,0.835c0.583-0.332,1.993-1.095,2.645-1.299c-0.491-0.549-1.072-1.033-1.745-1.422
		c-3.398-1.962-7.744-0.798-9.706,2.601C3.909,14.7,4.039,17.484,5.355,19.635z M17.137,3.151l-2.499-0.845l-1.311,4.778
		c0.398,0.073,1.455,0.502,1.846,0.632L17.137,3.151z M18.494,10.276l4.13-3.271l-1.903-1.985l-3.76,3.872
		C17.271,9.164,18.229,9.971,18.494,10.276z M3.245,11.883l-5.079-1.42l-0.596,2.37l5.006,1.342
		C2.653,13.777,3.111,12.272,3.245,11.883z M29.277,18.847c-0.513,0-1.006,0.073-1.477,0.203c-0.581-4.046-4.052-7.158-8.258-7.158
		c-3.657,0-6.757,2.354-7.889,5.625c-0.166-0.015-0.332-0.024-0.501-0.024c-2.614,0-4.801,1.801-5.405,4.228
		c-0.051-0.002-0.099-0.016-0.15-0.016c-2.287,0-4.141,1.854-4.141,4.141c0,2.269,1.826,4.106,4.088,4.136l-0.007,0.006h23.574
		l-0.006-0.011c0.057,0.002,0.113,0.009,0.171,0.009c3.075,0,5.568-2.493,5.568-5.569C34.846,21.34,32.353,18.847,29.277,18.847z
		 M28.449,27.109c-0.12,0-0.234-0.021-0.351-0.035H6.825c-0.092,0.016-0.186,0.028-0.283,0.028c-0.919,0-1.664-0.745-1.664-1.664
		s0.745-1.664,1.664-1.664c1.204,0,2.613,0.794,2.613,0.794c-0.316-0.479-0.502-1.051-0.502-1.667c0-1.675,1.358-3.033,3.033-3.033
		c0.858,0,1.63,0.36,2.182,0.934c-0.015-0.167-0.025-0.335-0.025-0.505c0-3.086,2.502-5.588,5.588-5.588
		c3.086,0,5.588,2.502,5.588,5.588c0,2.012,0.485,3.367,0.485,3.367c0.22-1.436,1.449-2.538,2.946-2.538
		c1.652,0,2.991,1.339,2.991,2.991S30.102,27.109,28.449,27.109z M6.348,8.311l-3.55-3.976L0.969,6.321l3.66,3.659
		C4.9,9.671,6.042,8.576,6.348,8.311z M2.312,16.866l-5.089,1.016l0.719,2.521l4.951-1.337C2.761,18.68,2.393,17.267,2.312,16.866z"
		/>
</g>
<g id="Layer_12" display="none">
	<path display="inline" d="M27.972,0.937H15.016V14.73l-2.508-2.508L10,14.73V0.937H8.98c-2.261,0-4.094,1.833-4.094,4.094v21.263
		l0.012-0.002c0.007,2.592,2.116,4.697,4.709,4.697h17.469c0.494,0,0.896-0.401,0.896-0.896V0.937z M23.776,28.979H9.676
		c-1.647,0-2.987-1.34-2.987-2.987c0-1.646,1.34-2.987,2.987-2.987h14.101c-0.651,0.822-1.04,1.86-1.04,2.987
		S23.125,28.156,23.776,28.979z"/>
</g>
</svg>
