<?xml version="1.0" encoding="utf-8"?>
<!-- Generator: Adobe Illustrator 16.0.0, SVG Export Plug-In . SVG Version: 6.00 Build 0)  -->
<!DOCTYPE svg PUBLIC "-//W3C//DTD SVG 1.1//EN" "http://www.w3.org/Graphics/SVG/1.1/DTD/svg11.dtd">
<svg version="1.1" id="Layer_1" xmlns="http://www.w3.org/2000/svg" xmlns:xlink="http://www.w3.org/1999/xlink" x="0px" y="0px"
	 width="32px" height="32px" viewBox="0 0 32 32" enable-background="new 0 0 32 32" xml:space="preserve">
<path d="M31.009,15.772h0.962c-0.011-0.844-0.088-1.672-0.225-2.476l-0.952,0.175l-0.079-0.434l0.949-0.178
	c-0.178-0.895-0.433-1.763-0.753-2.599l-0.899,0.359l-0.164-0.409l0.899-0.362c-0.361-0.859-0.793-1.682-1.29-2.458L28.65,7.924
	l-0.242-0.372l0.805-0.53c-0.524-0.772-1.116-1.494-1.764-2.162l-0.683,0.683l-0.313-0.312l0.682-0.683
	c-0.593-0.578-1.233-1.111-1.91-1.59l-0.547,0.796l-0.365-0.251l0.547-0.797c-0.747-0.5-1.542-0.938-2.371-1.308l-0.382,0.894
	L21.7,2.119l0.38-0.892c-0.848-0.352-1.734-0.631-2.648-0.83l-0.195,0.952L18.803,1.26l0.196-0.952
	c-0.901-0.17-1.83-0.267-2.78-0.279v0.97H15.78v-0.97c-0.845,0.012-1.672,0.087-2.479,0.224l0.178,0.958l-0.433,0.081l-0.179-0.957
	C11.97,0.512,11.1,0.767,10.266,1.088l0.363,0.906L10.216,2.16L9.855,1.251C8.994,1.61,8.17,2.043,7.394,2.542l0.537,0.815
	L7.562,3.601L7.026,2.786C6.252,3.31,5.528,3.903,4.864,4.552l0.689,0.689L5.238,5.553L4.549,4.864
	C3.972,5.459,3.438,6.099,2.958,6.778l0.804,0.553L3.514,7.696L2.708,7.143C2.207,7.892,1.77,8.685,1.398,9.515L2.3,9.902
	l-0.171,0.406L1.227,9.922c-0.353,0.85-0.631,1.736-0.83,2.653l0.961,0.196l-0.09,0.434L0.31,13.007
	c-0.172,0.903-0.269,1.83-0.281,2.779h0.979v0.442H0.029c0.012,0.846,0.09,1.672,0.228,2.479l0.963-0.178l0.081,0.435l-0.964,0.18
	c0.178,0.896,0.434,1.767,0.755,2.603l0.911-0.364l0.165,0.407l-0.911,0.365c0.359,0.86,0.792,1.685,1.292,2.461l0.817-0.54
	l0.244,0.372l-0.818,0.536c0.527,0.773,1.117,1.496,1.769,2.162l0.689-0.689l0.312,0.312l-0.689,0.689
	c0.595,0.58,1.235,1.112,1.915,1.592l0.553-0.805l0.365,0.252l-0.552,0.802c0.749,0.501,1.541,0.938,2.37,1.306l0.387-0.898
	l0.406,0.175l-0.384,0.898c0.849,0.35,1.735,0.628,2.652,0.827l0.196-0.954l0.433,0.09l-0.196,0.951
	c0.901,0.172,1.828,0.266,2.775,0.277v-0.97h0.442v0.97c0.845-0.012,1.671-0.091,2.479-0.227l-0.178-0.955l0.434-0.082l0.178,0.956
	c0.896-0.179,1.768-0.435,2.602-0.755l-0.362-0.902l0.41-0.165l0.362,0.902c0.859-0.36,1.681-0.794,2.458-1.291l-0.534-0.81
	l0.37-0.242l0.53,0.807c0.773-0.525,1.496-1.117,2.162-1.765l-0.684-0.684l0.312-0.312l0.685,0.68
	c0.577-0.593,1.11-1.232,1.589-1.912l-0.798-0.546l0.254-0.366l0.794,0.547c0.501-0.746,0.936-1.542,1.305-2.371l-0.89-0.381
	l0.176-0.405l0.888,0.38c0.35-0.85,0.629-1.734,0.827-2.65l-0.945-0.194l0.088-0.432l0.947,0.194
	c0.171-0.901,0.266-1.83,0.276-2.777h-0.962V15.772L31.009,15.772z M16,28.117c-6.692,0-12.117-5.424-12.117-12.115
	C3.883,9.308,9.307,3.883,16,3.883c6.694,0,12.121,5.424,12.121,12.119C28.12,22.693,22.693,28.117,16,28.117z"/>
<path d="M16.001,5.196C10.036,5.196,5.198,10.034,5.198,16c0,5.966,4.838,10.804,10.804,10.804c5.964,0,10.801-4.838,10.801-10.804
	C26.803,10.034,21.966,5.196,16.001,5.196z M17.596,7.352c0.176-0.285,0.552-0.515,1.533-0.177c0.98,0.341,1.673,0.759,2.222,1.14
	c0.546,0.381,1.783,1.432,2.137,2.087c0.361,0.653,0.439,0.97,0.262,1.164c-0.35,0.377-3.478,1.343-3.846,1.385
	c-0.373,0.042-0.994,0.165-1.542-0.215c-0.286-0.202-0.649-0.603-0.712-1.523C17.583,10.292,17.42,7.634,17.596,7.352z
	 M18.956,15.96c-0.425,0.126-0.87-0.116-0.993-0.539c-0.124-0.422,0.116-0.867,0.54-0.992c0.422-0.124,0.867,0.118,0.991,0.54
	C19.62,15.392,19.377,15.836,18.956,15.96z M17.15,17.69c0.365-0.248,0.861-0.153,1.112,0.212c0.247,0.364,0.154,0.862-0.212,1.109
	c-0.363,0.249-0.86,0.155-1.108-0.211C16.693,18.436,16.786,17.94,17.15,17.69z M16,12.356c0.442,0,0.799,0.357,0.799,0.799
	S16.441,13.954,16,13.954c-0.439,0-0.798-0.357-0.798-0.798S15.56,12.356,16,12.356z M14.913,18.748
	c-0.266,0.35-0.767,0.42-1.118,0.152c-0.352-0.267-0.419-0.769-0.153-1.119c0.266-0.353,0.767-0.42,1.119-0.154
	C15.112,17.896,15.179,18.395,14.913,18.748z M13.047,15.91c-0.419-0.133-0.656-0.58-0.522-1.001c0.131-0.42,0.58-0.655,1.001-0.523
	c0.421,0.131,0.655,0.58,0.524,1.002C13.916,15.808,13.47,16.041,13.047,15.91z M8.544,10.335c0.624-0.83,1.232-1.361,1.764-1.767
	c0.526-0.406,1.905-1.26,2.637-1.4c0.733-0.14,1.057-0.123,1.187,0.107c0.252,0.446,0.219,3.72,0.146,4.086
	c-0.073,0.365-0.144,0.993-0.674,1.4c-0.277,0.214-0.771,0.435-1.669,0.217c-0.895-0.221-3.477-0.876-3.693-1.129
	C8.027,11.596,7.921,11.167,8.544,10.335z M9.767,22.225c-0.305,0.131-0.745,0.109-1.358-0.729c-0.616-0.836-0.95-1.576-1.181-2.199
	c-0.233-0.623-0.655-2.19-0.577-2.931c0.082-0.742,0.193-1.048,0.453-1.106c0.499-0.113,3.622,0.87,3.951,1.047
	c0.327,0.179,0.909,0.428,1.143,1.052c0.122,0.329,0.193,0.863-0.278,1.659C11.449,19.812,10.073,22.09,9.767,22.225z
	 M18.474,25.046c-1,0.279-1.807,0.332-2.472,0.332c-0.667,0-2.282-0.158-2.949-0.489c-0.664-0.335-0.913-0.548-0.876-0.808
	c0.07-0.51,2.087-3.09,2.369-3.335c0.283-0.245,0.719-0.702,1.387-0.702c0.35,0,0.875,0.126,1.455,0.843
	c0.579,0.721,2.229,2.807,2.246,3.141C19.65,24.36,19.477,24.766,18.474,25.046z M23.514,21.579
	c-0.522,0.53-0.802,0.698-1.036,0.583c-0.465-0.227-2.285-2.948-2.43-3.292c-0.145-0.342-0.44-0.902-0.235-1.535
	c0.109-0.335,0.395-0.797,1.258-1.122c0.86-0.324,3.36-1.241,3.683-1.152c0.323,0.087,0.65,0.379,0.606,1.417
	c-0.047,1.036-0.248,1.82-0.455,2.452C24.693,19.566,24.04,21.049,23.514,21.579z"/>
</svg>
