<?xml version="1.0" encoding="utf-8"?>
<!-- Generator: Adobe Illustrator 16.0.0, SVG Export Plug-In . SVG Version: 6.00 Build 0)  -->
<!DOCTYPE svg PUBLIC "-//W3C//DTD SVG 1.1//EN" "http://www.w3.org/Graphics/SVG/1.1/DTD/svg11.dtd">
<svg version="1.1" id="Layer_1" xmlns="http://www.w3.org/2000/svg" xmlns:xlink="http://www.w3.org/1999/xlink" x="0px" y="0px"
	 width="34px" height="34px" viewBox="0 0 34 34" enable-background="new 0 0 34 34" xml:space="preserve">
<g>
	<path fill-rule="evenodd" clip-rule="evenodd" fill="#DBDCDD" d="M17.137,0c8.738,0,15.821,7.083,15.821,15.821
		c0,8.737-7.083,15.82-15.821,15.82c-8.737,0-15.82-7.083-15.82-15.82C1.317,7.083,8.4,0,17.137,0z"/>
	<g>
		<path fill-rule="evenodd" clip-rule="evenodd" fill="#E6E7E8" d="M17.137,0.315c8.565,0,15.506,6.942,15.506,15.506
			c0,8.564-6.941,15.506-15.506,15.506c-8.563,0-15.505-6.941-15.505-15.506C1.632,7.258,8.574,0.315,17.137,0.315z"/>
		<path fill-rule="evenodd" clip-rule="evenodd" fill="#E7E8E9" d="M17.018,0.513c8.408,0,15.223,6.815,15.223,15.221
			c0,8.408-6.814,15.221-15.223,15.221c-8.406,0-15.221-6.813-15.221-15.221C1.797,7.328,8.612,0.513,17.018,0.513z"/>
		<path fill-rule="evenodd" clip-rule="evenodd" fill="#E8E9EA" d="M16.898,0.71c8.251,0,14.938,6.688,14.938,14.937
			c0,8.25-6.687,14.937-14.938,14.937c-8.249,0-14.936-6.687-14.936-14.937C1.962,7.398,8.649,0.71,16.898,0.71z"/>
		<path fill-rule="evenodd" clip-rule="evenodd" fill="#EAEAEB" d="M16.779,0.908c8.094,0,14.653,6.56,14.653,14.652
			c0,8.094-6.56,14.653-14.653,14.653c-8.092,0-14.652-6.56-14.652-14.653C2.127,7.468,8.688,0.908,16.779,0.908z"/>
		<path fill-rule="evenodd" clip-rule="evenodd" fill="#EBECEC" d="M16.66,1.105c7.936,0,14.368,6.433,14.368,14.368
			c0,7.936-6.433,14.368-14.368,14.368c-7.935,0-14.368-6.432-14.368-14.368C2.292,7.538,8.726,1.105,16.66,1.105z"/>
		<path fill-rule="evenodd" clip-rule="evenodd" fill="#ECEDED" d="M16.541,1.302c7.778,0,14.084,6.306,14.084,14.083
			c0,7.778-6.306,14.084-14.084,14.084c-7.778,0-14.083-6.306-14.083-14.084C2.458,7.608,8.763,1.302,16.541,1.302z"/>
		<path fill-rule="evenodd" clip-rule="evenodd" fill="#EDEEEF" d="M16.422,1.5c7.621,0,13.799,6.178,13.799,13.799
			c0,7.621-6.178,13.799-13.799,13.799S2.623,22.92,2.623,15.299C2.623,7.678,8.801,1.5,16.422,1.5z"/>
		<path fill-rule="evenodd" clip-rule="evenodd" fill="#EEEFF0" d="M16.302,1.697c7.464,0,13.514,6.051,13.514,13.515
			s-6.05,13.515-13.514,13.515c-7.463,0-13.514-6.051-13.514-13.515S8.839,1.697,16.302,1.697z"/>
		<path fill-rule="evenodd" clip-rule="evenodd" fill="#F0F0F1" d="M16.183,1.895c7.308,0,13.23,5.924,13.23,13.23
			s-5.923,13.23-13.23,13.23c-7.306,0-13.229-5.924-13.229-13.23S8.876,1.895,16.183,1.895z"/>
		<path fill-rule="evenodd" clip-rule="evenodd" fill="#F1F1F2" d="M16.063,2.092c7.15,0,12.946,5.796,12.946,12.945
			c0,7.15-5.796,12.946-12.946,12.946c-7.149,0-12.945-5.796-12.945-12.946C3.118,7.889,8.914,2.092,16.063,2.092z"/>
		<path fill-rule="evenodd" clip-rule="evenodd" fill="#F2F2F3" d="M15.944,2.29c6.993,0,12.661,5.668,12.661,12.661
			s-5.668,12.662-12.661,12.662c-6.992,0-12.661-5.669-12.661-12.662S8.952,2.29,15.944,2.29z"/>
		<path fill-rule="evenodd" clip-rule="evenodd" fill="#F3F4F4" d="M15.825,2.487c6.835,0,12.377,5.541,12.377,12.376
			c0,6.836-5.542,12.377-12.377,12.377S3.448,21.699,3.448,14.863C3.448,8.028,8.99,2.487,15.825,2.487z"/>
		<path fill-rule="evenodd" clip-rule="evenodd" fill="#F4F5F5" d="M15.706,2.685c6.678,0,12.093,5.414,12.093,12.092
			c0,6.679-5.415,12.093-12.093,12.093c-6.678,0-12.093-5.414-12.093-12.093C3.613,8.099,9.028,2.685,15.706,2.685z"/>
		<path fill-rule="evenodd" clip-rule="evenodd" fill="#F5F6F6" d="M15.586,2.882c6.521,0,11.808,5.287,11.808,11.807
			c0,6.522-5.287,11.808-11.808,11.808S3.778,21.211,3.778,14.689C3.778,8.168,9.065,2.882,15.586,2.882z"/>
		<path fill-rule="evenodd" clip-rule="evenodd" fill="#F7F7F7" d="M15.467,3.079c6.364,0,11.523,5.159,11.523,11.523
			s-5.159,11.523-11.523,11.523S3.944,20.967,3.944,14.603S9.104,3.079,15.467,3.079z"/>
		<path fill-rule="evenodd" clip-rule="evenodd" fill="#F8F8F8" d="M15.348,3.277c6.207,0,11.239,5.032,11.239,11.238
			c0,6.208-5.032,11.24-11.239,11.24c-6.208,0-11.239-5.032-11.239-11.24C4.109,8.309,9.141,3.277,15.348,3.277z"/>
		<path fill-rule="evenodd" clip-rule="evenodd" fill="#F9F9FA" d="M15.229,3.475c6.05,0,10.954,4.904,10.954,10.953
			c0,6.05-4.904,10.955-10.954,10.955S4.274,20.478,4.274,14.428C4.274,8.379,9.179,3.475,15.229,3.475z"/>
		<path fill-rule="evenodd" clip-rule="evenodd" fill="#FAFAFB" d="M15.109,3.671c5.893,0,10.67,4.778,10.67,10.669
			c0,5.894-4.777,10.671-10.67,10.671c-5.893,0-10.67-4.777-10.67-10.671C4.439,8.449,9.216,3.671,15.109,3.671z"/>
		<path fill-rule="evenodd" clip-rule="evenodd" fill="#FBFCFC" d="M14.99,3.869c5.734,0,10.386,4.649,10.386,10.385
			S20.725,24.64,14.99,24.64c-5.736,0-10.386-4.65-10.386-10.386S9.254,3.869,14.99,3.869z"/>
		<path fill-rule="evenodd" clip-rule="evenodd" fill="#FDFDFD" d="M14.871,4.067c5.577,0,10.101,4.522,10.101,10.1
			s-4.523,10.102-10.101,10.102c-5.579,0-10.102-4.523-10.102-10.102S9.292,4.067,14.871,4.067z"/>
		<path fill-rule="evenodd" clip-rule="evenodd" fill="#FEFEFE" d="M14.751,4.264c5.42,0,9.817,4.395,9.817,9.816
			c0,5.421-4.396,9.816-9.817,9.816c-5.421,0-9.816-4.396-9.816-9.816C4.935,8.659,9.33,4.264,14.751,4.264z"/>
		<path fill-rule="evenodd" clip-rule="evenodd" fill="#FFFFFF" d="M14.632,4.461c5.263,0,9.532,4.268,9.532,9.531
			c0,5.264-4.269,9.533-9.532,9.533c-5.265,0-9.532-4.269-9.532-9.533C5.1,8.729,9.368,4.461,14.632,4.461z"/>
	</g>
	<path fill-rule="evenodd" clip-rule="evenodd" fill="#ED3024" d="M31.445,9.037c-2.861-0.717-9.859,3.863-13.986,9.137
		c0.33,11.159,2.074,12.17,3.919,12.95c-0.501,0.501-2.195,1.753-4.121,1.753c-3.191,0-5.519-2.165-6.551-5.312
		c-0.838-2.55-1.211-5.576-1.313-9.438c-0.322-0.301-6.073-4.249-6.707-8.746c-0.594-5.564,4.018-5.93,4.722-6.034
		c-0.184,3.5,5.787,7.655,5.787,7.655s2.784-2.932,6.193-5.166c5.979-3.918,9.468-2.747,10.968-1.082
		C31.771,6.329,31.484,8.581,31.445,9.037z"/>
	<g>
		<path fill="#EE4023" d="M17.413,18.181c0,0-2.712,0.503-4.411-1.093c1.417,2.144,2.686,2.248,4.411,2.213
			C17.396,18.613,17.413,18.181,17.413,18.181z"/>
		<path fill="#EE3F23" d="M17.417,18.281c0,0-2.683,0.49-4.337-1.075c1.37,2.089,2.649,2.195,4.337,2.161
			C17.4,18.7,17.417,18.281,17.417,18.281z"/>
		<path fill="#EE3E23" d="M17.419,18.383c0,0-2.653,0.477-4.262-1.059c1.322,2.035,2.611,2.142,4.262,2.11
			C17.403,18.788,17.419,18.383,17.419,18.383z"/>
		<path fill="#EE3E23" d="M17.423,18.483c0,0-2.624,0.464-4.188-1.042c1.275,1.981,2.574,2.089,4.188,2.057
			C17.407,18.876,17.423,18.483,17.423,18.483z"/>
		<path fill="#EE3D23" d="M17.427,18.584c0,0-2.595,0.451-4.114-1.024c1.228,1.927,2.537,2.037,4.114,2.007
			C17.411,18.963,17.427,18.584,17.427,18.584z"/>
		<path fill="#EE3C23" d="M17.43,18.685c0,0-2.564,0.438-4.039-1.007c1.181,1.872,2.499,1.984,4.039,1.954
			C17.415,19.051,17.43,18.685,17.43,18.685z"/>
		<path fill="#EE3B23" d="M17.433,18.785c0,0-2.535,0.426-3.965-0.989c1.134,1.817,2.462,1.931,3.965,1.902
			C17.418,19.138,17.433,18.785,17.433,18.785z"/>
		<path fill="#EE3B23" d="M17.437,18.887c0,0-2.506,0.412-3.891-0.973c1.086,1.763,2.424,1.878,3.891,1.851
			C17.422,19.225,17.437,18.887,17.437,18.887z"/>
		<path fill="#EE3A23" d="M17.44,18.987c0,0-2.477,0.399-3.817-0.956c1.04,1.709,2.387,1.826,3.817,1.799
			C17.426,19.312,17.44,18.987,17.44,18.987z"/>
		<path fill="#EE3923" d="M17.443,19.088c0,0-2.448,0.387-3.743-0.938c0.993,1.654,2.351,1.772,3.743,1.747
			C17.429,19.4,17.443,19.088,17.443,19.088z"/>
		<path fill="#EE3823" d="M17.446,19.189c0,0-2.418,0.373-3.668-0.922c0.945,1.6,2.312,1.719,3.668,1.695
			C17.433,19.487,17.446,19.189,17.446,19.189z"/>
		<path fill="#ED3824" d="M17.45,19.289c0,0-2.389,0.361-3.595-0.904c0.898,1.547,2.275,1.668,3.595,1.645
			C17.437,19.574,17.45,19.289,17.45,19.289z"/>
		<path fill="#ED3724" d="M17.453,19.391c0,0-2.359,0.348-3.52-0.888c0.851,1.492,2.238,1.614,3.52,1.593
			C17.44,19.662,17.453,19.391,17.453,19.391z"/>
		<path fill="#ED3624" d="M17.457,19.491c0,0-2.33,0.336-3.446-0.87c0.804,1.438,2.201,1.562,3.446,1.541
			C17.444,19.75,17.457,19.491,17.457,19.491z"/>
		<path fill="#ED3524" d="M17.46,19.592c0,0-2.3,0.323-3.371-0.853c0.756,1.383,2.163,1.509,3.371,1.489
			C17.447,19.837,17.46,19.592,17.46,19.592z"/>
		<path fill="#ED3524" d="M17.463,19.692c0,0-2.271,0.31-3.297-0.835c0.709,1.328,2.126,1.455,3.297,1.437
			C17.451,19.925,17.463,19.692,17.463,19.692z"/>
		<path fill="#ED3424" d="M17.467,19.794c0,0-2.242,0.297-3.223-0.819c0.663,1.274,2.089,1.403,3.223,1.386
			C17.455,20.012,17.467,19.794,17.467,19.794z"/>
		<path fill="#ED3324" d="M17.47,19.895c0,0-2.212,0.284-3.149-0.802c0.615,1.22,2.051,1.351,3.149,1.334
			C17.459,20.1,17.47,19.895,17.47,19.895z"/>
		<path fill="#ED3224" d="M17.473,19.995c0,0-2.183,0.271-3.074-0.784c0.568,1.166,2.014,1.297,3.074,1.282
			C17.462,20.187,17.473,19.995,17.473,19.995z"/>
		<path fill="#ED3224" d="M17.477,20.097c0,0-2.153,0.258-3-0.768c0.521,1.111,1.977,1.244,3,1.229
			C17.466,20.274,17.477,20.097,17.477,20.097z"/>
		<path fill="#ED3124" d="M17.48,20.197c0,0-2.124,0.245-2.926-0.751c0.474,1.058,1.939,1.191,2.926,1.179
			C17.47,20.361,17.48,20.197,17.48,20.197z"/>
		<path fill="#ED3024" d="M17.483,20.298c0,0-2.095,0.232-2.852-0.733c0.427,1.003,1.902,1.139,2.852,1.127
			C17.474,20.449,17.483,20.298,17.483,20.298z"/>
	</g>
	<g>
		<path fill="#EE4023" d="M13.201,11.042c0,0-1.583,1.839-1.258,4.147c-0.935-2.394-0.681-3.403,0.343-4.792
			C12.837,10.807,13.201,11.042,13.201,11.042z"/>
		<path fill="#EE3F23" d="M13.12,10.981c0,0-1.574,1.827-1.248,4.081c-0.917-2.323-0.641-3.346,0.361-4.706
			C12.768,10.753,13.12,10.981,13.12,10.981z"/>
		<path fill="#EE3E23" d="M13.04,10.92c0,0-1.565,1.814-1.238,4.015c-0.9-2.254-0.6-3.29,0.379-4.62
			C12.698,10.7,13.04,10.92,13.04,10.92z"/>
		<path fill="#EE3E23" d="M12.959,10.859c0,0-1.557,1.802-1.228,3.948c-0.883-2.184-0.56-3.232,0.398-4.534
			C12.629,10.646,12.959,10.859,12.959,10.859z"/>
		<path fill="#EE3D23" d="M12.879,10.798c0,0-1.548,1.79-1.217,3.882c-0.866-2.114-0.52-3.176,0.416-4.447
			C12.56,10.593,12.879,10.798,12.879,10.798z"/>
		<path fill="#EE3C23" d="M12.798,10.738c0,0-1.539,1.777-1.207,3.815c-0.849-2.044-0.479-3.119,0.433-4.361
			C12.491,10.54,12.798,10.738,12.798,10.738z"/>
		<path fill="#EE3B23" d="M12.718,10.677c0,0-1.529,1.765-1.197,3.75c-0.832-1.976-0.438-3.063,0.452-4.275
			C12.421,10.486,12.718,10.677,12.718,10.677z"/>
		<path fill="#EE3B23" d="M12.638,10.616c0,0-1.521,1.752-1.187,3.683c-0.814-1.904-0.398-3.006,0.47-4.188
			C12.352,10.433,12.638,10.616,12.638,10.616z"/>
		<path fill="#EE3A23" d="M12.557,10.556c0,0-1.513,1.74-1.176,3.616c-0.797-1.835-0.358-2.949,0.488-4.103
			C12.282,10.379,12.557,10.556,12.557,10.556z"/>
		<path fill="#EE3923" d="M12.477,10.494c0,0-1.503,1.728-1.167,3.551c-0.779-1.766-0.318-2.893,0.506-4.017
			C12.213,10.326,12.477,10.494,12.477,10.494z"/>
		<path fill="#EE3823" d="M12.396,10.434c0,0-1.495,1.715-1.156,3.484c-0.763-1.696-0.278-2.835,0.523-3.93
			C12.144,10.272,12.396,10.434,12.396,10.434z"/>
		<path fill="#ED3824" d="M12.316,10.373c0,0-1.486,1.702-1.146,3.417c-0.745-1.625-0.238-2.778,0.542-3.843
			C12.075,10.219,12.316,10.373,12.316,10.373z"/>
		<path fill="#ED3724" d="M12.235,10.312c0,0-1.477,1.69-1.136,3.351c-0.729-1.556-0.197-2.722,0.56-3.757
			C12.006,10.166,12.235,10.312,12.235,10.312z"/>
		<path fill="#ED3624" d="M12.155,10.251c0,0-1.469,1.678-1.126,3.285c-0.711-1.486-0.157-2.665,0.578-3.671
			C11.936,10.112,12.155,10.251,12.155,10.251z"/>
		<path fill="#ED3524" d="M12.074,10.19c0,0-1.459,1.666-1.115,3.218c-0.694-1.416-0.116-2.608,0.597-3.584
			C11.867,10.059,12.074,10.19,12.074,10.19z"/>
		<path fill="#ED3524" d="M11.994,10.129c0,0-1.45,1.653-1.105,3.152c-0.677-1.346-0.076-2.551,0.614-3.498
			C11.798,10.005,11.994,10.129,11.994,10.129z"/>
		<path fill="#ED3424" d="M11.914,10.068c0,0-1.442,1.641-1.096,3.086c-0.659-1.276-0.036-2.495,0.633-3.412
			C11.729,9.952,11.914,10.068,11.914,10.068z"/>
		<path fill="#ED3324" d="M11.833,10.008c0,0-1.434,1.628-1.085,3.019c-0.643-1.206,0.004-2.437,0.651-3.325
			C11.659,9.898,11.833,10.008,11.833,10.008z"/>
		<path fill="#ED3224" d="M11.753,9.947c0,0-1.424,1.616-1.075,2.953c-0.625-1.137,0.045-2.381,0.668-3.24
			C11.59,9.845,11.753,9.947,11.753,9.947z"/>
		<path fill="#ED3224" d="M11.673,9.886c0,0-1.416,1.604-1.065,2.887C10,11.706,10.692,10.448,11.294,9.62
			C11.521,9.792,11.673,9.886,11.673,9.886z"/>
		<path fill="#ED3124" d="M11.592,9.825c0,0-1.407,1.591-1.055,2.821c-0.59-0.997,0.125-2.268,0.705-3.067
			C11.451,9.738,11.592,9.825,11.592,9.825z"/>
		<path fill="#ED3024" d="M11.512,9.764c0,0-1.398,1.579-1.045,2.754c-0.573-0.927,0.166-2.21,0.723-2.98
			C11.382,9.685,11.512,9.764,11.512,9.764z"/>
	</g>
</g>
</svg>
