<?xml version="1.0" encoding="utf-8"?>
<!-- Generator: Adobe Illustrator 16.0.0, SVG Export Plug-In . SVG Version: 6.00 Build 0)  -->
<!DOCTYPE svg PUBLIC "-//W3C//DTD SVG 1.1//EN" "http://www.w3.org/Graphics/SVG/1.1/DTD/svg11.dtd">
<svg version="1.1" id="Layer_1" xmlns="http://www.w3.org/2000/svg" xmlns:xlink="http://www.w3.org/1999/xlink" x="0px" y="0px"
	 width="32px" height="32px" viewBox="0 0 32 32" enable-background="new 0 0 32 32" xml:space="preserve">
<g>
	<path fill="#010101" d="M11.529,25.892L5.78,20.143c-0.325-0.326-0.259-0.709,0-0.968s0.642-0.326,0.968,0l5.748,5.749
		c0.326,0.325,0.259,0.708,0,0.968C12.237,26.149,11.854,26.217,11.529,25.892L11.529,25.892z M26.004,5.883
		c3.823,3.822,3.821,9.997,0.014,13.806c-1.945,1.945-4.528,2.898-7.084,2.85c-0.9,0.082-1.767,0.47-3.619,2.164
		c-0.446,0.407-0.957,0.289-1.274-0.058c-0.316-0.346-0.389-0.864,0.057-1.272c1.962-1.796,3.246-2.514,4.786-2.637
		c2.096,0.051,4.261-0.726,5.857-2.322c3.106-3.104,3.104-8.138-0.014-11.258c-3.106-3.104-8.138-3.104-11.243,0.001
		c-1.597,1.597-2.372,3.761-2.322,5.857c-0.122,1.54-0.84,2.824-2.636,4.788c-0.408,0.444-0.928,0.373-1.273,0.056
		c-0.346-0.316-0.464-0.828-0.057-1.272c1.694-1.853,2.082-2.72,2.164-3.619c-0.049-2.556,0.904-5.139,2.849-7.084
		C16.019,2.073,22.194,2.075,26.004,5.883L26.004,5.883z M9.938,27.482l-5.749-5.75c-0.326-0.325-0.259-0.708,0-0.968
		c0.259-0.258,0.642-0.325,0.967,0l5.749,5.75c0.326,0.325,0.259,0.708,0,0.966C10.646,27.74,10.264,27.808,9.938,27.482
		L9.938,27.482z M7.727,28.451L3.22,23.945c-0.326-0.327-0.259-0.71,0-0.969c0.258-0.259,0.641-0.326,0.967,0l4.506,4.508
		c0.326,0.324,0.259,0.708,0,0.967C8.436,28.71,8.053,28.777,7.727,28.451L7.727,28.451z M6.385,28.414
		c-0.762,0.278-1.745,0.034-2.463-0.685c-0.719-0.718-0.963-1.701-0.685-2.464L6.385,28.414L6.385,28.414z"/>
</g>
</svg>
