<?xml version="1.0" encoding="utf-8"?>
<!-- Generator: Adobe Illustrator 16.0.0, SVG Export Plug-In . SVG Version: 6.00 Build 0)  -->
<!DOCTYPE svg PUBLIC "-//W3C//DTD SVG 1.1//EN" "http://www.w3.org/Graphics/SVG/1.1/DTD/svg11.dtd">
<svg version="1.1" id="Layer_1" xmlns="http://www.w3.org/2000/svg" xmlns:xlink="http://www.w3.org/1999/xlink" x="0px" y="0px"
	 width="40px" height="40px" viewBox="0 0 40 40" enable-background="new 0 0 40 40" xml:space="preserve">
<g>
	<g>
		<path fill-rule="evenodd" clip-rule="evenodd" d="M20,2C13.925,2,9,6.925,9,13c0,6.041,4.871,10.94,10.899,10.995L16.337,38
			c8.061-11.092,13.278-16.605,14.413-22.679C30.911,14.572,31,13.797,31,13C31,6.925,26.075,2,20,2z M20,17.562
			c-2.52,0-4.562-2.042-4.562-4.562c0-2.52,2.042-4.562,4.562-4.562c2.52,0,4.562,2.043,4.562,4.562
			C24.562,15.52,22.52,17.562,20,17.562z"/>
	</g>
</g>
</svg>
