<?xml version="1.0" encoding="utf-8"?>
<!-- Generator: Adobe Illustrator 16.0.0, SVG Export Plug-In . SVG Version: 6.00 Build 0)  -->
<!DOCTYPE svg PUBLIC "-//W3C//DTD SVG 1.1//EN" "http://www.w3.org/Graphics/SVG/1.1/DTD/svg11.dtd">
<svg version="1.1" id="Layer_2" xmlns="http://www.w3.org/2000/svg" xmlns:xlink="http://www.w3.org/1999/xlink" x="0px" y="0px"
	 width="40px" height="40px" viewBox="0 0 40 40" enable-background="new 0 0 40 40" xml:space="preserve">
<path fill-rule="evenodd" clip-rule="evenodd" d="M5.675,6.769C5.675,6.769,5.416,5,4,5C3.141,5,2,5,2,5S0.013,4.927,0.013,3.46
	C0.013,1.994,2,2,2,2l2.057-0.006c4.471,0,4.866,3.476,4.866,3.476L9.219,7H34l-0.013,8.521c0,3.183-4.044,3.979-4.044,3.979
	l-17.949,3.979l0.262,1.686c0,0,0.417,1.836,1.744,1.836c1.314,0,16,0,16,0s1.967-0.218,1.967,1.451C31.967,30.119,30,30,30,30
	s-12.073,0-17,0c-3.64,0-4.089-4.134-4.089-4.134L5.675,6.769z"/>
<circle fill-rule="evenodd" clip-rule="evenodd" cx="14" cy="35.003" r="3.004"/>
<circle fill-rule="evenodd" clip-rule="evenodd" cx="28.002" cy="35.003" r="3.004"/>
</svg>
