<?xml version="1.0" encoding="utf-8"?>
<!-- Generator: Adobe Illustrator 16.0.0, SVG Export Plug-In . SVG Version: 6.00 Build 0)  -->
<!DOCTYPE svg PUBLIC "-//W3C//DTD SVG 1.1//EN" "http://www.w3.org/Graphics/SVG/1.1/DTD/svg11.dtd">
<svg version="1.1" id="Rectangle_169_1_" xmlns="http://www.w3.org/2000/svg" xmlns:xlink="http://www.w3.org/1999/xlink" x="0px"
	 y="0px" width="40px" height="40px" viewBox="0 0 40 40" enable-background="new 0 0 40 40" xml:space="preserve">
<g id="Rectangle_169">
	<g>
		<path d="M32.609,4.505c-0.301-0.312-0.678-0.503-1.119-0.503c-0.853,0-1.547,0.72-1.547,1.604c0,0.457,0.156,0.819,0.484,1.16
			C33.214,9.654,35.1,14.449,35.1,20s-1.886,10.346-4.672,13.233c-0.328,0.341-0.484,0.703-0.484,1.16
			c0,0.885,0.694,1.604,1.547,1.604c0.441,0,0.818-0.19,1.119-0.503c4.119-4.27,6.379-9.776,6.379-15.495S36.729,8.774,32.609,4.505
			z M25.541,10.172c-0.854,0-1.548,0.72-1.548,1.604c0,0.354,0.127,0.685,0.305,0.945c1.003,1.472,1.679,4.426,1.679,7.278
			s-0.676,5.807-1.679,7.278c-0.178,0.261-0.305,0.591-0.305,0.945c0,0.885,0.694,1.604,1.548,1.604
			c0.542,0,0.894-0.239,1.295-0.732c1.171-1.437,3.028-4.633,3.028-9.096s-1.857-7.659-3.028-9.096
			C26.435,10.411,26.083,10.172,25.541,10.172z M1,15v10h5l12,9V6L6,15H1z"/>
	</g>
</g>
</svg>
