<?xml version="1.0" encoding="iso-8859-1"?>
<!-- Generator: Adobe Illustrator 16.0.4, SVG Export Plug-In . SVG Version: 6.00 Build 0)  -->
<!DOCTYPE svg PUBLIC "-//W3C//DTD SVG 1.1//EN" "http://www.w3.org/Graphics/SVG/1.1/DTD/svg11.dtd">
<svg version="1.1" id="Ellipse_34_1_" xmlns="http://www.w3.org/2000/svg" xmlns:xlink="http://www.w3.org/1999/xlink" x="0px"
	 y="0px" width="40px" height="40px" viewBox="0 0 40 40" style="enable-background:new 0 0 40 40;" xml:space="preserve">
<g id="Ellipse_34">
	<g>
		<path d="M28.986,36.958c0-2.747-2.993-4.259-5.986-4.725v-5.171h10c0-6.119-6-6-6-6h-9c-1.062,0-1-1-1-1v-3h6c1.041,0,1,1,1,1v3
			l3.012-0.013v-3c0-4-3.932-4-3.932-4H17V8.062c0-6.119-6-6-6-6v20c0,4.8,5,5,5,5s1.216,0,3,0v5.17
			c-2.996,0.465-5.993,1.977-5.993,4.726c0,0.017,0.002,0.033,0.004,0.05c0,0.018-0.005,0.034-0.005,0.052
			c0,1.104,0.894,1.997,1.997,1.997S17,38.163,17,37.06c0-0.613-0.283-1.156-0.719-1.522c0.802-1.191,3.151-1.469,4.716-1.469
			s3.914,0.277,4.716,1.469c-0.436,0.367-0.719,0.909-0.719,1.522c0,1.104,0.895,1.997,1.998,1.997c1.103,0,1.996-0.894,1.996-1.997
			c0-0.02-0.005-0.037-0.006-0.057C28.984,36.988,28.986,36.973,28.986,36.958z"/>
	</g>
</g>
</svg>
