<?xml version="1.0" encoding="utf-8"?>
<!-- Generator: Adobe Illustrator 16.0.0, SVG Export Plug-In . SVG Version: 6.00 Build 0)  -->
<!DOCTYPE svg PUBLIC "-//W3C//DTD SVG 1.1//EN" "http://www.w3.org/Graphics/SVG/1.1/DTD/svg11.dtd">
<svg version="1.1" id="Layer_1" xmlns="http://www.w3.org/2000/svg" xmlns:xlink="http://www.w3.org/1999/xlink" x="0px" y="0px"
	 width="32px" height="32px" viewBox="0 0 32 32" enable-background="new 0 0 32 32" xml:space="preserve">
<path d="M14.867,3.173c-0.598-0.002-1.085-0.49-1.087-1.087C13.782,1.481,14.27,0.993,14.867,1c0.604-0.007,1.091,0.481,1.086,1.086
	C15.958,2.684,15.471,3.171,14.867,3.173L14.867,3.173z"/>
<path d="M17.766,3.173c0.599-0.002,1.087-0.49,1.087-1.087c0-0.605-0.488-1.093-1.087-1.086c-0.604-0.007-1.091,0.481-1.088,1.086
	C16.675,2.684,17.162,3.171,17.766,3.173L17.766,3.173z"/>
<path d="M21.87,24.206c1.542-0.251,3.08-1.826,3.076-3.748V6.426c0.004-1.979-1.7-3.798-4.011-3.795h-4.944H11.03
	C8.706,2.628,7.001,4.447,7.003,6.426v14.032c-0.002,1.922,1.535,3.497,3.076,3.748l-4.623,6.788H8.13l3.302-4.756h4.543h4.542
	l3.316,4.756h2.659L21.87,24.206z M13.366,4.08c0-0.352,0.306-0.642,0.66-0.647h1.949h1.95c0.352,0.005,0.66,0.295,0.66,0.647v1.101
	c0,0.351-0.289,0.647-0.66,0.646h-1.949h-1.95c-0.369,0.001-0.659-0.296-0.659-0.646L13.366,4.08L13.366,4.08z M10.933,22.159
	c-0.968-0.008-1.758-0.779-1.756-1.732c-0.002-0.95,0.788-1.722,1.756-1.717c0.978-0.005,1.767,0.767,1.772,1.717
	C12.701,21.38,11.911,22.151,10.933,22.159z M11.159,13.04c-1.11-0.006-2.016-0.749-2.013-1.969v-2.52
	c0.007-1.051,0.702-1.967,2.013-1.969h4.817h4.816c1.311,0.002,2.006,0.918,2.012,1.969v2.52c0.004,1.22-0.9,1.963-2.012,1.969
	h-4.816H11.159z M19.213,20.428c-0.002-0.951,0.785-1.723,1.756-1.718c0.978-0.005,1.767,0.767,1.772,1.718
	c-0.006,0.952-0.795,1.724-1.772,1.731C19.998,22.151,19.211,21.38,19.213,20.428z"/>
</svg>
