<?xml version="1.0" encoding="utf-8"?>
<!-- Generator: Adobe Illustrator 16.0.0, SVG Export Plug-In . SVG Version: 6.00 Build 0)  -->
<!DOCTYPE svg PUBLIC "-//W3C//DTD SVG 1.1//EN" "http://www.w3.org/Graphics/SVG/1.1/DTD/svg11.dtd">
<svg version="1.1" id="Layer_1" xmlns="http://www.w3.org/2000/svg" xmlns:xlink="http://www.w3.org/1999/xlink" x="0px" y="0px"
	 width="32px" height="32px" viewBox="0 0 32 32" enable-background="new 0 0 32 32" xml:space="preserve">
<path d="M28.018,7.426h-9.059l2.38-2.77c0.544-0.632,0.482-1.593-0.138-2.147c-0.618-0.555-1.561-0.492-2.104,0.141l-3.181,3.699
	l-3.149-3.694c-0.541-0.634-1.483-0.701-2.104-0.149c-0.622,0.552-0.688,1.513-0.146,2.147l2.365,2.774H4.069
	c-1.647,0-2.983,1.363-2.983,3.044v16.354c0,1.682,1.336,3.045,2.983,3.045h23.949c1.648,0,2.982-1.363,2.982-3.045V10.47
	C31,8.789,29.666,7.426,28.018,7.426z M28,26.22L4,26.145V10h24V26.22z"/>
</svg>
