<?xml version="1.0" encoding="utf-8"?>
<!-- Generator: Adobe Illustrator 16.0.0, SVG Export Plug-In . SVG Version: 6.00 Build 0)  -->
<!DOCTYPE svg PUBLIC "-//W3C//DTD SVG 1.1//EN" "http://www.w3.org/Graphics/SVG/1.1/DTD/svg11.dtd">
<svg version="1.1" id="Auto_1_" xmlns="http://www.w3.org/2000/svg" xmlns:xlink="http://www.w3.org/1999/xlink" x="0px" y="0px"
	 width="56px" height="56px" viewBox="0 0 56 56" enable-background="new 0 0 56 56" xml:space="preserve">
<g id="Ellipse_22">
	<g>
		<path fill="#393837" d="M32,38c0-3.313,2.687-6,6-6c1.825,0,3.458,0.818,4.559,2.104c0.848-1.87,1.349-3.932,1.416-6.103
			C40.325,23.151,34.538,20,28,20s-12.325,3.151-15.975,8.003c0.067,2.171,0.569,4.231,1.417,6.102C14.542,32.818,16.174,32,18,32
			c3.314,0,6,2.687,6,6c0,1.724-0.731,3.272-1.895,4.367C23.93,43.093,25.916,43.5,28,43.5s4.07-0.407,5.895-1.133
			C32.73,41.272,32,39.724,32,38z"/>
	</g>
</g>
<g id="Ellipse_31" opacity="0.2">
	<g>
		<path fill="#FFFFFF" d="M32,38c0-3.313,2.687-6,6-6c0.431,0,0.85,0.047,1.254,0.134C39.729,30.843,40,29.455,40,28
			c0-1.652-0.334-3.225-0.938-4.657C35.893,21.234,32.092,20,28,20s-7.893,1.234-11.062,3.343C16.334,24.775,16,26.348,16,28
			c0,1.455,0.272,2.843,0.746,4.134C17.151,32.047,17.57,32,18,32c3.314,0,6,2.687,6,6c0,0.431-0.047,0.85-0.133,1.254
			C25.157,39.729,26.545,40,28,40s2.843-0.271,4.134-0.746C32.047,38.85,32,38.431,32,38z"/>
	</g>
</g>
<g id="Ellipse_23">
	<g>
		<circle fill="#FEC30B" cx="28" cy="28" r="2"/>
	</g>
</g>
<g id="Rectangle_61">
	<g>
		<path fill="#575655" d="M28,8C16.955,8,8,16.954,8,28s8.955,20,20,20c11.046,0,20-8.954,20-20S39.046,8,28,8z M28,43
			c-8.284,0-15-6.716-15-15s6.716-15,15-15s15,6.716,15,15S36.284,43,28,43z"/>
	</g>
</g>
</svg>
