<svg xmlns="http://www.w3.org/2000/svg" xmlns:xlink="http://www.w3.org/1999/xlink" preserveAspectRatio="xMidYMid" width="40" height="35" viewBox="0 0 40 35">
  <defs>
    <style>

      .cls-3 {
        fill: #ee0000;
      }

      .cls-4 {
        fill: #cc0000;
      }

      .cls-5 {
        fill: #ddd9ce;
      }

      .cls-6 {
        fill: #f6f5f3;
      }
    </style>
  </defs>
  <g id="bookssvg">
    <path d="M0.000,3.500 C0.000,3.500 20.000,8.000 20.000,8.000 C20.000,8.000 20.000,35.000 20.000,35.000 C20.000,35.000 0.000,30.500 0.000,30.500 C0.000,30.500 0.000,3.500 0.000,3.500 Z" id="path-1" class="cls-3" fill-rule="evenodd"/>
    <path d="M20.000,8.000 C20.000,8.000 40.000,3.500 40.000,3.500 C40.000,3.500 40.000,30.500 40.000,30.500 C40.000,30.500 20.000,35.000 20.000,35.000 C20.000,35.000 20.000,8.000 20.000,8.000 Z" id="path-2" class="cls-4" fill-rule="evenodd"/>
    <path d="M5.000,0.000 C5.000,0.000 20.000,8.000 20.000,8.000 C20.000,8.000 20.000,35.000 20.000,35.000 C20.000,35.000 5.000,27.000 5.000,27.000 C5.000,27.000 5.000,0.000 5.000,0.000 Z" id="path-3" class="cls-5" fill-rule="evenodd"/>
    <path d="M35.000,0.000 C35.000,0.000 20.000,8.000 20.000,8.000 C20.000,8.000 20.000,35.000 20.000,35.000 C20.000,35.000 35.000,27.000 35.000,27.000 C35.000,27.000 35.000,0.000 35.000,0.000 Z" id="path-4" class="cls-6" fill-rule="evenodd"/>
  </g>
</svg>
