<?xml version="1.0" encoding="utf-8"?>
<!-- Generator: Adobe Illustrator 16.0.0, SVG Export Plug-In . SVG Version: 6.00 Build 0)  -->
<!DOCTYPE svg PUBLIC "-//W3C//DTD SVG 1.1//EN" "http://www.w3.org/Graphics/SVG/1.1/DTD/svg11.dtd">
<svg version="1.1" xmlns="http://www.w3.org/2000/svg" xmlns:xlink="http://www.w3.org/1999/xlink" x="0px" y="0px" width="56px"
	 height="56px" viewBox="0 0 56 56" enable-background="new 0 0 56 56" xml:space="preserve">
<g id="Rectangle_279_1_" enable-background="new    ">
</g>
<g id="disk_1_">
	<g id="Ellipse_52">
		<g>
			<path fill="#222222" d="M39.998,19.297c-3.419-7.215-11.062-10.628-17.644-8.827c-6.581,1.801-11.53,8.66-10.959,16.654
				c0.669,9.357,9.198,17.976,19.318,15.207C40.834,39.562,44,27.742,39.998,19.297z"/>
		</g>
	</g>
	<g id="Ellipse_53">
		<g>
			<path fill="#4277CA" d="M54.622,22.055c-2.313-5.847-15.741-7.177-30.102-3.247S-0.818,30.747,0.041,36.991
				c0.907,6.596,14.537,8.704,30.395,4.364C46.294,37.017,57.065,28.23,54.622,22.055z"/>
		</g>
	</g>
	<g id="Ellipse_54">
		<g>
			<path fill="#DDD9CE" d="M42.41,34.401c-0.71-2.707-7.088-3.313-14.244-1.355c-7.158,1.959-12.384,5.741-11.673,8.448
				c0.71,2.707,7.088,3.313,14.246,1.355C37.895,40.891,43.121,37.108,42.41,34.401z"/>
		</g>
	</g>
</g>
</svg>
