<?xml version="1.0" encoding="utf-8"?>
<!-- Generator: Adobe Illustrator 16.0.0, SVG Export Plug-In . SVG Version: 6.00 Build 0)  -->
<!DOCTYPE svg PUBLIC "-//W3C//DTD SVG 1.1//EN" "http://www.w3.org/Graphics/SVG/1.1/DTD/svg11.dtd">
<svg version="1.1" xmlns="http://www.w3.org/2000/svg" xmlns:xlink="http://www.w3.org/1999/xlink" x="0px" y="0px" width="56px"
	 height="56px" viewBox="0 0 56 56" enable-background="new 0 0 56 56" xml:space="preserve">
<g id="Rectangle_279_1_" enable-background="new    ">
</g>
<g id="market_1_">
	<g id="Rectangle_263">
		<g>
			<path fill="#4277CA" d="M18,15l-3.494-9H4v5.008h6.5l10.182,27.98l26.083-7.211c0,0,3.235-0.706,3.235-4.9V15H18z"/>
		</g>
	</g>
	<g id="Ellipse_47">
		<g>
			<path fill="#222222" d="M16.997,44.003c-2.21,0-4.001,1.79-4.001,3.999c0,2.208,1.792,3.998,4.001,3.998s4.001-1.79,4.001-3.998
				C20.999,45.793,19.207,44.003,16.997,44.003z M39.996,44.003c-2.21,0-4.001,1.79-4.001,3.999c0,2.208,1.791,3.998,4.001,3.998
				s4.002-1.79,4.002-3.998C43.998,45.793,42.206,44.003,39.996,44.003z"/>
		</g>
	</g>
</g>
</svg>
