<svg xmlns="http://www.w3.org/2000/svg" xmlns:xlink="http://www.w3.org/1999/xlink" preserveAspectRatio="xMidYMid" width="42" height="42" viewBox="0 0 42 42">
  <defs>
    <style>

      .cls-3 {
        fill: #222222;
      }

      .cls-4 {
        fill: #ffcc00;
      }
    </style>
  </defs>
  <g id="taxisvg">
    <circle id="circle-1" class="cls-3" cx="21" cy="21" r="21"/>
    <path d="M30.000,26.000 C30.000,26.000 30.000,20.000 30.000,20.000 C30.000,20.000 36.000,20.000 36.000,20.000 C36.000,20.000 36.000,26.000 36.000,26.000 C36.000,26.000 30.000,26.000 30.000,26.000 ZM18.000,26.000 C18.000,26.000 18.000,20.000 18.000,20.000 C18.000,20.000 24.000,20.000 24.000,20.000 C24.000,20.000 24.000,26.000 24.000,26.000 C24.000,26.000 18.000,26.000 18.000,26.000 ZM6.000,26.000 C6.000,26.000 6.000,20.000 6.000,20.000 C6.000,20.000 12.000,20.000 12.000,20.000 C12.000,20.000 12.000,26.000 12.000,26.000 C12.000,26.000 6.000,26.000 6.000,26.000 ZM12.000,14.000 C12.000,14.000 18.000,14.000 18.000,14.000 C18.000,14.000 18.000,20.000 18.000,20.000 C18.000,20.000 12.000,20.000 12.000,20.000 C12.000,20.000 12.000,14.000 12.000,14.000 ZM24.000,14.000 C24.000,14.000 30.000,14.000 30.000,14.000 C30.000,14.000 30.000,20.000 30.000,20.000 C30.000,20.000 24.000,20.000 24.000,20.000 C24.000,20.000 24.000,14.000 24.000,14.000 Z" id="path-1" class="cls-4" fill-rule="evenodd"/>
  </g>
</svg>
