<svg xmlns="http://www.w3.org/2000/svg" xmlns:xlink="http://www.w3.org/1999/xlink" preserveAspectRatio="xMidYMid" width="54" height="49" viewBox="0 0 54 49">
  <defs>
    <style>

      .cls-3 {
        fill: #ffcc00;
      }

      .cls-4 {
        fill: #ee0000;
      }
    </style>
  </defs>
  <g id="ticketsvg">
    <path d="M47.923,29.490 C47.095,28.055 45.260,27.564 43.825,28.392 C42.390,29.221 41.899,31.056 42.727,32.490 C42.727,32.490 15.014,48.490 15.014,48.490 C15.014,48.490 0.014,22.510 0.014,22.510 C0.014,22.510 27.727,6.510 27.727,6.510 C27.727,6.510 27.727,6.510 27.727,6.510 C28.556,7.944 30.390,8.436 31.825,7.608 C33.260,6.779 33.752,4.944 32.923,3.510 C32.923,3.510 32.923,3.510 32.923,3.510 C32.923,3.510 38.986,0.010 38.986,0.010 C38.986,0.010 53.986,25.990 53.986,25.990 C53.986,25.990 47.923,29.490 47.923,29.490 ZM37.923,12.170 C37.095,10.735 35.260,10.243 33.825,11.072 C32.390,11.900 31.899,13.735 32.727,15.170 C33.556,16.605 35.390,17.096 36.825,16.268 C38.260,15.440 38.752,13.605 37.923,12.170 ZM42.923,20.830 C42.095,19.395 40.260,18.904 38.825,19.732 C37.390,20.560 36.899,22.395 37.727,23.830 C38.556,25.265 40.390,25.757 41.825,24.928 C43.260,24.100 43.752,22.265 42.923,20.830 Z" id="path-1" class="cls-3" fill-rule="evenodd"/>
    <path d="M47.923,29.490 C47.095,28.056 45.260,27.564 43.825,28.392 C43.825,28.392 41.825,24.928 41.825,24.928 C43.260,24.100 43.752,22.265 42.923,20.830 C42.095,19.395 40.260,18.904 38.825,19.732 C38.825,19.732 36.825,16.268 36.825,16.268 C38.260,15.439 38.752,13.605 37.923,12.170 C37.095,10.735 35.260,10.243 33.825,11.072 C33.825,11.072 31.825,7.608 31.825,7.608 C33.260,6.779 33.752,4.944 32.923,3.510 C32.923,3.510 32.923,3.510 32.923,3.510 C32.923,3.510 38.986,0.010 38.986,0.010 C38.986,0.010 53.986,25.990 53.986,25.990 C53.986,25.990 47.923,29.490 47.923,29.490 Z" id="path-2" class="cls-4" fill-rule="evenodd"/>
  </g>
</svg>
