<svg xmlns="http://www.w3.org/2000/svg" xmlns:xlink="http://www.w3.org/1999/xlink" preserveAspectRatio="xMidYMid" width="45" height="30" viewBox="0 0 45 30">
  <defs>
    <style>

      .cls-3 {
        fill: #ffcc00;
      }

      .cls-4 {
        fill: #ee0000;
      }
    </style>
  </defs>
  <g id="ticketsvg">
    <path d="M38.000,30.000 C38.000,28.343 36.657,27.000 35.000,27.000 C33.343,27.000 32.000,28.343 32.000,30.000 C32.000,30.000 0.000,30.000 0.000,30.000 C0.000,30.000 0.000,0.000 0.000,0.000 C0.000,0.000 32.000,0.000 32.000,0.000 C32.000,0.000 32.000,0.000 32.000,0.000 C32.000,1.657 33.343,3.000 35.000,3.000 C36.657,3.000 38.000,1.657 38.000,0.000 C38.000,0.000 38.000,0.000 38.000,0.000 C38.000,0.000 45.000,0.000 45.000,0.000 C45.000,0.000 45.000,30.000 45.000,30.000 C45.000,30.000 38.000,30.000 38.000,30.000 ZM35.000,7.000 C33.343,7.000 32.000,8.343 32.000,10.000 C32.000,11.657 33.343,13.000 35.000,13.000 C36.657,13.000 38.000,11.657 38.000,10.000 C38.000,8.343 36.657,7.000 35.000,7.000 ZM35.000,17.000 C33.343,17.000 32.000,18.343 32.000,20.000 C32.000,21.657 33.343,23.000 35.000,23.000 C36.657,23.000 38.000,21.657 38.000,20.000 C38.000,18.343 36.657,17.000 35.000,17.000 Z" id="path-1" class="cls-3" fill-rule="evenodd"/>
    <path d="M38.000,30.000 C38.000,28.343 36.657,27.000 35.000,27.000 C35.000,27.000 35.000,23.000 35.000,23.000 C36.657,23.000 38.000,21.657 38.000,20.000 C38.000,18.343 36.657,17.000 35.000,17.000 C35.000,17.000 35.000,13.000 35.000,13.000 C36.657,13.000 38.000,11.657 38.000,10.000 C38.000,8.343 36.657,7.000 35.000,7.000 C35.000,7.000 35.000,3.000 35.000,3.000 C36.657,3.000 38.000,1.657 38.000,0.000 C38.000,0.000 38.000,0.000 38.000,0.000 C38.000,0.000 45.000,0.000 45.000,0.000 C45.000,0.000 45.000,30.000 45.000,30.000 C45.000,30.000 38.000,30.000 38.000,30.000 Z" id="path-2" class="cls-4" fill-rule="evenodd"/>
  </g>
</svg>
