<?xml version="1.0" encoding="utf-8"?>
<!-- Generator: Adobe Illustrator 16.0.0, SVG Export Plug-In . SVG Version: 6.00 Build 0)  -->
<!DOCTYPE svg PUBLIC "-//W3C//DTD SVG 1.1//EN" "http://www.w3.org/Graphics/SVG/1.1/DTD/svg11.dtd">
<svg version="1.1" xmlns="http://www.w3.org/2000/svg" xmlns:xlink="http://www.w3.org/1999/xlink" x="0px" y="0px" width="56px"
	 height="56px" viewBox="0 0 56 56" enable-background="new 0 0 56 56" xml:space="preserve">
<g id="Rectangle_279_1_" enable-background="new    ">
</g>
<g id="Transport_1_">
	<g id="Rectangle_120">
		<g>
			<path fill="#222222" d="M12,51h5l5.5-10.993h-5L12,51z M36.5,40.007h-5L37,51h5L36.5,40.007z"/>
		</g>
	</g>
	<g id="Rectangle_121">
		<g>
			<rect x="16" y="14.003" fill="#F6F5F3" width="21" height="22.997"/>
		</g>
	</g>
	<g id="Rectangle_85">
		<g>
			<path fill="#4277CA" d="M35.5,9.012h-17c0,0-4.5,0-4.5,4.604v28.539L27,49l13-6.846V13.615C40,13.615,40,9.012,35.5,9.012z
				 M20.5,34.986c-1.381,0-2.5-1.113-2.5-2.486c0-1.374,1.119-2.487,2.5-2.487S23,31.126,23,32.5
				C23,33.873,21.881,34.986,20.5,34.986z M33.5,34.986c-1.381,0-2.5-1.113-2.5-2.486c0-1.374,1.119-2.487,2.5-2.487
				S36,31.126,36,32.5C36,33.873,34.881,34.986,33.5,34.986z M36,25.008H18v-9.013h18V25.008z"/>
		</g>
	</g>
	<g id="Ellipse_32">
		<g>
			<circle fill="#4277CA" cx="27" cy="9.997" r="4.997"/>
		</g>
	</g>
	<g id="Ellipse_33">
		<g>
			<circle fill="#F6F5F3" cx="27" cy="9.998" r="1.994"/>
		</g>
	</g>
</g>
</svg>
