<svg xmlns="http://www.w3.org/2000/svg" xmlns:xlink="http://www.w3.org/1999/xlink" preserveAspectRatio="xMidYMid" width="50" height="30" viewBox="0 0 50 30">
  <defs>
    <style>

      .cls-3 {
        fill: #222222;
      }

      .cls-4 {
        fill: #ee0000;
      }
    </style>
  </defs>
  <g id="translatesvg">
    <path d="M24.000,7.000 C24.000,7.000 15.000,14.000 15.000,14.000 C15.000,14.000 15.000,10.000 15.000,10.000 C15.000,10.000 8.000,10.000 8.000,10.000 C8.000,10.000 8.000,4.000 8.000,4.000 C8.000,4.000 15.000,4.000 15.000,4.000 C15.000,4.000 15.000,0.000 15.000,0.000 C15.000,0.000 24.000,7.000 24.000,7.000 ZM9.000,20.000 C9.000,20.000 16.000,20.000 16.000,20.000 C16.000,20.000 16.000,26.000 16.000,26.000 C16.000,26.000 9.000,26.000 9.000,26.000 C9.000,26.000 9.000,30.000 9.000,30.000 C9.000,30.000 0.000,23.000 0.000,23.000 C0.000,23.000 9.000,16.000 9.000,16.000 C9.000,16.000 9.000,20.000 9.000,20.000 Z" id="path-1" class="cls-3" fill-rule="evenodd"/>
    <path d="M43.250,30.000 C43.250,30.000 40.917,23.000 40.917,23.000 C40.917,23.000 29.583,23.000 29.583,23.000 C29.583,23.000 27.250,30.000 27.250,30.000 C27.250,30.000 21.250,30.000 21.250,30.000 C21.250,30.000 31.750,-0.000 31.750,-0.000 C31.750,-0.000 33.250,-0.000 33.250,-0.000 C33.250,-0.000 37.250,-0.000 37.250,-0.000 C37.250,-0.000 38.750,-0.000 38.750,-0.000 C38.750,-0.000 49.250,30.000 49.250,30.000 C49.250,30.000 43.250,30.000 43.250,30.000 ZM35.250,6.000 C35.250,6.000 31.250,18.000 31.250,18.000 C31.250,18.000 39.250,18.000 39.250,18.000 C39.250,18.000 35.250,6.000 35.250,6.000 Z" id="path-2" class="cls-4" fill-rule="evenodd"/>
  </g>
</svg>
