<?xml version="1.0" encoding="utf-8"?>
<!-- Generator: Adobe Illustrator 16.0.0, SVG Export Plug-In . SVG Version: 6.00 Build 0)  -->
<!DOCTYPE svg PUBLIC "-//W3C//DTD SVG 1.1//EN" "http://www.w3.org/Graphics/SVG/1.1/DTD/svg11.dtd">
<svg version="1.1" xmlns="http://www.w3.org/2000/svg" xmlns:xlink="http://www.w3.org/1999/xlink" x="0px" y="0px" width="56px"
	 height="56px" viewBox="0 0 56 56" enable-background="new 0 0 56 56" xml:space="preserve">
<g id="Rectangle_279_1_" enable-background="new    ">
</g>
<g id="Rasp_1_">
	<g id="Rectangle_278">
		<g>
			<rect x="8" y="13" fill="#EE0000" width="22" height="6"/>
		</g>
	</g>
	<g id="Rectangle_278_1_">
		<g>
			<rect x="8" y="37" fill="#BDB7A5" width="12" height="6"/>
		</g>
	</g>
	<g id="Rectangle_278_2_">
		<g>
			<rect x="8" y="25" fill="#FFCC00" width="32" height="6"/>
		</g>
	</g>
	<g id="Ellipse_63">
		<g>
			<path fill="#F6F5F3" d="M33,12c-2.209,0-4,1.791-4,4s1.791,4,4,4s4-1.791,4-4S35.209,12,33,12z M43,24c-2.209,0-4,1.791-4,4
				s1.791,4,4,4s4-1.791,4-4S45.209,24,43,24z M23,36c-2.209,0-4,1.791-4,4s1.791,4,4,4s4-1.791,4-4S25.209,36,23,36z"/>
		</g>
	</g>
	<g id="Ellipse_62">
		<g>
			<path fill="#222222" d="M23,34c-3.313,0-6,2.687-6,6s2.687,6,6,6s6-2.687,6-6S26.313,34,23,34z M23,43c-1.657,0-3-1.343-3-3
				s1.343-3,3-3s3,1.343,3,3S24.657,43,23,43z M39,16c0-3.313-2.687-6-6-6s-6,2.687-6,6s2.687,6,6,6S39,19.313,39,16z M33,19
				c-1.656,0-3-1.343-3-3s1.344-3,3-3s3,1.343,3,3S34.656,19,33,19z M43,22c-3.313,0-6,2.687-6,6s2.687,6,6,6s6-2.687,6-6
				S46.313,22,43,22z M43,31c-1.656,0-3-1.343-3-3s1.344-3,3-3s3,1.343,3,3S44.656,31,43,31z"/>
		</g>
	</g>
</g>
</svg>
