<?xml version="1.0" encoding="utf-8"?>
<!-- Generator: Adobe Illustrator 16.0.0, SVG Export Plug-In . SVG Version: 6.00 Build 0)  -->
<!DOCTYPE svg PUBLIC "-//W3C//DTD SVG 1.1//EN" "http://www.w3.org/Graphics/SVG/1.1/DTD/svg11.dtd">
<svg version="1.1" xmlns="http://www.w3.org/2000/svg" xmlns:xlink="http://www.w3.org/1999/xlink" x="0px" y="0px" width="56px"
	 height="56px" viewBox="0 0 56 56" enable-background="new 0 0 56 56" xml:space="preserve">
<g id="Rectangle_279_1_" enable-background="new    ">
</g>
<g id="weather_1_">
	<g id="Shape_1">
		<g>
			<path fill="#FFCC00" d="M19.462,14.84l-1.603-5.828L16.45,9.38l1.605,5.822C18.515,15.051,18.984,14.929,19.462,14.84z
				 M14.463,17.2l-4.367-4.25l-1.029,1.002l4.36,4.242C13.75,17.835,14.099,17.508,14.463,17.2z M26.369,9.605L24.963,9.24
				l-1.54,5.59c0.475,0.084,0.947,0.192,1.413,0.342L26.369,9.605z M32.958,12.948l-4.413,4.295
				c0.367,0.317,0.701,0.659,1.018,1.014l4.427-4.305L32.958,12.948z M21.483,16.836c-4.665,0-8.445,3.68-8.445,8.214
				c0,1.638,0.492,3.162,1.339,4.443c1.223-1.855,3.358-3.085,5.793-3.085l0.618,0.031c1.139-3.206,3.893-5.677,7.318-6.483
				C26.561,18.056,24.169,16.836,21.483,16.836z M11.35,21.688l-5.96-1.552l-0.376,1.367l5.966,1.554
				C11.071,22.598,11.192,22.141,11.35,21.688z M5.014,28.646l0.377,1.368l5.98-1.559c-0.159-0.447-0.285-0.905-0.38-1.368
				L5.014,28.646z"/>
		</g>
	</g>
	<g id="Ellipse_64">
		<g>
			<path fill="#6998E1" d="M41.354,27.781c-0.61,0-1.202,0.089-1.767,0.242c-0.695-4.798-4.848-8.489-9.883-8.489
				c-0.811,0-1.598,0.096-2.351,0.275c1.103,1.382,1.761,3.128,1.761,5.025c0,4.478-3.66,8.106-8.178,8.106
				c-2.889,0-5.428-1.482-6.883-3.723c-0.387,0.597-0.68,1.26-0.857,1.968l-0.179-0.019c-2.738,0-4.956,2.199-4.956,4.91
				c0,2.691,2.186,4.869,4.892,4.903l-0.009,0.007h28.211l-0.007-0.013l0.205,0.011c3.679,0,6.664-2.957,6.664-6.603
				S45.035,27.781,41.354,27.781z"/>
		</g>
	</g>
	<g id="Ellipse_65">
		<g>
			<path fill="#4C7DC9" d="M28.119,19.997c-3.525,0.848-6.359,3.448-7.531,6.822l-0.636-0.033c-2.505,0-4.702,1.295-5.961,3.247
				c1.546,2.39,4.243,3.972,7.312,3.972c4.799,0,8.688-3.871,8.688-8.647C29.99,23.333,29.291,21.472,28.119,19.997z"/>
		</g>
	</g>
</g>
</svg>
