<svg xmlns="http://www.w3.org/2000/svg" xmlns:xlink="http://www.w3.org/1999/xlink" preserveAspectRatio="xMidYMid" width="53" height="28" viewBox="0 0 53 28">
  <defs>
    <style>

      .cls-2 {
        fill: #000000;
      }
    </style>
  </defs>
  <path d="M51.990,12.013 C51.990,12.013 51.990,22.019 51.990,22.019 C51.990,22.019 42.848,22.019 42.848,22.019 C42.932,22.341 42.990,22.672 42.990,23.020 C42.990,25.230 41.199,27.022 38.989,27.022 C36.780,27.022 34.989,25.230 34.989,23.020 C34.989,22.672 35.047,22.341 35.131,22.019 C35.131,22.019 16.847,22.019 16.847,22.019 C16.930,22.341 16.988,22.672 16.988,23.020 C16.988,25.230 15.197,27.022 12.988,27.022 C10.778,27.022 8.987,25.230 8.987,23.020 C8.987,22.613 9.066,22.228 9.179,21.857 C9.179,21.857 -0.014,20.018 -0.014,20.018 C-0.014,20.018 -0.014,0.004 -0.014,0.004 C-0.014,0.004 51.990,0.086 51.990,0.086 C51.990,0.086 51.990,4.008 51.990,4.008 C51.990,4.008 49.989,4.008 49.989,4.008 C49.989,4.008 49.989,12.013 49.989,12.013 C49.989,12.013 51.990,12.013 51.990,12.013 ZM13.987,4.008 C13.987,4.008 5.986,4.008 5.986,4.008 C5.986,4.008 5.986,12.013 5.986,12.013 C5.986,12.013 13.987,12.013 13.987,12.013 C13.987,12.013 13.987,4.008 13.987,4.008 ZM25.988,4.008 C25.988,4.008 17.987,4.008 17.987,4.008 C17.987,4.008 17.987,12.013 17.987,12.013 C17.987,12.013 25.988,12.013 25.988,12.013 C25.988,12.013 25.988,4.008 25.988,4.008 ZM37.989,4.008 C37.989,4.008 29.988,4.008 29.988,4.008 C29.988,4.008 29.988,12.013 29.988,12.013 C29.988,12.013 37.989,12.013 37.989,12.013 C37.989,12.013 37.989,4.008 37.989,4.008 ZM45.989,4.008 C45.989,4.008 41.989,4.008 41.989,4.008 C41.989,4.008 41.989,18.017 41.989,18.017 C41.989,18.017 45.989,18.017 45.989,18.017 C45.989,18.017 45.989,4.008 45.989,4.008 Z" id="path-1" class="cls-2" fill-rule="evenodd"/>
</svg>
