<svg xmlns="http://www.w3.org/2000/svg" xmlns:xlink="http://www.w3.org/1999/xlink" preserveAspectRatio="xMidYMid" width="40" height="30" viewBox="0 0 40 30">
  <defs>
    <style>

      .cls-2 {
        fill: #000000;
      }
    </style>
  </defs>
  <path d="M30.133,29.988 C30.133,29.988 40.000,29.988 40.000,29.988 C40.000,29.988 39.014,27.543 39.014,27.543 C39.014,27.543 28.117,-0.000 28.117,-0.000 C28.117,-0.000 19.992,15.001 19.992,15.001 C19.992,15.001 11.974,0.021 11.974,0.021 C11.974,0.021 0.966,27.561 0.966,27.561 C0.966,27.561 0.000,29.985 0.000,29.985 C0.000,29.985 9.707,29.985 9.707,29.985 C9.707,29.985 10.647,27.544 10.647,27.544 C10.647,27.544 13.739,19.169 13.739,19.169 C13.739,19.169 19.992,30.000 19.992,30.000 C19.992,30.000 26.321,19.096 26.321,19.096 C26.321,19.096 29.286,27.542 29.286,27.542 C29.286,27.542 30.133,29.988 30.133,29.988 Z" id="path-1" class="cls-2" fill-rule="evenodd"/>
</svg>
