<svg xmlns="http://www.w3.org/2000/svg" xmlns:xlink="http://www.w3.org/1999/xlink" preserveAspectRatio="xMidYMid" width="40" height="40" viewBox="0 0 40 40">
  <defs>
    <style>

      .cls-2 {
        fill: #000000;
      }
    </style>
  </defs>
  <path d="M39.045,5.468 C39.045,5.468 29.069,15.729 29.069,15.729 C29.069,15.729 34.015,37.580 34.015,37.580 C34.015,37.580 30.694,40.012 30.694,40.012 C30.694,40.012 21.387,23.525 21.387,23.525 C21.387,23.525 11.483,32.015 11.483,32.015 C11.483,32.015 14.330,37.965 14.330,37.965 C14.330,37.965 12.158,40.012 12.158,40.012 C12.158,40.012 0.013,27.854 0.013,27.854 C0.013,27.854 2.058,25.679 2.058,25.679 C2.058,25.679 8.009,28.490 8.009,28.490 C8.009,28.490 16.500,18.583 16.500,18.583 C16.500,18.583 0.013,9.298 0.013,9.298 C0.013,9.298 2.443,5.971 2.443,5.971 C2.443,5.971 24.323,10.862 24.323,10.862 C24.323,10.862 34.508,0.935 34.508,0.935 C35.761,-0.316 37.793,-0.316 39.045,0.935 C39.045,0.935 39.045,0.935 39.045,0.935 C40.298,2.187 40.302,4.215 39.045,5.468 Z" id="path-1" class="cls-2" fill-rule="evenodd"/>
</svg>
