<svg xmlns="http://www.w3.org/2000/svg" xmlns:xlink="http://www.w3.org/1999/xlink" preserveAspectRatio="xMidYMid" width="55" height="22" viewBox="0 0 55 22">
  <defs>
    <style>

      .cls-2 {
        fill: #000000;
      }
    </style>
  </defs>
  <path d="M44.000,22.000 C44.000,22.000 44.000,11.000 44.000,11.000 C44.000,11.000 55.000,11.000 55.000,11.000 C55.000,11.000 55.000,22.000 55.000,22.000 C55.000,22.000 44.000,22.000 44.000,22.000 ZM22.000,22.000 C22.000,22.000 22.000,11.000 22.000,11.000 C22.000,11.000 33.000,11.000 33.000,11.000 C33.000,11.000 33.000,22.000 33.000,22.000 C33.000,22.000 22.000,22.000 22.000,22.000 ZM-0.000,22.000 C-0.000,22.000 -0.000,11.000 -0.000,11.000 C-0.000,11.000 11.000,11.000 11.000,11.000 C11.000,11.000 11.000,22.000 11.000,22.000 C11.000,22.000 -0.000,22.000 -0.000,22.000 ZM11.000,-0.000 C11.000,-0.000 22.000,-0.000 22.000,-0.000 C22.000,-0.000 22.000,11.000 22.000,11.000 C22.000,11.000 11.000,11.000 11.000,11.000 C11.000,11.000 11.000,-0.000 11.000,-0.000 ZM33.000,-0.000 C33.000,-0.000 44.000,-0.000 44.000,-0.000 C44.000,-0.000 44.000,11.000 44.000,11.000 C44.000,11.000 33.000,11.000 33.000,11.000 C33.000,11.000 33.000,-0.000 33.000,-0.000 Z" id="path-1" class="cls-2" fill-rule="evenodd"/>
</svg>
