<svg xmlns="http://www.w3.org/2000/svg" xmlns:xlink="http://www.w3.org/1999/xlink" preserveAspectRatio="xMidYMid" width="45" height="28" viewBox="0 0 45 28">
  <defs>
    <style>

      .cls-2 {
        fill: #000000;
      }
    </style>
  </defs>
  <path d="M39.000,22.000 C39.000,22.000 39.000,8.000 39.000,8.000 C39.000,8.000 33.000,8.000 33.000,8.000 C33.000,8.000 33.000,0.000 33.000,0.000 C33.000,0.000 27.000,0.000 27.000,0.000 C27.000,0.000 27.000,8.000 27.000,8.000 C27.000,8.000 16.000,8.000 16.000,8.000 C16.000,8.000 16.000,0.000 16.000,0.000 C16.000,0.000 0.000,-0.000 0.000,-0.000 C0.000,-0.000 0.000,22.005 0.000,22.005 C0.000,22.005 29.000,22.000 29.000,22.000 C29.000,22.000 29.000,28.000 29.000,28.000 C29.000,28.000 45.000,28.009 45.000,28.009 C45.000,28.009 39.000,22.000 39.000,22.000 ZM3.915,10.004 C3.915,10.004 3.915,4.000 3.915,4.000 C3.915,4.000 12.000,4.000 12.000,4.000 C12.000,4.000 12.000,10.000 12.000,10.000 C12.000,10.000 3.915,10.004 3.915,10.004 ZM9.787,28.008 C11.946,28.008 13.696,26.215 13.696,24.008 C13.696,24.008 5.870,24.008 5.870,24.008 C5.870,26.214 7.622,28.007 9.783,28.007 C9.783,28.007 9.787,28.008 9.787,28.008 ZM21.525,28.008 C23.687,28.008 25.439,26.215 25.439,24.008 C25.439,24.008 17.613,24.008 17.613,24.008 C17.613,26.214 19.367,28.007 21.527,28.007 C21.527,28.007 21.525,28.008 21.525,28.008 Z" id="path-1" class="cls-2" fill-rule="evenodd"/>
</svg>
