<svg width="16" height="16" xmlns="http://www.w3.org/2000/svg"><g><path fill-rule="evenodd" clip-rule="evenodd" d="M7.988 15.948c-4.383 0-7.937-3.553-7.937-7.937 0-4.383 3.553-7.936 7.937-7.936 4.383 0 7.936 3.553 7.936 7.936 0 4.384-3.553 7.937-7.936 7.937zm2.16-13.335l-2.183 2.826-2.076-2.849c-1.981.767-3.435 2.585-3.679 4.771h2.211v1.185h-2.226c.25 2.746 2.408 4.94 5.138 5.246v-1.918h1.184v1.931c2.79-.252 5.01-2.47 5.265-5.259h-1.946v-1.164h1.933c-.235-2.173-1.664-3.986-3.62-4.769z"/><path d="M11.835 7.814h2.115c-.033-.151-.089-.298-.164-.441h-1.951v.441z"/><rect x="7.332" y="11.874" width="1.184" height=".509"/><path d="M8.517 13.805v.821c2.79-.252 5.01-2.47 5.265-5.259h-.141c-.572 2.393-2.615 4.211-5.124 4.438z"/><path d="M2.199 7.362c-.075.143-.131.291-.165.441h2.387v-.441h-2.221z"/><path d="M7.988.897c4.244 0 7.7 3.334 7.916 7.525l.021-.411c0-4.383-3.553-7.936-7.936-7.936s-7.937 3.553-7.937 7.936l.021.411c.215-4.191 3.671-7.525 7.916-7.525z"/><path d="M7.332 14.615v-.822c-2.451-.275-4.436-2.073-4.998-4.425h-.14c.25 2.746 2.408 4.939 5.138 5.246z"/></g></svg>