<?xml version="1.0" encoding="utf-8"?>
<!-- Generator: Adobe Illustrator 16.0.0, SVG Export Plug-In . SVG Version: 6.00 Build 0)  -->
<!DOCTYPE svg PUBLIC "-//W3C//DTD SVG 1.1//EN" "http://www.w3.org/Graphics/SVG/1.1/DTD/svg11.dtd">
<svg version="1.1" id="пробки_1_" xmlns="http://www.w3.org/2000/svg" xmlns:xlink="http://www.w3.org/1999/xlink" x="0px"
	 y="0px" width="24px" height="20px" viewBox="0 0 24 20" enable-background="new 0 0 24 20" xml:space="preserve">
<g id="Ellipse_36">
	<g>
		<circle fill="#FFCC00" cx="12" cy="10" r="7"/>
	</g>
</g>
<g id="Rectangle_182">
	<g>
		<polygon fill="#61605F" points="11.333,3 15.333,10 19,10 19,3 		"/>
	</g>
</g>
<g id="Rectangle_181">
	<g>
		<path fill="#737170" d="M4,0v20h20V0H4z M12,17.011c-3.872,0-7.011-3.139-7.011-7.011S8.128,2.989,12,2.989
			S19.011,6.128,19.011,10S15.872,17.011,12,17.011z"/>
	</g>
</g>
<g id="Ellipse_35">
	<g>
		<path fill="#4F4E4D" d="M12,2.989c-2.249,0-5.608,0-5.608,0c3.872,0,7.011,3.139,7.011,7.011h5.608
			C19.011,6.128,15.872,2.989,12,2.989z"/>
	</g>
</g>
<g id="Rectangle_183">
	<g>
		<rect x="20" fill="#4F4E4D" width="4" height="20"/>
	</g>
</g>
<g id="Ellipse_35_1_">
	<g>
		<path fill="#918142" d="M9.494,3.458c-0.777-0.299-1.618-0.469-2.5-0.469C3.132,2.989,0,6.128,0,10h4.989
			C4.989,7.012,6.861,4.468,9.494,3.458z"/>
	</g>
</g>
</svg>
