<?xml version="1.0" encoding="utf-8"?>
<!-- Generator: Adobe Illustrator 16.0.0, SVG Export Plug-In . SVG Version: 6.00 Build 0)  -->
<!DOCTYPE svg PUBLIC "-//W3C//DTD SVG 1.1//EN" "http://www.w3.org/Graphics/SVG/1.1/DTD/svg11.dtd">
<svg version="1.1" id="погода_1_" xmlns="http://www.w3.org/2000/svg" xmlns:xlink="http://www.w3.org/1999/xlink" x="0px"
	 y="0px" width="27px" height="20px" viewBox="0 0 27 20" enable-background="new 0 0 27 20" xml:space="preserve">
<g id="Shape_1">
	<g>
		<path fill="#FFCC00" d="M3.149,2.605l-0.64,0.66l2.708,2.799c0.201-0.237,0.417-0.453,0.644-0.656L3.149,2.605z M13.255,0.399
			l-0.873-0.242l-0.956,3.688c0.295,0.057,0.588,0.127,0.877,0.226L13.255,0.399z M17.986,3.266l-0.64-0.661l-2.741,2.834
			c0.229,0.208,0.436,0.433,0.632,0.667L17.986,3.266z M3.929,8.368L0.228,7.344l-0.233,0.902l3.704,1.026
			C3.756,8.968,3.83,8.666,3.929,8.368z M8.966,3.852L7.969,0.008L7.096,0.25l0.996,3.841C8.378,3.99,8.669,3.91,8.966,3.852z
			 M-0.006,12.958l0.233,0.902l3.714-1.028c-0.099-0.295-0.177-0.596-0.236-0.902L-0.006,12.958z M10.588,5.333
			c-2.924,0-5.294,2.388-5.294,5.334c0,2.945,2.37,5.333,5.294,5.333s5.295-2.388,5.295-5.333
			C15.883,7.721,13.512,5.333,10.588,5.333z"/>
	</g>
</g>
<g id="Shape_1_1_">
	<g>
		<path fill="#9AADDD" d="M23.168,11.987c-0.353,0-0.692,0.054-1.017,0.146c-0.4-2.907-2.792-5.145-5.69-5.145
			c-2.52,0-4.656,1.691-5.437,4.042c-0.113-0.01-0.229-0.018-0.345-0.018c-1.801,0-3.309,1.294-3.725,3.038
			c-0.036-0.001-0.068-0.011-0.104-0.011c-1.576,0-2.854,1.332-2.854,2.976c0,1.631,1.259,2.951,2.817,2.972l-0.005,0.004h16.244
			l-0.004-0.008c0.039,0.002,0.078,0.007,0.117,0.007c2.119,0,3.838-1.792,3.838-4.002S25.287,11.987,23.168,11.987z"/>
	</g>
</g>
</svg>
