<?xml version="1.0" standalone="no"?> <!DOCTYPE svg PUBLIC "-//W3C//DTD SVG 1.0//EN" "http://www.w3.org/TR/2001/REC-SVG-20010904/DTD/svg10.dtd" > <svg xmlns="http://www.w3.org/2000/svg" width="100%" height="100%">
<defs >
<font id="Yandex" horiz-adv-x="533" ><font-face
    font-family="Yandex Sans Text"
    units-per-em="1000"
    panose-1="0 0 0 0 0 0 0 0 0 0"
    ascent="828"
    descent="-172"
    alphabetic="0" />
<missing-glyph horiz-adv-x="194" />
<glyph unicode=" " glyph-name="space" horiz-adv-x="194" />
<glyph unicode="!" glyph-name="exclam" horiz-adv-x="266" d="M177 695L168 185H99L91 695H177ZM133 -6Q107 -6 90 11T73 53Q73 79 90 96T133 113Q159 113 176 96T193 53Q193 28 176 11T133 -6Z" />
<glyph unicode="&quot;" glyph-name="quotedbl" horiz-adv-x="385" d="M75 695H168L158 495H84L75 695ZM218 695H311L301 495H227L218 695Z" />
<glyph unicode="#" glyph-name="numbersign" horiz-adv-x="658" d="M419 445H274L237 269H383L419 445ZM369 201H223L182 0H105L146 201H39V269H160L196 445H65V513H210L247 695H325L288 513H433L470 695H548L511 513H619V445H497L460 269H593V201H446L405 0H328L369
201Z" />
<glyph unicode="$" glyph-name="dollar" horiz-adv-x="568" d="M243 -136V-9Q171 -5 125 13T61 49V126Q73 117 94 107T143 88T203 73T271 67Q345 67 385 97T425 188Q425 218 416 237T387 270T340 293T275 313Q237 323 200 336T134 372T86 428T67 513Q67 591 111
639T243 700V821H325V703Q385 701 421 689T474 665V589Q447 606 400 617T299 628Q223 628 188 598T153 517Q153 487 164 467T195 434T240 412T295 396Q332 386 371 374T441 339T492 281T512 188Q512 139 498 105T458 47T398 11T325 -7V-136H243Z" />
<glyph unicode="%" glyph-name="percent" horiz-adv-x="755" d="M136 -10L542 704H618L211 -10H136ZM324 509Q324 464 312 429T280 369T232 333T172 320Q106 320 63 367T19 505Q19 551 30 586T62 646T111 682T172 695Q204 695 231 683T279 648T312 590T324 509ZM93
507Q93 438 114 410T172 382Q207 382 228 410T250 507Q250 576 229 604T172 632Q135 632 114 604T93 507ZM735 189Q735 143 724 108T692 49T643 13T583 0Q550 0 523 12T475 47T444 105T432 185Q432 231 443 266T475 325T522 361T583 374Q615 374 643 362T691 327T723
269T735 189ZM583 312Q547 312 526 284T505 187Q505 118 526 90T583 62Q619 62 641 90T663 187Q663 256 641 284T583 312Z" />
<glyph unicode="&amp;" glyph-name="ampersand" horiz-adv-x="747" d="M654 9Q614 9 579 23T507 63Q464 30 409 10T283 -10Q221 -10 176 5T100 47T54 110T39 188Q39 224 49 252T77 303T119 341T172 371Q134 412 117 451T99 533Q99 568 111 599T148 653T209 690T292
704Q339 704 375 691T437 655T475 601T488 534Q488 493 474 464T436 413T382 376T319 347L443 229L507 170Q538 208 556 253T581 341L658 320Q647 270 625 219T566 121Q591 104 615 95T669 85Q692 85 710 90Q720 92 728 95V23Q719 19 708 16Q698 13 685 11T654
9ZM287 67Q335 67 373 79T444 113Q424 130 404 148T362 187L225 318Q180 298 153 269T125 191Q125 134 165 101T287 67ZM187 533Q187 495 210 463T264 400Q294 412 319 425T362 454T391 489T402 534Q402 579 373 603T293 628Q242 628 215 602T187 533Z" />
<glyph unicode="&apos;" glyph-name="quotesingle" horiz-adv-x="243" d="M75 695H168L158 495H84L75 695Z" />
<glyph unicode="(" glyph-name="parenleft" horiz-adv-x="343" d="M227 -135Q152 -48 115 63T78 298Q78 359 87 420T115 538T161 644T227 733H311Q272 695 244 646T197 540T169 423T160 301Q160 177 196 65T311 -135H227Z" />
<glyph unicode=")" glyph-name="parenright" horiz-adv-x="343" d="M116 -135Q191 -48 228 63T265 298Q265 359 256 420T228 538T182 644T116 733H32Q71 695 99 646T146 540T174 423T183 301Q183 177 147 65T32 -135H116Z" />
<glyph unicode="*" glyph-name="asterisk" horiz-adv-x="431" d="M216 479L146 358L81 405L175 508L39 537L63 613L191 555L176 695H255L240 555L367 613L392 537L255 508L349 405L285 358L216 479Z" />
<glyph unicode="+" glyph-name="plus" horiz-adv-x="566" d="M323 293V89H243V293H49V361H243V565H323V361H517V293H323Z" />
<glyph unicode="," glyph-name="comma" horiz-adv-x="232" d="M52 -104Q61 -94 70 -81T86 -53T97 -26T104 -3Q84 2 71 17T58 54Q58 79 74 96T117 113Q144 113 161 95T178 46Q178 25 173 3T158 -39T138 -76T116 -104H52Z" />
<glyph unicode="-" glyph-name="hyphen" horiz-adv-x="349" d="M58 335H291V257H58V335Z" />
<glyph unicode="." glyph-name="period" horiz-adv-x="232" d="M116 -6Q89 -6 71 11T53 55Q53 82 71 99T116 117Q143 117 160 100T178 55Q178 29 161 12T116 -6Z" />
<glyph unicode="/" glyph-name="slash" horiz-adv-x="385" d="M0 -116L307 733H385L78 -116H0Z" />
<glyph unicode="0" glyph-name="zero" horiz-adv-x="550" d="M276 -10Q226 -10 185 11T112 76T64 187T47 348Q47 441 64 508T112 619T184 683T276 704Q325 704 367 684T439 620T486 510T503 350Q503 257 486 190T439 78T367 12T276 -10ZM275 67Q308 67 333 81T376
129T403 215T412 347Q412 425 403 478T377 565T335 613T276 628Q243 628 218 614T174 566T147 479T138 347Q138 269 147 216T173 129T216 82T275 67Z" />
<glyph unicode="1" glyph-name="one" horiz-adv-x="550" d="M280 0V585L88 438V536L295 695H369V0H280Z" />
<glyph unicode="2" glyph-name="two" horiz-adv-x="550" d="M53 0V90Q143 163 208 218T316 320T380 409T401 496Q401 555 365 590T247 626Q204 626 159 614T75 573V654Q107 678 153 691T255 704Q373 704 432 649T492 504Q492 445 468 394T399 293T291 192T148
82H498V0H53Z" />
<glyph unicode="3" glyph-name="three" horiz-adv-x="550" d="M234 -10Q179 -10 136 2T64 34V113Q91 95 132 82T232 69Q321 69 358 102T396 194Q396 255 360 288T242 322H164V404H247Q302 404 337 432T373 517Q373 568 339 597T225 626Q190 626 152 619T76 589V667Q116
688 155 696T237 704Q290 704 331 691T400 653T444 596T459 522Q459 457 424 419T340 369Q370 364 396 350T443 314T475 261T487 193Q487 148 470 111T419 47T339 5T234 -10Z" />
<glyph unicode="4" glyph-name="four" horiz-adv-x="550" d="M335 601L123 239H335V601ZM420 165V0H335V165H34V225L306 695H420V239H514V165H420Z" />
<glyph unicode="5" glyph-name="five" horiz-adv-x="550" d="M227 -10Q174 -10 131 1T60 33V111Q84 94 123 82T216 69Q262 69 296 80T352 113T385 162T396 225Q396 261 386 286T356 328T312 351T258 358Q233 358 215 354T183 343T162 330T150 318H80V695H453V612H159V399Q176
415 203 425T273 435Q317 435 356 423T424 384T471 319T488 227Q488 174 471 131T420 56T338 7T227 -10Z" />
<glyph unicode="6" glyph-name="six" horiz-adv-x="550" d="M282 -14Q226 -14 182 4T105 56T56 141T39 254Q39 343 69 414T144 540T240 632T332 691H464V682Q334 615 250 537T141 362Q170 403 209 423T305 444Q349 444 387 430T453 388T498 318T514 218Q514 166
497 124T449 51T376 3T282 -14ZM279 62Q310 62 336 71T382 100T412 148T423 216Q423 295 387 332T287 370Q257 370 234 363T193 343T159 312T130 273V254Q130 201 141 164T173 105T220 72T279 62Z" />
<glyph unicode="7" glyph-name="seven" horiz-adv-x="550" d="M109 0L406 612H51V695H499V617L204 0H109Z" />
<glyph unicode="8" glyph-name="eight" horiz-adv-x="550" d="M277 -10Q226 -10 184 3T110 42T62 103T44 187Q44 255 79 301T175 369Q126 389 98 428T69 527Q69 570 85 603T128 658T194 692T277 704Q320 704 358 693T424 660T468 605T484 529Q484 469 455 430T378
370Q437 349 472 304T507 190Q507 143 490 106T441 43T368 4T277 -10ZM277 404Q329 404 362 433T396 516Q396 569 363 598T277 628Q226 628 192 599T157 516Q157 463 191 434T277 404ZM277 67Q337 67 377 102T418 202Q418 234 407 259T378 301T333 328T277 337Q246
337 220 328T174 302T144 259T133 202Q133 137 173 102T277 67Z" />
<glyph unicode="9" glyph-name="nine" horiz-adv-x="550" d="M268 705Q323 705 368 687T445 635T494 550T511 437Q511 348 483 277T412 151T323 59T238 0H106V9Q228 76 306 154T409 329Q380 288 341 268T245 247Q201 247 163 261T97 303T52 373T36 473Q36 525
53 567T101 640T174 688T268 705ZM271 629Q240 629 214 620T168 591T138 543T127 475Q127 396 163 359T263 321Q293 321 316 328T357 348T391 379T420 418V437Q420 490 409 527T377 586T330 619T271 629Z" />
<glyph unicode=":" glyph-name="colon" horiz-adv-x="232" d="M116 366Q89 366 71 383T53 427Q53 454 71 471T116 489Q143 489 160 472T178 427Q178 401 161 384T116 366ZM116 -6Q89 -6 71 11T53 55Q53 82 71 99T116 117Q143 117 160 100T178 55Q178 29 161 12T116 -6Z" />
<glyph unicode=";" glyph-name="semicolon" horiz-adv-x="232" d="M52 -104Q61 -94 70 -81T86 -53T97 -26T104 -3Q84 2 71 17T58 54Q58 79 74 96T117 113Q144 113 161 95T178 46Q178 25 173 3T158 -39T138 -76T116 -104H52ZM116 366Q89 366 71 383T53 427Q53 454
71 471T116 489Q143 489 160 472T178 427Q178 401 161 384T116 366Z" />
<glyph unicode="&lt;" glyph-name="less" horiz-adv-x="498" d="M49 283V371L449 555V477L123 327L449 177V99L49 283Z" />
<glyph unicode="=" glyph-name="equal" horiz-adv-x="575" d="M53 385V453H522V385H53ZM53 201V269H522V201H53Z" />
<glyph unicode="&gt;" glyph-name="greater" horiz-adv-x="498" d="M49 177L375 327L49 477V555L449 371V283L49 99V177Z" />
<glyph unicode="?" glyph-name="question" horiz-adv-x="456" d="M427 504Q427 452 410 417T367 358T311 318T255 285T212 250T194 203V185H121V202Q121 248 137 277T177 326T230 361T283 394T324 438T340 505Q340 528 335 550T314 589T270 617T196 628Q160 628
133 622T88 609Q67 601 53 591V667Q69 677 92 685Q112 692 139 698T205 704Q263 704 305 689T374 646T414 583T427 504ZM161 -6Q135 -6 118 11T101 53Q101 79 118 96T161 113Q187 113 204 96T221 53Q221 28 204 11T161 -6Z" />
<glyph unicode="@" glyph-name="at" horiz-adv-x="1031" d="M521 -193Q421 -193 334 -166T183 -86T81 46T44 230Q44 335 80 422T182 572T339 669T539 704Q631 704 712 679T855 606T951 488T987 326Q987 267 972 212T928 115T855 48T754 22Q689 22 655 51T610 124Q583
73 541 48T447 22Q415 22 384 33T329 68T290 132T275 226Q275 281 291 328T336 409T404 464T491 484Q542 484 578 459T632 379L670 455H725L681 212Q678 193 679 172T689 132T715 103T761 91Q792 91 819 107T867 152T898 222T910 313Q910 391 880 451T799 552T680
615T534 637Q445 637 370 608T239 527T153 400T121 235Q121 142 152 74T237 -38T364 -104T524 -126Q604 -126 660 -112T742 -83V-155Q714 -169 654 -181T521 -193ZM359 222Q359 183 368 158T394 117T429 96T469 89Q502 89 529 105T574 148T603 210T613 283Q613
320 604 345T579 385T544 407T504 414Q470 414 443 398T398 356T369 295T359 222Z" />
<glyph unicode="A" glyph-name="A" horiz-adv-x="671" d="M330 627L206 281H454L330 627ZM483 199H176L105 0H19L267 695H403L652 0H555L483 199Z" />
<glyph unicode="B" glyph-name="B" horiz-adv-x="626" d="M173 612V399H310Q376 399 417 428T459 521Q459 574 422 593T317 612H173ZM173 316V82H315Q352 82 382 88T434 107T468 143T480 199Q480 264 438 290T305 316H173ZM81 695H317Q431 695 491 657T551 526Q551
452 514 414T413 361Q494 351 535 314T576 201Q576 147 557 109T502 46T419 11T315 0H81V695Z" />
<glyph unicode="C" glyph-name="C" horiz-adv-x="651" d="M383 -10Q306 -10 243 14T135 85T66 197T41 347Q41 431 63 497T129 609T236 679T381 704Q452 704 505 689T593 654V566Q548 594 492 608T380 622Q257 622 199 554T140 347Q140 209 203 141T391 73Q445
73 495 87T593 137V49Q564 26 511 8T383 -10Z" />
<glyph unicode="D" glyph-name="D" horiz-adv-x="685" d="M173 612V82H305Q359 82 403 98T479 149T528 237T546 365Q546 438 529 486T481 562T408 601T315 612H173ZM81 695H315Q385 695 445 679T549 625T619 525T645 371Q645 279 620 210T549 94T441 24T305 0H81V695Z" />
<glyph unicode="E" glyph-name="E" horiz-adv-x="580" d="M81 695H512V612H173V402H461V319H173V82H517V0H81V695Z" />
<glyph unicode="F" glyph-name="F" horiz-adv-x="551" d="M173 299V0H81V695H506V612H173V381H456V299H173Z" />
<glyph unicode="G" glyph-name="G" horiz-adv-x="717" d="M669 273Q669 212 651 161T596 71T504 12T372 -10Q298 -10 238 15T133 88T65 201T41 347Q41 428 64 493T132 606T244 678T399 704Q444 704 479 699T541 684T588 665T623 644V557Q576 585 523 603T396 622Q264
622 202 550T140 347Q140 218 201 146T372 73Q427 73 465 87T528 125T564 184T575 260V279H351V362H669V273Z" />
<glyph unicode="H" glyph-name="H" horiz-adv-x="702" d="M530 304H173V0H81V695H173V386H530V695H622V0H530V304Z" />
<glyph unicode="I" glyph-name="I" horiz-adv-x="253" d="M173 695V0H81V695H173Z" />
<glyph unicode="J" glyph-name="J" horiz-adv-x="362" d="M284 695V129Q284 102 275 77T245 33T195 2T122 -10Q96 -10 71 -6T24 7V85Q61 73 101 73Q149 73 170 93T192 156V695H284Z" />
<glyph unicode="K" glyph-name="K" horiz-adv-x="622" d="M245 298H173V0H81V695H173V380H241L489 695H592L317 349L602 0H489L245 298Z" />
<glyph unicode="L" glyph-name="L" horiz-adv-x="555" d="M81 695H173V82H511V0H81V695Z" />
<glyph unicode="M" glyph-name="M" horiz-adv-x="850" d="M378 107L168 568V0H81V695H209L424 207L651 695H769V0H677V559L464 107L418 106H377L378 107Z" />
<glyph unicode="N" glyph-name="N" horiz-adv-x="722" d="M168 583V0H81V695H205L554 112V695H641V0H517L168 583Z" />
<glyph unicode="O" glyph-name="O" horiz-adv-x="747" d="M373 -10Q303 -10 243 13T137 83T67 196T41 350Q41 437 66 503T137 614T242 681T373 704Q445 704 506 682T611 615T681 504T706 349Q706 262 681 196T612 83T506 14T373 -10ZM373 73Q423 73 466 88T540
135T590 220T608 347Q608 422 590 474T541 559T466 607T373 622Q323 622 281 607T207 559T157 474T139 347Q139 272 157 220T206 136T280 88T373 73Z" />
<glyph unicode="P" glyph-name="P" horiz-adv-x="592" d="M173 612V353H296Q333 353 363 360T415 385T449 428T461 493Q461 556 420 584T304 612H173ZM173 271V0H81V695H304Q422 695 487 646T553 494Q553 435 534 393T482 323T401 284T296 271H173Z" />
<glyph unicode="Q" glyph-name="Q" horiz-adv-x="747" d="M682 -131Q604 -115 542 -97T428 -61T333 -26T252 7Q205 25 167 53T100 123T57 218T41 344Q41 431 66 498T135 611T240 680T372 704Q442 704 503 682T609 615T680 504T706 350Q706 287 693 233T650 134T572
58T455 8Q513 -10 576 -23T715 -46L682 -131ZM373 73Q423 73 466 88T540 135T590 220T608 347Q608 422 590 474T541 559T466 607T373 622Q323 622 281 607T207 559T157 474T139 347Q139 272 157 220T206 136T280 88T373 73Z" />
<glyph unicode="R" glyph-name="R" horiz-adv-x="631" d="M173 0H81V695H314Q437 695 501 648T566 497Q566 406 523 358T407 292L596 0H493L311 282H173V0ZM173 612V365H306Q343 365 373 371T425 394T459 435T471 499Q471 561 430 586T314 612H173Z" />
<glyph unicode="S" glyph-name="S" horiz-adv-x="568" d="M275 -10Q228 -10 190 -4T124 13T76 35T44 59V146Q58 134 81 121T135 98T201 80T275 73Q350 73 395 102T440 188Q440 218 430 237T399 268T347 290T276 310Q235 321 195 334T122 370T69 427T49 513Q49
602 112 653T306 704Q344 704 373 700T425 690T465 676T496 661V573Q455 599 408 610T306 622Q213 622 177 594T140 517Q140 487 153 468T187 436T237 415T297 399Q338 389 380 377T456 342T512 284T534 192Q534 137 513 99T455 36T372 1T275 -10Z" />
<glyph unicode="T" glyph-name="T" horiz-adv-x="581" d="M336 611V0H243V611H29V695H550V611H336Z" />
<glyph unicode="U" glyph-name="U" horiz-adv-x="671" d="M65 695H157V238Q157 153 205 113T337 72Q377 72 411 82T471 113T510 165T525 238V695H612V241Q612 181 591 134T533 55T445 7T335 -10Q277 -10 228 6T142 53T86 130T65 237V695Z" />
<glyph unicode="V" glyph-name="V" horiz-adv-x="656" d="M15 695H110L331 55L554 695H641L400 0H257L15 695Z" />
<glyph unicode="W" glyph-name="W" horiz-adv-x="922" d="M19 695H114L246 79L425 695H508L683 91L814 695H902L749 0H615L462 539L307 0H173L19 695Z" />
<glyph unicode="X" glyph-name="X" horiz-adv-x="621" d="M305 298L102 0H5L258 366L38 695H146L324 430L499 695H596L369 364L616 0H506L305 298Z" />
<glyph unicode="Y" glyph-name="Y" horiz-adv-x="605" d="M257 0V299L19 695H124L307 380L493 695H586L350 302V0H257Z" />
<glyph unicode="Z" glyph-name="Z" horiz-adv-x="596" d="M42 0V66L430 612H52V695H543V629L151 82H544V0H42Z" />
<glyph unicode="[" glyph-name="bracketleft" horiz-adv-x="396" d="M97 733H367V661H179V-62H367V-135H97V733Z" />
<glyph unicode="\" glyph-name="backslash" horiz-adv-x="385" d="M0 733H78L385 -116H307L0 733Z" />
<glyph unicode="]" glyph-name="bracketright" horiz-adv-x="396" d="M299 733H29V661H217V-62H29V-135H299V733Z" />
<glyph unicode="^" glyph-name="asciicircum" horiz-adv-x="437" d="M219 625L102 444H29L170 695H267L407 444H335L219 625Z" />
<glyph unicode="_" glyph-name="underscore" horiz-adv-x="378" d="M-10 -39H388V-112H-10V-39Z" />
<glyph unicode="`" glyph-name="grave" horiz-adv-x="437" d="M228 570L101 724H212L301 570H228Z" />
<glyph unicode="a" glyph-name="a" horiz-adv-x="510" d="M214 67Q254 67 282 83T327 122T353 164T361 194V231H275Q199 231 165 209T130 144Q130 109 150 88T214 67ZM365 97Q357 79 344 60T310 26T261 0T196 -10Q128 -10 87 28T45 139Q45 221 102 260T267 299H361V340Q361
393 334 415T241 437Q194 437 152 423T78 388V465Q104 482 150 497T252 513Q347 513 396 474T446 352V81Q446 64 447 39T451 0H373Q371 13 369 38T366 81L365 97Z" />
<glyph unicode="b" glyph-name="b" horiz-adv-x="571" d="M323 -10Q264 -10 222 18T153 95L150 0H70V695H155L153 405Q178 454 221 483T327 513Q371 513 411 497T481 449T530 368T548 252Q548 186 530 137T480 55T409 6T323 -10ZM310 67Q377 67 418 113T460 252Q460
343 419 390T310 437Q277 437 249 426T199 391T166 333T154 252Q154 205 166 171T199 113T248 79T310 67Z" />
<glyph unicode="c" glyph-name="c" horiz-adv-x="474" d="M287 -10Q228 -10 182 7T102 59T52 141T34 252Q34 376 102 444T291 513Q337 513 376 503T440 473V397Q409 417 371 427T292 437Q204 437 163 392T121 252Q121 158 161 113T287 67Q332 67 370 78T440 107V30Q413
13 375 2T287 -10Z" />
<glyph unicode="d" glyph-name="d" horiz-adv-x="582" d="M273 67Q306 67 334 78T383 113T416 170T428 252Q428 299 416 333T383 391T334 425T273 437Q206 437 164 390T121 252Q121 159 163 113T273 67ZM431 98Q408 49 366 20T260 -10Q215 -10 174 6T102 54T53
136T34 252Q34 318 52 367T102 449T174 497T261 513Q318 513 360 489T427 422V695H512V0H437L431 98Z" />
<glyph unicode="e" glyph-name="e" horiz-adv-x="514" d="M271 437Q214 437 175 404T125 301H396Q399 370 364 403T271 437ZM470 43Q460 35 444 26T406 9T356 -4T293 -10Q166 -10 100 58T34 252Q34 313 52 361T102 444T178 495T273 513Q327 513 369 495T439 440T477
351T477 229H122Q127 148 170 108T301 67Q359 67 401 83T470 119V43Z" />
<glyph unicode="f" glyph-name="f" horiz-adv-x="361" d="M185 431V0H100V431H39V503H100V516Q100 605 147 654T277 704Q314 704 341 695V618Q333 622 317 625T281 628Q236 628 211 601T185 516V503H331V431H185Z" />
<glyph unicode="g" glyph-name="g" horiz-adv-x="571" d="M271 97Q334 97 376 138T418 266Q418 352 376 394T270 437Q238 437 210 427T162 395T131 341T119 266Q119 224 130 192T162 139T210 108T271 97ZM249 -174Q203 -174 171 -168T117 -153Q92 -144 76 -132V-55Q92
-67 117 -76Q138 -84 171 -90T250 -97Q343 -97 380 -62T417 42V119Q394 74 355 47T255 20Q210 20 170 35T100 82T51 159T33 266Q33 328 51 374T99 451T171 497T257 513Q317 513 358 486T423 412L424 423Q424 432 424 443T426 465T428 486T430 503H507Q505 490 504
465T502 423V43Q502 -6 488 -46T444 -114T365 -158T249 -174Z" />
<glyph unicode="h" glyph-name="h" horiz-adv-x="558" d="M308 437Q250 437 214 411T155 342V0H70V695H155V503L153 413H155Q175 455 219 484T330 513Q405 513 449 474T493 353V0H407V344Q407 396 381 416T308 437Z" />
<glyph unicode="i" glyph-name="i" horiz-adv-x="224" d="M113 577Q87 577 72 593T56 632Q56 655 71 672T113 689Q138 689 153 672T168 632Q168 609 153 593T113 577ZM155 503V0H70V503H155Z" />
<glyph unicode="j" glyph-name="j" horiz-adv-x="232" d="M120 577Q94 577 79 593T64 632Q64 655 79 672T120 689Q145 689 160 672T176 632Q176 609 161 593T120 577ZM163 -43Q163 -71 155 -96T131 -140T88 -170T25 -181Q5 -181 -17 -177T-63 -161V-79Q-49 -90
-31 -97T11 -105Q47 -105 62 -88T78 -45V503H163V-43Z" />
<glyph unicode="k" glyph-name="k" horiz-adv-x="481" d="M200 214H155V0H70V695H155V287H204L380 503H477L270 255L481 0H377L200 214Z" />
<glyph unicode="l" glyph-name="l" horiz-adv-x="224" d="M155 695V0H70V695H155Z" />
<glyph unicode="m" glyph-name="m" horiz-adv-x="856" d="M155 0H70V503H145L153 413H155Q175 455 216 484T323 513Q380 513 418 486T468 401Q490 454 534 483T641 513Q710 513 751 474T792 353V0H706V342Q706 392 682 414T616 437Q588 437 567 429T528 406T498
373T473 332V0H388V352Q388 401 364 419T298 437Q243 437 211 411T155 341V0Z" />
<glyph unicode="n" glyph-name="n" horiz-adv-x="558" d="M308 437Q250 437 214 411T155 342V0H70V503H150L153 413H155Q175 456 219 484T330 513Q405 513 449 474T493 353V0H407V344Q407 396 381 416T308 437Z" />
<glyph unicode="o" glyph-name="o" horiz-adv-x="555" d="M276 -10Q225 -10 181 7T104 58T53 140T34 252Q34 315 52 363T103 445T180 495T276 513Q328 513 373 496T451 445T502 364T521 252Q521 189 503 141T451 59T373 8T276 -10ZM276 67Q310 67 339 78T389 112T422
169T434 252Q434 300 422 334T389 392T339 426T276 437Q243 437 215 426T165 392T133 335T121 252Q121 204 132 170T165 112T214 78T276 67Z" />
<glyph unicode="p" glyph-name="p" horiz-adv-x="582" d="M310 67Q377 67 418 113T460 252Q460 343 419 390T310 437Q277 437 249 426T199 391T166 333T154 252Q154 205 166 171T199 113T248 79T310 67ZM323 -10Q266 -10 224 17T155 92V-172H70V503H145L153 404Q178
454 221 483T327 513Q371 513 411 497T481 449T530 368T548 252Q548 186 530 137T480 55T409 6T323 -10Z" />
<glyph unicode="q" glyph-name="q" horiz-adv-x="582" d="M427 -172V91Q404 45 363 18T260 -10Q215 -10 174 6T102 54T53 136T34 252Q34 318 52 367T102 449T174 497T261 513Q321 513 364 487T431 414L432 423Q432 432 432 443T434 465T436 486T438 503H517Q515
490 514 465T512 423V-172H427ZM273 67Q306 67 334 78T383 113T416 170T428 252Q428 298 416 333T383 391T334 425T273 437Q206 437 164 390T121 252Q121 159 163 113T273 67Z" />
<glyph unicode="r" glyph-name="r" horiz-adv-x="353" d="M319 418Q265 413 221 391T155 320V0H70V503H145L153 394H155Q176 439 216 472T319 513V418Z" />
<glyph unicode="s" glyph-name="s" horiz-adv-x="468" d="M231 -10Q192 -10 161 -4T108 12T70 31T45 49V126Q55 117 71 106T111 85T164 69T230 62Q284 62 316 79T348 139Q348 161 338 174T311 196T270 209T222 219Q190 226 159 234T103 258T63 300T47 368Q47 436
99 474T247 513Q301 513 342 503T405 479V403Q380 420 343 430T250 441Q193 441 163 426T132 370Q132 349 141 337T165 318T199 306T240 298Q273 291 307 283T370 259T416 215T434 141Q434 97 417 68T370 22T305 -3T231 -10Z" />
<glyph unicode="t" glyph-name="t" horiz-adv-x="360" d="M316 11Q301 2 277 -4T225 -10Q188 -10 163 0T121 29T97 70T89 117V431H29V503H89V609H175V503H321V431H175V128Q175 96 191 82T247 67Q267 67 283 72T316 88V11Z" />
<glyph unicode="u" glyph-name="u" horiz-adv-x="548" d="M393 90Q373 48 331 19T220 -10Q150 -10 107 30T64 151V503H150V151Q150 126 157 110T177 85T207 71T244 67Q301 67 335 92T393 161V503H478V0H403L395 90H393Z" />
<glyph unicode="v" glyph-name="v" horiz-adv-x="502" d="M10 503H102L255 46L407 503H493L320 0H182L10 503Z" />
<glyph unicode="w" glyph-name="w" horiz-adv-x="761" d="M29 503H119L215 64L338 503H434L553 69L648 503H732L618 0H487L380 388L271 0H144L29 503Z" />
<glyph unicode="x" glyph-name="x" horiz-adv-x="488" d="M238 199L102 0H15L197 261L36 503H138L257 325L376 503H465L298 263L473 0H372L238 199Z" />
<glyph unicode="y" glyph-name="y" horiz-adv-x="515" d="M113 -181Q94 -181 78 -179T48 -171V-88Q58 -96 74 -100T111 -105Q146 -105 169 -88T214 -34L10 503H102L260 75L421 503H505L317 6Q300 -39 281 -74T237 -132T182 -168T113 -181Z" />
<glyph unicode="z" glyph-name="z" horiz-adv-x="445" d="M34 0V55L299 431H42V503H405V448L141 73H406V0H34Z" />
<glyph unicode="{" glyph-name="braceleft" horiz-adv-x="416" d="M358 -131Q304 -140 266 -134T204 -109T169 -62T157 3Q157 25 159 42T164 77T169 111T170 151Q170 174 166 193T150 227T119 250T68 263V336Q99 339 119 348T150 371T165 404T170 447Q171 469
169 486T165 521T160 556T157 596Q157 632 168 660T204 707T266 731T358 729V661Q323 668 301 665T266 652T248 626T243 591Q243 570 244 553T246 519T249 485T250 447Q250 426 246 406T231 366T201 329T149 298Q181 285 200 268T231 232T246 193T250 151Q250 130
249 113T247 80T244 46T243 8Q243 -12 248 -28T266 -54T301 -66T358 -62V-131V-131Z" />
<glyph unicode="|" glyph-name="bar" horiz-adv-x="276" d="M179 733V-116H97V733H179Z" />
<glyph unicode="}" glyph-name="braceright" horiz-adv-x="416" d="M58 -131Q112 -140 150 -134T212 -109T247 -62T259 3Q259 25 257 42T252 77T247 111T246 151Q246 174 250 193T266 227T297 250T348 263V336Q317 339 297 348T266 371T251 404T246 447Q245 469
247 486T251 521T256 556T259 596Q259 632 248 660T212 707T150 731T58 729V661Q93 668 115 665T150 652T168 626T173 591Q173 570 172 553T170 519T167 485T166 447Q166 426 170 406T185 366T215 329T267 298Q235 285 216 268T185 232T170 193T166 151Q166 130
167 113T169 80T172 46T173 8Q173 -12 168 -28T150 -54T115 -66T58 -62V-131V-131Z" />
<glyph unicode="~" glyph-name="asciitilde" horiz-adv-x="591" d="M50 240Q45 271 50 301T72 355T116 392T185 407Q224 407 255 394T311 365T359 336T404 323Q436 323 450 344T463 413H539Q544 382 539 352T517 298T472 260T404 245Q365 245 334 258T278 287T230
316T186 330Q154 330 140 309T127 240H50V240Z" />
<glyph unicode="&#xa0;" glyph-name="uni00A0" horiz-adv-x="194" />
<glyph unicode="&#xa1;" glyph-name="exclamdown" horiz-adv-x="266" d="M89 -188L98 322H167L175 -188H89ZM133 513Q159 513 176 496T193 454Q193 428 176 411T133 394Q107 394 90 411T73 454Q73 479 90 496T133 513Z" />
<glyph unicode="&#xa2;" glyph-name="cent" horiz-adv-x="494" d="M445 30Q421 16 389 5T314 -9V-136H233V-5Q142 12 91 78T39 252Q39 358 90 424T233 507V630H314V513Q355 511 388 501T445 473V397Q414 417 376 427T297 437Q209 437 168 392T126 252Q126 158
166 113T292 67Q337 67 375 78T445 107V30V30Z" />
<glyph unicode="&#xa3;" glyph-name="sterling" horiz-adv-x="564" d="M520 0H65V49Q120 89 140 127T161 216Q161 245 155 271H58V342H134Q120 379 108 416T95 500Q95 593 156 648T337 704Q393 704 429 693T488 666V588Q462 604 421 615T334 626Q292 626 264 616T218
589T193 547T185 492Q186 446 199 412T226 342H391V271H243Q243 264 243 258T244 243Q244 198 231 159T178 78H520V0Z" />
<glyph unicode="&#xa4;" glyph-name="currency" horiz-adv-x="550" d="M392 169Q367 152 337 142T275 132Q242 132 213 142T157 169L86 98L39 145L110 216Q93 242 83 271T73 334Q73 368 83 397T110 452L39 523L86 570L157 499Q183 516 212 526T275 536Q307 536
337 526T393 499L464 570L511 523L440 452Q457 426 467 397T477 334Q477 300 467 271T440 216L511 145L463 98L392 169ZM276 468Q251 468 229 459T191 433T164 391T154 334Q154 302 164 277T190 235T229 209T276 200Q301 200 323 209T361 235T387 277T397 334Q397
366 388 391T362 433T323 459T276 468Z" />
<glyph unicode="&#xa5;" glyph-name="yen" horiz-adv-x="617" d="M352 145V0H267V145H112V212H267V290H112V358H243L41 695H137L312 398L488 695H576L373 358H507V290H352V212H507V145H352Z" />
<glyph unicode="&#xa6;" glyph-name="brokenbar" horiz-adv-x="276" d="M179 733V345H97V733H179ZM179 272V-116H97V272H179Z" />
<glyph unicode="&#xa7;" glyph-name="section" horiz-adv-x="568" d="M298 167Q362 167 398 192T435 264Q435 357 278 357Q127 357 127 265Q127 236 142 218T181 188T236 172T298 167ZM251 -181Q165 -181 113 -162T40 -123V-49Q53 -60 74 -71T123 -91T183 -105T251
-111Q320 -111 361 -87T402 -13Q402 12 393 28T364 56T317 76T252 93Q209 103 172 115T106 145T62 191T45 259Q45 314 78 351T172 403Q124 427 101 460T78 542Q78 616 135 660T311 704Q381 704 420 692T485 667V593Q449 615 406 624T311 634Q227 634 194 610T160
545Q160 520 172 503T204 474T250 455T304 442Q343 435 381 424T450 392T500 342T520 268Q520 164 401 126Q487 82 487 -10Q487 -56 468 -88T415 -141T340 -171T251 -181Z" />
<glyph unicode="&#xa8;" glyph-name="dieresis" horiz-adv-x="437" d="M323 577Q298 577 283 592T268 631Q268 655 283 671T323 687Q348 687 363 671T378 631Q378 608 363 593T323 577ZM113 577Q89 577 74 592T58 631Q58 655 73 671T113 687Q138 687 153 671T169
631Q169 608 154 593T113 577Z" />
<glyph unicode="&#xa9;" glyph-name="copyright" horiz-adv-x="875" d="M437 -93Q353 -93 280 -64T154 19T70 146T39 307Q39 394 69 466T153 592T280 674T437 704Q522 704 595 675T721 592T805 467T836 307Q836 220 806 147T722 20T595 -63T437 -93ZM437 -33Q511
-33 572 -8T678 63T746 170T771 307Q771 380 747 442T678 549T573 619T437 645Q363 645 302 620T197 549T129 442T104 307Q104 233 128 171T197 63T302 -7T437 -33ZM459 97Q364 97 308 152T251 306Q251 404 304 458T458 513Q495 513 523 505T569 486V417Q547 432
518 439T457 446Q329 446 329 306Q329 164 463 164Q492 164 518 171T569 199V129Q555 117 527 107T459 97Z" />
<glyph unicode="&#xaa;" glyph-name="ordfeminine" horiz-adv-x="445" d="M188 372Q222 372 245 386T284 419T305 456T312 482V513H240Q174 513 145 494T115 438Q115 409 133 391T188 372ZM315 395Q308 380 296 364T267 335T225 314T170 305Q111 305 75 338T38
434Q38 506 88 539T233 572H312V607Q312 652 289 671T210 690Q168 690 132 678T67 648V717Q90 731 130 745T220 759Q303 759 346 725T390 618V383Q390 369 391 347T394 313H323Q321 325 319 346T316 383L315 395Z" />
<glyph unicode="&#xab;" glyph-name="guillemotleft" horiz-adv-x="495" d="M167 67L44 256L167 445H257L134 256L257 67H167ZM371 67L247 256L371 445H461L338 256L461 67H371Z" />
<glyph unicode="&#xac;" glyph-name="logicalnot" horiz-adv-x="570" d="M437 99V293H49V361H517V99H437Z" />
<glyph unicode="&#xae;" glyph-name="registered" horiz-adv-x="875" d="M437 -93Q353 -93 280 -64T154 19T70 146T39 307Q39 394 69 466T153 592T280 674T437 704Q522 704 595 675T721 592T805 467T836 307Q836 220 806 147T722 20T595 -63T437 -93ZM437 -33Q511
-33 572 -8T678 63T746 170T771 307Q771 380 747 442T678 549T573 619T437 645Q363 645 302 620T197 549T129 442T104 307Q104 233 128 171T197 63T302 -7T437 -33ZM372 440V318H435Q473 318 495 332T517 382Q517 415 496 427T437 440H372ZM440 250H372V104H296V508H437Q514
508 554 479T595 386Q595 337 574 308T515 265L610 104H525L440 250Z" />
<glyph unicode="&#xaf;" glyph-name="macron" horiz-adv-x="437" d="M78 666H359V598H78V666Z" />
<glyph unicode="&#xb0;" glyph-name="degree" horiz-adv-x="489" d="M244 351Q206 351 174 364T119 401T82 457T68 528Q68 567 81 599T118 654T174 691T244 704Q282 704 314 691T370 655T407 599T421 528Q421 490 408 458T371 402T315 365T244 351ZM244 410Q295
410 325 442T356 528Q356 581 326 613T244 645Q193 645 163 613T133 528Q133 474 163 442T244 410Z" />
<glyph unicode="&#xb1;" glyph-name="plusminus" horiz-adv-x="575" d="M328 293V126H247V293H53V361H247V565H328V361H522V293H328ZM53 0V68H522V0H53Z" />
<glyph unicode="&#xb2;" glyph-name="twosuperior" horiz-adv-x="374" d="M157 309Q115 309 81 318T28 338V402Q45 391 75 382T147 372Q201 372 222 390T244 441Q244 511 161 511H100V576H164Q193 576 211 591T230 638Q230 665 212 680T148 696Q116 696 90 688T44
667V730Q64 742 93 750T159 758Q231 758 269 727T308 643Q308 603 288 579T238 547Q274 541 300 514T326 439Q326 381 282 345T157 309Z" />
<glyph unicode="&#xb3;" glyph-name="threesuperior" horiz-adv-x="383" d="M34 315V389Q91 431 131 464T197 525T234 576T246 624Q246 658 224 676T153 695Q122 695 95 687T48 666V729Q65 741 94 749T164 758Q243 758 285 724T327 623Q327 565 275 509T118 381H330V315H34Z"
/>
<glyph unicode="&#xb4;" glyph-name="acute" horiz-adv-x="437" d="M224 724H336L209 570H136L224 724Z" />
<glyph unicode="&#xb6;" glyph-name="paragraph" horiz-adv-x="616" d="M535 -181H453V695H535V-181ZM312 -181V271H286Q231 271 186 284T108 324T57 389T39 482Q39 588 101 641T278 695H395V-181H312Z" />
<glyph unicode="&#xb7;" glyph-name="periodcentered" horiz-adv-x="227" d="M114 233Q87 233 69 250T51 294Q51 321 69 338T114 356Q141 356 158 339T176 294Q176 268 159 251T114 233Z" />
<glyph unicode="&#xb8;" glyph-name="cedilla" horiz-adv-x="437" d="M277 19L220 -181H113L205 19H277Z" />
<glyph unicode="&#xb9;" glyph-name="onesuperior" horiz-adv-x="304" d="M146 315V665L49 575V653L157 752H226V315H146Z" />
<glyph unicode="&#xba;" glyph-name="ordmasculine" horiz-adv-x="483" d="M241 305Q196 305 157 320T90 364T45 435T29 533Q29 587 45 629T89 700T157 744T241 759Q286 759 325 744T392 700T437 629T454 533Q454 478 438 436T393 364T325 320T241 305ZM241 373Q298
373 336 412T374 533Q374 614 336 652T241 690Q184 690 147 652T109 533Q109 451 146 412T241 373Z" />
<glyph unicode="&#xbb;" glyph-name="guillemotright" horiz-adv-x="495" d="M157 256L34 445H124L247 256L124 67H34L157 256ZM361 256L238 445H328L451 256L328 67H238L361 256Z" />
<glyph unicode="&#xbc;" glyph-name="onequarter" horiz-adv-x="909" d="M156 257V607L59 517V595L167 694H236V257H156ZM130 0L693 695H770L208 0H130ZM735 351L601 161H735V351ZM812 98V1H735V98H524V155L727 438H812V161H875V98H812Z" />
<glyph unicode="&#xbd;" glyph-name="onehalf" horiz-adv-x="979" d="M130 0L693 695H770L208 0H130ZM620 1V75Q677 117 717 150T783 211T820 262T832 310Q832 344 810 362T739 381Q708 381 681 373T634 352V415Q651 427 680 435T750 444Q829 444 871 410T913
309Q913 251 861 195T704 67H916V1H620ZM156 257V607L59 517V595L167 694H236V257H156Z" />
<glyph unicode="&#xbe;" glyph-name="threequarters" horiz-adv-x="961" d="M167 251Q125 251 91 260T38 280V344Q55 333 85 324T157 314Q211 314 232 332T254 383Q254 453 171 453H110V518H174Q203 518 221 533T240 580Q240 607 222 622T158 638Q126 638 100
630T54 609V672Q74 684 103 692T169 700Q241 700 279 669T318 585Q318 545 298 521T248 489Q284 483 310 456T336 381Q336 323 292 287T167 251ZM182 0L745 695H822L260 0H182ZM787 351L653 161H787V351ZM864 98V1H787V98H576V155L779 438H864V161H927V98H864Z"
/>
<glyph unicode="&#xbf;" glyph-name="questiondown" horiz-adv-x="456" d="M39 3Q39 55 56 90T99 149T155 189T211 222T254 257T272 304V322H345V305Q345 259 329 230T289 181T236 146T183 113T142 69T126 2Q126 -21 131 -43T152 -82T196 -110T270 -121Q306 -121
333 -115T378 -102Q399 -94 413 -84V-160Q397 -170 374 -178Q354 -185 327 -191T261 -197Q203 -197 161 -182T92 -139T52 -76T39 3ZM305 513Q331 513 348 496T365 454Q365 428 348 411T305 394Q279 394 262 411T245 454Q245 479 262 496T305 513Z" />
<glyph unicode="&#xc0;" glyph-name="Agrave" horiz-adv-x="671" d="M330 627L206 281H454L330 627ZM483 199H176L105 0H19L267 695H403L652 0H555L483 199ZM335 750L203 882H324L417 750H335Z" />
<glyph unicode="&#xc1;" glyph-name="Aacute" horiz-adv-x="671" d="M330 627L206 281H454L330 627ZM483 199H176L105 0H19L267 695H403L652 0H555L483 199ZM331 882H452L320 750H237L331 882Z" />
<glyph unicode="&#xc2;" glyph-name="Acircumflex" horiz-adv-x="671" d="M330 627L206 281H454L330 627ZM483 199H176L105 0H19L267 695H403L652 0H555L483 199ZM336 822L258 740H185L287 884H384L486 740H413L336 822Z" />
<glyph unicode="&#xc3;" glyph-name="Atilde" horiz-adv-x="671" d="M330 627L206 281H454L330 627ZM483 199H176L105 0H19L267 695H403L652 0H555L483 199ZM168 760Q165 784 168 807T183 849T214 879T263 890Q288 890 308 882T344 864T375 846T404 837Q444 837
441 894H502Q506 870 502 847T487 805T455 775T407 764Q382 764 362 772T326 791T295 809T266 818Q227 818 230 760H168V760Z" />
<glyph unicode="&#xc4;" glyph-name="Adieresis" horiz-adv-x="671" d="M330 627L206 281H454L330 627ZM483 199H176L105 0H19L267 695H403L652 0H555L483 199ZM450 762Q425 762 410 778T394 817Q394 840 409 856T450 872Q475 872 490 856T505 817Q505 794 490
778T450 762ZM221 762Q196 762 181 778T166 817Q166 840 181 856T221 872Q246 872 261 856T276 817Q276 794 261 778T221 762Z" />
<glyph unicode="&#xc5;" glyph-name="Aring" horiz-adv-x="671" d="M330 627L206 281H454L330 627ZM483 199H176L105 0H19L267 695H403L652 0H555L483 199ZM335 733Q289 733 259 763T228 839Q228 885 258 915T335 945Q381 945 412 915T443 839Q443 793 412 763T335
733ZM335 787Q358 787 373 801T388 839Q388 862 373 877T335 892Q312 892 298 877T284 839Q284 816 298 802T335 787Z" />
<glyph unicode="&#xc6;" glyph-name="AE" horiz-adv-x="964" d="M465 656L284 320H465V656ZM465 238H239L111 0H19L393 695H896V612H557V402H845V319H557V82H901V0H465V238Z" />
<glyph unicode="&#xc7;" glyph-name="Ccedilla" horiz-adv-x="651" d="M383 -10Q306 -10 243 14T135 85T66 197T41 347Q41 431 63 497T129 609T236 679T381 704Q452 704 505 689T593 654V566Q548 594 492 608T380 622Q257 622 199 554T140 347Q140 209 203 141T391
73Q445 73 495 87T593 137V49Q564 26 511 8T383 -10ZM405 19L348 -181H241L333 19H405Z" />
<glyph unicode="&#xc8;" glyph-name="Egrave" horiz-adv-x="580" d="M81 695H512V612H173V402H461V319H173V82H517V0H81V695ZM297 750L165 882H286L379 750H297Z" />
<glyph unicode="&#xc9;" glyph-name="Eacute" horiz-adv-x="580" d="M81 695H512V612H173V402H461V319H173V82H517V0H81V695ZM293 882H414L282 750H199L293 882Z" />
<glyph unicode="&#xca;" glyph-name="Ecircumflex" horiz-adv-x="580" d="M81 695H512V612H173V402H461V319H173V82H517V0H81V695ZM299 822L221 740H148L250 884H347L449 740H376L299 822Z" />
<glyph unicode="&#xcb;" glyph-name="Edieresis" horiz-adv-x="580" d="M81 695H512V612H173V402H461V319H173V82H517V0H81V695ZM413 762Q388 762 373 778T357 817Q357 840 372 856T413 872Q438 872 453 856T468 817Q468 794 453 778T413 762ZM184 762Q159 762
144 778T129 817Q129 840 144 856T184 872Q209 872 224 856T239 817Q239 794 224 778T184 762Z" />
<glyph unicode="&#xcc;" glyph-name="Igrave" horiz-adv-x="253" d="M173 695V0H81V695H173ZM382 750L250 882H371L464 750H382Z" />
<glyph unicode="&#xcd;" glyph-name="Iacute" horiz-adv-x="253" d="M173 695V0H81V695H173ZM378 882H499L367 750H284L378 882Z" />
<glyph unicode="&#xce;" glyph-name="Icircumflex" horiz-adv-x="253" d="M173 695V0H81V695H173ZM383 822L305 740H232L334 884H431L533 740H460L383 822Z" />
<glyph unicode="&#xcf;" glyph-name="Idieresis" horiz-adv-x="253" d="M173 695V0H81V695H173ZM497 762Q472 762 457 778T441 817Q441 840 456 856T497 872Q522 872 537 856T552 817Q552 794 537 778T497 762ZM268 762Q243 762 228 778T213 817Q213 840 228 856T268
872Q293 872 308 856T323 817Q323 794 308 778T268 762Z" />
<glyph unicode="&#xd0;" glyph-name="Eth" horiz-adv-x="701" d="M189 319V82H321Q375 82 419 98T496 149T545 237T563 365Q563 438 546 486T498 562T425 601T332 612H189V392H395V319H189ZM97 319H10V392H97V695H332Q402 695 462 679T566 625T636 525T662 371Q662
279 637 210T566 94T458 24T321 0H97V319Z" />
<glyph unicode="&#xd1;" glyph-name="Ntilde" horiz-adv-x="722" d="M168 583V0H81V695H205L554 112V695H641V0H517L168 583ZM219 760Q216 784 219 807T234 849T265 879T314 890Q339 890 359 882T395 864T426 846T455 837Q495 837 492 894H553Q557 870 553 847T538
805T506 775T458 764Q433 764 413 772T377 791T346 809T317 818Q278 818 281 760H219V760Z" />
<glyph unicode="&#xd2;" glyph-name="Ograve" horiz-adv-x="747" d="M373 -10Q303 -10 243 13T137 83T67 196T41 350Q41 437 66 503T137 614T242 681T373 704Q445 704 506 682T611 615T681 504T706 349Q706 262 681 196T612 83T506 14T373 -10ZM373 73Q423 73
466 88T540 135T590 220T608 347Q608 422 590 474T541 559T466 607T373 622Q323 622 281 607T207 559T157 474T139 347Q139 272 157 220T206 136T280 88T373 73ZM373 750L241 882H362L455 750H373Z" />
<glyph unicode="&#xd3;" glyph-name="Oacute" horiz-adv-x="747" d="M373 -10Q303 -10 243 13T137 83T67 196T41 350Q41 437 66 503T137 614T242 681T373 704Q445 704 506 682T611 615T681 504T706 349Q706 262 681 196T612 83T506 14T373 -10ZM373 73Q423 73
466 88T540 135T590 220T608 347Q608 422 590 474T541 559T466 607T373 622Q323 622 281 607T207 559T157 474T139 347Q139 272 157 220T206 136T280 88T373 73ZM369 882H490L358 750H275L369 882Z" />
<glyph unicode="&#xd4;" glyph-name="Ocircumflex" horiz-adv-x="747" d="M373 -10Q303 -10 243 13T137 83T67 196T41 350Q41 437 66 503T137 614T242 681T373 704Q445 704 506 682T611 615T681 504T706 349Q706 262 681 196T612 83T506 14T373 -10ZM373 73Q423
73 466 88T540 135T590 220T608 347Q608 422 590 474T541 559T466 607T373 622Q323 622 281 607T207 559T157 474T139 347Q139 272 157 220T206 136T280 88T373 73ZM374 822L296 740H223L325 884H422L524 740H451L374 822Z" />
<glyph unicode="&#xd5;" glyph-name="Otilde" horiz-adv-x="747" d="M373 -10Q303 -10 243 13T137 83T67 196T41 350Q41 437 66 503T137 614T242 681T373 704Q445 704 506 682T611 615T681 504T706 349Q706 262 681 196T612 83T506 14T373 -10ZM373 73Q423 73
466 88T540 135T590 220T608 347Q608 422 590 474T541 559T466 607T373 622Q323 622 281 607T207 559T157 474T139 347Q139 272 157 220T206 136T280 88T373 73ZM206 760Q203 784 206 807T221 849T252 879T301 890Q326 890 346 882T382 864T413 846T442 837Q482
837 479 894H540Q544 870 540 847T525 805T493 775T445 764Q420 764 400 772T364 791T333 809T304 818Q265 818 268 760H206V760Z" />
<glyph unicode="&#xd6;" glyph-name="Odieresis" horiz-adv-x="747" d="M373 -10Q303 -10 243 13T137 83T67 196T41 350Q41 437 66 503T137 614T242 681T373 704Q445 704 506 682T611 615T681 504T706 349Q706 262 681 196T612 83T506 14T373 -10ZM373 73Q423
73 466 88T540 135T590 220T608 347Q608 422 590 474T541 559T466 607T373 622Q323 622 281 607T207 559T157 474T139 347Q139 272 157 220T206 136T280 88T373 73ZM488 762Q463 762 448 778T432 817Q432 840 447 856T488 872Q513 872 528 856T543 817Q543 794
528 778T488 762ZM259 762Q234 762 219 778T204 817Q204 840 219 856T259 872Q284 872 299 856T314 817Q314 794 299 778T259 762Z" />
<glyph unicode="&#xd7;" glyph-name="multiply" horiz-adv-x="534" d="M267 280L95 108L44 159L216 331L48 499L99 550L267 382L435 550L486 499L318 331L490 159L438 108L267 280Z" />
<glyph unicode="&#xd8;" glyph-name="Oslash" horiz-adv-x="747" d="M139 347Q139 270 157 218T209 132L475 603Q431 622 373 622Q323 622 281 607T207 559T157 474T139 347ZM373 73Q423 73 466 88T540 135T590 220T608 347Q608 423 590 476T539 561L273 91Q318
73 373 73ZM373 -10Q294 -10 232 18L183 -68H96L166 57Q108 102 75 175T41 350Q41 437 66 503T137 614T242 681T373 704Q452 704 517 677L565 762H652L583 639Q640 595 673 523T706 349Q706 262 681 196T612 83T506 14T373 -10Z" />
<glyph unicode="&#xd9;" glyph-name="Ugrave" horiz-adv-x="671" d="M65 695H157V238Q157 153 205 113T337 72Q377 72 411 82T471 113T510 165T525 238V695H612V241Q612 181 591 134T533 55T445 7T335 -10Q277 -10 228 6T142 53T86 130T65 237V695ZM342 750L210
882H331L424 750H342Z" />
<glyph unicode="&#xda;" glyph-name="Uacute" horiz-adv-x="671" d="M65 695H157V238Q157 153 205 113T337 72Q377 72 411 82T471 113T510 165T525 238V695H612V241Q612 181 591 134T533 55T445 7T335 -10Q277 -10 228 6T142 53T86 130T65 237V695ZM338 882H459L327
750H244L338 882Z" />
<glyph unicode="&#xdb;" glyph-name="Ucircumflex" horiz-adv-x="671" d="M65 695H157V238Q157 153 205 113T337 72Q377 72 411 82T471 113T510 165T525 238V695H612V241Q612 181 591 134T533 55T445 7T335 -10Q277 -10 228 6T142 53T86 130T65 237V695ZM343 822L265
740H192L294 884H391L493 740H420L343 822Z" />
<glyph unicode="&#xdc;" glyph-name="Udieresis" horiz-adv-x="671" d="M65 695H157V238Q157 153 205 113T337 72Q377 72 411 82T471 113T510 165T525 238V695H612V241Q612 181 591 134T533 55T445 7T335 -10Q277 -10 228 6T142 53T86 130T65 237V695ZM457 762Q432
762 417 778T401 817Q401 840 416 856T457 872Q482 872 497 856T512 817Q512 794 497 778T457 762ZM228 762Q203 762 188 778T173 817Q173 840 188 856T228 872Q253 872 268 856T283 817Q283 794 268 778T228 762Z" />
<glyph unicode="&#xdd;" glyph-name="Yacute" horiz-adv-x="605" d="M257 0V299L19 695H124L307 380L493 695H586L350 302V0H257ZM298 882H419L287 750H204L298 882Z" />
<glyph unicode="&#xde;" glyph-name="Thorn" horiz-adv-x="592" d="M173 470V223H296Q333 223 363 230T415 254T449 295T461 357Q461 417 420 443T304 470H173ZM173 141V0H81V695H173V553H304Q420 553 486 508T553 363Q553 305 534 263T482 194T401 154T296 141H173Z" />
<glyph unicode="&#xdf;" glyph-name="germandbls" horiz-adv-x="590" d="M566 138Q566 95 551 67T510 21T451 -3T384 -10Q340 -10 310 -2T259 18V94Q281 81 312 72T379 62Q428 62 454 82T480 137Q480 163 464 178T425 204T373 223T322 246T282 282T266 341Q266
370 276 388T301 419T334 443T367 465T392 494T402 536Q402 560 393 577T367 606T330 622T286 628Q220 628 188 588T155 470V0H70V470Q70 578 125 641T286 704Q379 704 432 658T486 538Q486 506 476 484T451 446T418 419T385 398T360 375T350 347Q350 326 366 315T406
294T458 275T510 249T550 207T566 138Z" />
<glyph unicode="&#xe0;" glyph-name="agrave" horiz-adv-x="510" d="M214 67Q254 67 282 83T327 122T353 164T361 194V231H275Q199 231 165 209T130 144Q130 109 150 88T214 67ZM365 97Q357 79 344 60T310 26T261 0T196 -10Q128 -10 87 28T45 139Q45 221 102 260T267
299H361V340Q361 393 334 415T241 437Q194 437 152 423T78 388V465Q104 482 150 497T252 513Q347 513 396 474T446 352V81Q446 64 447 39T451 0H373Q371 13 369 38T366 81L365 97ZM255 570L128 724H239L328 570H255Z" />
<glyph unicode="&#xe1;" glyph-name="aacute" horiz-adv-x="510" d="M214 67Q254 67 282 83T327 122T353 164T361 194V231H275Q199 231 165 209T130 144Q130 109 150 88T214 67ZM365 97Q357 79 344 60T310 26T261 0T196 -10Q128 -10 87 28T45 139Q45 221 102 260T267
299H361V340Q361 393 334 415T241 437Q194 437 152 423T78 388V465Q104 482 150 497T252 513Q347 513 396 474T446 352V81Q446 64 447 39T451 0H373Q371 13 369 38T366 81L365 97ZM273 724H385L258 570H185L273 724Z" />
<glyph unicode="&#xe2;" glyph-name="acircumflex" horiz-adv-x="510" d="M214 67Q254 67 282 83T327 122T353 164T361 194V231H275Q199 231 165 209T130 144Q130 109 150 88T214 67ZM365 97Q357 79 344 60T310 26T261 0T196 -10Q128 -10 87 28T45 139Q45 221
102 260T267 299H361V340Q361 393 334 415T241 437Q194 437 152 423T78 388V465Q104 482 150 497T252 513Q347 513 396 474T446 352V81Q446 64 447 39T451 0H373Q371 13 369 38T366 81L365 97ZM259 652L181 570H108L210 714H307L409 570H336L259 652Z" />
<glyph unicode="&#xe3;" glyph-name="atilde" horiz-adv-x="510" d="M214 67Q254 67 282 83T327 122T353 164T361 194V231H275Q199 231 165 209T130 144Q130 109 150 88T214 67ZM365 97Q357 79 344 60T310 26T261 0T196 -10Q128 -10 87 28T45 139Q45 221 102 260T267
299H361V340Q361 393 334 415T241 437Q194 437 152 423T78 388V465Q104 482 150 497T252 513Q347 513 396 474T446 352V81Q446 64 447 39T451 0H373Q371 13 369 38T366 81L365 97ZM101 580Q98 602 101 622T115 659T144 686T190 696Q213 696 231 690T265 677T294
663T321 657Q357 657 354 700H415Q418 678 415 658T401 621T372 594T326 584Q303 584 285 590T251 603T222 617T195 624Q159 624 162 580H101V580Z" />
<glyph unicode="&#xe4;" glyph-name="adieresis" horiz-adv-x="510" d="M214 67Q254 67 282 83T327 122T353 164T361 194V231H275Q199 231 165 209T130 144Q130 109 150 88T214 67ZM365 97Q357 79 344 60T310 26T261 0T196 -10Q128 -10 87 28T45 139Q45 221 102
260T267 299H361V340Q361 393 334 415T241 437Q194 437 152 423T78 388V465Q104 482 150 497T252 513Q347 513 396 474T446 352V81Q446 64 447 39T451 0H373Q371 13 369 38T366 81L365 97ZM363 577Q338 577 323 592T308 631Q308 655 323 671T363 687Q388 687 403
671T418 631Q418 608 403 593T363 577ZM153 577Q129 577 114 592T98 631Q98 655 113 671T153 687Q178 687 193 671T209 631Q209 608 194 593T153 577Z" />
<glyph unicode="&#xe5;" glyph-name="aring" horiz-adv-x="510" d="M214 67Q254 67 282 83T327 122T353 164T361 194V231H275Q199 231 165 209T130 144Q130 109 150 88T214 67ZM365 97Q357 79 344 60T310 26T261 0T196 -10Q128 -10 87 28T45 139Q45 221 102 260T267
299H361V340Q361 393 334 415T241 437Q194 437 152 423T78 388V465Q104 482 150 497T252 513Q347 513 396 474T446 352V81Q446 64 447 39T451 0H373Q371 13 369 38T366 81L365 97ZM258 554Q212 554 182 583T151 660Q151 706 181 735T258 765Q304 765 335 736T366
660Q366 613 335 584T258 554ZM258 607Q281 607 296 622T311 660Q311 683 296 698T258 713Q235 713 221 698T207 660Q207 637 221 622T258 607Z" />
<glyph unicode="&#xe6;" glyph-name="ae" horiz-adv-x="838" d="M596 437Q542 437 505 404T456 301H713Q717 370 683 403T596 437ZM788 43Q778 35 764 26T728 9T680 -4T616 -10Q533 -10 479 22T399 115Q392 97 378 75T341 34T284 3T205 -10Q130 -10 88 28T45 139Q45
221 102 260T267 299H366V340Q366 391 338 414T250 437Q197 437 154 423T78 388V465Q104 482 151 497T262 513Q322 513 364 493T426 430Q483 513 596 513Q648 513 689 495T758 440T794 351T794 229H453Q463 67 624 67Q682 67 721 83T788 119V43ZM216 67Q257 67
285 83T332 122T358 164T366 194V231H275Q199 231 165 209T130 144Q130 109 150 88T216 67Z" />
<glyph unicode="&#xe7;" glyph-name="ccedilla" horiz-adv-x="474" d="M287 -10Q228 -10 182 7T102 59T52 141T34 252Q34 376 102 444T291 513Q337 513 376 503T440 473V397Q409 417 371 427T292 437Q204 437 163 392T121 252Q121 158 161 113T287 67Q332 67 370
78T440 107V30Q413 13 375 2T287 -10ZM318 19L261 -181H154L246 19H318Z" />
<glyph unicode="&#xe8;" glyph-name="egrave" horiz-adv-x="522" d="M271 437Q214 437 175 404T125 301H396Q399 370 364 403T271 437ZM470 43Q460 35 444 26T406 9T356 -4T293 -10Q166 -10 100 58T34 252Q34 313 52 361T102 444T178 495T273 513Q327 513 369
495T439 440T477 351T477 229H122Q127 148 170 108T301 67Q359 67 401 83T470 119V43ZM265 570L138 724H249L338 570H265Z" />
<glyph unicode="&#xe9;" glyph-name="eacute" horiz-adv-x="522" d="M271 437Q214 437 175 404T125 301H396Q399 370 364 403T271 437ZM470 43Q460 35 444 26T406 9T356 -4T293 -10Q166 -10 100 58T34 252Q34 313 52 361T102 444T178 495T273 513Q327 513 369
495T439 440T477 351T477 229H122Q127 148 170 108T301 67Q359 67 401 83T470 119V43ZM282 724H394L267 570H194L282 724Z" />
<glyph unicode="&#xea;" glyph-name="ecircumflex" horiz-adv-x="522" d="M271 437Q214 437 175 404T125 301H396Q399 370 364 403T271 437ZM470 43Q460 35 444 26T406 9T356 -4T293 -10Q166 -10 100 58T34 252Q34 313 52 361T102 444T178 495T273 513Q327 513
369 495T439 440T477 351T477 229H122Q127 148 170 108T301 67Q359 67 401 83T470 119V43ZM268 652L190 570H117L219 714H316L418 570H345L268 652Z" />
<glyph unicode="&#xeb;" glyph-name="edieresis" horiz-adv-x="522" d="M271 437Q214 437 175 404T125 301H396Q399 370 364 403T271 437ZM470 43Q460 35 444 26T406 9T356 -4T293 -10Q166 -10 100 58T34 252Q34 313 52 361T102 444T178 495T273 513Q327 513 369
495T439 440T477 351T477 229H122Q127 148 170 108T301 67Q359 67 401 83T470 119V43ZM372 577Q347 577 332 592T317 631Q317 655 332 671T372 687Q397 687 412 671T427 631Q427 608 412 593T372 577ZM162 577Q138 577 123 592T107 631Q107 655 122 671T162 687Q187
687 202 671T218 631Q218 608 203 593T162 577Z" />
<glyph unicode="&#xec;" glyph-name="igrave" horiz-adv-x="224" d="M155 503V0H70V503H155ZM366 570L239 724H350L439 570H366Z" />
<glyph unicode="&#xed;" glyph-name="iacute" horiz-adv-x="224" d="M155 503V0H70V503H155ZM383 724H495L368 570H295L383 724Z" />
<glyph unicode="&#xee;" glyph-name="icircumflex" horiz-adv-x="224" d="M155 503V0H70V503H155ZM369 652L291 570H218L320 714H417L519 570H446L369 652Z" />
<glyph unicode="&#xef;" glyph-name="idieresis" horiz-adv-x="224" d="M193 577Q168 577 153 592T138 631Q138 655 153 671T193 687Q218 687 233 671T248 631Q248 608 233 593T193 577ZM32 577Q7 577 -8 592T-23 631Q-23 655 -8 671T32 687Q57 687 72 671T87
631Q87 608 72 593T32 577ZM155 503V0H70V503H155Z" />
<glyph unicode="&#xf0;" glyph-name="eth" horiz-adv-x="555" d="M276 -10Q225 -10 181 7T104 58T53 140T34 252Q34 315 52 363T102 443T175 492T263 509Q304 509 337 497T400 451Q383 490 359 523T303 585L140 533L122 588L248 628Q198 663 139 688V695H263Q280
687 298 678T333 655L435 688L452 632L386 611Q415 583 440 548T485 473T515 386T526 289Q526 216 508 160T456 67T376 10T276 -10ZM276 67Q310 67 339 78T389 116T422 185T434 289Q434 339 424 380Q398 412 363 424T276 437Q243 437 215 426T165 392T133 335T121
252Q121 204 132 170T165 112T214 78T276 67Z" />
<glyph unicode="&#xf1;" glyph-name="ntilde" horiz-adv-x="558" d="M308 437Q250 437 214 411T155 342V0H70V503H150L153 413H155Q175 456 219 484T330 513Q405 513 449 474T493 353V0H407V344Q407 396 381 416T308 437ZM120 580Q117 602 120 622T134 659T163
686T209 696Q232 696 250 690T284 677T313 663T340 657Q376 657 373 700H434Q437 678 434 658T420 621T391 594T345 584Q322 584 304 590T270 603T241 617T214 624Q178 624 181 580H120V580Z" />
<glyph unicode="&#xf2;" glyph-name="ograve" horiz-adv-x="555" d="M276 -10Q225 -10 181 7T104 58T53 140T34 252Q34 315 52 363T103 445T180 495T276 513Q328 513 373 496T451 445T502 364T521 252Q521 189 503 141T451 59T373 8T276 -10ZM276 67Q310 67 339
78T389 112T422 169T434 252Q434 300 422 334T389 392T339 426T276 437Q243 437 215 426T165 392T133 335T121 252Q121 204 132 170T165 112T214 78T276 67ZM275 570L148 724H259L348 570H275Z" />
<glyph unicode="&#xf3;" glyph-name="oacute" horiz-adv-x="555" d="M276 -10Q225 -10 181 7T104 58T53 140T34 252Q34 315 52 363T103 445T180 495T276 513Q328 513 373 496T451 445T502 364T521 252Q521 189 503 141T451 59T373 8T276 -10ZM276 67Q310 67 339
78T389 112T422 169T434 252Q434 300 422 334T389 392T339 426T276 437Q243 437 215 426T165 392T133 335T121 252Q121 204 132 170T165 112T214 78T276 67ZM292 724H404L277 570H204L292 724Z" />
<glyph unicode="&#xf4;" glyph-name="ocircumflex" horiz-adv-x="555" d="M276 -10Q225 -10 181 7T104 58T53 140T34 252Q34 315 52 363T103 445T180 495T276 513Q328 513 373 496T451 445T502 364T521 252Q521 189 503 141T451 59T373 8T276 -10ZM276 67Q310
67 339 78T389 112T422 169T434 252Q434 300 422 334T389 392T339 426T276 437Q243 437 215 426T165 392T133 335T121 252Q121 204 132 170T165 112T214 78T276 67ZM278 652L200 570H127L229 714H326L428 570H355L278 652Z" />
<glyph unicode="&#xf5;" glyph-name="otilde" horiz-adv-x="555" d="M276 -10Q225 -10 181 7T104 58T53 140T34 252Q34 315 52 363T103 445T180 495T276 513Q328 513 373 496T451 445T502 364T521 252Q521 189 503 141T451 59T373 8T276 -10ZM276 67Q310 67 339
78T389 112T422 169T434 252Q434 300 422 334T389 392T339 426T276 437Q243 437 215 426T165 392T133 335T121 252Q121 204 132 170T165 112T214 78T276 67ZM120 580Q117 602 120 622T134 659T163 686T209 696Q232 696 250 690T284 677T313 663T340 657Q376 657
373 700H434Q437 678 434 658T420 621T391 594T345 584Q322 584 304 590T270 603T241 617T214 624Q178 624 181 580H120V580Z" />
<glyph unicode="&#xf6;" glyph-name="odieresis" horiz-adv-x="555" d="M276 -10Q225 -10 181 7T104 58T53 140T34 252Q34 315 52 363T103 445T180 495T276 513Q328 513 373 496T451 445T502 364T521 252Q521 189 503 141T451 59T373 8T276 -10ZM276 67Q310 67
339 78T389 112T422 169T434 252Q434 300 422 334T389 392T339 426T276 437Q243 437 215 426T165 392T133 335T121 252Q121 204 132 170T165 112T214 78T276 67ZM382 577Q357 577 342 592T327 631Q327 655 342 671T382 687Q407 687 422 671T437 631Q437 608 422
593T382 577ZM172 577Q148 577 133 592T117 631Q117 655 132 671T172 687Q197 687 212 671T228 631Q228 608 213 593T172 577Z" />
<glyph unicode="&#xf7;" glyph-name="divide" horiz-adv-x="566" d="M283 63Q256 63 238 80T220 124Q220 151 238 168T283 186Q310 186 327 169T345 124Q345 98 328 81T283 63ZM283 467Q256 467 238 484T220 528Q220 555 238 572T283 590Q310 590 327 573T345
528Q345 502 328 485T283 467ZM49 293V361H517V293H49Z" />
<glyph unicode="&#xf8;" glyph-name="oslash" horiz-adv-x="555" d="M121 252Q121 201 133 166T169 107L324 431Q301 437 276 437Q243 437 215 426T165 392T133 335T121 252ZM276 67Q310 67 339 78T389 112T422 169T434 252Q434 302 422 337T386 396L232 72Q243
70 253 69T276 67ZM276 -10Q236 -10 198 1L160 -78H81L134 33Q88 65 61 120T34 252Q34 315 52 363T103 445T180 495T276 513Q319 513 357 501L395 581H474L421 470Q467 438 494 383T521 252Q521 189 503 141T451 59T373 8T276 -10Z" />
<glyph unicode="&#xf9;" glyph-name="ugrave" horiz-adv-x="548" d="M393 90Q373 48 331 19T220 -10Q150 -10 107 30T64 151V503H150V151Q150 126 157 110T177 85T207 71T244 67Q301 67 335 92T393 161V503H478V0H403L395 90H393ZM268 570L141 724H252L341 570H268Z" />
<glyph unicode="&#xfa;" glyph-name="uacute" horiz-adv-x="548" d="M393 90Q373 48 331 19T220 -10Q150 -10 107 30T64 151V503H150V151Q150 126 157 110T177 85T207 71T244 67Q301 67 335 92T393 161V503H478V0H403L395 90H393ZM285 724H397L270 570H197L285 724Z" />
<glyph unicode="&#xfb;" glyph-name="ucircumflex" horiz-adv-x="548" d="M393 90Q373 48 331 19T220 -10Q150 -10 107 30T64 151V503H150V151Q150 126 157 110T177 85T207 71T244 67Q301 67 335 92T393 161V503H478V0H403L395 90H393ZM271 652L193 570H120L222
714H319L421 570H348L271 652Z" />
<glyph unicode="&#xfc;" glyph-name="udieresis" horiz-adv-x="548" d="M393 90Q373 48 331 19T220 -10Q150 -10 107 30T64 151V503H150V151Q150 126 157 110T177 85T207 71T244 67Q301 67 335 92T393 161V503H478V0H403L395 90H393ZM375 577Q350 577 335 592T320
631Q320 655 335 671T375 687Q400 687 415 671T430 631Q430 608 415 593T375 577ZM165 577Q141 577 126 592T110 631Q110 655 125 671T165 687Q190 687 205 671T221 631Q221 608 206 593T165 577Z" />
<glyph unicode="&#xfd;" glyph-name="yacute" horiz-adv-x="515" d="M113 -181Q94 -181 78 -179T48 -171V-88Q58 -96 74 -100T111 -105Q146 -105 169 -88T214 -34L10 503H102L260 75L421 503H505L317 6Q300 -39 281 -74T237 -132T182 -168T113 -181ZM281 724H393L266
570H193L281 724Z" />
<glyph unicode="&#xfe;" glyph-name="thorn" horiz-adv-x="582" d="M310 67Q377 67 418 113T460 252Q460 343 419 390T310 437Q248 437 205 398T155 277V227Q162 146 205 107T310 67ZM323 -10Q266 -10 224 17T155 92V-172H70V695H155V416Q180 461 221 487T322
513Q368 513 409 497T481 449T530 368T548 252Q548 186 530 137T480 55T409 6T323 -10Z" />
<glyph unicode="&#xff;" glyph-name="ydieresis" horiz-adv-x="515" d="M113 -181Q94 -181 78 -179T48 -171V-88Q58 -96 74 -100T111 -105Q146 -105 169 -88T214 -34L10 503H102L260 75L421 503H505L317 6Q300 -39 281 -74T237 -132T182 -168T113 -181ZM372 577Q347
577 332 592T317 631Q317 655 332 671T372 687Q397 687 412 671T427 631Q427 608 412 593T372 577ZM162 577Q138 577 123 592T107 631Q107 655 122 671T162 687Q187 687 202 671T218 631Q218 608 203 593T162 577Z" />
<glyph unicode="&#x100;" glyph-name="Amacron" horiz-adv-x="671" d="M330 627L206 281H454L330 627ZM483 199H176L105 0H19L267 695H403L652 0H555L483 199ZM185 852H486V784H185V852Z" />
<glyph unicode="&#x101;" glyph-name="amacron" horiz-adv-x="510" d="M214 67Q254 67 282 83T327 122T353 164T361 194V231H275Q199 231 165 209T130 144Q130 109 150 88T214 67ZM365 97Q357 79 344 60T310 26T261 0T196 -10Q128 -10 87 28T45 139Q45 221 102
260T267 299H361V340Q361 393 334 415T241 437Q194 437 152 423T78 388V465Q104 482 150 497T252 513Q347 513 396 474T446 352V81Q446 64 447 39T451 0H373Q371 13 369 38T366 81L365 97ZM118 666H399V598H118V666Z" />
<glyph unicode="&#x102;" glyph-name="Abreve" horiz-adv-x="671" d="M330 627L206 281H454L330 627ZM483 199H176L105 0H19L267 695H403L652 0H555L483 199ZM336 740Q296 740 267 751T218 783T189 831T179 891H264Q264 843 283 823T336 803Q370 803 388 823T407
891H492Q492 859 483 832T454 784T405 752T336 740Z" />
<glyph unicode="&#x103;" glyph-name="abreve" horiz-adv-x="510" d="M214 67Q254 67 282 83T327 122T353 164T361 194V231H275Q199 231 165 209T130 144Q130 109 150 88T214 67ZM365 97Q357 79 344 60T310 26T261 0T196 -10Q128 -10 87 28T45 139Q45 221 102
260T267 299H361V340Q361 393 334 415T241 437Q194 437 152 423T78 388V465Q104 482 150 497T252 513Q347 513 396 474T446 352V81Q446 64 447 39T451 0H373Q371 13 369 38T366 81L365 97ZM259 570Q222 570 195 580T149 610T121 653T112 707H197Q197 667 213 650T259
632Q288 632 304 649T320 707H406Q406 678 397 654T370 610T324 581T259 570Z" />
<glyph unicode="&#x104;" glyph-name="Aogonek" horiz-adv-x="671" d="M593 -182Q538 -182 509 -159T479 -97Q479 -78 486 -63T504 -37T529 -17T556 -2L484 199H176L105 0H19L267 695H403L652 0Q608 -11 585 -33T561 -79Q561 -95 571 -105T604 -115Q627 -115 649
-107V-172Q642 -176 627 -179T593 -182ZM330 627L206 281H454L330 627Z" />
<glyph unicode="&#x105;" glyph-name="aogonek" horiz-adv-x="510" d="M413 -182Q358 -182 329 -159T299 -97Q299 -76 306 -61T323 -34T347 -14T373 -1Q370 15 368 39T366 81L365 97Q357 79 344 60T310 26T261 0T196 -10Q128 -10 87 28T45 139Q45 221 102 260T267
299H361V340Q361 393 334 415T241 437Q194 437 152 423T78 388V465Q104 482 150 497T252 513Q347 513 396 474T446 352V81Q446 64 447 39T451 0Q439 -6 427 -15T404 -34T388 -56T381 -79Q381 -95 391 -105T424 -115Q447 -115 469 -107V-172Q462 -176 447 -179T413
-182ZM214 67Q254 67 282 83T327 122T353 164T361 194V231H275Q199 231 165 209T130 144Q130 109 150 88T214 67Z" />
<glyph unicode="&#x106;" glyph-name="Cacute" horiz-adv-x="651" d="M383 -10Q306 -10 243 14T135 85T66 197T41 347Q41 431 63 497T129 609T236 679T381 704Q452 704 505 689T593 654V566Q548 594 492 608T380 622Q257 622 199 554T140 347Q140 209 203 141T391
73Q445 73 495 87T593 137V49Q564 26 511 8T383 -10ZM369 882H490L358 750H275L369 882Z" />
<glyph unicode="&#x107;" glyph-name="cacute" horiz-adv-x="474" d="M287 -10Q228 -10 182 7T102 59T52 141T34 252Q34 376 102 444T291 513Q337 513 376 503T440 473V397Q409 417 371 427T292 437Q204 437 163 392T121 252Q121 158 161 113T287 67Q332 67 370
78T440 107V30Q413 13 375 2T287 -10ZM285 724H397L270 570H197L285 724Z" />
<glyph unicode="&#x108;" glyph-name="Ccircumflex" horiz-adv-x="651" d="M383 -10Q306 -10 243 14T135 85T66 197T41 347Q41 431 63 497T129 609T236 679T381 704Q452 704 505 689T593 654V566Q548 594 492 608T380 622Q257 622 199 554T140 347Q140 209 203
141T391 73Q445 73 495 87T593 137V49Q564 26 511 8T383 -10ZM365 822L287 740H214L316 884H413L515 740H442L365 822Z" />
<glyph unicode="&#x109;" glyph-name="ccircumflex" horiz-adv-x="474" d="M287 -10Q228 -10 182 7T102 59T52 141T34 252Q34 376 102 444T291 513Q337 513 376 503T440 473V397Q409 417 371 427T292 437Q204 437 163 392T121 252Q121 158 161 113T287 67Q332
67 370 78T440 107V30Q413 13 375 2T287 -10ZM271 652L193 570H120L222 714H319L421 570H348L271 652Z" />
<glyph unicode="&#x10a;" glyph-name="Cdotaccent" horiz-adv-x="651" d="M383 -10Q306 -10 243 14T135 85T66 197T41 347Q41 431 63 497T129 609T236 679T381 704Q452 704 505 689T593 654V566Q548 594 492 608T380 622Q257 622 199 554T140 347Q140 209 203
141T391 73Q445 73 495 87T593 137V49Q564 26 511 8T383 -10ZM364 762Q339 762 324 778T309 817Q309 840 324 856T364 872Q389 872 404 856T420 817Q420 794 405 778T364 762Z" />
<glyph unicode="&#x10b;" glyph-name="cdotaccent" horiz-adv-x="474" d="M287 -10Q228 -10 182 7T102 59T52 141T34 252Q34 376 102 444T291 513Q337 513 376 503T440 473V397Q409 417 371 427T292 437Q204 437 163 392T121 252Q121 158 161 113T287 67Q332 67
370 78T440 107V30Q413 13 375 2T287 -10ZM270 577Q245 577 230 592T215 631Q215 655 230 671T270 687Q295 687 310 671T326 631Q326 608 311 593T270 577Z" />
<glyph unicode="&#x10c;" glyph-name="Ccaron" horiz-adv-x="651" d="M383 -10Q306 -10 243 14T135 85T66 197T41 347Q41 431 63 497T129 609T236 679T381 704Q452 704 505 689T593 654V566Q548 594 492 608T380 622Q257 622 199 554T140 347Q140 209 203 141T391
73Q445 73 495 87T593 137V49Q564 26 511 8T383 -10ZM325 740L223 884H296L374 802L451 884H524L422 740H325Z" />
<glyph unicode="&#x10d;" glyph-name="ccaron" horiz-adv-x="474" d="M287 -10Q228 -10 182 7T102 59T52 141T34 252Q34 376 102 444T291 513Q337 513 376 503T440 473V397Q409 417 371 427T292 437Q204 437 163 392T121 252Q121 158 161 113T287 67Q332 67 370
78T440 107V30Q413 13 375 2T287 -10ZM222 570L120 714H193L271 632L348 714H421L319 570H222Z" />
<glyph unicode="&#x10e;" glyph-name="Dcaron" horiz-adv-x="685" d="M173 612V82H305Q359 82 403 98T479 149T528 237T546 365Q546 438 529 486T481 562T408 601T315 612H173ZM81 695H315Q385 695 445 679T549 625T619 525T645 371Q645 279 620 210T549 94T441
24T305 0H81V695ZM289 740L187 884H260L338 802L415 884H488L386 740H289Z" />
<glyph unicode="&#x10f;" glyph-name="dcaron" horiz-adv-x="582" d="M273 67Q306 67 334 78T383 113T416 170T428 252Q428 299 416 333T383 391T334 425T273 437Q206 437 164 390T121 252Q121 159 163 113T273 67ZM431 98Q408 49 366 20T260 -10Q215 -10 174
6T102 54T53 136T34 252Q34 318 52 367T102 449T174 497T261 513Q318 513 360 489T427 422V695H512V0H437L431 98ZM561 512L580 695H678L620 512H561Z" />
<glyph unicode="&#x110;" glyph-name="Dcroat" horiz-adv-x="701" d="M189 319V82H321Q375 82 419 98T496 149T545 237T563 365Q563 438 546 486T498 562T425 601T332 612H189V392H395V319H189ZM97 319H10V392H97V695H332Q402 695 462 679T566 625T636 525T662
371Q662 279 637 210T566 94T458 24T321 0H97V319Z" />
<glyph unicode="&#x111;" glyph-name="dcroat" horiz-adv-x="582" d="M281 622H590V559H281V622ZM273 67Q306 67 334 78T383 113T416 170T428 252Q428 299 416 333T383 391T334 425T273 437Q206 437 164 390T121 252Q121 159 163 113T273 67ZM431 98Q408 49 366
20T260 -10Q215 -10 174 6T102 54T53 136T34 252Q34 318 52 367T102 449T174 497T261 513Q318 513 360 489T427 422V695H512V0H437L431 98Z" />
<glyph unicode="&#x112;" glyph-name="Emacron" horiz-adv-x="580" d="M81 695H512V612H173V402H461V319H173V82H517V0H81V695ZM148 852H449V784H148V852Z" />
<glyph unicode="&#x113;" glyph-name="emacron" horiz-adv-x="522" d="M271 437Q214 437 175 404T125 301H396Q399 370 364 403T271 437ZM470 43Q460 35 444 26T406 9T356 -4T293 -10Q166 -10 100 58T34 252Q34 313 52 361T102 444T178 495T273 513Q327 513 369
495T439 440T477 351T477 229H122Q127 148 170 108T301 67Q359 67 401 83T470 119V43ZM127 666H408V598H127V666Z" />
<glyph unicode="&#x114;" glyph-name="Ebreve" horiz-adv-x="580" d="M81 695H512V612H173V402H461V319H173V82H517V0H81V695ZM299 740Q259 740 230 751T181 783T152 831T142 891H227Q227 843 246 823T299 803Q333 803 351 823T370 891H455Q455 859 446 832T417
784T368 752T299 740Z" />
<glyph unicode="&#x115;" glyph-name="ebreve" horiz-adv-x="522" d="M271 437Q214 437 175 404T125 301H396Q399 370 364 403T271 437ZM470 43Q460 35 444 26T406 9T356 -4T293 -10Q166 -10 100 58T34 252Q34 313 52 361T102 444T178 495T273 513Q327 513 369
495T439 440T477 351T477 229H122Q127 148 170 108T301 67Q359 67 401 83T470 119V43ZM268 570Q231 570 204 580T158 610T130 653T121 707H206Q206 667 222 650T268 632Q297 632 313 649T329 707H415Q415 678 406 654T379 610T333 581T268 570Z" />
<glyph unicode="&#x116;" glyph-name="Edotaccent" horiz-adv-x="580" d="M81 695H512V612H173V402H461V319H173V82H517V0H81V695ZM298 762Q273 762 258 778T243 817Q243 840 258 856T298 872Q323 872 338 856T354 817Q354 794 339 778T298 762Z" />
<glyph unicode="&#x117;" glyph-name="edotaccent" horiz-adv-x="522" d="M271 437Q214 437 175 404T125 301H396Q399 370 364 403T271 437ZM470 43Q460 35 444 26T406 9T356 -4T293 -10Q166 -10 100 58T34 252Q34 313 52 361T102 444T178 495T273 513Q327 513
369 495T439 440T477 351T477 229H122Q127 148 170 108T301 67Q359 67 401 83T470 119V43ZM267 577Q242 577 227 592T212 631Q212 655 227 671T267 687Q292 687 307 671T323 631Q323 608 308 593T267 577Z" />
<glyph unicode="&#x118;" glyph-name="Eogonek" horiz-adv-x="580" d="M81 695H512V612H173V402H461V319H173V82H517V0H81V695ZM400 -182Q345 -182 316 -159T286 -97Q286 -76 293 -61T311 -34T335 -14T362 0H438Q426 -6 414 -15T391 -34T375 -56T368 -79Q368 -95
378 -105T411 -115Q434 -115 456 -107V-172Q449 -176 434 -179T400 -182Z" />
<glyph unicode="&#x119;" glyph-name="eogonek" horiz-adv-x="522" d="M271 437Q214 437 175 404T125 301H396Q399 370 364 403T271 437ZM406 -172Q399 -176 384 -179T350 -182Q295 -182 266 -159T236 -97Q236 -63 253 -43T292 -10Q166 -9 100 59T34 252Q34 313
52 361T102 444T178 495T273 513Q327 513 369 495T439 440T477 351T477 229H122Q127 148 170 108T301 67Q359 67 401 83T470 119V43Q460 35 446 28T412 11Q398 4 382 -5T351 -25T328 -49T318 -79Q318 -95 328 -105T361 -115Q384 -115 406 -107V-172Z" />
<glyph unicode="&#x11a;" glyph-name="Ecaron" horiz-adv-x="580" d="M81 695H512V612H173V402H461V319H173V82H517V0H81V695ZM250 740L148 884H221L299 802L376 884H449L347 740H250Z" />
<glyph unicode="&#x11b;" glyph-name="ecaron" horiz-adv-x="522" d="M271 437Q214 437 175 404T125 301H396Q399 370 364 403T271 437ZM470 43Q460 35 444 26T406 9T356 -4T293 -10Q166 -10 100 58T34 252Q34 313 52 361T102 444T178 495T273 513Q327 513 369
495T439 440T477 351T477 229H122Q127 148 170 108T301 67Q359 67 401 83T470 119V43ZM219 570L117 714H190L268 632L345 714H418L316 570H219Z" />
<glyph unicode="&#x11c;" glyph-name="Gcircumflex" horiz-adv-x="717" d="M669 273Q669 212 651 161T596 71T504 12T372 -10Q298 -10 238 15T133 88T65 201T41 347Q41 428 64 493T132 606T244 678T399 704Q444 704 479 699T541 684T588 665T623 644V557Q576 585
523 603T396 622Q264 622 202 550T140 347Q140 218 201 146T372 73Q427 73 465 87T528 125T564 184T575 260V279H351V362H669V273ZM368 822L290 740H217L319 884H416L518 740H445L368 822Z" />
<glyph unicode="&#x11d;" glyph-name="gcircumflex" horiz-adv-x="571" d="M271 97Q334 97 376 138T418 266Q418 352 376 394T270 437Q238 437 210 427T162 395T131 341T119 266Q119 224 130 192T162 139T210 108T271 97ZM249 -174Q203 -174 171 -168T117 -153Q92
-144 76 -132V-55Q92 -67 117 -76Q138 -84 171 -90T250 -97Q343 -97 380 -62T417 42V119Q394 74 355 47T255 20Q210 20 170 35T100 82T51 159T33 266Q33 328 51 374T99 451T171 497T257 513Q317 513 358 486T423 412L424 423Q424 432 424 443T426 465T428 486T430
503H507Q505 490 504 465T502 423V43Q502 -6 488 -46T444 -114T365 -158T249 -174ZM260 652L182 570H109L211 714H308L410 570H337L260 652Z" />
<glyph unicode="&#x11e;" glyph-name="Gbreve" horiz-adv-x="717" d="M669 273Q669 212 651 161T596 71T504 12T372 -10Q298 -10 238 15T133 88T65 201T41 347Q41 428 64 493T132 606T244 678T399 704Q444 704 479 699T541 684T588 665T623 644V557Q576 585 523
603T396 622Q264 622 202 550T140 347Q140 218 201 146T372 73Q427 73 465 87T528 125T564 184T575 260V279H351V362H669V273ZM368 740Q328 740 299 751T250 783T221 831T211 891H296Q296 843 315 823T368 803Q402 803 420 823T439 891H524Q524 859 515 832T486
784T437 752T368 740Z" />
<glyph unicode="&#x11f;" glyph-name="gbreve" horiz-adv-x="571" d="M271 97Q334 97 376 138T418 266Q418 352 376 394T270 437Q238 437 210 427T162 395T131 341T119 266Q119 224 130 192T162 139T210 108T271 97ZM249 -174Q203 -174 171 -168T117 -153Q92 -144
76 -132V-55Q92 -67 117 -76Q138 -84 171 -90T250 -97Q343 -97 380 -62T417 42V119Q394 74 355 47T255 20Q210 20 170 35T100 82T51 159T33 266Q33 328 51 374T99 451T171 497T257 513Q317 513 358 486T423 412L424 423Q424 432 424 443T426 465T428 486T430 503H507Q505
490 504 465T502 423V43Q502 -6 488 -46T444 -114T365 -158T249 -174ZM261 570Q224 570 197 580T151 610T123 653T114 707H199Q199 667 215 650T261 632Q290 632 306 649T322 707H408Q408 678 399 654T372 610T326 581T261 570Z" />
<glyph unicode="&#x120;" glyph-name="Gdotaccent" horiz-adv-x="717" d="M669 273Q669 212 651 161T596 71T504 12T372 -10Q298 -10 238 15T133 88T65 201T41 347Q41 428 64 493T132 606T244 678T399 704Q444 704 479 699T541 684T588 665T623 644V557Q576 585
523 603T396 622Q264 622 202 550T140 347Q140 218 201 146T372 73Q427 73 465 87T528 125T564 184T575 260V279H351V362H669V273ZM367 762Q342 762 327 778T312 817Q312 840 327 856T367 872Q392 872 407 856T423 817Q423 794 408 778T367 762Z" />
<glyph unicode="&#x121;" glyph-name="gdotaccent" horiz-adv-x="571" d="M271 97Q334 97 376 138T418 266Q418 352 376 394T270 437Q238 437 210 427T162 395T131 341T119 266Q119 224 130 192T162 139T210 108T271 97ZM249 -174Q203 -174 171 -168T117 -153Q92
-144 76 -132V-55Q92 -67 117 -76Q138 -84 171 -90T250 -97Q343 -97 380 -62T417 42V119Q394 74 355 47T255 20Q210 20 170 35T100 82T51 159T33 266Q33 328 51 374T99 451T171 497T257 513Q317 513 358 486T423 412L424 423Q424 432 424 443T426 465T428 486T430
503H507Q505 490 504 465T502 423V43Q502 -6 488 -46T444 -114T365 -158T249 -174ZM259 577Q234 577 219 592T204 631Q204 655 219 671T259 687Q284 687 299 671T315 631Q315 608 300 593T259 577Z" />
<glyph unicode="&#x122;" glyph-name="uni0122" horiz-adv-x="717" d="M669 273Q669 212 651 161T596 71T504 12T372 -10Q298 -10 238 15T133 88T65 201T41 347Q41 428 64 493T132 606T244 678T399 704Q444 704 479 699T541 684T588 665T623 644V557Q576 585 523
603T396 622Q264 622 202 550T140 347Q140 218 201 146T372 73Q427 73 465 87T528 125T564 184T575 260V279H351V362H669V273ZM300 -221Q315 -206 326 -190T352 -149Q334 -146 323 -133T312 -100Q312 -79 326 -64T363 -49Q386 -49 402 -64T418 -111Q418 -147 399
-174T360 -221H300Z" />
<glyph unicode="&#x123;" glyph-name="uni0123" horiz-adv-x="571" d="M271 97Q334 97 376 138T418 266Q418 352 376 394T270 437Q238 437 210 427T162 395T131 341T119 266Q119 224 130 192T162 139T210 108T271 97ZM249 -174Q203 -174 171 -168T117 -153Q92
-144 76 -132V-55Q92 -67 117 -76Q138 -84 171 -90T250 -97Q343 -97 380 -62T417 42V119Q394 74 355 47T255 20Q210 20 170 35T100 82T51 159T33 266Q33 328 51 374T99 451T171 497T257 513Q317 513 358 486T423 412L424 423Q424 432 424 443T426 465T428 486T430
503H507Q505 490 504 465T502 423V43Q502 -6 488 -46T444 -114T365 -158T249 -174ZM265 577Q242 577 226 592T210 639Q210 676 229 703T268 750H328Q313 735 302 719T277 678Q294 675 305 662T317 629Q317 607 303 592T265 577Z" />
<glyph unicode="&#x124;" glyph-name="Hcircumflex" horiz-adv-x="702" d="M530 304H173V0H81V695H173V386H530V695H622V0H530V304ZM352 822L274 740H201L303 884H400L502 740H429L352 822Z" />
<glyph unicode="&#x125;" glyph-name="hcircumflex" horiz-adv-x="558" d="M308 437Q250 437 214 411T155 342V0H70V695H155V503L153 413H155Q175 455 219 484T330 513Q405 513 449 474T493 353V0H407V344Q407 396 381 416T308 437ZM288 822L210 740H137L239 884H336L438
740H365L288 822Z" />
<glyph unicode="&#x126;" glyph-name="Hbar" horiz-adv-x="702" d="M-16 568H719V496H-16V568ZM530 304H173V0H81V695H173V386H530V695H622V0H530V304Z" />
<glyph unicode="&#x127;" glyph-name="hbar" horiz-adv-x="558" d="M-8 622H301V559H-8V622ZM308 437Q250 437 214 411T155 342V0H70V695H155V503L153 413H155Q175 455 219 484T330 513Q405 513 449 474T493 353V0H407V344Q407 396 381 416T308 437Z" />
<glyph unicode="&#x128;" glyph-name="Itilde" horiz-adv-x="253" d="M173 695V0H81V695H173ZM215 760Q212 784 215 807T230 849T261 879T310 890Q335 890 355 882T391 864T422 846T451 837Q491 837 488 894H549Q553 870 549 847T534 805T502 775T454 764Q429
764 409 772T373 791T342 809T313 818Q274 818 277 760H215V760Z" />
<glyph unicode="&#x129;" glyph-name="itilde" horiz-adv-x="224" d="M155 503V0H70V503H155ZM211 580Q208 602 211 622T225 659T254 686T300 696Q323 696 341 690T375 677T404 663T431 657Q467 657 464 700H525Q528 678 525 658T511 621T482 594T436 584Q413
584 395 590T361 603T332 617T305 624Q269 624 272 580H211V580Z" />
<glyph unicode="&#x12a;" glyph-name="Imacron" horiz-adv-x="253" d="M173 695V0H81V695H173ZM232 852H533V784H232V852Z" />
<glyph unicode="&#x12b;" glyph-name="imacron" horiz-adv-x="224" d="M1 666H224V598H1V666ZM155 503V0H70V503H155Z" />
<glyph unicode="&#x12c;" glyph-name="Ibreve" horiz-adv-x="253" d="M173 695V0H81V695H173ZM383 740Q343 740 314 751T265 783T236 831T226 891H311Q311 843 330 823T383 803Q417 803 435 823T454 891H539Q539 859 530 832T501 784T452 752T383 740Z" />
<glyph unicode="&#x12d;" glyph-name="ibreve" horiz-adv-x="224" d="M155 503V0H70V503H155ZM369 570Q332 570 305 580T259 610T231 653T222 707H307Q307 667 323 650T369 632Q398 632 414 649T430 707H516Q516 678 507 654T480 610T434 581T369 570Z" />
<glyph unicode="&#x12e;" glyph-name="Iogonek" horiz-adv-x="253" d="M132 -182Q77 -182 49 -159T21 -97Q21 -62 39 -41T81 -8V695H173V0Q161 -6 149 -15T126 -34T110 -56T103 -79Q103 -95 111 -105T143 -115Q156 -115 164 -113T184 -107V-172Q177 -176 164 -179T132
-182Z" />
<glyph unicode="&#x12f;" glyph-name="iogonek" horiz-adv-x="224" d="M113 577Q87 577 72 593T56 632Q56 655 71 672T113 689Q138 689 153 672T168 632Q168 609 153 593T113 577ZM114 -182Q59 -182 31 -159T3 -97Q3 -59 24 -38T70 -4V503H155V0Q143 -6 131 -15T108
-34T92 -56T85 -79Q85 -95 93 -105T125 -115Q138 -115 146 -113T166 -107V-172Q159 -176 146 -179T114 -182Z" />
<glyph unicode="&#x130;" glyph-name="Idotaccent" horiz-adv-x="253" d="M173 695V0H81V695H173ZM382 762Q357 762 342 778T327 817Q327 840 342 856T382 872Q407 872 422 856T438 817Q438 794 423 778T382 762Z" />
<glyph unicode="&#x131;" glyph-name="dotlessi" horiz-adv-x="224" d="M155 503V0H70V503H155Z" />
<glyph unicode="&#x132;" glyph-name="IJ" horiz-adv-x="575" d="M173 695V0H81V695H173ZM497 695V129Q497 102 488 77T458 33T408 2T335 -10Q309 -10 284 -6T237 7V85Q274 73 314 73Q362 73 383 93T405 156V695H497Z" />
<glyph unicode="&#x133;" glyph-name="ij" horiz-adv-x="447" d="M113 577Q87 577 72 593T56 632Q56 655 71 672T113 689Q138 689 153 672T168 632Q168 609 153 593T113 577ZM155 503V0H70V503H155ZM335 577Q309 577 294 593T279 632Q279 655 294 672T335 689Q360
689 375 672T391 632Q391 609 376 593T335 577ZM378 -43Q378 -71 370 -96T346 -140T303 -170T240 -181Q220 -181 198 -177T152 -161V-79Q166 -90 184 -97T226 -105Q262 -105 277 -88T293 -45V503H378V-43Z" />
<glyph unicode="&#x134;" glyph-name="Jcircumflex" horiz-adv-x="362" d="M284 695V129Q284 102 275 77T245 33T195 2T122 -10Q96 -10 71 -6T24 7V85Q61 73 101 73Q149 73 170 93T192 156V695H284ZM239 822L161 740H88L190 884H287L389 740H316L239 822Z" />
<glyph unicode="&#x135;" glyph-name="jcircumflex" horiz-adv-x="232" d="M163 -43Q163 -71 155 -96T131 -140T88 -170T25 -181Q5 -181 -17 -177T-63 -161V-79Q-49 -90 -31 -97T11 -105Q47 -105 62 -88T78 -45V503H163V-43ZM379 652L301 570H228L330 714H427L529
570H456L379 652Z" />
<glyph unicode="&#x136;" glyph-name="uni0136" horiz-adv-x="622" d="M245 298H173V0H81V695H173V380H241L489 695H592L317 349L602 0H489L245 298ZM238 -221Q253 -206 264 -190T290 -149Q272 -146 261 -133T250 -100Q250 -79 264 -64T301 -49Q324 -49 340 -64T356
-111Q356 -147 337 -174T298 -221H238Z" />
<glyph unicode="&#x137;" glyph-name="uni0137" horiz-adv-x="481" d="M200 214H155V0H70V695H155V287H204L380 503H477L270 255L481 0H377L200 214ZM191 -221Q206 -206 217 -190T243 -149Q225 -146 214 -133T203 -100Q203 -79 217 -64T254 -49Q277 -49 293 -64T309
-111Q309 -147 290 -174T251 -221H191Z" />
<glyph unicode="&#x139;" glyph-name="Lacute" horiz-adv-x="555" d="M81 695H173V82H511V0H81V695ZM312 882H433L301 750H218L312 882Z" />
<glyph unicode="&#x13a;" glyph-name="lacute" horiz-adv-x="224" d="M155 695V0H70V695H155ZM108 882H229L97 750H14L108 882Z" />
<glyph unicode="&#x13b;" glyph-name="uni013B" horiz-adv-x="555" d="M81 695H173V82H511V0H81V695ZM248 -221Q263 -206 274 -190T300 -149Q282 -146 271 -133T260 -100Q260 -79 274 -64T311 -49Q334 -49 350 -64T366 -111Q366 -147 347 -174T308 -221H248Z" />
<glyph unicode="&#x13c;" glyph-name="uni013C" horiz-adv-x="224" d="M155 695V0H70V695H155ZM301 -221Q316 -206 327 -190T353 -149Q335 -146 324 -133T313 -100Q313 -79 327 -64T364 -49Q387 -49 403 -64T419 -111Q419 -147 400 -174T361 -221H301Z" />
<glyph unicode="&#x13d;" glyph-name="Lcaron" horiz-adv-x="555" d="M81 695H173V82H511V0H81V695ZM231 512L250 695H348L290 512H231Z" />
<glyph unicode="&#x13e;" glyph-name="lcaron" horiz-adv-x="224" d="M155 695V0H70V695H155ZM204 512L223 695H321L263 512H204Z" />
<glyph unicode="&#x13f;" glyph-name="Ldot" horiz-adv-x="555" d="M81 695H173V82H511V0H81V695ZM460 289Q433 289 415 306T397 350Q397 377 415 394T460 412Q487 412 504 395T522 350Q522 324 505 307T460 289Z" />
<glyph unicode="&#x140;" glyph-name="ldot" horiz-adv-x="371" d="M155 695V0H70V695H155ZM297 269Q270 269 252 286T234 330Q234 357 252 374T297 392Q324 392 341 375T359 330Q359 304 342 287T297 269Z" />
<glyph unicode="&#x141;" glyph-name="Lslash" horiz-adv-x="555" d="M-3 279L385 483V396L-3 192V279ZM81 695H173V82H511V0H81V695Z" />
<glyph unicode="&#x142;" glyph-name="lslash" horiz-adv-x="244" d="M0 292L244 496V419L0 215V292ZM165 695V0H80V695H165Z" />
<glyph unicode="&#x143;" glyph-name="Nacute" horiz-adv-x="722" d="M168 583V0H81V695H205L554 112V695H641V0H517L168 583ZM382 882H503L371 750H288L382 882Z" />
<glyph unicode="&#x144;" glyph-name="nacute" horiz-adv-x="558" d="M308 437Q250 437 214 411T155 342V0H70V503H150L153 413H155Q175 456 219 484T330 513Q405 513 449 474T493 353V0H407V344Q407 396 381 416T308 437ZM292 724H404L277 570H204L292 724Z" />
<glyph unicode="&#x145;" glyph-name="uni0145" horiz-adv-x="722" d="M168 583V0H81V695H205L554 112V695H641V0H517L168 583ZM318 -221Q333 -206 344 -190T370 -149Q352 -146 341 -133T330 -100Q330 -79 344 -64T381 -49Q404 -49 420 -64T436 -111Q436 -147
417 -174T378 -221H318Z" />
<glyph unicode="&#x146;" glyph-name="uni0146" horiz-adv-x="558" d="M308 437Q250 437 214 411T155 342V0H70V503H150L153 413H155Q175 456 219 484T330 513Q405 513 449 474T493 353V0H407V344Q407 396 381 416T308 437ZM209 -221Q224 -206 235 -190T261 -149Q243
-146 232 -133T221 -100Q221 -79 235 -64T272 -49Q295 -49 311 -64T327 -111Q327 -147 308 -174T269 -221H209Z" />
<glyph unicode="&#x147;" glyph-name="Ncaron" horiz-adv-x="722" d="M168 583V0H81V695H205L554 112V695H641V0H517L168 583ZM338 740L236 884H309L387 802L464 884H537L435 740H338Z" />
<glyph unicode="&#x148;" glyph-name="ncaron" horiz-adv-x="558" d="M308 437Q250 437 214 411T155 342V0H70V503H150L153 413H155Q175 456 219 484T330 513Q405 513 449 474T493 353V0H407V344Q407 396 381 416T308 437ZM229 570L127 714H200L278 632L355 714H428L326
570H229Z" />
<glyph unicode="&#x149;" glyph-name="napostrophe" horiz-adv-x="588" d="M338 437Q280 437 244 411T185 342V0H100V503H180L183 413H185Q205 456 249 484T360 513Q435 513 479 474T523 353V0H437V344Q437 396 411 416T338 437ZM214 495Q229 512 242 534T263
586Q243 591 232 606T220 642Q220 667 236 683T279 699Q305 699 322 682T340 631Q340 611 334 592T319 554T298 521T277 495H214Z" />
<glyph unicode="&#x14a;" glyph-name="Eng" horiz-adv-x="722" d="M479 -194Q453 -194 428 -190T381 -178V-103Q399 -110 419 -112T458 -115Q554 -115 554 -28V0H517L168 583V0H81V695H205L554 112V695H641V-36Q641 -69 632 -98T602 -148T552 -181T479 -194Z" />
<glyph unicode="&#x14b;" glyph-name="eng" horiz-adv-x="549" d="M357 -181Q337 -181 314 -177T267 -161V-79Q281 -90 299 -97T340 -105Q377 -105 392 -88T407 -45V344Q407 396 381 416T308 437Q250 437 214 411T155 342V0H70V503H150L153 413H155Q175 455 219
484T330 513Q405 513 449 474T493 353V-54Q493 -78 486 -101T462 -141T419 -170T357 -181Z" />
<glyph unicode="&#x14c;" glyph-name="Omacron" horiz-adv-x="747" d="M373 -10Q303 -10 243 13T137 83T67 196T41 350Q41 437 66 503T137 614T242 681T373 704Q445 704 506 682T611 615T681 504T706 349Q706 262 681 196T612 83T506 14T373 -10ZM373 73Q423 73
466 88T540 135T590 220T608 347Q608 422 590 474T541 559T466 607T373 622Q323 622 281 607T207 559T157 474T139 347Q139 272 157 220T206 136T280 88T373 73ZM223 852H524V784H223V852Z" />
<glyph unicode="&#x14d;" glyph-name="omacron" horiz-adv-x="555" d="M276 -10Q225 -10 181 7T104 58T53 140T34 252Q34 315 52 363T103 445T180 495T276 513Q328 513 373 496T451 445T502 364T521 252Q521 189 503 141T451 59T373 8T276 -10ZM276 67Q310 67
339 78T389 112T422 169T434 252Q434 300 422 334T389 392T339 426T276 437Q243 437 215 426T165 392T133 335T121 252Q121 204 132 170T165 112T214 78T276 67ZM137 666H418V598H137V666Z" />
<glyph unicode="&#x14e;" glyph-name="Obreve" horiz-adv-x="747" d="M373 -10Q303 -10 243 13T137 83T67 196T41 350Q41 437 66 503T137 614T242 681T373 704Q445 704 506 682T611 615T681 504T706 349Q706 262 681 196T612 83T506 14T373 -10ZM373 73Q423 73
466 88T540 135T590 220T608 347Q608 422 590 474T541 559T466 607T373 622Q323 622 281 607T207 559T157 474T139 347Q139 272 157 220T206 136T280 88T373 73ZM374 740Q334 740 305 751T256 783T227 831T217 891H302Q302 843 321 823T374 803Q408 803 426 823T445
891H530Q530 859 521 832T492 784T443 752T374 740Z" />
<glyph unicode="&#x14f;" glyph-name="obreve" horiz-adv-x="555" d="M276 -10Q225 -10 181 7T104 58T53 140T34 252Q34 315 52 363T103 445T180 495T276 513Q328 513 373 496T451 445T502 364T521 252Q521 189 503 141T451 59T373 8T276 -10ZM276 67Q310 67 339
78T389 112T422 169T434 252Q434 300 422 334T389 392T339 426T276 437Q243 437 215 426T165 392T133 335T121 252Q121 204 132 170T165 112T214 78T276 67ZM278 570Q241 570 214 580T168 610T140 653T131 707H216Q216 667 232 650T278 632Q307 632 323 649T339
707H425Q425 678 416 654T389 610T343 581T278 570Z" />
<glyph unicode="&#x150;" glyph-name="Ohungarumlaut" horiz-adv-x="747" d="M373 -10Q303 -10 243 13T137 83T67 196T41 350Q41 437 66 503T137 614T242 681T373 704Q445 704 506 682T611 615T681 504T706 349Q706 262 681 196T612 83T506 14T373 -10ZM373 73Q423
73 466 88T540 135T590 220T608 347Q608 422 590 474T541 559T466 607T373 622Q323 622 281 607T207 559T157 474T139 347Q139 272 157 220T206 136T280 88T373 73ZM414 750L476 882H584L492 750H414ZM222 750L284 882H392L300 750H222Z" />
<glyph unicode="&#x151;" glyph-name="ohungarumlaut" horiz-adv-x="555" d="M276 -10Q225 -10 181 7T104 58T53 140T34 252Q34 315 52 363T103 445T180 495T276 513Q328 513 373 496T451 445T502 364T521 252Q521 189 503 141T451 59T373 8T276 -10ZM276 67Q310
67 339 78T389 112T422 169T434 252Q434 300 422 334T389 392T339 426T276 437Q243 437 215 426T165 392T133 335T121 252Q121 204 132 170T165 112T214 78T276 67ZM324 570L381 724H477L392 570H324ZM159 570L215 724H311L227 570H159Z" />
<glyph unicode="&#x152;" glyph-name="OE" horiz-adv-x="1001" d="M500 82V612H400Q344 612 296 601T214 560T160 481T140 355Q140 284 159 233T214 148T300 98T410 82H500ZM391 0Q315 0 251 22T140 90T67 201T41 356Q41 452 68 517T144 621T258 678T400 695H933V612H592V402H882V319H592V82H938V0H391Z"
/>
<glyph unicode="&#x153;" glyph-name="oe" horiz-adv-x="921" d="M670 437Q614 437 575 404T525 301H795Q799 371 764 404T670 437ZM276 67Q310 67 339 78T389 112T422 169T434 252Q434 300 422 334T389 392T339 426T276 437Q243 437 215 426T165 392T133 335T121
252Q121 204 132 170T165 112T214 78T276 67ZM870 43Q860 35 844 26T806 9T756 -4T693 -10Q612 -10 558 19T476 103Q447 48 396 19T276 -10Q225 -10 181 7T104 58T53 140T34 252Q34 315 52 363T103 445T180 495T276 513Q344 513 396 484T477 399Q505 454 555 483T672
513Q726 513 769 495T839 440T877 351T877 229H522Q527 148 570 108T700 67Q759 67 800 83T870 119V43Z" />
<glyph unicode="&#x154;" glyph-name="Racute" horiz-adv-x="631" d="M173 0H81V695H314Q437 695 501 648T566 497Q566 406 523 358T407 292L596 0H493L311 282H173V0ZM173 612V365H306Q343 365 373 371T425 394T459 435T471 499Q471 561 430 586T314 612H173ZM322
882H443L311 750H228L322 882Z" />
<glyph unicode="&#x155;" glyph-name="racute" horiz-adv-x="353" d="M319 418Q265 413 221 391T155 320V0H70V503H145L153 394H155Q176 439 216 472T319 513V418ZM464 724H576L449 570H376L464 724Z" />
<glyph unicode="&#x156;" glyph-name="uni0156" horiz-adv-x="631" d="M173 0H81V695H314Q437 695 501 648T566 497Q566 406 523 358T407 292L596 0H493L311 282H173V0ZM173 612V365H306Q343 365 373 371T425 394T459 435T471 499Q471 561 430 586T314 612H173ZM249
-221Q264 -206 275 -190T301 -149Q283 -146 272 -133T261 -100Q261 -79 275 -64T312 -49Q335 -49 351 -64T367 -111Q367 -147 348 -174T309 -221H249Z" />
<glyph unicode="&#x157;" glyph-name="uni0157" horiz-adv-x="353" d="M319 418Q265 413 221 391T155 320V0H70V503H145L153 394H155Q176 439 216 472T319 513V418ZM381 -221Q396 -206 407 -190T433 -149Q415 -146 404 -133T393 -100Q393 -79 407 -64T444 -49Q467
-49 483 -64T499 -111Q499 -147 480 -174T441 -221H381Z" />
<glyph unicode="&#x158;" glyph-name="Rcaron" horiz-adv-x="631" d="M173 0H81V695H314Q437 695 501 648T566 497Q566 406 523 358T407 292L596 0H493L311 282H173V0ZM173 612V365H306Q343 365 373 371T425 394T459 435T471 499Q471 561 430 586T314 612H173ZM269
740L167 884H240L318 802L395 884H468L366 740H269Z" />
<glyph unicode="&#x159;" glyph-name="rcaron" horiz-adv-x="353" d="M319 418Q265 413 221 391T155 320V0H70V503H145L153 394H155Q176 439 216 472T319 513V418ZM401 570L299 714H372L450 632L527 714H600L498 570H401Z" />
<glyph unicode="&#x15a;" glyph-name="Sacute" horiz-adv-x="568" d="M275 -10Q228 -10 190 -4T124 13T76 35T44 59V146Q58 134 81 121T135 98T201 80T275 73Q350 73 395 102T440 188Q440 218 430 237T399 268T347 290T276 310Q235 321 195 334T122 370T69 427T49
513Q49 602 112 653T306 704Q344 704 373 700T425 690T465 676T496 661V573Q455 599 408 610T306 622Q213 622 177 594T140 517Q140 487 153 468T187 436T237 415T297 399Q338 389 380 377T456 342T512 284T534 192Q534 137 513 99T455 36T372 1T275 -10ZM274 882H395L263
750H180L274 882Z" />
<glyph unicode="&#x15b;" glyph-name="sacute" horiz-adv-x="468" d="M231 -10Q192 -10 161 -4T108 12T70 31T45 49V126Q55 117 71 106T111 85T164 69T230 62Q284 62 316 79T348 139Q348 161 338 174T311 196T270 209T222 219Q190 226 159 234T103 258T63 300T47
368Q47 436 99 474T247 513Q301 513 342 503T405 479V403Q380 420 343 430T250 441Q193 441 163 426T132 370Q132 349 141 337T165 318T199 306T240 298Q273 291 307 283T370 259T416 215T434 141Q434 97 417 68T370 22T305 -3T231 -10ZM259 724H371L244 570H171L259
724Z" />
<glyph unicode="&#x15c;" glyph-name="Scircumflex" horiz-adv-x="568" d="M275 -10Q228 -10 190 -4T124 13T76 35T44 59V146Q58 134 81 121T135 98T201 80T275 73Q350 73 395 102T440 188Q440 218 430 237T399 268T347 290T276 310Q235 321 195 334T122 370T69
427T49 513Q49 602 112 653T306 704Q344 704 373 700T425 690T465 676T496 661V573Q455 599 408 610T306 622Q213 622 177 594T140 517Q140 487 153 468T187 436T237 415T297 399Q338 389 380 377T456 342T512 284T534 192Q534 137 513 99T455 36T372 1T275 -10ZM279
822L201 740H128L230 884H327L429 740H356L279 822Z" />
<glyph unicode="&#x15d;" glyph-name="scircumflex" horiz-adv-x="468" d="M231 -10Q192 -10 161 -4T108 12T70 31T45 49V126Q55 117 71 106T111 85T164 69T230 62Q284 62 316 79T348 139Q348 161 338 174T311 196T270 209T222 219Q190 226 159 234T103 258T63
300T47 368Q47 436 99 474T247 513Q301 513 342 503T405 479V403Q380 420 343 430T250 441Q193 441 163 426T132 370Q132 349 141 337T165 318T199 306T240 298Q273 291 307 283T370 259T416 215T434 141Q434 97 417 68T370 22T305 -3T231 -10ZM245 652L167 570H94L196
714H293L395 570H322L245 652Z" />
<glyph unicode="&#x15e;" glyph-name="uni015E" horiz-adv-x="568" d="M275 -10Q228 -10 190 -4T124 13T76 35T44 59V146Q58 134 81 121T135 98T201 80T275 73Q350 73 395 102T440 188Q440 218 430 237T399 268T347 290T276 310Q235 321 195 334T122 370T69 427T49
513Q49 602 112 653T306 704Q344 704 373 700T425 690T465 676T496 661V573Q455 599 408 610T306 622Q213 622 177 594T140 517Q140 487 153 468T187 436T237 415T297 399Q338 389 380 377T456 342T512 284T534 192Q534 137 513 99T455 36T372 1T275 -10ZM337 19L280
-181H173L265 19H337Z" />
<glyph unicode="&#x15f;" glyph-name="uni015F" horiz-adv-x="468" d="M231 -10Q192 -10 161 -4T108 12T70 31T45 49V126Q55 117 71 106T111 85T164 69T230 62Q284 62 316 79T348 139Q348 161 338 174T311 196T270 209T222 219Q190 226 159 234T103 258T63 300T47
368Q47 436 99 474T247 513Q301 513 342 503T405 479V403Q380 420 343 430T250 441Q193 441 163 426T132 370Q132 349 141 337T165 318T199 306T240 298Q273 291 307 283T370 259T416 215T434 141Q434 97 417 68T370 22T305 -3T231 -10ZM291 19L234 -181H127L219
19H291Z" />
<glyph unicode="&#x160;" glyph-name="Scaron" horiz-adv-x="568" d="M275 -10Q228 -10 190 -4T124 13T76 35T44 59V146Q58 134 81 121T135 98T201 80T275 73Q350 73 395 102T440 188Q440 218 430 237T399 268T347 290T276 310Q235 321 195 334T122 370T69 427T49
513Q49 602 112 653T306 704Q344 704 373 700T425 690T465 676T496 661V573Q455 599 408 610T306 622Q213 622 177 594T140 517Q140 487 153 468T187 436T237 415T297 399Q338 389 380 377T456 342T512 284T534 192Q534 137 513 99T455 36T372 1T275 -10ZM230 740L128
884H201L279 802L356 884H429L327 740H230Z" />
<glyph unicode="&#x161;" glyph-name="scaron" horiz-adv-x="468" d="M231 -10Q192 -10 161 -4T108 12T70 31T45 49V126Q55 117 71 106T111 85T164 69T230 62Q284 62 316 79T348 139Q348 161 338 174T311 196T270 209T222 219Q190 226 159 234T103 258T63 300T47
368Q47 436 99 474T247 513Q301 513 342 503T405 479V403Q380 420 343 430T250 441Q193 441 163 426T132 370Q132 349 141 337T165 318T199 306T240 298Q273 291 307 283T370 259T416 215T434 141Q434 97 417 68T370 22T305 -3T231 -10ZM180 570L78 714H151L229
632L306 714H379L277 570H180Z" />
<glyph unicode="&#x162;" glyph-name="Tcommaaccent" horiz-adv-x="581" d="M336 611V0H243V611H29V695H550V611H336ZM221 -221Q236 -206 247 -190T273 -149Q255 -146 244 -133T233 -100Q233 -79 247 -64T284 -49Q307 -49 323 -64T339 -111Q339 -147 320 -174T281
-221H221Z" />
<glyph unicode="&#x163;" glyph-name="tcommaaccent" horiz-adv-x="360" d="M316 11Q301 2 277 -4T225 -10Q188 -10 163 0T121 29T97 70T89 117V431H29V503H89V609H175V503H321V431H175V128Q175 96 191 82T247 67Q267 67 283 72T316 88V11ZM379 -221Q394 -206
405 -190T431 -149Q413 -146 402 -133T391 -100Q391 -79 405 -64T442 -49Q465 -49 481 -64T497 -111Q497 -147 478 -174T439 -221H379Z" />
<glyph unicode="&#x164;" glyph-name="Tcaron" horiz-adv-x="581" d="M336 611V0H243V611H29V695H550V611H336ZM241 740L139 884H212L290 802L367 884H440L338 740H241Z" />
<glyph unicode="&#x165;" glyph-name="tcaron" horiz-adv-x="360" d="M316 11Q301 2 277 -4T225 -10Q188 -10 163 0T121 29T97 70T89 117V431H29V503H89V609H175V503H321V431H175V128Q175 96 191 82T247 67Q267 67 283 72T316 88V11ZM221 547L240 730H338L280 547H221Z" />
<glyph unicode="&#x166;" glyph-name="Tbar" horiz-adv-x="581" d="M79 418H501V345H79V418ZM336 611V0H243V611H29V695H550V611H336Z" />
<glyph unicode="&#x167;" glyph-name="tbar" horiz-adv-x="360" d="M30 334H321V271H30V334ZM316 11Q301 2 277 -4T225 -10Q188 -10 163 0T121 29T97 70T89 117V431H29V503H89V609H175V503H321V431H175V128Q175 96 191 82T247 67Q267 67 283 72T316 88V11Z" />
<glyph unicode="&#x168;" glyph-name="Utilde" horiz-adv-x="671" d="M65 695H157V238Q157 153 205 113T337 72Q377 72 411 82T471 113T510 165T525 238V695H612V241Q612 181 591 134T533 55T445 7T335 -10Q277 -10 228 6T142 53T86 130T65 237V695ZM175 760Q172
784 175 807T190 849T221 879T270 890Q295 890 315 882T351 864T382 846T411 837Q451 837 448 894H509Q513 870 509 847T494 805T462 775T414 764Q389 764 369 772T333 791T302 809T273 818Q234 818 237 760H175V760Z" />
<glyph unicode="&#x169;" glyph-name="utilde" horiz-adv-x="548" d="M393 90Q373 48 331 19T220 -10Q150 -10 107 30T64 151V503H150V151Q150 126 157 110T177 85T207 71T244 67Q301 67 335 92T393 161V503H478V0H403L395 90H393ZM113 580Q110 602 113 622T127
659T156 686T202 696Q225 696 243 690T277 677T306 663T333 657Q369 657 366 700H427Q430 678 427 658T413 621T384 594T338 584Q315 584 297 590T263 603T234 617T207 624Q171 624 174 580H113V580Z" />
<glyph unicode="&#x16a;" glyph-name="Umacron" horiz-adv-x="671" d="M65 695H157V238Q157 153 205 113T337 72Q377 72 411 82T471 113T510 165T525 238V695H612V241Q612 181 591 134T533 55T445 7T335 -10Q277 -10 228 6T142 53T86 130T65 237V695ZM192 852H493V784H192V852Z"
/>
<glyph unicode="&#x16b;" glyph-name="umacron" horiz-adv-x="548" d="M393 90Q373 48 331 19T220 -10Q150 -10 107 30T64 151V503H150V151Q150 126 157 110T177 85T207 71T244 67Q301 67 335 92T393 161V503H478V0H403L395 90H393ZM130 666H411V598H130V666Z" />
<glyph unicode="&#x16c;" glyph-name="Ubreve" horiz-adv-x="671" d="M65 695H157V238Q157 153 205 113T337 72Q377 72 411 82T471 113T510 165T525 238V695H612V241Q612 181 591 134T533 55T445 7T335 -10Q277 -10 228 6T142 53T86 130T65 237V695ZM343 740Q303
740 274 751T225 783T196 831T186 891H271Q271 843 290 823T343 803Q377 803 395 823T414 891H499Q499 859 490 832T461 784T412 752T343 740Z" />
<glyph unicode="&#x16d;" glyph-name="ubreve" horiz-adv-x="548" d="M393 90Q373 48 331 19T220 -10Q150 -10 107 30T64 151V503H150V151Q150 126 157 110T177 85T207 71T244 67Q301 67 335 92T393 161V503H478V0H403L395 90H393ZM271 570Q234 570 207 580T161
610T133 653T124 707H209Q209 667 225 650T271 632Q300 632 316 649T332 707H418Q418 678 409 654T382 610T336 581T271 570Z" />
<glyph unicode="&#x16e;" glyph-name="Uring" horiz-adv-x="671" d="M65 695H157V238Q157 153 205 113T337 72Q377 72 411 82T471 113T510 165T525 238V695H612V241Q612 181 591 134T533 55T445 7T335 -10Q277 -10 228 6T142 53T86 130T65 237V695ZM336 733Q290
733 260 763T229 839Q229 885 259 915T336 945Q382 945 413 915T444 839Q444 793 413 763T336 733ZM336 787Q359 787 374 801T389 839Q389 862 374 877T336 892Q313 892 299 877T285 839Q285 816 299 802T336 787Z" />
<glyph unicode="&#x16f;" glyph-name="uring" horiz-adv-x="548" d="M393 90Q373 48 331 19T220 -10Q150 -10 107 30T64 151V503H150V151Q150 126 157 110T177 85T207 71T244 67Q301 67 335 92T393 161V503H478V0H403L395 90H393ZM270 554Q224 554 194 583T163
660Q163 706 193 735T270 765Q316 765 347 736T378 660Q378 613 347 584T270 554ZM270 607Q293 607 308 622T323 660Q323 683 308 698T270 713Q247 713 233 698T219 660Q219 637 233 622T270 607Z" />
<glyph unicode="&#x170;" glyph-name="Uhungarumlaut" horiz-adv-x="671" d="M65 695H157V238Q157 153 205 113T337 72Q377 72 411 82T471 113T510 165T525 238V695H612V241Q612 181 591 134T533 55T445 7T335 -10Q277 -10 228 6T142 53T86 130T65 237V695ZM383
750L445 882H553L461 750H383ZM191 750L253 882H361L269 750H191Z" />
<glyph unicode="&#x171;" glyph-name="uhungarumlaut" horiz-adv-x="548" d="M393 90Q373 48 331 19T220 -10Q150 -10 107 30T64 151V503H150V151Q150 126 157 110T177 85T207 71T244 67Q301 67 335 92T393 161V503H478V0H403L395 90H393ZM317 570L374 724H470L385
570H317ZM152 570L208 724H304L220 570H152Z" />
<glyph unicode="&#x172;" glyph-name="Uogonek" horiz-adv-x="671" d="M392 -182Q337 -182 308 -159T278 -97Q278 -63 295 -43T334 -10Q276 -10 227 6T142 53T86 130T65 237V695H157V238Q157 153 205 113T337 72Q377 72 411 82T471 113T510 165T525 238V695H612V241Q612
156 572 99T466 15Q418 -5 389 -27T360 -79Q360 -95 370 -105T403 -115Q426 -115 448 -107V-172Q441 -176 426 -179T392 -182Z" />
<glyph unicode="&#x173;" glyph-name="uogonek" horiz-adv-x="548" d="M496 -172Q489 -176 474 -179T440 -182Q385 -182 356 -159T326 -97Q326 -77 333 -62T351 -34T375 -14T403 1L395 90H393Q373 48 331 19T220 -10Q150 -10 107 30T64 151V503H150V151Q150 126
157 110T177 85T207 71T244 67Q301 67 335 92T393 161V503H478V0Q466 -6 454 -15T431 -34T415 -56T408 -79Q408 -95 418 -105T451 -115Q474 -115 496 -107V-172V-172Z" />
<glyph unicode="&#x174;" glyph-name="Wcircumflex" horiz-adv-x="922" d="M19 695H114L246 79L425 695H508L683 91L814 695H902L749 0H615L462 539L307 0H173L19 695ZM467 822L389 740H316L418 884H515L617 740H544L467 822Z" />
<glyph unicode="&#x175;" glyph-name="wcircumflex" horiz-adv-x="761" d="M29 503H119L215 64L338 503H434L553 69L648 503H732L618 0H487L380 388L271 0H144L29 503ZM381 652L303 570H230L332 714H429L531 570H458L381 652Z" />
<glyph unicode="&#x176;" glyph-name="Ycircumflex" horiz-adv-x="605" d="M257 0V299L19 695H124L307 380L493 695H586L350 302V0H257ZM303 822L225 740H152L254 884H351L453 740H380L303 822Z" />
<glyph unicode="&#x177;" glyph-name="ycircumflex" horiz-adv-x="515" d="M113 -181Q94 -181 78 -179T48 -171V-88Q58 -96 74 -100T111 -105Q146 -105 169 -88T214 -34L10 503H102L260 75L421 503H505L317 6Q300 -39 281 -74T237 -132T182 -168T113 -181ZM268
652L190 570H117L219 714H316L418 570H345L268 652Z" />
<glyph unicode="&#x178;" glyph-name="Ydieresis" horiz-adv-x="605" d="M257 0V299L19 695H124L307 380L493 695H586L350 302V0H257ZM417 762Q392 762 377 778T361 817Q361 840 376 856T417 872Q442 872 457 856T472 817Q472 794 457 778T417 762ZM188 762Q163
762 148 778T133 817Q133 840 148 856T188 872Q213 872 228 856T243 817Q243 794 228 778T188 762Z" />
<glyph unicode="&#x179;" glyph-name="Zacute" horiz-adv-x="596" d="M42 0V66L430 612H52V695H543V629L151 82H544V0H42ZM296 882H417L285 750H202L296 882Z" />
<glyph unicode="&#x17a;" glyph-name="zacute" horiz-adv-x="445" d="M34 0V55L299 431H42V503H405V448L141 73H406V0H34ZM237 724H349L222 570H149L237 724Z" />
<glyph unicode="&#x17b;" glyph-name="Zdotaccent" horiz-adv-x="596" d="M42 0V66L430 612H52V695H543V629L151 82H544V0H42ZM300 762Q275 762 260 778T245 817Q245 840 260 856T300 872Q325 872 340 856T356 817Q356 794 341 778T300 762Z" />
<glyph unicode="&#x17c;" glyph-name="zdotaccent" horiz-adv-x="445" d="M34 0V55L299 431H42V503H405V448L141 73H406V0H34ZM222 577Q197 577 182 592T167 631Q167 655 182 671T222 687Q247 687 262 671T278 631Q278 608 263 593T222 577Z" />
<glyph unicode="&#x17d;" glyph-name="Zcaron" horiz-adv-x="596" d="M42 0V66L430 612H52V695H543V629L151 82H544V0H42ZM252 740L150 884H223L301 802L378 884H451L349 740H252Z" />
<glyph unicode="&#x17e;" glyph-name="zcaron" horiz-adv-x="445" d="M34 0V55L299 431H42V503H405V448L141 73H406V0H34ZM174 570L72 714H145L223 632L300 714H373L271 570H174Z" />
<glyph unicode="&#x192;" glyph-name="uni0192" horiz-adv-x="522" d="M27 -181Q6 -181 -11 -179T-42 -172V-101Q-34 -105 -15 -109T25 -113Q74 -113 99 -82T136 21L191 352H105L119 421H203L217 507Q235 611 285 657T422 704Q436 704 450 703T477 699V622Q469
626 449 628T408 631Q384 631 367 625T337 604T316 566T302 507L287 421H425L410 352H275L218 16Q185 -181 27 -181Z" />
<glyph unicode="&#x1fa;" glyph-name="Aringacute" horiz-adv-x="671" d="M330 627L206 281H454L330 627ZM483 199H176L105 0H19L267 695H403L652 0H555L483 199ZM335 733Q289 733 259 763T228 839Q228 885 258 915T335 945Q381 945 412 915T443 839Q443 793 412
763T335 733ZM335 787Q358 787 373 801T388 839Q388 862 373 877T335 892Q312 892 298 877T284 839Q284 816 298 802T335 787ZM380 1115H501L369 983H286L380 1115Z" />
<glyph unicode="&#x1fb;" glyph-name="aringacute" horiz-adv-x="510" d="M214 67Q254 67 282 83T327 122T353 164T361 194V231H275Q199 231 165 209T130 144Q130 109 150 88T214 67ZM365 97Q357 79 344 60T310 26T261 0T196 -10Q128 -10 87 28T45 139Q45 221
102 260T267 299H361V340Q361 393 334 415T241 437Q194 437 152 423T78 388V465Q104 482 150 497T252 513Q347 513 396 474T446 352V81Q446 64 447 39T451 0H373Q371 13 369 38T366 81L365 97ZM258 554Q212 554 182 583T151 660Q151 706 181 735T258 765Q304 765
335 736T366 660Q366 613 335 584T258 554ZM258 607Q281 607 296 622T311 660Q311 683 296 698T258 713Q235 713 221 698T207 660Q207 637 221 622T258 607ZM292 931H413L281 799H198L292 931Z" />
<glyph unicode="&#x1fc;" glyph-name="AEacute" horiz-adv-x="964" d="M465 656L284 320H465V656ZM465 238H239L111 0H19L393 695H896V612H557V402H845V319H557V82H901V0H465V238ZM654 882H775L643 750H560L654 882Z" />
<glyph unicode="&#x1fd;" glyph-name="aeacute" horiz-adv-x="838" d="M596 437Q542 437 505 404T456 301H713Q717 370 683 403T596 437ZM788 43Q778 35 764 26T728 9T680 -4T616 -10Q533 -10 479 22T399 115Q392 97 378 75T341 34T284 3T205 -10Q130 -10 88 28T45
139Q45 221 102 260T267 299H366V340Q366 391 338 414T250 437Q197 437 154 423T78 388V465Q104 482 151 497T262 513Q322 513 364 493T426 430Q483 513 596 513Q648 513 689 495T758 440T794 351T794 229H453Q463 67 624 67Q682 67 721 83T788 119V43ZM216 67Q257
67 285 83T332 122T358 164T366 194V231H275Q199 231 165 209T130 144Q130 109 150 88T216 67ZM500 724H612L485 570H412L500 724Z" />
<glyph unicode="&#x1fe;" glyph-name="Oslashacute" horiz-adv-x="747" d="M139 347Q139 270 157 218T209 132L475 603Q431 622 373 622Q323 622 281 607T207 559T157 474T139 347ZM373 73Q423 73 466 88T540 135T590 220T608 347Q608 423 590 476T539 561L273
91Q318 73 373 73ZM373 -10Q294 -10 232 18L183 -68H96L166 57Q108 102 75 175T41 350Q41 437 66 503T137 614T242 681T373 704Q452 704 517 677L565 762H652L583 639Q640 595 673 523T706 349Q706 262 681 196T612 83T506 14T373 -10ZM369 882H490L358 750H275L369
882Z" />
<glyph unicode="&#x1ff;" glyph-name="oslashacute" horiz-adv-x="555" d="M121 252Q121 201 133 166T169 107L324 431Q301 437 276 437Q243 437 215 426T165 392T133 335T121 252ZM276 67Q310 67 339 78T389 112T422 169T434 252Q434 302 422 337T386 396L232
72Q243 70 253 69T276 67ZM276 -10Q236 -10 198 1L160 -78H81L134 33Q88 65 61 120T34 252Q34 315 52 363T103 445T180 495T276 513Q319 513 357 501L395 581H474L421 470Q467 438 494 383T521 252Q521 189 503 141T451 59T373 8T276 -10ZM292 724H404L277 570H204L292
724Z" />
<glyph unicode="&#x218;" glyph-name="uni0218" horiz-adv-x="568" d="M275 -10Q228 -10 190 -4T124 13T76 35T44 59V146Q58 134 81 121T135 98T201 80T275 73Q350 73 395 102T440 188Q440 218 430 237T399 268T347 290T276 310Q235 321 195 334T122 370T69 427T49
513Q49 602 112 653T306 704Q344 704 373 700T425 690T465 676T496 661V573Q455 599 408 610T306 622Q213 622 177 594T140 517Q140 487 153 468T187 436T237 415T297 399Q338 389 380 377T456 342T512 284T534 192Q534 137 513 99T455 36T372 1T275 -10ZM210 -221Q225
-206 236 -190T262 -149Q244 -146 233 -133T222 -100Q222 -79 236 -64T273 -49Q296 -49 312 -64T328 -111Q328 -147 309 -174T270 -221H210Z" />
<glyph unicode="&#x219;" glyph-name="uni0219" horiz-adv-x="468" d="M231 -10Q192 -10 161 -4T108 12T70 31T45 49V126Q55 117 71 106T111 85T164 69T230 62Q284 62 316 79T348 139Q348 161 338 174T311 196T270 209T222 219Q190 226 159 234T103 258T63 300T47
368Q47 436 99 474T247 513Q301 513 342 503T405 479V403Q380 420 343 430T250 441Q193 441 163 426T132 370Q132 349 141 337T165 318T199 306T240 298Q273 291 307 283T370 259T416 215T434 141Q434 97 417 68T370 22T305 -3T231 -10ZM176 -221Q191 -206 202
-190T228 -149Q210 -146 199 -133T188 -100Q188 -79 202 -64T239 -49Q262 -49 278 -64T294 -111Q294 -147 275 -174T236 -221H176Z" />
<glyph unicode="&#x237;" glyph-name="uni0237" horiz-adv-x="232" d="M163 -43Q163 -71 155 -96T131 -140T88 -170T25 -181Q5 -181 -17 -177T-63 -161V-79Q-49 -90 -31 -97T11 -105Q47 -105 62 -88T78 -45V503H163V-43Z" />
<glyph unicode="&#x2c6;" glyph-name="circumflex" horiz-adv-x="437" d="M219 652L141 570H68L170 714H267L369 570H296L219 652Z" />
<glyph unicode="&#x2c7;" glyph-name="caron" horiz-adv-x="437" d="M170 570L68 714H141L219 632L296 714H369L267 570H170Z" />
<glyph unicode="&#x2d8;" glyph-name="breve" horiz-adv-x="436" d="M218 570Q181 570 154 580T108 610T80 653T71 707H156Q156 667 172 650T218 632Q247 632 263 649T279 707H365Q365 678 356 654T329 610T283 581T218 570Z" />
<glyph unicode="&#x2d9;" glyph-name="dotaccent" horiz-adv-x="437" d="M218 577Q193 577 178 592T163 631Q163 655 178 671T218 687Q243 687 258 671T274 631Q274 608 259 593T218 577Z" />
<glyph unicode="&#x2da;" glyph-name="ring" horiz-adv-x="437" d="M218 554Q172 554 142 583T111 660Q111 706 141 735T218 765Q264 765 295 736T326 660Q326 613 295 584T218 554ZM218 607Q241 607 256 622T271 660Q271 683 256 698T218 713Q195 713 181 698T167
660Q167 637 181 622T218 607Z" />
<glyph unicode="&#x2db;" glyph-name="ogonek" horiz-adv-x="436" d="M241 -182Q186 -182 157 -159T127 -97Q127 -76 134 -61T152 -34T176 -14T203 0H279Q267 -6 255 -15T232 -34T216 -56T209 -79Q209 -95 219 -105T252 -115Q275 -115 297 -107V-172Q290 -176
275 -179T241 -182Z" />
<glyph unicode="&#x2dc;" glyph-name="tilde" horiz-adv-x="437" d="M61 580Q58 602 61 622T75 659T104 686T150 696Q173 696 191 690T225 677T254 663T281 657Q317 657 314 700H375Q378 678 375 658T361 621T332 594T286 584Q263 584 245 590T211 603T182 617T155
624Q119 624 122 580H61V580Z" />
<glyph unicode="&#x2dd;" glyph-name="hungarumlaut" horiz-adv-x="437" d="M243 570L300 724H396L311 570H243ZM78 570L134 724H230L146 570H78Z" />
<glyph unicode="&#x401;" glyph-name="afii10023" horiz-adv-x="580" d="M205 749Q179 749 165 765T150 805Q150 828 164 844T205 860Q230 860 244 844T259 805Q259 781 245 765T205 749ZM388 749Q364 749 349 765T334 805Q334 828 349 844T388 860Q414 860 428
844T442 805Q442 781 428 765T388 749ZM81 695H512V612H173V402H461V319H173V82H517V0H81V695Z" />
<glyph unicode="&#x402;" glyph-name="afii10051" horiz-adv-x="770" d="M478 -40Q565 -40 604 12T644 161Q644 258 603 309T471 361Q432 361 395 350T325 317V401Q350 421 389 432T474 443Q596 443 666 371T736 161Q736 23 667 -49T478 -122V-40ZM336 611V0H243V611H29V695H550V611H336Z"
/>
<glyph unicode="&#x403;" glyph-name="afii10052" horiz-adv-x="528" d="M308 882H429L297 750H214L308 882ZM173 612V0H81V695H487V612H173Z" />
<glyph unicode="&#x404;" glyph-name="afii10053" horiz-adv-x="659" d="M600 49Q572 26 519 8T390 -10Q311 -10 247 14T137 85T66 197T41 347Q41 431 63 497T130 609T238 679T385 704Q456 704 510 689T598 654V566Q553 594 497 608T384 622Q268 622 209 563T141
386H468V304H142Q152 188 216 131T397 73Q451 73 502 87T600 137V49V49Z" />
<glyph unicode="&#x405;" glyph-name="afii10054" horiz-adv-x="561" d="M275 -10Q228 -10 190 -4T124 13T76 35T44 59V146Q58 134 81 121T135 98T201 80T275 73Q350 73 395 102T440 188Q440 218 430 237T399 268T347 290T276 310Q235 321 195 334T122 370T69
427T49 513Q49 602 112 653T306 704Q344 704 373 700T425 690T465 676T496 661V573Q455 599 408 610T306 622Q213 622 177 594T140 517Q140 487 153 468T187 436T237 415T297 399Q338 389 380 377T456 342T512 284T534 192Q534 137 513 99T455 36T372 1T275 -10Z"
/>
<glyph unicode="&#x406;" glyph-name="afii10055" horiz-adv-x="253" d="M173 695V0H81V695H173Z" />
<glyph unicode="&#x407;" glyph-name="afii10056" horiz-adv-x="253" d="M173 695V0H81V695H173ZM497 762Q472 762 457 778T441 817Q441 840 456 856T497 872Q522 872 537 856T552 817Q552 794 537 778T497 762ZM268 762Q243 762 228 778T213 817Q213 840 228
856T268 872Q293 872 308 856T323 817Q323 794 308 778T268 762Z" />
<glyph unicode="&#x408;" glyph-name="afii10057" horiz-adv-x="362" d="M284 695V129Q284 102 275 77T245 33T195 2T122 -10Q96 -10 71 -6T24 7V85Q61 73 101 73Q149 73 170 93T192 156V695H284Z" />
<glyph unicode="&#x409;" glyph-name="afii10058" horiz-adv-x="998" d="M210 191Q201 150 188 114T152 50T98 8T19 -4V88Q66 83 89 118T124 210Q139 283 143 403T150 695H579V423H710Q828 423 893 375T959 222Q959 163 941 121T888 51T807 12T702 -1H562V0H487V612H237Q234
471 229 367T210 191ZM579 340V81H702Q739 81 769 88T821 113T855 156T867 221Q867 284 827 312T710 340H579Z" />
<glyph unicode="&#x40a;" glyph-name="afii10059" horiz-adv-x="1041" d="M745 81Q782 81 812 88T864 113T898 156T910 221Q910 284 870 312T753 340H604V423H753Q871 423 936 375T1002 222Q1002 163 983 121T931 51T850 12T745 -1H604V81H745V81ZM530 304H173V0H81V695H173V386H530V695H622V0H530V304Z"
/>
<glyph unicode="&#x40b;" glyph-name="afii10060" horiz-adv-x="757" d="M325 398Q348 415 386 429T482 443Q528 443 566 433T633 402T676 349T692 271V0H599V262Q599 291 590 310T565 340T526 356T477 361Q433 361 395 350T325 318V398ZM336 611V0H243V611H29V695H550V611H336Z"
/>
<glyph unicode="&#x40c;" glyph-name="afii10061" horiz-adv-x="622" d="M245 298H173V0H81V695H173V380H241L489 695H592L317 349L602 0H489L245 298ZM337 882H458L326 750H243L337 882Z" />
<glyph unicode="&#x40e;" glyph-name="afii10062" horiz-adv-x="612" d="M315 733Q233 733 193 774T153 875H239Q239 833 259 815T315 796Q351 796 371 814T391 875H476Q476 845 466 819T436 774T386 744T315 733ZM377 188Q356 140 334 104T284 43T219 8T133 0V91Q193
86 227 109T283 172L25 695H129L329 277L503 695H597L377 188Z" />
<glyph unicode="&#x40f;" glyph-name="afii10145" horiz-adv-x="702" d="M397 0L393 -165H310L307 0H81V695H173V82H530V695H622V0H397Z" />
<glyph unicode="&#x410;" glyph-name="afii10017" horiz-adv-x="671" d="M330 627L206 281H454L330 627ZM483 199H176L105 0H19L267 695H403L652 0H555L483 199Z" />
<glyph unicode="&#x411;" glyph-name="afii10018" horiz-adv-x="602" d="M173 334V82H297Q331 82 360 88T410 110T442 150T454 211Q454 274 417 304T307 334H173ZM81 695H505V612H173V416H310Q426 416 488 369T550 215Q550 157 532 116T480 50T400 12T297 0H81V695Z" />
<glyph unicode="&#x412;" glyph-name="afii10019" horiz-adv-x="626" d="M173 612V399H310Q376 399 417 428T459 521Q459 574 422 593T317 612H173ZM173 316V82H315Q352 82 382 88T434 107T468 143T480 199Q480 264 438 290T305 316H173ZM81 695H317Q431 695 491
657T551 526Q551 452 514 414T413 361Q494 351 535 314T576 201Q576 147 557 109T502 46T419 11T315 0H81V695Z" />
<glyph unicode="&#x413;" glyph-name="afii10020" horiz-adv-x="528" d="M173 612V0H81V695H487V612H173Z" />
<glyph unicode="&#x414;" glyph-name="afii10021" horiz-adv-x="740" d="M520 612H254Q251 501 246 416T230 267T205 158T167 82H520V612ZM607 0H108L97 -165H15V82H61Q94 112 114 163T145 288T161 463T169 695H612V82H701V-165H617L607 0Z" />
<glyph unicode="&#x415;" glyph-name="afii10022" horiz-adv-x="580" d="M81 695H512V612H173V402H461V319H173V82H517V0H81V695Z" />
<glyph unicode="&#x416;" glyph-name="afii10024" horiz-adv-x="920" d="M410 306H369L126 0H17L299 354L30 695H129L371 382H410V695H502V382H544L786 695H886L614 352L898 0H787L542 306H502V0H410V306Z" />
<glyph unicode="&#x417;" glyph-name="afii10025" horiz-adv-x="587" d="M268 -10Q190 -10 133 9T50 50V138Q141 73 265 73Q301 73 333 79T389 100T427 139T441 199Q441 265 400 291T274 318H174V396H272Q345 396 382 427T420 514Q420 574 381 598T275 623Q209
623 156 608T61 572V659Q93 676 145 690T276 704Q385 704 449 659T513 520Q513 458 477 419T372 363Q453 352 495 313T537 201Q537 145 516 105T458 40T372 2T268 -10Z" />
<glyph unicode="&#x418;" glyph-name="afii10026" horiz-adv-x="734" d="M81 695H173V122L555 695H654V0H561V572L180 0H81V695Z" />
<glyph unicode="&#x419;" glyph-name="afii10027" horiz-adv-x="734" d="M359 733Q318 733 288 744T237 774T207 819T197 875H282Q282 833 302 815T359 796Q394 796 414 814T435 875H520Q520 845 510 819T480 774T430 744T359 733ZM81 695H173V122L555 695H654V0H561V572L180
0H81V695Z" />
<glyph unicode="&#x41a;" glyph-name="afii10028" horiz-adv-x="622" d="M245 298H173V0H81V695H173V380H241L489 695H592L317 349L602 0H489L245 298Z" />
<glyph unicode="&#x41b;" glyph-name="afii10029" horiz-adv-x="660" d="M210 191Q201 150 188 114T152 50T98 8T19 -4V88Q66 83 89 118T124 210Q139 283 143 403T150 695H579V0H487V612H237Q234 471 229 367T210 191Z" />
<glyph unicode="&#x41c;" glyph-name="afii10030" horiz-adv-x="850" d="M378 107L168 568V0H81V695H209L424 207L651 695H769V0H677V559L464 107L418 106H377L378 107Z" />
<glyph unicode="&#x41d;" glyph-name="afii10031" horiz-adv-x="701" d="M530 304H173V0H81V695H173V386H530V695H622V0H530V304Z" />
<glyph unicode="&#x41e;" glyph-name="afii10032" horiz-adv-x="747" d="M373 -10Q303 -10 243 13T137 83T67 196T41 350Q41 437 66 503T137 614T242 681T373 704Q445 704 506 682T611 615T681 504T706 349Q706 262 681 196T612 83T506 14T373 -10ZM373 73Q423
73 466 88T540 135T590 220T608 347Q608 422 590 474T541 559T466 607T373 622Q323 622 281 607T207 559T157 474T139 347Q139 272 157 220T206 136T280 88T373 73Z" />
<glyph unicode="&#x41f;" glyph-name="afii10033" horiz-adv-x="685" d="M512 612H173V0H81V695H604V0H512V612Z" />
<glyph unicode="&#x420;" glyph-name="afii10034" horiz-adv-x="592" d="M173 612V353H296Q333 353 363 360T415 385T449 428T461 493Q461 556 420 584T304 612H173ZM173 271V0H81V695H304Q422 695 487 646T553 494Q553 435 534 393T482 323T401 284T296 271H173Z" />
<glyph unicode="&#x421;" glyph-name="afii10035" horiz-adv-x="651" d="M383 -10Q306 -10 243 14T135 85T66 197T41 347Q41 431 63 497T129 609T236 679T381 704Q452 704 505 689T593 654V566Q548 594 492 608T380 622Q257 622 199 554T140 347Q140 209 203 141T391
73Q445 73 495 87T593 137V49Q564 26 511 8T383 -10Z" />
<glyph unicode="&#x422;" glyph-name="afii10036" horiz-adv-x="579" d="M336 611V0H243V611H29V695H550V611H336Z" />
<glyph unicode="&#x423;" glyph-name="afii10037" horiz-adv-x="612" d="M377 188Q356 140 334 104T284 43T219 8T133 0V91Q193 86 227 109T283 172L25 695H129L329 277L503 695H597L377 188Z" />
<glyph unicode="&#x424;" glyph-name="afii10038" horiz-adv-x="794" d="M351 81Q285 82 229 99T130 150T65 231T41 345Q41 410 64 459T130 542T228 594T351 614V703H443V614Q509 612 566 595T665 545T730 463T754 349Q754 284 731 235T665 152T566 101T443 81V-10H351V81ZM658
346Q658 399 642 435T596 494T528 527T443 540V153Q489 155 528 166T596 199T641 258T658 346ZM351 541Q306 539 267 528T199 495T154 436T137 348Q137 295 153 259T198 201T266 167T351 154V541Z" />
<glyph unicode="&#x425;" glyph-name="afii10039" horiz-adv-x="650" d="M305 298L102 0H5L258 366L38 695H146L324 430L499 695H596L369 364L616 0H506L305 298Z" />
<glyph unicode="&#x426;" glyph-name="afii10040" horiz-adv-x="733" d="M610 -165L600 0H81V695H173V82H512V695H604V82H695V-165H610Z" />
<glyph unicode="&#x427;" glyph-name="afii10041" horiz-adv-x="663" d="M491 0V330Q453 295 406 275T299 255Q248 255 206 269T133 314T85 390T68 502V695H160V507Q160 418 197 376T299 333Q364 333 410 354T491 423V695H583V0H491Z" />
<glyph unicode="&#x428;" glyph-name="afii10042" horiz-adv-x="922" d="M81 695H173V82H413V695H507V82H749V695H841V0H81V695Z" />
<glyph unicode="&#x429;" glyph-name="afii10043" horiz-adv-x="969" d="M845 -165L834 0H81V695H173V82H413V695H507V82H749V695H841V82H928V-165H845Z" />
<glyph unicode="&#x42a;" glyph-name="afii10044" horiz-adv-x="724" d="M299 416H437Q552 416 614 369T676 215Q676 157 658 116T606 50T526 12T423 0H207V612H32V695H299V416ZM299 334V82H423Q457 82 486 88T536 110T568 150T580 211Q580 274 543 304T433 334H299Z" />
<glyph unicode="&#x42b;" glyph-name="afii10045" horiz-adv-x="816" d="M735 694V0H643V694H735ZM173 334V82H297Q331 82 360 88T410 110T442 150T454 211Q454 274 417 304T307 334H173ZM81 695H173V416H310Q426 416 488 369T550 215Q550 157 532 116T480 50T400
12T297 0H81V695Z" />
<glyph unicode="&#x42c;" glyph-name="afii10046" horiz-adv-x="600" d="M173 334V82H297Q331 82 360 88T410 110T442 150T454 211Q454 274 417 304T307 334H173ZM81 695H173V416H310Q426 416 488 369T550 215Q550 157 532 116T480 50T400 12T297 0H81V695Z" />
<glyph unicode="&#x42d;" glyph-name="afii10047" horiz-adv-x="651" d="M261 -10Q186 -10 133 8T50 49V137Q98 102 149 88T254 73Q489 73 509 304H183V386H510Q502 504 443 563T267 622Q211 622 155 608T53 566V654Q87 674 141 689T266 704Q349 704 413 680T521
610T587 498T610 347Q610 263 585 197T514 85T404 15T261 -10Z" />
<glyph unicode="&#x42e;" glyph-name="afii10048" horiz-adv-x="941" d="M587 -10Q524 -10 470 10T374 69T307 168T275 304H173V0H81V695H173V386H276Q282 463 307 522T374 621T469 683T587 704Q653 704 710 682T809 615T876 504T900 350Q900 263 876 196T810
83T710 14T587 -10ZM587 73Q633 73 672 88T740 135T785 220T802 347Q802 422 786 474T741 559T673 607T587 622Q541 622 502 607T434 559T389 474T372 347Q372 272 388 220T433 136T501 88T587 73Z" />
<glyph unicode="&#x42f;" glyph-name="afii10049" horiz-adv-x="627" d="M454 361V612H330Q295 612 267 606T217 585T185 546T173 488Q173 422 210 392T320 361H454ZM454 278H328L136 0H24L235 295Q158 312 118 359T77 488Q77 543 95 582T147 646T227 683T330
695H546V0H454V278Z" />
<glyph unicode="&#x430;" glyph-name="afii10065" horiz-adv-x="510" d="M214 67Q254 67 282 83T327 122T353 164T361 194V231H275Q199 231 165 209T130 144Q130 109 150 88T214 67ZM365 97Q357 79 344 60T310 26T261 0T196 -10Q128 -10 87 28T45 139Q45 221 102
260T267 299H361V340Q361 393 334 415T241 437Q194 437 152 423T78 388V465Q104 482 150 497T252 513Q347 513 396 474T446 352V81Q446 64 447 39T451 0H373Q371 13 369 38T366 81L365 97Z" />
<glyph unicode="&#x431;" glyph-name="afii10066" horiz-adv-x="561" d="M279 -10Q226 -10 182 8T105 63T55 156T37 289Q37 352 41 409T58 515T97 603T167 669Q216 697 270 702T377 709Q416 712 442 719T489 737V660Q468 646 444 641T386 631Q358 629 333 628T285
625T241 617T201 602Q176 588 160 568T133 522T117 464T108 395Q133 452 180 481T298 510Q346 510 387 493T458 443T506 362T524 252Q524 189 506 141T454 59T376 8T279 -10ZM279 67Q313 67 342 78T392 112T424 169T436 252Q436 300 425 334T392 392T342 426T279
437Q246 437 218 426T168 393T136 336T124 255Q124 206 135 171T168 112T217 78T279 67Z" />
<glyph unicode="&#x432;" glyph-name="afii10067" horiz-adv-x="521" d="M155 431V294H250Q298 294 328 311T358 362Q358 401 332 416T257 431H155ZM155 226V73H255Q309 73 342 88T375 147Q375 191 345 208T255 226H155ZM70 503H258Q349 503 395 472T442 373Q442
329 420 303T355 264Q463 246 463 145Q463 106 448 79T405 34T339 8T256 0H70V503Z" />
<glyph unicode="&#x433;" glyph-name="afii10068" horiz-adv-x="424" d="M155 431V0H70V503H390V431H155Z" />
<glyph unicode="&#x434;" glyph-name="afii10069" horiz-adv-x="569" d="M389 431H205Q202 360 198 303T187 203T169 127T142 73H389V431ZM465 0H90L81 -144H5V73H43Q70 89 85 124T109 212T121 338T128 503H474V73H550V-144H475L465 0Z" />
<glyph unicode="&#x435;" glyph-name="afii10070" horiz-adv-x="522" d="M271 437Q214 437 175 404T125 301H396Q399 370 364 403T271 437ZM470 43Q460 35 444 26T406 9T356 -4T293 -10Q166 -10 100 58T34 252Q34 313 52 361T102 444T178 495T273 513Q327 513
369 495T439 440T477 351T477 229H122Q127 148 170 108T301 67Q359 67 401 83T470 119V43Z" />
<glyph unicode="&#x436;" glyph-name="afii10072" horiz-adv-x="739" d="M326 503H411V287H457L617 503H711L523 257L718 0H614L454 214H411V0H326V214H283L120 0H19L214 254L26 503H124L281 287H326V503Z" />
<glyph unicode="&#x437;" glyph-name="afii10073" horiz-adv-x="482" d="M216 -10Q162 -10 119 2T52 30V107Q82 88 124 78T214 67Q242 67 265 71T306 84T334 109T344 146Q344 189 313 206T216 224H149V293H219Q273 293 301 312T329 369Q329 388 320 401T295 422T259
433T214 437Q169 437 132 427T62 397V473Q87 490 127 501T221 513Q313 513 360 478T407 377Q407 326 377 299T296 261Q427 244 427 146Q427 104 410 74T364 26T296 -1T216 -10Z" />
<glyph unicode="&#x438;" glyph-name="afii10074" horiz-adv-x="580" d="M70 503H155V117L424 503H510V0H425V387L157 0H70V503Z" />
<glyph unicode="&#x439;" glyph-name="afii10075" horiz-adv-x="580" d="M292 570Q253 570 225 580T178 609T150 651T140 702H225Q225 665 242 649T292 632Q324 632 341 648T358 702H443Q443 675 434 651T406 609T359 581T292 570ZM70 503H155V117L424 503H510V0H425V387L157
0H70V503Z" />
<glyph unicode="&#x43a;" glyph-name="afii10076" horiz-adv-x="502" d="M200 214H155V0H70V503H155V287H204L380 503H477L270 255L481 0H377L200 214Z" />
<glyph unicode="&#x43b;" glyph-name="afii10077" horiz-adv-x="537" d="M382 431H210Q209 323 204 241T179 103T125 22T29 -1V83Q62 79 82 100T112 173T126 305T130 503H468V0H382V431Z" />
<glyph unicode="&#x43c;" glyph-name="afii10078" horiz-adv-x="702" d="M150 407V0H70V503H197L351 166L516 503H634V0H550V405L379 56H311L150 407Z" />
<glyph unicode="&#x43d;" glyph-name="afii10079" horiz-adv-x="554" d="M399 223H155V0H70V503H155V296H399V503H484V0H399V223Z" />
<glyph unicode="&#x43e;" glyph-name="afii10080" horiz-adv-x="555" d="M276 -10Q225 -10 181 7T104 58T53 140T34 252Q34 315 52 363T103 445T180 495T276 513Q328 513 373 496T451 445T502 364T521 252Q521 189 503 141T451 59T373 8T276 -10ZM276 67Q310 67
339 78T389 112T422 169T434 252Q434 300 422 334T389 392T339 426T276 437Q243 437 215 426T165 392T133 335T121 252Q121 204 132 170T165 112T214 78T276 67Z" />
<glyph unicode="&#x43f;" glyph-name="afii10081" horiz-adv-x="543" d="M388 431H155V0H70V503H473V0H388V431Z" />
<glyph unicode="&#x440;" glyph-name="afii10082" horiz-adv-x="582" d="M310 67Q377 67 418 113T460 252Q460 343 419 390T310 437Q277 437 249 426T199 391T166 333T154 252Q154 205 166 171T199 113T248 79T310 67ZM323 -10Q266 -10 224 17T155 92V-172H70V503H145L153
404Q178 454 221 483T327 513Q371 513 411 497T481 449T530 368T548 252Q548 186 530 137T480 55T409 6T323 -10Z" />
<glyph unicode="&#x441;" glyph-name="afii10083" horiz-adv-x="485" d="M287 -10Q228 -10 182 7T102 59T52 141T34 252Q34 376 102 444T291 513Q337 513 376 503T440 473V397Q409 417 371 427T292 437Q204 437 163 392T121 252Q121 158 161 113T287 67Q332 67
370 78T440 107V30Q413 13 375 2T287 -10Z" />
<glyph unicode="&#x442;" glyph-name="afii10084" horiz-adv-x="463" d="M273 431V0H187V431H29V503H434V431H273Z" />
<glyph unicode="&#x443;" glyph-name="afii10085" horiz-adv-x="520" d="M113 -181Q94 -181 78 -179T48 -171V-88Q58 -96 74 -100T111 -105Q146 -105 169 -88T214 -34L10 503H102L260 75L421 503H505L317 6Q300 -39 281 -74T237 -132T182 -168T113 -181Z" />
<glyph unicode="&#x444;" glyph-name="afii10086" horiz-adv-x="694" d="M305 -172V-8Q248 -6 199 11T113 61T55 141T34 252Q34 315 55 362T113 442T199 492T305 511V705H390V511Q446 509 495 492T581 442T639 362T660 252Q660 189 639 141T581 61T495 11T390
-8V-172H305ZM121 252Q121 205 135 171T174 115T232 81T305 67V437Q266 435 233 423T174 389T135 332T121 252ZM572 252Q572 298 558 332T520 388T462 423T390 437V67Q429 69 462 81T520 115T558 172T572 252Z" />
<glyph unicode="&#x445;" glyph-name="afii10087" horiz-adv-x="488" d="M238 199L102 0H15L197 261L36 503H138L257 325L376 503H465L298 263L473 0H372L238 199Z" />
<glyph unicode="&#x446;" glyph-name="afii10088" horiz-adv-x="583" d="M491 -144L480 0H70V503H155V73H403V503H488V73H564V-144H491Z" />
<glyph unicode="&#x447;" glyph-name="afii10089" horiz-adv-x="530" d="M374 0V237Q351 211 312 195T221 178Q146 178 103 221T60 356V503H146V355Q146 296 171 273T238 249Q290 249 324 271T374 331V503H460V0H374Z" />
<glyph unicode="&#x448;" glyph-name="afii10090" horiz-adv-x="768" d="M70 503H155V73H341V503H427V73H613V503H698V0H70V503Z" />
<glyph unicode="&#x449;" glyph-name="afii10091" horiz-adv-x="793" d="M701 -144L691 0H70V503H155V73H341V503H427V73H613V503H698V73H774V-144H701Z" />
<glyph unicode="&#x44a;" glyph-name="afii10092" horiz-adv-x="573" d="M243 255V73H324Q379 73 413 94T448 163Q448 212 417 233T330 255H243ZM157 431H29V503H243V328H330Q426 328 480 290T534 168Q534 124 519 92T475 40T409 10T324 0H157V431Z" />
<glyph unicode="&#x44b;" glyph-name="afii10093" horiz-adv-x="670" d="M600 0H515V503H600V0ZM155 255V73H232Q287 73 321 94T356 163Q356 212 325 233T238 255H155ZM70 503H155V328H238Q334 328 388 290T442 168Q442 124 427 92T383 40T317 10T232 0H70V503Z" />
<glyph unicode="&#x44c;" glyph-name="afii10094" horiz-adv-x="483" d="M152 255V73H234Q289 73 323 94T358 163Q358 212 327 233T240 255H152ZM67 503H152V328H240Q336 328 390 290T444 168Q444 124 429 92T385 40T319 10T234 0H67V503Z" />
<glyph unicode="&#x44d;" glyph-name="afii10095" horiz-adv-x="483" d="M196 -10Q146 -10 108 1T43 30V107Q74 89 112 78T196 67Q274 67 314 105T361 222H144V295H360Q352 367 314 402T199 437Q158 437 121 427T52 397V473Q77 493 117 503T204 513Q324 513 386
445T449 252Q449 190 432 142T381 59T301 8T196 -10Z" />
<glyph unicode="&#x44e;" glyph-name="afii10096" horiz-adv-x="739" d="M470 -10Q423 -10 383 5T312 50T262 123T239 223H155V0H70V503H155V296H240Q246 348 266 388T316 456T386 498T470 513Q520 513 563 496T637 445T687 364T705 252Q705 189 687 141T638 59T563
8T470 -10ZM470 67Q534 67 575 112T617 252Q617 347 576 392T470 437Q439 437 413 426T367 392T336 335T325 252Q325 204 336 170T366 112T412 78T470 67Z" />
<glyph unicode="&#x44f;" glyph-name="afii10097" horiz-adv-x="512" d="M357 255V431H280Q226 431 191 411T156 344Q156 296 187 276T275 255H357ZM357 182H264L136 0H34L180 203Q127 218 99 250T70 340Q70 383 85 413T129 464T195 493T280 503H442V0H357V182Z" />
<glyph unicode="&#x451;" glyph-name="afii10071" horiz-adv-x="522" d="M178 602Q154 602 139 618T123 657Q123 680 138 696T178 712Q203 712 218 696T234 657Q234 634 219 618T178 602ZM361 602Q336 602 321 618T306 657Q306 680 321 696T361 712Q386 712 401
696T416 657Q416 634 401 618T361 602ZM271 437Q214 437 175 404T125 301H396Q399 370 364 403T271 437ZM470 43Q460 35 444 26T406 9T356 -4T293 -10Q166 -10 100 58T34 252Q34 313 52 361T102 444T178 495T273 513Q327 513 369 495T439 440T477 351T477 229H122Q127
148 170 108T301 67Q359 67 401 83T470 119V43Z" />
<glyph unicode="&#x452;" glyph-name="afii10099" horiz-adv-x="558" d="M-8 622H301V559H-8V622ZM493 -43Q493 -71 485 -96T461 -140T418 -170T355 -181Q335 -181 313 -177T267 -161V-79Q281 -90 299 -97T340 -105Q377 -105 392 -88T407 -45V212H493V-43ZM308
437Q250 437 214 411T155 342V0H70V695H155V503L153 413H155Q175 455 219 484T330 513Q405 513 449 474T493 353V0H407V344Q407 396 381 416T308 437Z" />
<glyph unicode="&#x453;" glyph-name="afii10100" horiz-adv-x="424" d="M155 431V0H70V503H390V431H155ZM235 724H347L220 570H147L235 724Z" />
<glyph unicode="&#x454;" glyph-name="afii10101" horiz-adv-x="474" d="M440 30Q413 13 375 2T287 -10Q228 -10 182 7T102 59T52 141T34 252Q34 376 96 444T279 513Q325 513 365 503T431 473V397Q369 437 284 437Q207 437 169 402T123 295H340V222H122Q128 143
168 105T287 67Q332 67 370 78T440 107V30V30Z" />
<glyph unicode="&#x455;" glyph-name="afii10102" horiz-adv-x="478" d="M231 -10Q192 -10 161 -4T108 12T70 31T45 49V126Q55 117 71 106T111 85T164 69T230 62Q284 62 316 79T348 139Q348 161 338 174T311 196T270 209T222 219Q190 226 159 234T103 258T63 300T47
368Q47 436 99 474T247 513Q301 513 342 503T405 479V403Q380 420 343 430T250 441Q193 441 163 426T132 370Q132 349 141 337T165 318T199 306T240 298Q273 291 307 283T370 259T416 215T434 141Q434 97 417 68T370 22T305 -3T231 -10Z" />
<glyph unicode="&#x456;" glyph-name="afii10103" horiz-adv-x="224" d="M113 577Q87 577 72 593T56 632Q56 655 71 672T113 689Q138 689 153 672T168 632Q168 609 153 593T113 577ZM155 503V0H70V503H155Z" />
<glyph unicode="&#x457;" glyph-name="afii10104" horiz-adv-x="224" d="M193 577Q168 577 153 592T138 631Q138 655 153 671T193 687Q218 687 233 671T248 631Q248 608 233 593T193 577ZM32 577Q7 577 -8 592T-23 631Q-23 655 -8 671T32 687Q57 687 72 671T87
631Q87 608 72 593T32 577ZM155 503V0H70V503H155Z" />
<glyph unicode="&#x458;" glyph-name="afii10105" horiz-adv-x="232" d="M120 577Q94 577 79 593T64 632Q64 655 79 672T120 689Q145 689 160 672T176 632Q176 609 161 593T120 577ZM163 -43Q163 -71 155 -96T131 -140T88 -170T25 -181Q5 -181 -17 -177T-63 -161V-79Q-49
-90 -31 -97T11 -105Q47 -105 62 -88T78 -45V503H163V-43Z" />
<glyph unicode="&#x459;" glyph-name="afii10106" horiz-adv-x="798" d="M549 73Q604 73 638 94T673 163Q673 212 643 233T555 255H449V328H555Q651 328 705 290T760 168Q760 124 744 92T700 40T634 10T549 0H449V73H549V73ZM382 431H210Q209 323 204 241T179
103T125 22T29 -1V83Q62 79 82 100T112 173T126 305T130 503H468V0H382V431Z" />
<glyph unicode="&#x45a;" glyph-name="afii10107" horiz-adv-x="815" d="M566 73Q620 73 655 94T690 163Q690 212 659 233T571 255H466V328H571Q667 328 721 290T776 168Q776 124 761 92T717 40T651 10T566 0H466V73H566V73ZM399 223H155V0H70V503H155V296H399V503H484V0H399V223Z"
/>
<glyph unicode="&#x45b;" glyph-name="afii10108" horiz-adv-x="558" d="M-8 622H301V559H-8V622ZM308 437Q250 437 214 411T155 342V0H70V695H155V503L153 413H155Q175 455 219 484T330 513Q405 513 449 474T493 353V0H407V344Q407 396 381 416T308 437Z" />
<glyph unicode="&#x45c;" glyph-name="afii10109" horiz-adv-x="502" d="M200 214H155V0H70V503H155V287H204L380 503H477L270 255L481 0H377L200 214ZM269 724H381L254 570H181L269 724Z" />
<glyph unicode="&#x45e;" glyph-name="afii10110" horiz-adv-x="520" d="M272 570Q233 570 205 580T157 609T129 651T119 702H205Q205 665 222 649T272 632Q303 632 320 648T338 702H423Q423 675 414 651T386 609T339 581T272 570ZM113 -181Q94 -181 78 -179T48
-171V-88Q58 -96 74 -100T111 -105Q146 -105 169 -88T214 -34L10 503H102L260 75L421 503H505L317 6Q300 -39 281 -74T237 -132T182 -168T113 -181Z" />
<glyph unicode="&#x45f;" glyph-name="afii10193" horiz-adv-x="583" d="M320 0L315 -144H243L238 0H70V503H155V73H403V503H488V0H320Z" />
<glyph unicode="&#x490;" glyph-name="afii10050" horiz-adv-x="528" d="M487 858V611H388L404 858H487ZM173 612V0H81V695H487V612H173Z" />
<glyph unicode="&#x491;" glyph-name="afii10098" horiz-adv-x="424" d="M390 647V431H302L317 647H390ZM155 431V0H70V503H390V431H155Z" />
<glyph unicode="&#x492;" glyph-name="uni0492" horiz-adv-x="558" d="M15 386H360V314H15V386ZM203 612V0H111V695H517V612H203Z" />
<glyph unicode="&#x493;" glyph-name="uni0493" horiz-adv-x="451" d="M22 286H314V224H22V286ZM182 431V0H97V503H417V431H182Z" />
<glyph unicode="&#x49a;" glyph-name="uni049A" horiz-adv-x="639" d="M545 -165L535 0H497V82H630V-165H545ZM245 298H173V0H81V695H173V380H241L489 695H592L317 349L602 0H489L245 298Z" />
<glyph unicode="&#x49b;" glyph-name="uni049B" horiz-adv-x="509" d="M427 -144L416 0H385V73H500V-144H427ZM200 214H155V0H70V503H155V287H204L380 503H477L270 255L481 0H377L200 214Z" />
<glyph unicode="&#x4a2;" glyph-name="uni04A2" horiz-adv-x="750" d="M627 -165L617 0H549V82H712V-165H627ZM530 304H173V0H81V695H173V386H530V695H622V0H530V304Z" />
<glyph unicode="&#x4a3;" glyph-name="uni04A3" horiz-adv-x="579" d="M487 -144L476 0H437V73H560V-144H487ZM399 223H155V0H70V503H155V296H399V503H484V0H399V223Z" />
<glyph unicode="&#x4ae;" glyph-name="uni04AE" horiz-adv-x="605" d="M257 0V299L19 695H124L307 380L493 695H586L350 302V0H257Z" />
<glyph unicode="&#x4af;" glyph-name="uni04AF" horiz-adv-x="494" d="M205 -172V30L10 503H102L251 138L399 503H485L290 32V-172H205Z" />
<glyph unicode="&#x4b0;" glyph-name="uni04B0" horiz-adv-x="605" d="M87 316H520V244H87V316ZM257 0V299L19 695H124L307 380L493 695H586L350 302V0H257Z" />
<glyph unicode="&#x4b1;" glyph-name="uni04B1" horiz-adv-x="494" d="M39 68H456V0H39V68ZM205 -172V30L10 503H102L251 138L399 503H485L290 32V-172H205Z" />
<glyph unicode="&#x4ba;" glyph-name="uni04BA" horiz-adv-x="663" d="M172 695V365Q210 400 257 420T364 440Q415 440 457 426T530 381T578 305T595 193V0H503V188Q503 277 466 319T364 362Q299 362 253 341T172 272V0H80V695H172Z" />
<glyph unicode="&#x4bb;" glyph-name="uni04BB" horiz-adv-x="530" d="M156 503V266Q179 292 218 308T309 325Q384 325 427 282T470 147V0H384V148Q384 207 359 230T292 254Q240 254 206 232T156 172V0H70V503H156Z" />
<glyph unicode="&#x4d8;" glyph-name="uni04D8" horiz-adv-x="699" d="M339 -10Q38 -10 38 340V386H558Q550 498 494 560T320 622Q241 622 188 603T90 556V643Q104 653 123 664T170 684T235 698T321 704Q405 704 468 679T573 606T637 494T658 347Q658 267 636
201T572 88T472 16T339 -10ZM339 73Q439 73 493 133T557 304H133Q136 242 149 198T187 126T250 86T339 73Z" />
<glyph unicode="&#x4d9;" glyph-name="afii10846" horiz-adv-x="514" d="M243 66Q300 66 339 99T389 202H118Q115 133 150 100T243 66ZM44 460Q54 468 70 477T108 494T158 507T221 513Q348 513 414 445T480 251Q480 190 462 142T412 59T336 8T241 -10Q187 -10
145 8T75 63T37 152T37 274H392Q387 355 344 395T213 436Q155 436 113 420T44 384V460Z" />
<glyph unicode="&#x4e8;" glyph-name="uni04E8" horiz-adv-x="747" d="M373 -10Q303 -10 243 13T137 83T67 196T41 350Q41 437 66 503T137 614T242 681T373 704Q445 704 506 682T611 615T681 504T706 349Q706 262 681 196T612 83T506 14T373 -10ZM373 622Q327
622 287 610T215 570T163 499T137 393H610Q604 455 584 498T532 569T460 609T373 622ZM373 73Q420 73 461 86T534 127T586 201T611 311H136Q140 246 160 201T212 128T285 86T373 73Z" />
<glyph unicode="&#x4e9;" glyph-name="uni04E9" horiz-adv-x="555" d="M276 -10Q225 -10 181 7T104 58T53 140T34 252Q34 315 52 363T103 445T180 495T276 513Q328 513 373 496T451 445T502 364T521 252Q521 189 503 141T451 59T373 8T276 -10ZM276 437Q217 437
174 403T120 295H435Q424 368 380 402T276 437ZM276 67Q307 67 334 76T383 105T419 153T437 222H118Q122 182 135 153T170 105T218 77T276 67Z" />
</font>
</defs>
</svg>
