<?xml version="1.0" standalone="no"?> <!DOCTYPE svg PUBLIC "-//W3C//DTD SVG 1.0//EN" "http://www.w3.org/TR/2001/REC-SVG-20010904/DTD/svg10.dtd" > <svg xmlns="http://www.w3.org/2000/svg" width="100%" height="100%">
<defs >
<font id="Yandex" horiz-adv-x="537" ><font-face
    font-family="Yandex Sans Text"
    units-per-em="1000"
    panose-1="0 0 0 0 0 0 0 0 0 0"
    ascent="828"
    descent="-172"
    alphabetic="0" />
<missing-glyph horiz-adv-x="189" />
<glyph unicode=" " glyph-name="space" horiz-adv-x="189" />
<glyph unicode="!" glyph-name="exclam" horiz-adv-x="291" d="M220 695L202 224H88L71 695H220ZM145 -7Q125 -7 108 0T78 20T58 50T50 85Q50 104 57 120T78 149T108 169T145 176Q165 176 182 169T212 150T232 121T240 85Q240 67 233 50T213 21T183 1T145 -7Z" />
<glyph unicode="&quot;" glyph-name="quotedbl" horiz-adv-x="414" d="M46 695H187L170 432H63L46 695ZM228 695H369L352 432H245L228 695Z" />
<glyph unicode="#" glyph-name="numbersign" horiz-adv-x="622" d="M370 418H262L250 296H358L370 418ZM346 174H238L221 0H102L120 174H29V296H132L144 418H54V540H156L172 695H290L275 540H382L398 695H516L500 540H593V418H488L476 296H568V174H464L446 0H328L346
174Z" />
<glyph unicode="$" glyph-name="dollar" horiz-adv-x="530" d="M194 -153V-8Q127 0 87 19T26 54V168Q41 158 62 147T109 127T169 111T241 104Q306 104 335 123T364 190Q364 215 356 231T330 258T287 276T228 291Q190 300 155 314T92 353T47 412T30 497Q30 578
74 629T204 698V829H335V703Q389 697 420 683T468 658V543Q457 550 442 558T406 574T357 586T294 591Q226 591 199 570T171 513Q171 489 180 475T205 451T244 435T293 424Q333 415 371 401T439 363T486 301T504 206Q504 158 490 122T452 60T396 19T327 -4V-153H194Z"
/>
<glyph unicode="%" glyph-name="percent" horiz-adv-x="920" d="M213 -1L582 696H708L338 -1H213ZM394 501Q394 453 379 416T339 354T279 316T204 303Q163 303 129 315T69 352T29 412T15 497Q15 545 29 581T68 643T128 682T204 695Q244 695 278 683T338 646T379
585T394 501ZM138 499Q138 440 156 416T204 392Q234 392 252 416T271 499Q271 556 252 580T204 605Q175 605 157 581T138 499ZM906 198Q906 150 891 114T851 52T791 13T716 0Q675 0 641 12T581 49T541 110T526 194Q526 242 540 279T580 341T640 379T716 392Q756
392 790 380T850 343T891 283T906 198ZM716 303Q687 303 669 279T650 196Q650 138 668 114T716 90Q747 90 765 114T783 196Q783 255 765 279T716 303Z" />
<glyph unicode="&amp;" glyph-name="ampersand" horiz-adv-x="727" d="M658 1Q619 1 583 13T510 48Q469 21 419 5T305 -11Q178 -11 108 43T38 190Q38 257 73 299T165 366Q130 409 116 449T102 531Q102 567 115 599T154 654T220 691T311 705Q365 705 405 692T474
654T516 598T530 529Q530 495 519 468T487 418T440 377T381 343L475 252L508 220Q525 252 535 287T550 360L668 333Q663 283 646 234T600 140Q618 129 635 124T674 118Q686 118 698 120T722 124L707 8Q701 6 688 4T658 1ZM311 105Q368 105 410 126Q394 140 377
155T343 188L235 293Q210 278 194 257T178 199Q178 171 189 153T220 125T263 110T311 105ZM246 530Q246 495 264 468T308 414Q348 438 367 466T386 531Q386 565 368 584T315 603Q279 603 263 583T246 530Z" />
<glyph unicode="&apos;" glyph-name="quotesingle" horiz-adv-x="233" d="M46 695H187L170 432H63L46 695Z" />
<glyph unicode="(" glyph-name="parenleft" horiz-adv-x="405" d="M221 -135Q76 34 76 298Q76 430 111 542T221 733H368Q292 655 254 544T216 301Q216 168 254 61T368 -135H221Z" />
<glyph unicode=")" glyph-name="parenright" horiz-adv-x="405" d="M184 -135Q329 34 329 298Q329 430 294 542T184 733H37Q113 655 151 544T189 301Q189 168 151 61T37 -135H184Z" />
<glyph unicode="*" glyph-name="asterisk" horiz-adv-x="456" d="M229 422L172 313L68 390L153 481L34 501L73 627L180 574L163 695H294L275 574L384 627L422 501L304 481L388 390L286 313L229 422ZM228 506L229 505V506H228Z" />
<glyph unicode="+" glyph-name="plus" horiz-adv-x="575" d="M344 276V72H232V276H44V378H232V582H344V378H533V276H344Z" />
<glyph unicode="," glyph-name="comma" horiz-adv-x="269" d="M41 -110Q61 -90 77 -58T104 8Q70 17 56 39T41 88Q41 126 67 151T134 176Q177 176 203 151T229 74Q229 45 221 18T200 -34T172 -77T142 -110H41Z" />
<glyph unicode="-" glyph-name="hyphen" horiz-adv-x="340" d="M49 358H292V241H49V358Z" />
<glyph unicode="." glyph-name="period" horiz-adv-x="269" d="M134 -7Q114 -7 97 0T67 20T47 50T40 85Q40 104 47 121T67 150T97 170T134 177Q154 177 171 170T201 151T221 121T229 85Q229 67 222 50T202 21T172 1T134 -7Z" />
<glyph unicode="/" glyph-name="slash" horiz-adv-x="418" d="M0 -116L299 733H418L118 -116H0Z" />
<glyph unicode="0" glyph-name="zero" horiz-adv-x="550" d="M276 -10Q222 -10 177 10T100 73T49 184T31 348Q31 443 49 510T99 621T177 684T276 704Q330 704 374 685T451 622T501 512T519 350Q519 255 501 187T451 75T375 11T276 -10ZM275 106Q299 106 317 117T346
157T364 231T370 347Q370 416 365 462T348 536T318 577T276 589Q252 589 234 577T204 537T186 462T180 347Q180 278 186 232T203 157T233 118T275 106Z" />
<glyph unicode="1" glyph-name="one" horiz-adv-x="550" d="M260 0V545L54 398V536L276 695H409V0H260Z" />
<glyph unicode="2" glyph-name="two" horiz-adv-x="550" d="M44 0V135Q135 200 195 250T291 342T341 417T356 483Q356 533 325 561T221 590Q167 590 129 577T64 546V661Q87 675 131 689T248 704Q373 704 439 647T506 487Q506 440 488 398T431 312T333 221T192
118H501V0H44Z" />
<glyph unicode="3" glyph-name="three" horiz-adv-x="550" d="M239 -10Q173 -10 124 4T45 33V147Q68 134 109 120T215 105Q290 105 323 129T356 201Q356 253 323 277T232 301H148V418H237Q276 418 305 441T334 508Q334 547 305 568T219 590Q167 590 126 576T61
549V662Q85 674 129 689T241 704Q296 704 340 691T414 652T461 593T478 517Q478 454 444 415T359 365Q389 360 415 347T462 312T493 263T505 198Q505 151 487 113T435 47T351 5T239 -10Z" />
<glyph unicode="4" glyph-name="four" horiz-adv-x="550" d="M308 505L156 260H308V505ZM453 148V0H308V148H30V255L302 695H453V260H526V148H453Z" />
<glyph unicode="5" glyph-name="five" horiz-adv-x="550" d="M222 -10Q153 -10 111 1T37 33V147Q65 129 111 117T208 105Q280 105 317 138T355 226Q355 273 332 304T251 336Q218 336 196 326T162 301H54V695H476V576H182V417Q197 430 223 439T294 449Q394 449
449 391T505 233Q505 179 485 135T427 58T338 8T222 -10Z" />
<glyph unicode="6" glyph-name="six" horiz-adv-x="550" d="M279 -10Q227 -10 182 4T103 52T50 139T31 272Q31 350 55 418T116 541T199 635T287 695H491V686Q442 662 396 634T312 572T245 497T202 405Q214 418 226 429T253 447T287 459T332 463Q369 463 404 451T465
411T508 340T524 235Q524 173 505 127T452 51T374 5T279 -10ZM280 102Q324 102 350 132T377 233Q377 297 353 325T287 353Q254 353 229 341T180 303V275Q180 220 187 186T208 134T240 109T280 102Z" />
<glyph unicode="7" glyph-name="seven" horiz-adv-x="550" d="M96 0L343 574H38V695H513V617L254 0H96Z" />
<glyph unicode="8" glyph-name="eight" horiz-adv-x="550" d="M277 -10Q223 -10 178 3T100 40T49 101T31 182Q31 248 67 294T167 360Q114 380 83 421T52 522Q52 566 69 600T116 657T187 692T277 704Q325 704 366 693T437 659T484 602T501 524Q501 463 470 422T386
361Q448 340 484 296T520 185Q520 139 502 103T452 42T375 4T277 -10ZM277 415Q313 415 334 437T356 502Q356 545 335 567T277 590Q241 590 219 568T197 502Q197 460 219 438T277 415ZM277 105Q318 105 343 131T369 207Q369 256 344 282T277 309Q234 309 209 283T183
207Q183 157 208 131T277 105Z" />
<glyph unicode="9" glyph-name="nine" horiz-adv-x="550" d="M271 705Q319 705 364 691T443 643T498 556T519 422Q519 342 496 275T438 155T360 62T278 0H75V9Q120 33 164 61T245 123T309 198T349 290Q337 276 325 266T297 247T263 235T218 231Q180 231 146 243T85
283T42 354T26 460Q26 522 46 568T100 644T178 690T271 705ZM270 592Q226 592 200 562T173 462Q173 397 197 370T263 342Q327 342 370 391Q371 398 371 405T371 420Q371 474 364 508T343 560T311 585T270 592Z" />
<glyph unicode=":" glyph-name="colon" horiz-adv-x="269" d="M134 303Q114 303 97 310T67 330T47 360T40 395Q40 414 47 431T67 460T97 480T134 487Q154 487 171 480T201 461T221 431T229 395Q229 377 222 360T202 331T172 311T134 303ZM134 -7Q114 -7 97 0T67
20T47 50T40 85Q40 104 47 121T67 150T97 170T134 177Q154 177 171 170T201 151T221 121T229 85Q229 67 222 50T202 21T172 1T134 -7Z" />
<glyph unicode=";" glyph-name="semicolon" horiz-adv-x="269" d="M41 -110Q61 -90 77 -58T104 8Q70 17 56 39T41 88Q41 126 67 151T134 176Q177 176 203 151T229 74Q229 45 221 18T200 -34T172 -77T142 -110H41ZM134 303Q114 303 97 310T67 330T47 360T40 395Q40
414 47 431T67 460T97 480T134 487Q154 487 171 480T201 461T221 431T229 395Q229 377 222 360T202 331T172 311T134 303Z" />
<glyph unicode="&lt;" glyph-name="less" horiz-adv-x="509" d="M44 266V388L467 582V469L156 327L467 185V72L44 266Z" />
<glyph unicode="=" glyph-name="equal" horiz-adv-x="576" d="M44 385V489H533V385H44ZM44 165V269H533V165H44Z" />
<glyph unicode="&gt;" glyph-name="greater" horiz-adv-x="509" d="M44 185L355 327L44 469V582L467 388V266L44 72V185Z" />
<glyph unicode="?" glyph-name="question" horiz-adv-x="456" d="M433 507Q433 461 419 431T384 380T339 345T293 318T258 288T244 246V224H105V245Q105 290 118 318T150 365T192 396T234 422T266 455T279 506Q279 522 275 537T258 564T224 583T169 590Q126 590
95 581T44 558V672Q64 683 103 693T197 704Q314 704 373 651T433 507ZM177 -7Q157 -7 140 0T111 20T91 50T83 85Q83 104 90 120T110 149T140 169T177 176Q197 176 214 169T244 150T264 121T272 85Q272 48 245 21T177 -7Z" />
<glyph unicode="@" glyph-name="at" horiz-adv-x="980" d="M484 -192Q391 -192 310 -165T169 -84T74 50T39 238Q39 341 75 426T176 573T330 669T527 704Q620 704 701 678T843 602T939 481T975 321Q975 264 961 210T916 114T841 47T736 22Q698 22 671 31T626 56T596
93T581 138Q555 81 512 52T414 22Q383 22 353 33T299 68T261 131T246 225Q246 276 261 322T305 405T373 462T461 484Q509 484 543 459T595 380L623 455H736L705 218Q698 167 711 139T762 110Q789 110 808 126T840 169T859 232T865 307Q865 383 840 441T769 539T662
599T527 620Q447 620 378 594T257 520T177 402T148 247Q148 159 173 93T243 -18T353 -85T497 -108Q578 -108 630 -94T709 -65V-153Q680 -167 620 -179T484 -192ZM377 220Q377 190 384 170T404 138T431 122T461 117Q488 117 509 130T546 165T569 217T577 279Q577
310 570 330T552 363T526 381T496 387Q466 387 444 373T407 335T385 281T377 220Z" />
<glyph unicode="A" glyph-name="A" horiz-adv-x="684" d="M330 558L235 285H425L330 558ZM468 162H192L136 0H11L254 695H430L673 0H524L468 162Z" />
<glyph unicode="B" glyph-name="B" horiz-adv-x="644" d="M215 572V419H325Q373 419 403 438T434 500Q434 543 407 557T331 572H215ZM215 297V122H329Q386 122 420 141T455 212Q455 259 422 278T320 297H215ZM65 695H305Q441 695 512 657T583 526Q583 451 539
413T419 361Q512 350 560 313T608 201Q608 147 585 109T521 46T425 11T303 0H65V695Z" />
<glyph unicode="C" glyph-name="C" horiz-adv-x="633" d="M398 -10Q314 -10 247 14T132 84T60 196T34 347Q34 431 59 497T131 609T246 679T398 704Q470 704 519 692T594 662V536Q562 557 514 569T407 582Q295 582 242 524T189 347Q189 229 242 171T408 112Q466
112 513 125T594 160V37Q568 20 520 5T398 -10Z" />
<glyph unicode="D" glyph-name="D" horiz-adv-x="707" d="M215 572V122H302Q350 122 390 136T458 180T503 256T519 365Q519 426 504 466T461 529T395 562T311 572H215ZM65 695H303Q382 695 449 679T566 625T644 525T673 371Q673 279 645 210T566 94T446 24T294 0H65V695Z" />
<glyph unicode="E" glyph-name="E" horiz-adv-x="589" d="M65 695H536V572H215V420H486V298H215V122H541V0H65V695Z" />
<glyph unicode="F" glyph-name="F" horiz-adv-x="562" d="M215 277V0H65V695H530V572H215V400H482V277H215Z" />
<glyph unicode="G" glyph-name="G" horiz-adv-x="723" d="M688 279Q688 218 669 165T612 73T515 12T379 -10Q301 -10 238 15T129 86T59 198T34 347Q34 430 58 496T130 608T247 679T408 704Q452 704 486 699T547 687T596 669T636 649V522Q593 547 541 564T417 582Q295
582 242 521T189 347Q189 235 238 174T380 112Q460 112 497 153T537 258H360V380H688V279V279Z" />
<glyph unicode="H" glyph-name="H" horiz-adv-x="719" d="M503 285H215V0H65V695H215V407H503V695H653V0H503V285Z" />
<glyph unicode="I" glyph-name="I" horiz-adv-x="281" d="M215 695V0H65V695H215Z" />
<glyph unicode="J" glyph-name="J" horiz-adv-x="400" d="M341 695V165Q341 128 330 96T294 41T233 4T144 -10Q116 -10 86 -6T28 12V134Q52 122 70 117T111 112Q138 112 154 119T180 138T192 167T195 204V695H341Z" />
<glyph unicode="K" glyph-name="K" horiz-adv-x="658" d="M277 278H215V0H65V695H215V401H284L485 695H639L402 348L649 0H473L277 278Z" />
<glyph unicode="L" glyph-name="L" horiz-adv-x="540" d="M65 695H215V122H509V0H65V695Z" />
<glyph unicode="M" glyph-name="M" horiz-adv-x="852" d="M197 479V0H65V695H259L425 266L609 695H786V0H636V472L480 107H349L197 479Z" />
<glyph unicode="N" glyph-name="N" horiz-adv-x="716" d="M197 508V0H65V695H255L519 192V695H650V0H464L197 508Z" />
<glyph unicode="O" glyph-name="O" horiz-adv-x="753" d="M376 -10Q304 -10 242 13T133 80T61 191T34 345Q34 432 60 499T133 611T241 680T376 704Q448 704 510 682T619 614T693 503T720 350Q720 263 693 196T620 83T511 14T376 -10ZM376 112Q416 112 451 124T511
165T550 238T565 347Q565 411 551 456T511 529T451 569T376 582Q336 582 302 570T242 529T203 456T189 347Q189 283 203 238T242 165T301 125T376 112Z" />
<glyph unicode="P" glyph-name="P" horiz-adv-x="611" d="M215 572V359H298Q365 359 400 383T436 468Q436 572 299 572H215ZM215 237V0H65V695H299Q436 695 511 644T586 474Q586 412 566 368T508 294T417 251T298 237H215Z" />
<glyph unicode="Q" glyph-name="Q" horiz-adv-x="753" d="M670 -148Q552 -112 452 -78T270 -7Q213 19 169 51T95 126T50 221T34 344Q34 431 60 498T132 611T240 680T376 704Q447 704 509 682T618 615T692 504T719 350Q719 291 707 240T668 146T598 72T492 19Q552
5 611 -3T719 -19L670 -148ZM376 112Q416 112 451 124T511 165T550 238T565 347Q565 411 551 456T511 529T451 569T376 582Q336 582 302 570T242 529T203 456T189 347Q189 283 203 238T242 165T301 125T376 112Z" />
<glyph unicode="R" glyph-name="R" horiz-adv-x="649" d="M215 572V382H315Q379 382 412 403T446 478Q446 530 413 551T314 572H215ZM299 266H215V0H65V695H314Q455 695 525 644T595 478Q595 396 560 350T460 284L627 0H455L299 266Z" />
<glyph unicode="S" glyph-name="S" horiz-adv-x="578" d="M270 -10Q228 -10 194 -5T133 10T85 29T48 51V174Q63 163 86 152T139 132T200 118T266 112Q297 112 322 115T365 127T393 150T403 186Q403 210 393 226T363 253T318 271T259 285Q221 294 183 307T113 344T63
405T43 499Q43 550 63 588T120 652T208 691T323 704Q397 704 442 690T510 662V539Q480 559 435 570T330 582Q192 582 192 510Q192 488 202 474T231 451T273 436T324 424Q365 415 406 402T479 366T532 305T553 207Q553 142 529 101T466 34T375 0T270 -10Z" />
<glyph unicode="T" glyph-name="T" horiz-adv-x="598" d="M374 572V0H224V572H17V695H580V572H374Z" />
<glyph unicode="U" glyph-name="U" horiz-adv-x="661" d="M50 695H201V257Q201 184 239 148T343 112Q408 112 443 148T479 257V695H610V247Q610 185 591 138T537 57T451 7T337 -10Q276 -10 224 6T133 55T72 134T50 243V695Z" />
<glyph unicode="V" glyph-name="V" horiz-adv-x="673" d="M1 695H157L345 149L538 695H672L426 0H248L1 695Z" />
<glyph unicode="W" glyph-name="W" horiz-adv-x="967" d="M18 695H171L273 165L415 695H567L709 169L819 695H949L803 0H611L483 485L356 0H164L18 695Z" />
<glyph unicode="X" glyph-name="X" horiz-adv-x="622" d="M300 245L158 0H11L224 352L8 695H174L325 454L461 695H610L400 349L617 0H448L300 245Z" />
<glyph unicode="Y" glyph-name="Y" horiz-adv-x="593" d="M222 0V294L-1 695H163L307 421L457 695H594L372 291V0H222Z" />
<glyph unicode="Z" glyph-name="Z" horiz-adv-x="604" d="M34 0V110L390 572H45V695H569V583L210 122H570V0H34Z" />
<glyph unicode="[" glyph-name="bracketleft" horiz-adv-x="456" d="M94 733H419V625H231V-26H419V-135H94V733Z" />
<glyph unicode="\" glyph-name="backslash" horiz-adv-x="418" d="M0 733H118L418 -116H299L0 733Z" />
<glyph unicode="]" glyph-name="bracketright" horiz-adv-x="456" d="M362 733H37V625H225V-26H37V-135H362V733Z" />
<glyph unicode="^" glyph-name="asciicircum" horiz-adv-x="425" d="M213 593L119 444H7L144 695H281L419 444H307L213 593Z" />
<glyph unicode="_" glyph-name="underscore" horiz-adv-x="402" d="M-10 -21H412V-129H-10V-21Z" />
<glyph unicode="`" glyph-name="grave" horiz-adv-x="425" d="M206 570L83 724H232L308 570H206Z" />
<glyph unicode="a" glyph-name="a" horiz-adv-x="532" d="M238 91Q269 91 288 104T317 136T331 171T335 195V224H283Q227 224 201 205T175 153Q175 123 192 107T238 91ZM349 0Q346 14 344 35T339 75Q331 60 319 45T290 17T248 -2T192 -10Q161 -10 132 -1T81 26T46
71T32 135Q32 216 96 260T280 305H335V323Q335 368 312 383T240 399Q186 399 142 386T64 357V471Q99 488 151 500T267 513Q367 513 424 472T481 336V81Q481 64 482 39T485 0H349Z" />
<glyph unicode="b" glyph-name="b" horiz-adv-x="610" d="M362 -10Q303 -10 262 15T196 85L192 0H55V695H201L200 426Q225 467 265 490T361 513Q406 513 446 497T517 449T565 368T583 252Q583 186 565 137T517 55T447 6T362 -10ZM317 105Q368 105 400 141T433
252Q433 327 401 363T318 399Q267 399 234 363T200 252Q200 177 233 141T317 105Z" />
<glyph unicode="c" glyph-name="c" horiz-adv-x="498" d="M304 -10Q241 -10 190 7T103 59T48 141T29 252Q29 313 48 361T103 444T190 495T304 513Q364 513 403 501T465 471V359Q451 368 436 375T404 388T366 396T318 399Q178 399 178 252Q178 177 213 141T316
105Q344 105 365 108T404 116T436 128T465 145V32Q442 17 403 4T304 -10Z" />
<glyph unicode="d" glyph-name="d" horiz-adv-x="611" d="M296 105Q345 105 378 141T412 252Q412 327 380 363T297 399Q246 399 212 362T178 252Q178 178 211 142T296 105ZM415 87Q391 42 351 16T253 -10Q211 -10 171 6T99 54T48 136T29 252Q29 318 48 367T98
449T170 497T254 513Q309 513 347 493T411 436V695H556V0H421L415 87Z" />
<glyph unicode="e" glyph-name="e" horiz-adv-x="558" d="M293 408Q251 408 223 382T184 308H380Q382 358 360 383T293 408ZM500 30Q488 24 474 17T439 4T391 -6T325 -10Q172 -10 101 59T29 252Q29 313 48 361T101 444T184 495T290 513Q349 513 396 494T475 438T519
344T519 212H181Q189 158 223 131T332 104Q363 104 388 107T433 116T469 129T500 143V30Z" />
<glyph unicode="f" glyph-name="f" horiz-adv-x="409" d="M239 390V0H95V390H36V503H95V508Q95 554 110 590T153 652T219 690T305 704Q337 704 354 702T386 695V580Q378 584 361 587T320 590Q284 590 262 571T239 508V503H376V390H239Z" />
<glyph unicode="g" glyph-name="g" horiz-adv-x="608" d="M293 135Q341 135 372 167T403 266Q403 333 372 366T292 399Q244 399 211 366T178 266Q178 200 211 168T293 135ZM250 -174Q201 -174 166 -167T107 -152Q80 -142 61 -130V-17Q80 -29 107 -38Q130 -46 166
-52T250 -59Q286 -59 314 -54T361 -34T391 9T402 84V105Q379 67 341 44T249 20Q205 20 166 35T95 81T46 158T28 266Q28 328 46 374T95 451T166 497T251 513Q306 513 344 491T407 429Q408 447 410 469T416 503H552Q550 490 549 465T547 423V92Q547 29 531 -20T480
-104T388 -156T250 -174Z" />
<glyph unicode="h" glyph-name="h" horiz-adv-x="580" d="M311 399Q273 399 246 385T201 348V0H55V695H201V517L200 430H201Q223 465 260 489T358 513Q394 513 425 503T480 473T517 423T530 351V0H384V337Q384 371 365 385T311 399Z" />
<glyph unicode="i" glyph-name="i" horiz-adv-x="258" d="M129 556Q92 556 67 581T41 640Q41 676 66 700T129 725Q147 725 163 719T191 701T210 674T217 640Q217 623 210 608T191 582T163 563T129 556ZM202 503V0H56V503H202Z" />
<glyph unicode="j" glyph-name="j" horiz-adv-x="271" d="M143 556Q125 556 109 563T81 581T62 608T55 640Q55 676 81 700T143 725Q180 725 206 701T232 640Q232 606 206 581T143 556ZM216 -15Q216 -94 168 -137T31 -181Q5 -181 -19 -177T-66 -161V-47Q-54 -58
-37 -62T0 -67Q40 -67 56 -48T72 4V503H216V-15Z" />
<glyph unicode="k" glyph-name="k" horiz-adv-x="543" d="M243 192H201V0H55V695H201V305H245L386 503H529L358 264L543 0H378L243 192Z" />
<glyph unicode="l" glyph-name="l" horiz-adv-x="257" d="M201 695V0H55V695H201Z" />
<glyph unicode="m" glyph-name="m" horiz-adv-x="871" d="M201 0H55V503H192L198 431H200Q220 466 257 489T351 513Q403 513 442 490T499 418Q521 462 562 487T660 513Q694 513 723 503T774 473T808 423T820 352V0H675V333Q675 368 656 383T608 399Q574 399 551
383T511 343V0H365V337Q365 372 347 385T300 399Q265 399 241 385T201 349V0Z" />
<glyph unicode="n" glyph-name="n" horiz-adv-x="580" d="M311 399Q273 399 246 385T201 348V0H55V503H192L198 431H200Q221 466 259 489T358 513Q394 513 425 503T480 473T517 423T530 351V0H384V337Q384 371 365 385T311 399Z" />
<glyph unicode="o" glyph-name="o" horiz-adv-x="574" d="M286 -10Q232 -10 185 7T104 57T49 139T29 252Q29 315 49 364T103 446T185 496T286 513Q341 513 388 496T471 446T526 364T546 252Q546 188 526 139T471 57T389 7T286 -10ZM286 105Q334 105 365 141T396
252Q396 327 365 363T286 399Q240 399 209 363T178 252Q178 177 209 141T286 105Z" />
<glyph unicode="p" glyph-name="p" horiz-adv-x="611" d="M317 105Q368 105 400 141T433 252Q433 327 401 363T318 399Q267 399 234 363T200 252Q200 177 233 141T317 105ZM362 -10Q305 -10 266 13T201 77V-172H55V503H192L198 423Q224 465 264 489T361 513Q406
513 446 497T517 449T565 368T583 252Q583 186 565 137T517 55T447 6T362 -10Z" />
<glyph unicode="q" glyph-name="q" horiz-adv-x="616" d="M411 -172V79Q386 38 347 14T253 -10Q211 -10 171 6T99 54T48 136T29 252Q29 318 48 367T98 449T170 497T254 513Q312 513 352 491T416 428Q416 445 418 467T425 503H561Q559 490 558 465T556 423V-172H411ZM296
105Q345 105 378 141T412 252Q412 327 380 363T297 399Q246 399 212 362T178 252Q178 178 211 142T296 105Z" />
<glyph unicode="r" glyph-name="r" horiz-adv-x="395" d="M371 367Q315 374 271 360T201 317V0H55V503H192L198 403H200Q228 454 272 482T371 513V367V367Z" />
<glyph unicode="s" glyph-name="s" horiz-adv-x="461" d="M226 -10Q190 -10 160 -4T106 10T65 28T39 46V150Q49 142 65 133T104 116T155 103T219 97Q245 97 261 100T287 110T300 125T304 144Q304 162 295 171T270 185T234 192T192 199Q165 204 137 213T87 239T50
283T36 351Q36 427 90 470T247 513Q307 513 347 500T404 474V371Q384 385 348 396T254 408Q201 408 183 396T164 364Q164 349 173 341T197 329T233 322T275 316Q302 312 330 304T381 278T418 231T433 159Q433 112 416 80T369 27T303 -1T226 -10Z" />
<glyph unicode="t" glyph-name="t" horiz-adv-x="391" d="M355 21Q335 8 306 -1T235 -10Q190 -10 160 2T111 35T85 86T77 148V390H17V503H77V609H222V503H364V390H222V164Q222 134 234 120T276 105Q304 105 323 113T355 135V21V21Z" />
<glyph unicode="u" glyph-name="u" horiz-adv-x="574" d="M374 73Q354 38 316 14T216 -10Q144 -10 97 32T50 159V503H198V167Q198 130 218 118T268 105Q304 105 330 118T373 155V503H517V0H382L376 73H374V73Z" />
<glyph unicode="v" glyph-name="v" horiz-adv-x="516" d="M1 503H150L265 148L383 503H515L343 0H171L1 503Z" />
<glyph unicode="w" glyph-name="w" horiz-adv-x="809" d="M19 503H165L238 127L340 503H482L583 126L656 503H789L685 0H487L403 325L321 0H124L19 503Z" />
<glyph unicode="x" glyph-name="x" horiz-adv-x="519" d="M244 166L138 0H1L173 262L15 503H177L276 352L368 503H504L346 257L516 0H354L244 166Z" />
<glyph unicode="y" glyph-name="y" horiz-adv-x="542" d="M133 -181Q102 -181 79 -177T32 -161V-37Q50 -49 75 -57T130 -66Q160 -66 178 -56T209 -27L10 503H163L281 154L396 503H530L356 6Q339 -40 321 -75T278 -133T218 -169T133 -181Z" />
<glyph unicode="z" glyph-name="z" horiz-adv-x="481" d="M33 0V100L273 394H41V503H451V412L210 110H451V0H33Z" />
<glyph unicode="{" glyph-name="braceleft" horiz-adv-x="441" d="M401 -131Q333 -140 284 -134T204 -109T159 -62T144 3Q144 22 146 37T150 68T153 98T154 134Q154 157 151 176T137 209T107 233T57 245V353Q88 356 107 365T136 388T150 422T154 465Q155 484 154
499T150 530T146 560T144 596Q144 632 158 660T204 707T284 731T401 729V625Q365 632 342 629T305 616T286 590T281 555Q281 539 282 526T285 501T288 475T290 447Q290 426 285 406T266 366T225 329T155 298Q198 285 225 268T266 232T285 193T290 151Q290 121 286
98T281 44Q281 24 286 8T304 -18T341 -31T401 -26V-131V-131Z" />
<glyph unicode="|" glyph-name="bar" horiz-adv-x="260" d="M183 733V-116H78V733H183Z" />
<glyph unicode="}" glyph-name="braceright" horiz-adv-x="441" d="M40 -131Q108 -140 157 -134T237 -109T282 -62T297 3Q297 22 295 37T291 68T288 98T287 134Q287 157 290 176T304 209T334 233T384 245V353Q353 356 334 365T305 388T291 422T287 465Q286 484
287 499T291 530T295 560T297 596Q297 632 283 660T237 707T157 731T40 729V625Q76 632 99 629T136 616T155 590T160 555Q160 539 159 526T156 501T153 475T151 447Q151 426 156 406T175 366T216 329T286 298Q243 285 216 268T175 232T156 193T151 151Q151 121
155 98T160 44Q160 24 155 8T137 -18T100 -31T40 -26V-131V-131Z" />
<glyph unicode="~" glyph-name="asciitilde" horiz-adv-x="624" d="M45 228Q42 265 49 300T75 363T125 407T202 424Q245 424 276 411T331 381T377 351T424 337Q454 337 468 359T484 433H579Q582 396 575 361T548 299T498 254T421 237Q378 237 348 250T293 280T247
311T201 325Q171 325 156 302T141 228H45V228Z" />
<glyph unicode="&#xa0;" glyph-name="uni00A0" horiz-adv-x="194" />
<glyph unicode="&#xa1;" glyph-name="exclamdown" horiz-adv-x="291" d="M71 -192L89 279H203L220 -192H71ZM146 510Q166 510 183 503T213 483T233 453T241 418Q241 399 234 383T213 354T183 334T146 327Q126 327 109 334T79 353T59 382T51 418Q51 436 58 453T78
482T108 502T146 510Z" />
<glyph unicode="&#xa2;" glyph-name="cent" horiz-adv-x="500" d="M465 32Q446 20 417 9T345 -8V-145H213V1Q126 23 78 87T29 252Q29 355 80 419T222 504V636H354V510Q393 505 420 495T465 471V359Q451 368 436 375T404 388T366 396T318 399Q178 399 178 252Q178
177 213 141T316 105Q344 105 365 108T404 116T436 128T465 145V32V32Z" />
<glyph unicode="&#xa3;" glyph-name="sterling" horiz-adv-x="520" d="M499 0H56V77Q101 112 121 148T142 227Q142 238 142 247T140 267H52V376H111Q101 405 93 434T85 498Q85 593 146 649T327 705Q378 705 415 697T468 682V568Q450 576 414 583T342 591Q310 591
289 584T255 563T237 531T232 490Q232 458 239 432T255 376H408V267H272V254Q272 219 260 183T217 113H499V0Z" />
<glyph unicode="&#xa4;" glyph-name="currency" horiz-adv-x="550" d="M376 155Q353 144 328 138T275 132Q222 132 175 154L111 88L37 163L96 224Q82 247 74 274T66 334Q66 396 96 443L34 507L107 583L174 514Q197 525 222 530T275 536Q331 536 377 513L445 583L518
507L455 442Q484 396 484 334Q484 272 455 226L516 163L441 88L376 155ZM276 430Q241 430 215 405T189 334Q189 289 215 264T276 239Q311 239 337 264T363 334Q363 379 337 404T276 430Z" />
<glyph unicode="&#xa5;" glyph-name="yen" horiz-adv-x="547" d="M345 118V0H205V118H59V212H205V263H59V358H177L8 695H160L283 431L411 695H539L371 358H490V263H345V212H490V118H345Z" />
<glyph unicode="&#xa6;" glyph-name="brokenbar" horiz-adv-x="260" d="M183 733V345H78V733H183ZM183 272V-116H78V272H183Z" />
<glyph unicode="&#xa7;" glyph-name="section" horiz-adv-x="552" d="M283 192Q337 192 364 211T391 264Q391 332 275 332Q216 332 189 316T161 265Q161 244 171 230T199 207T238 196T283 192ZM235 -198Q170 -198 127 -185T55 -157V-47Q85 -64 130 -76T235 -88Q262
-88 284 -85T321 -75T346 -54T355 -19Q355 2 346 16T319 40T276 57T217 73Q185 80 152 91T91 122T47 173T29 250Q29 303 59 339T134 389Q96 413 79 445T62 520Q62 566 80 600T132 658T211 692T314 704Q381 704 422 692T483 665V556Q457 573 417 584T321 595Q198
595 198 530Q198 510 207 497T234 475T276 459T331 446Q362 440 396 429T458 398T504 345T523 263Q523 204 494 171T423 127Q457 107 474 71T491 -5Q491 -63 470 -100T412 -159T330 -189T235 -198Z" />
<glyph unicode="&#xa8;" glyph-name="dieresis" horiz-adv-x="425" d="M325 556Q289 556 264 581T239 640Q239 676 264 700T325 725Q362 725 387 701T413 640Q413 606 388 581T325 556ZM101 556Q64 556 39 581T14 640Q14 676 39 700T101 725Q137 725 162 701T188
640Q188 623 181 608T163 582T135 563T101 556Z" />
<glyph unicode="&#xa9;" glyph-name="copyright" horiz-adv-x="851" d="M425 -102Q341 -102 269 -72T144 13T60 143T29 307Q29 396 59 470T143 599T269 683T425 713Q509 713 582 683T708 599T791 471T822 307Q822 218 792 143T708 14T582 -71T425 -102ZM425 -24Q495
-24 552 0T650 69T713 173T735 307Q735 379 713 439T651 543T553 611T425 636Q355 636 298 612T200 544T137 440T115 307Q115 234 137 174T199 69T297 1T425 -24ZM449 98Q345 98 286 152T226 306Q226 355 242 393T287 458T357 499T449 513Q492 513 519 506T560
488V405Q544 415 519 422T458 429Q336 429 336 306Q336 243 364 213T456 182Q491 182 518 189T560 205V121Q546 112 519 105T449 98Z" />
<glyph unicode="&#xaa;" glyph-name="ordfeminine" horiz-adv-x="467" d="M211 398Q238 398 254 409T278 435T290 464T293 486V504H250Q203 504 182 489T160 446Q160 420 173 409T211 398ZM305 313Q303 327 301 346T296 378Q290 365 280 352T254 329T218 312T170
305Q143 305 118 312T73 335T41 373T29 429Q29 499 86 537T248 576H293V592Q293 630 273 643T211 657Q163 657 125 646T57 621V723Q88 737 134 748T237 759Q323 759 373 722T424 602V383Q424 369 425 347T429 313H305Z" />
<glyph unicode="&#xab;" glyph-name="guillemotleft" horiz-adv-x="517" d="M149 58L20 261L149 463H286L158 261L286 58H149ZM365 58L237 261L365 463H501L374 261L501 58H365Z" />
<glyph unicode="&#xac;" glyph-name="logicalnot" horiz-adv-x="576" d="M421 82V276H44V378H533V82H421Z" />
<glyph unicode="&#xae;" glyph-name="registered" horiz-adv-x="851" d="M425 -102Q341 -102 269 -72T144 13T60 143T29 307Q29 396 59 470T143 599T269 683T425 713Q509 713 582 683T708 599T791 471T822 307Q822 218 792 143T708 14T582 -71T425 -102ZM425 -24Q495
-24 552 0T650 69T713 173T735 307Q735 379 713 439T651 543T553 611T425 636Q355 636 298 612T200 544T137 440T115 307Q115 234 137 174T199 69T297 1T425 -24ZM375 424V332H425Q459 332 474 341T489 376Q489 402 473 413T421 424H375ZM412 252H375V104H269V509H421Q509
509 552 478T596 376Q596 330 577 304T522 265L612 104H495L412 252Z" />
<glyph unicode="&#xaf;" glyph-name="macron" horiz-adv-x="425" d="M51 675H375V576H51V675Z" />
<glyph unicode="&#xb0;" glyph-name="degree" horiz-adv-x="475" d="M238 342Q199 342 166 356T108 395T69 454T55 528Q55 568 69 602T107 661T165 699T238 713Q277 713 310 700T368 661T406 602T420 528Q420 488 406 454T368 395T311 356T238 342ZM238 429Q280
429 304 456T329 528Q329 573 305 600T238 627Q196 627 171 600T146 528Q146 483 171 456T238 429Z" />
<glyph unicode="&#xb1;" glyph-name="plusminus" horiz-adv-x="576" d="M345 293V144H232V293H44V397H232V582H345V397H533V293H345ZM44 0V104H533V0H44Z" />
<glyph unicode="&#xb2;" glyph-name="twosuperior" horiz-adv-x="341" d="M152 309Q108 309 73 316T20 333V419Q33 411 61 403T130 394Q175 394 194 408T214 448Q214 474 195 486T145 498H94V581H147Q173 581 188 593T203 629Q203 673 136 673Q118 673 101 670T69
663T43 655T28 649V733Q32 735 43 739T71 747T109 755T157 758Q235 758 276 727T318 641Q318 602 293 577T232 543Q274 538 302 513T331 445Q331 382 284 346T152 309Z" />
<glyph unicode="&#xb3;" glyph-name="threesuperior" horiz-adv-x="358" d="M23 315V417Q127 488 170 534T213 610Q213 641 195 657T138 673Q96 673 71 663T34 646V732Q44 738 76 748T156 758Q242 758 286 724T330 622Q330 594 319 569T283 517T222 464T134 403H332V315H23Z"
/>
<glyph unicode="&#xb4;" glyph-name="acute" horiz-adv-x="425" d="M199 724H348L226 570H121L199 724Z" />
<glyph unicode="&#xb6;" glyph-name="paragraph" horiz-adv-x="655" d="M590 -181H475V695H590V-181ZM304 -181V271H278Q225 271 181 284T105 324T56 389T38 482Q38 588 98 641T271 695H419V-181H304Z" />
<glyph unicode="&#xb7;" glyph-name="periodcentered" horiz-adv-x="268" d="M134 169Q114 169 97 176T67 196T47 226T40 261Q40 280 47 297T67 326T97 346T134 353Q154 353 171 346T201 327T221 297T229 261Q229 243 222 226T202 197T172 177T134 169Z" />
<glyph unicode="&#xb8;" glyph-name="cedilla" horiz-adv-x="425" d="M294 19L238 -181H95L183 19H294Z" />
<glyph unicode="&#xb9;" glyph-name="onesuperior" horiz-adv-x="293" d="M126 315V629L24 534V651L134 753H240V315H126Z" />
<glyph unicode="&#xba;" glyph-name="ordmasculine" horiz-adv-x="500" d="M249 305Q201 305 160 320T89 363T41 434T24 533Q24 588 41 630T88 700T160 744T249 759Q297 759 338 744T410 701T458 630T476 533Q476 477 459 435T411 364T339 320T249 305ZM249 407Q289
407 314 438T340 533Q340 595 315 626T249 657Q211 657 186 626T160 533Q160 470 185 439T249 407Z" />
<glyph unicode="&#xbb;" glyph-name="guillemotright" horiz-adv-x="513" d="M148 261L19 463H157L286 261L157 58H19L148 261ZM363 261L236 463H372L501 261L372 58H236L363 261Z" />
<glyph unicode="&#xbc;" glyph-name="onequarter" horiz-adv-x="871" d="M143 257V571L41 476V593L151 695H257V257H143ZM136 0L683 695H793L245 0H136ZM705 308L606 169H705V308ZM812 86V1H705V86H514V170L706 438H812V169H869V86H812Z" />
<glyph unicode="&#xbd;" glyph-name="onehalf" horiz-adv-x="970" d="M136 0L683 695H793L245 0H136ZM602 1V103Q706 174 749 220T792 296Q792 327 774 343T717 359Q675 359 650 349T613 332V418Q623 424 655 434T735 444Q821 444 865 410T909 308Q909 280 898
255T862 203T801 150T713 89H911V1H602ZM143 257V571L41 476V593L151 695H257V257H143Z" />
<glyph unicode="&#xbe;" glyph-name="threequarters" horiz-adv-x="905" d="M169 251Q125 251 90 258T37 275V361Q50 353 78 345T147 336Q192 336 211 350T231 390Q231 416 212 428T162 440H111V523H164Q190 523 205 535T220 571Q220 615 153 615Q135 615 118
612T86 605T60 597T45 591V675Q49 677 60 681T88 689T126 697T174 700Q252 700 293 669T335 583Q335 544 310 519T249 485Q291 480 319 455T348 387Q348 324 301 288T169 251ZM169 0L716 695H826L278 0H169ZM738 308L639 169H738V308ZM845 86V1H738V86H547V170L739
438H845V169H902V86H845Z" />
<glyph unicode="&#xbf;" glyph-name="questiondown" horiz-adv-x="456" d="M33 0Q33 46 47 76T82 127T127 162T173 189T208 219T222 261V283H361V262Q361 217 348 189T316 142T274 111T232 85T200 52T187 1Q187 -15 191 -30T208 -57T242 -76T297 -83Q340 -83 371
-74T422 -51V-165Q402 -176 363 -186T269 -197Q152 -197 93 -144T33 0ZM289 514Q309 514 326 507T355 487T375 457T383 422Q383 403 376 387T356 358T326 338T289 331Q269 331 252 338T222 357T202 386T194 422Q194 459 221 486T289 514Z" />
<glyph unicode="&#xc0;" glyph-name="Agrave" horiz-adv-x="684" d="M330 558L235 285H425L330 558ZM468 162H192L136 0H11L254 695H430L673 0H524L468 162ZM307 755L185 887H363L437 755H307Z" />
<glyph unicode="&#xc1;" glyph-name="Aacute" horiz-adv-x="684" d="M330 558L235 285H425L330 558ZM468 162H192L136 0H11L254 695H430L673 0H524L468 162ZM323 887H499L378 755H249L323 887Z" />
<glyph unicode="&#xc2;" glyph-name="Acircumflex" horiz-adv-x="684" d="M330 558L235 285H425L330 558ZM468 162H192L136 0H11L254 695H430L673 0H524L468 162ZM343 824L275 754H163L269 897H416L521 754H410L343 824Z" />
<glyph unicode="&#xc3;" glyph-name="Atilde" horiz-adv-x="684" d="M330 558L235 285H425L330 558ZM468 162H192L136 0H11L254 695H430L673 0H524L468 162ZM161 744Q154 777 157 806T173 856T208 889T261 901Q286 901 306 895T342 881T373 867T402 860Q422 860
431 871T438 908H523Q530 875 527 846T511 796T476 763T424 751Q399 751 380 757T344 771T312 785T282 792Q263 792 254 782T247 744H161V744Z" />
<glyph unicode="&#xc4;" glyph-name="Adieresis" horiz-adv-x="684" d="M330 558L235 285H425L330 558ZM468 162H192L136 0H11L254 695H430L673 0H524L468 162ZM469 750Q432 750 406 775T380 834Q380 870 406 894T469 919Q505 919 531 895T557 834Q557 817 550
802T531 776T503 757T469 750ZM215 750Q197 750 182 757T155 775T136 802T129 834Q129 870 154 894T215 919Q253 919 278 895T304 834Q304 800 279 775T215 750Z" />
<glyph unicode="&#xc5;" glyph-name="Aring" horiz-adv-x="684" d="M330 558L235 285H425L330 558ZM468 162H192L136 0H11L254 695H430L673 0H524L468 162ZM342 735Q316 735 293 744T252 770T225 810T215 861Q215 889 225 912T252 951T292 977T342 987Q369 987
392 978T432 952T459 912T469 861Q469 834 459 811T432 771T392 745T342 735ZM342 813Q363 813 376 826T390 861Q390 882 377 896T342 911Q321 911 309 897T296 861Q296 840 308 827T342 813Z" />
<glyph unicode="&#xc6;" glyph-name="AE" horiz-adv-x="990" d="M467 617L307 306H467V617ZM467 183H244L150 0H11L368 695H937V572H617V420H887V298H617V122H942V0H467V183Z" />
<glyph unicode="&#xc7;" glyph-name="Ccedilla" horiz-adv-x="633" d="M398 -10Q314 -10 247 14T132 84T60 196T34 347Q34 431 59 497T131 609T246 679T398 704Q470 704 519 692T594 662V536Q562 557 514 569T407 582Q295 582 242 524T189 347Q189 229 242 171T408
112Q466 112 513 125T594 160V37Q568 20 520 5T398 -10ZM440 19L384 -181H241L329 19H440Z" />
<glyph unicode="&#xc8;" glyph-name="Egrave" horiz-adv-x="589" d="M65 695H536V572H215V420H486V298H215V122H541V0H65V695ZM277 755L155 887H333L407 755H277Z" />
<glyph unicode="&#xc9;" glyph-name="Eacute" horiz-adv-x="589" d="M65 695H536V572H215V420H486V298H215V122H541V0H65V695ZM293 887H469L348 755H219L293 887Z" />
<glyph unicode="&#xca;" glyph-name="Ecircumflex" horiz-adv-x="589" d="M65 695H536V572H215V420H486V298H215V122H541V0H65V695ZM313 824L245 754H133L239 897H386L491 754H380L313 824Z" />
<glyph unicode="&#xcb;" glyph-name="Edieresis" horiz-adv-x="589" d="M65 695H536V572H215V420H486V298H215V122H541V0H65V695ZM439 750Q402 750 376 775T350 834Q350 870 376 894T439 919Q475 919 501 895T527 834Q527 817 520 802T501 776T473 757T439 750ZM185
750Q167 750 152 757T125 775T106 802T99 834Q99 870 124 894T185 919Q223 919 248 895T274 834Q274 800 249 775T185 750Z" />
<glyph unicode="&#xcc;" glyph-name="Igrave" horiz-adv-x="281" d="M215 695V0H65V695H215ZM360 755L238 887H416L490 755H360Z" />
<glyph unicode="&#xcd;" glyph-name="Iacute" horiz-adv-x="281" d="M215 695V0H65V695H215ZM378 887H554L433 755H304L378 887Z" />
<glyph unicode="&#xce;" glyph-name="Icircumflex" horiz-adv-x="281" d="M215 695V0H65V695H215ZM396 824L328 754H216L322 897H469L574 754H463L396 824Z" />
<glyph unicode="&#xcf;" glyph-name="Idieresis" horiz-adv-x="281" d="M215 695V0H65V695H215ZM522 750Q485 750 459 775T433 834Q433 870 459 894T522 919Q558 919 584 895T610 834Q610 817 603 802T584 776T556 757T522 750ZM268 750Q250 750 235 757T208 775T189
802T182 834Q182 870 207 894T268 919Q306 919 331 895T357 834Q357 800 332 775T268 750Z" />
<glyph unicode="&#xd0;" glyph-name="Eth" horiz-adv-x="736" d="M244 297V122H331Q379 122 419 136T487 180T532 256T548 365Q548 426 533 466T489 529T423 562T340 572H244V414H397V297H244ZM94 297H5V414H94V695H332Q411 695 478 679T595 625T673 525T702 371Q702
279 674 210T595 94T475 24T323 0H94V297Z" />
<glyph unicode="&#xd1;" glyph-name="Ntilde" horiz-adv-x="716" d="M197 508V0H65V695H255L519 192V695H650V0H464L197 508ZM189 744Q182 777 185 806T201 856T236 889T289 901Q314 901 334 895T370 881T401 867T430 860Q450 860 459 871T466 908H551Q558 875
555 846T539 796T504 763T452 751Q427 751 408 757T372 771T340 785T310 792Q291 792 282 782T275 744H189V744Z" />
<glyph unicode="&#xd2;" glyph-name="Ograve" horiz-adv-x="753" d="M376 -10Q304 -10 242 13T133 80T61 191T34 345Q34 432 60 499T133 611T241 680T376 704Q448 704 510 682T619 614T693 503T720 350Q720 263 693 196T620 83T511 14T376 -10ZM376 112Q416 112
451 124T511 165T550 238T565 347Q565 411 551 456T511 529T451 569T376 582Q336 582 302 570T242 529T203 456T189 347Q189 283 203 238T242 165T301 125T376 112ZM341 755L219 887H397L471 755H341Z" />
<glyph unicode="&#xd3;" glyph-name="Oacute" horiz-adv-x="753" d="M376 -10Q304 -10 242 13T133 80T61 191T34 345Q34 432 60 499T133 611T241 680T376 704Q448 704 510 682T619 614T693 503T720 350Q720 263 693 196T620 83T511 14T376 -10ZM376 112Q416 112
451 124T511 165T550 238T565 347Q565 411 551 456T511 529T451 569T376 582Q336 582 302 570T242 529T203 456T189 347Q189 283 203 238T242 165T301 125T376 112ZM358 887H534L413 755H284L358 887Z" />
<glyph unicode="&#xd4;" glyph-name="Ocircumflex" horiz-adv-x="753" d="M376 -10Q304 -10 242 13T133 80T61 191T34 345Q34 432 60 499T133 611T241 680T376 704Q448 704 510 682T619 614T693 503T720 350Q720 263 693 196T620 83T511 14T376 -10ZM376 112Q416
112 451 124T511 165T550 238T565 347Q565 411 551 456T511 529T451 569T376 582Q336 582 302 570T242 529T203 456T189 347Q189 283 203 238T242 165T301 125T376 112ZM377 824L309 754H197L303 897H450L555 754H444L377 824Z" />
<glyph unicode="&#xd5;" glyph-name="Otilde" horiz-adv-x="753" d="M376 -10Q304 -10 242 13T133 80T61 191T34 345Q34 432 60 499T133 611T241 680T376 704Q448 704 510 682T619 614T693 503T720 350Q720 263 693 196T620 83T511 14T376 -10ZM376 112Q416 112
451 124T511 165T550 238T565 347Q565 411 551 456T511 529T451 569T376 582Q336 582 302 570T242 529T203 456T189 347Q189 283 203 238T242 165T301 125T376 112ZM195 744Q188 777 191 806T207 856T242 889T295 901Q320 901 340 895T376 881T407 867T436 860Q456
860 465 871T472 908H557Q564 875 561 846T545 796T510 763T458 751Q433 751 414 757T378 771T346 785T316 792Q297 792 288 782T281 744H195V744Z" />
<glyph unicode="&#xd6;" glyph-name="Odieresis" horiz-adv-x="753" d="M376 -10Q304 -10 242 13T133 80T61 191T34 345Q34 432 60 499T133 611T241 680T376 704Q448 704 510 682T619 614T693 503T720 350Q720 263 693 196T620 83T511 14T376 -10ZM376 112Q416
112 451 124T511 165T550 238T565 347Q565 411 551 456T511 529T451 569T376 582Q336 582 302 570T242 529T203 456T189 347Q189 283 203 238T242 165T301 125T376 112ZM503 750Q466 750 440 775T414 834Q414 870 440 894T503 919Q539 919 565 895T591 834Q591
817 584 802T565 776T537 757T503 750ZM249 750Q231 750 216 757T189 775T170 802T163 834Q163 870 188 894T249 919Q287 919 312 895T338 834Q338 800 313 775T249 750Z" />
<glyph unicode="&#xd7;" glyph-name="multiply" horiz-adv-x="566" d="M284 249L120 81L46 157L210 325L43 497L116 574L284 402L451 574L525 497L358 325L522 157L447 81L284 249Z" />
<glyph unicode="&#xd8;" glyph-name="Oslash" horiz-adv-x="753" d="M189 347Q189 302 196 267T217 204L451 569Q418 582 376 582Q336 582 302 570T242 529T203 456T189 347ZM376 112Q416 112 451 124T511 165T550 238T565 347Q565 403 555 443T525 511L282 134Q322
112 376 112ZM376 -10Q285 -10 212 25L152 -68H42L136 78Q88 123 61 189T34 345Q34 432 60 499T133 611T241 680T376 704Q455 704 521 677L575 762H686L601 630Q656 585 688 516T720 350Q720 263 693 196T620 83T511 14T376 -10Z" />
<glyph unicode="&#xd9;" glyph-name="Ugrave" horiz-adv-x="661" d="M50 695H201V257Q201 184 239 148T343 112Q408 112 443 148T479 257V695H610V247Q610 185 591 138T537 57T451 7T337 -10Q276 -10 224 6T133 55T72 134T50 243V695ZM306 755L184 887H362L436 755H306Z" />
<glyph unicode="&#xda;" glyph-name="Uacute" horiz-adv-x="661" d="M50 695H201V257Q201 184 239 148T343 112Q408 112 443 148T479 257V695H610V247Q610 185 591 138T537 57T451 7T337 -10Q276 -10 224 6T133 55T72 134T50 243V695ZM323 887H499L378 755H249L323 887Z" />
<glyph unicode="&#xdb;" glyph-name="Ucircumflex" horiz-adv-x="661" d="M50 695H201V257Q201 184 239 148T343 112Q408 112 443 148T479 257V695H610V247Q610 185 591 138T537 57T451 7T337 -10Q276 -10 224 6T133 55T72 134T50 243V695ZM343 824L275 754H163L269
897H416L521 754H410L343 824Z" />
<glyph unicode="&#xdc;" glyph-name="Udieresis" horiz-adv-x="661" d="M50 695H201V257Q201 184 239 148T343 112Q408 112 443 148T479 257V695H610V247Q610 185 591 138T537 57T451 7T337 -10Q276 -10 224 6T133 55T72 134T50 243V695ZM469 750Q432 750 406
775T380 834Q380 870 406 894T469 919Q505 919 531 895T557 834Q557 817 550 802T531 776T503 757T469 750ZM215 750Q197 750 182 757T155 775T136 802T129 834Q129 870 154 894T215 919Q253 919 278 895T304 834Q304 800 279 775T215 750Z" />
<glyph unicode="&#xdd;" glyph-name="Yacute" horiz-adv-x="593" d="M222 0V294L-1 695H163L307 421L457 695H594L372 291V0H222ZM296 887H472L351 755H222L296 887Z" />
<glyph unicode="&#xde;" glyph-name="Thorn" horiz-adv-x="611" d="M215 452V240H298Q365 240 400 264T436 348Q436 452 299 452H215ZM215 117V0H65V695H215V574H299Q436 574 511 523T586 355Q586 293 566 248T508 174T417 131T298 117H215Z" />
<glyph unicode="&#xdf;" glyph-name="germandbls" horiz-adv-x="596" d="M581 152Q581 105 562 74T513 25T446 -2T370 -10Q338 -10 312 -5T271 9V118Q290 108 311 103T354 98Q425 98 425 147Q425 167 414 179T386 201T350 220T313 244T285 279T274 335Q274 370
287 392T317 434T348 473T362 524Q362 563 339 577T288 592Q242 592 225 561T207 470V0H55V470Q55 578 112 641T286 704Q335 704 377 693T449 660T496 605T513 528Q513 483 498 458T466 415T434 384T419 351Q419 334 431 324T461 304T500 284T539 258T569 216T581
152Z" />
<glyph unicode="&#xe0;" glyph-name="agrave" horiz-adv-x="532" d="M238 91Q269 91 288 104T317 136T331 171T335 195V224H283Q227 224 201 205T175 153Q175 123 192 107T238 91ZM349 0Q346 14 344 35T339 75Q331 60 319 45T290 17T248 -2T192 -10Q161 -10 132
-1T81 26T46 71T32 135Q32 216 96 260T280 305H335V323Q335 368 312 383T240 399Q186 399 142 386T64 357V471Q99 488 151 500T267 513Q367 513 424 472T481 336V81Q481 64 482 39T485 0H349ZM248 570L125 724H274L350 570H248Z" />
<glyph unicode="&#xe1;" glyph-name="aacute" horiz-adv-x="532" d="M238 91Q269 91 288 104T317 136T331 171T335 195V224H283Q227 224 201 205T175 153Q175 123 192 107T238 91ZM349 0Q346 14 344 35T339 75Q331 60 319 45T290 17T248 -2T192 -10Q161 -10 132
-1T81 26T46 71T32 135Q32 216 96 260T280 305H335V323Q335 368 312 383T240 399Q186 399 142 386T64 357V471Q99 488 151 500T267 513Q367 513 424 472T481 336V81Q481 64 482 39T485 0H349ZM265 724H414L292 570H187L265 724Z" />
<glyph unicode="&#xe2;" glyph-name="acircumflex" horiz-adv-x="532" d="M238 91Q269 91 288 104T317 136T331 171T335 195V224H283Q227 224 201 205T175 153Q175 123 192 107T238 91ZM349 0Q346 14 344 35T339 75Q331 60 319 45T290 17T248 -2T192 -10Q161 -10
132 -1T81 26T46 71T32 135Q32 216 96 260T280 305H335V323Q335 368 312 383T240 399Q186 399 142 386T64 357V471Q99 488 151 500T267 513Q367 513 424 472T481 336V81Q481 64 482 39T485 0H349ZM266 637L206 570H95L192 714H339L436 570H324L266 637Z" />
<glyph unicode="&#xe3;" glyph-name="atilde" horiz-adv-x="532" d="M238 91Q269 91 288 104T317 136T331 171T335 195V224H283Q227 224 201 205T175 153Q175 123 192 107T238 91ZM349 0Q346 14 344 35T339 75Q331 60 319 45T290 17T248 -2T192 -10Q161 -10 132
-1T81 26T46 71T32 135Q32 216 96 260T280 305H335V323Q335 368 312 383T240 399Q186 399 142 386T64 357V471Q99 488 151 500T267 513Q367 513 424 472T481 336V81Q481 64 482 39T485 0H349ZM101 566Q96 593 100 618T116 664T150 696T200 708Q222 708 239 702T272
688T300 674T329 667Q344 667 352 676T358 715H430Q434 688 431 663T415 617T381 584T330 572Q308 572 291 578T260 592T231 606T202 613Q188 613 180 604T173 566H101V566Z" />
<glyph unicode="&#xe4;" glyph-name="adieresis" horiz-adv-x="532" d="M238 91Q269 91 288 104T317 136T331 171T335 195V224H283Q227 224 201 205T175 153Q175 123 192 107T238 91ZM349 0Q346 14 344 35T339 75Q331 60 319 45T290 17T248 -2T192 -10Q161 -10
132 -1T81 26T46 71T32 135Q32 216 96 260T280 305H335V323Q335 368 312 383T240 399Q186 399 142 386T64 357V471Q99 488 151 500T267 513Q367 513 424 472T481 336V81Q481 64 482 39T485 0H349ZM377 556Q341 556 316 581T291 640Q291 676 316 700T377 725Q414
725 439 701T465 640Q465 606 440 581T377 556ZM153 556Q116 556 91 581T66 640Q66 676 91 700T153 725Q189 725 214 701T240 640Q240 623 233 608T215 582T187 563T153 556Z" />
<glyph unicode="&#xe5;" glyph-name="aring" horiz-adv-x="532" d="M238 91Q269 91 288 104T317 136T331 171T335 195V224H283Q227 224 201 205T175 153Q175 123 192 107T238 91ZM349 0Q346 14 344 35T339 75Q331 60 319 45T290 17T248 -2T192 -10Q161 -10 132
-1T81 26T46 71T32 135Q32 216 96 260T280 305H335V323Q335 368 312 383T240 399Q186 399 142 386T64 357V471Q99 488 151 500T267 513Q367 513 424 472T481 336V81Q481 64 482 39T485 0H349ZM265 551Q239 551 216 560T175 586T148 626T138 677Q138 705 148 728T175
768T215 794T265 804Q292 804 315 795T355 768T382 728T392 677Q392 650 382 627T355 587T315 561T265 551ZM265 629Q286 629 299 642T313 677Q313 699 300 713T265 727Q244 727 232 713T219 677Q219 656 231 643T265 629Z" />
<glyph unicode="&#xe6;" glyph-name="ae" horiz-adv-x="855" d="M593 405Q551 405 524 380T487 305H677Q677 355 656 380T593 405ZM798 30Q786 24 772 17T738 4T691 -6T625 -10Q541 -10 484 14T395 85Q386 68 370 52T330 21T272 -1T193 -10Q161 -10 132 -2T81
25T46 70T32 134Q32 214 96 259T280 305H336V323Q336 368 313 383T241 399Q187 399 142 386T64 357V471Q99 488 152 500T268 513Q323 513 364 498T430 451Q492 513 591 513Q649 513 696 494T774 438T817 344T817 213H484Q492 159 524 132T632 105Q694 105 731 117T798
144V30ZM238 94Q269 94 288 107T318 138T332 173T336 198V219H283Q227 219 201 201T175 152Q175 122 192 108T238 94Z" />
<glyph unicode="&#xe7;" glyph-name="ccedilla" horiz-adv-x="498" d="M304 -10Q241 -10 190 7T103 59T48 141T29 252Q29 313 48 361T103 444T190 495T304 513Q364 513 403 501T465 471V359Q451 368 436 375T404 388T366 396T318 399Q178 399 178 252Q178 177
213 141T316 105Q344 105 365 108T404 116T436 128T465 145V32Q442 17 403 4T304 -10ZM346 19L290 -181H147L235 19H346Z" />
<glyph unicode="&#xe8;" glyph-name="egrave" horiz-adv-x="559" d="M293 408Q251 408 223 382T184 308H380Q382 358 360 383T293 408ZM500 30Q488 24 474 17T439 4T391 -6T325 -10Q172 -10 101 59T29 252Q29 313 48 361T101 444T184 495T290 513Q349 513 396
494T475 438T519 344T519 212H181Q189 158 223 131T332 104Q363 104 388 107T433 116T469 129T500 143V30ZM270 570L147 724H296L372 570H270Z" />
<glyph unicode="&#xe9;" glyph-name="eacute" horiz-adv-x="559" d="M293 408Q251 408 223 382T184 308H380Q382 358 360 383T293 408ZM500 30Q488 24 474 17T439 4T391 -6T325 -10Q172 -10 101 59T29 252Q29 313 48 361T101 444T184 495T290 513Q349 513 396
494T475 438T519 344T519 212H181Q189 158 223 131T332 104Q363 104 388 107T433 116T469 129T500 143V30ZM286 724H435L313 570H208L286 724Z" />
<glyph unicode="&#xea;" glyph-name="ecircumflex" horiz-adv-x="559" d="M293 408Q251 408 223 382T184 308H380Q382 358 360 383T293 408ZM500 30Q488 24 474 17T439 4T391 -6T325 -10Q172 -10 101 59T29 252Q29 313 48 361T101 444T184 495T290 513Q349 513
396 494T475 438T519 344T519 212H181Q189 158 223 131T332 104Q363 104 388 107T433 116T469 129T500 143V30ZM290 637L230 570H119L216 714H363L460 570H348L290 637Z" />
<glyph unicode="&#xeb;" glyph-name="edieresis" horiz-adv-x="559" d="M293 408Q251 408 223 382T184 308H380Q382 358 360 383T293 408ZM500 30Q488 24 474 17T439 4T391 -6T325 -10Q172 -10 101 59T29 252Q29 313 48 361T101 444T184 495T290 513Q349 513 396
494T475 438T519 344T519 212H181Q189 158 223 131T332 104Q363 104 388 107T433 116T469 129T500 143V30ZM401 556Q365 556 340 581T315 640Q315 676 340 700T401 725Q438 725 463 701T489 640Q489 606 464 581T401 556ZM177 556Q140 556 115 581T90 640Q90 676
115 700T177 725Q213 725 238 701T264 640Q264 623 257 608T239 582T211 563T177 556Z" />
<glyph unicode="&#xec;" glyph-name="igrave" horiz-adv-x="258" d="M202 503V0H56V503H202ZM367 570L244 724H393L469 570H367Z" />
<glyph unicode="&#xed;" glyph-name="iacute" horiz-adv-x="258" d="M202 503V0H56V503H202ZM384 724H533L411 570H306L384 724Z" />
<glyph unicode="&#xee;" glyph-name="icircumflex" horiz-adv-x="258" d="M202 503V0H56V503H202ZM386 637L326 570H215L312 714H459L556 570H444L386 637Z" />
<glyph unicode="&#xef;" glyph-name="idieresis" horiz-adv-x="258" d="M231 555Q194 555 169 580T143 640Q143 676 168 701T231 726Q249 726 265 720T293 701T312 674T319 640Q319 623 312 608T293 581T265 562T231 555ZM27 555Q-8 555 -34 580T-60 640Q-60 658
-53 673T-34 701T-6 719T27 726Q64 726 89 701T115 640Q115 605 90 580T27 555ZM202 503V0H56V503H202Z" />
<glyph unicode="&#xf0;" glyph-name="eth" horiz-adv-x="570" d="M281 -10Q233 -10 188 5T107 52T50 132T29 245Q29 310 48 358T98 438T169 486T250 502Q292 502 316 490T360 454Q346 484 328 510T287 560L136 513L114 588L214 619Q154 658 79 686V695H291Q304
689 318 681T348 661L455 695L478 619L418 600Q443 574 466 541T507 468T535 382T546 283Q546 200 522 144T460 53T375 5T281 -10ZM286 105Q310 105 330 114T365 144T388 199T396 283Q396 323 390 359Q372 379 351 389T292 399Q241 399 210 359T178 247Q178 175
209 140T286 105Z" />
<glyph unicode="&#xf1;" glyph-name="ntilde" horiz-adv-x="580" d="M311 399Q273 399 246 385T201 348V0H55V503H192L198 431H200Q221 466 259 489T358 513Q394 513 425 503T480 473T517 423T530 351V0H384V337Q384 371 365 385T311 399ZM133 566Q128 593 132
618T148 664T182 696T232 708Q254 708 271 702T304 688T332 674T361 667Q376 667 384 676T390 715H462Q466 688 463 663T447 617T413 584T362 572Q340 572 323 578T292 592T263 606T234 613Q220 613 212 604T205 566H133V566Z" />
<glyph unicode="&#xf2;" glyph-name="ograve" horiz-adv-x="574" d="M286 -10Q232 -10 185 7T104 57T49 139T29 252Q29 315 49 364T103 446T185 496T286 513Q341 513 388 496T471 446T526 364T546 252Q546 188 526 139T471 57T389 7T286 -10ZM286 105Q334 105
365 141T396 252Q396 327 365 363T286 399Q240 399 209 363T178 252Q178 177 209 141T286 105ZM269 570L146 724H295L371 570H269Z" />
<glyph unicode="&#xf3;" glyph-name="oacute" horiz-adv-x="574" d="M286 -10Q232 -10 185 7T104 57T49 139T29 252Q29 315 49 364T103 446T185 496T286 513Q341 513 388 496T471 446T526 364T546 252Q546 188 526 139T471 57T389 7T286 -10ZM286 105Q334 105
365 141T396 252Q396 327 365 363T286 399Q240 399 209 363T178 252Q178 177 209 141T286 105ZM285 724H434L312 570H207L285 724Z" />
<glyph unicode="&#xf4;" glyph-name="ocircumflex" horiz-adv-x="574" d="M286 -10Q232 -10 185 7T104 57T49 139T29 252Q29 315 49 364T103 446T185 496T286 513Q341 513 388 496T471 446T526 364T546 252Q546 188 526 139T471 57T389 7T286 -10ZM286 105Q334
105 365 141T396 252Q396 327 365 363T286 399Q240 399 209 363T178 252Q178 177 209 141T286 105ZM289 637L229 570H118L215 714H362L459 570H347L289 637Z" />
<glyph unicode="&#xf5;" glyph-name="otilde" horiz-adv-x="574" d="M286 -10Q232 -10 185 7T104 57T49 139T29 252Q29 315 49 364T103 446T185 496T286 513Q341 513 388 496T471 446T526 364T546 252Q546 188 526 139T471 57T389 7T286 -10ZM286 105Q334 105
365 141T396 252Q396 327 365 363T286 399Q240 399 209 363T178 252Q178 177 209 141T286 105ZM124 566Q119 593 123 618T139 664T173 696T223 708Q245 708 262 702T295 688T323 674T352 667Q367 667 375 676T381 715H453Q457 688 454 663T438 617T404 584T353
572Q331 572 314 578T283 592T254 606T225 613Q211 613 203 604T196 566H124V566Z" />
<glyph unicode="&#xf6;" glyph-name="odieresis" horiz-adv-x="574" d="M286 -10Q232 -10 185 7T104 57T49 139T29 252Q29 315 49 364T103 446T185 496T286 513Q341 513 388 496T471 446T526 364T546 252Q546 188 526 139T471 57T389 7T286 -10ZM286 105Q334 105
365 141T396 252Q396 327 365 363T286 399Q240 399 209 363T178 252Q178 177 209 141T286 105ZM400 556Q364 556 339 581T314 640Q314 676 339 700T400 725Q437 725 462 701T488 640Q488 606 463 581T400 556ZM176 556Q139 556 114 581T89 640Q89 676 114 700T176
725Q212 725 237 701T263 640Q263 623 256 608T238 582T210 563T176 556Z" />
<glyph unicode="&#xf7;" glyph-name="divide" horiz-adv-x="564" d="M285 25Q265 25 248 32T218 52T198 82T191 117Q191 136 198 153T218 182T248 202T285 209Q305 209 322 202T352 183T372 153T380 117Q380 99 373 82T353 53T323 33T285 25ZM285 444Q265 444
248 451T218 471T198 501T191 536Q191 555 198 572T218 601T248 621T285 628Q305 628 322 621T352 602T372 572T380 536Q380 518 373 501T353 472T323 452T285 444ZM294 276V378H783V276H294Z" />
<glyph unicode="&#xf8;" glyph-name="oslash" horiz-adv-x="574" d="M178 252Q178 205 192 171L323 393Q306 399 286 399Q240 399 209 363T178 252ZM286 105Q334 105 365 141T396 252Q396 297 384 329L256 109Q268 105 286 105ZM286 -10Q239 -10 194 4L147 -78H44L117
45Q76 78 53 130T29 252Q29 315 49 364T103 446T185 496T286 513Q341 513 385 497L435 581H530L458 457Q499 424 522 373T546 252Q546 188 526 139T471 57T389 7T286 -10Z" />
<glyph unicode="&#xf9;" glyph-name="ugrave" horiz-adv-x="574" d="M374 73Q354 38 316 14T216 -10Q144 -10 97 32T50 159V503H198V167Q198 130 218 118T268 105Q304 105 330 118T373 155V503H517V0H382L376 73H374V73ZM269 570L146 724H295L371 570H269Z" />
<glyph unicode="&#xfa;" glyph-name="uacute" horiz-adv-x="574" d="M374 73Q354 38 316 14T216 -10Q144 -10 97 32T50 159V503H198V167Q198 130 218 118T268 105Q304 105 330 118T373 155V503H517V0H382L376 73H374V73ZM286 724H435L313 570H208L286 724Z" />
<glyph unicode="&#xfb;" glyph-name="ucircumflex" horiz-adv-x="574" d="M374 73Q354 38 316 14T216 -10Q144 -10 97 32T50 159V503H198V167Q198 130 218 118T268 105Q304 105 330 118T373 155V503H517V0H382L376 73H374V73ZM289 637L229 570H118L215 714H362L459
570H347L289 637Z" />
<glyph unicode="&#xfc;" glyph-name="udieresis" horiz-adv-x="574" d="M374 73Q354 38 316 14T216 -10Q144 -10 97 32T50 159V503H198V167Q198 130 218 118T268 105Q304 105 330 118T373 155V503H517V0H382L376 73H374V73ZM400 556Q364 556 339 581T314 640Q314
676 339 700T400 725Q437 725 462 701T488 640Q488 606 463 581T400 556ZM176 556Q139 556 114 581T89 640Q89 676 114 700T176 725Q212 725 237 701T263 640Q263 623 256 608T238 582T210 563T176 556Z" />
<glyph unicode="&#xfd;" glyph-name="yacute" horiz-adv-x="542" d="M133 -181Q102 -181 79 -177T32 -161V-37Q50 -49 75 -57T130 -66Q160 -66 178 -56T209 -27L10 503H163L281 154L396 503H530L356 6Q339 -40 321 -75T278 -133T218 -169T133 -181ZM284 724H433L311
570H206L284 724Z" />
<glyph unicode="&#xfe;" glyph-name="thorn" horiz-adv-x="611" d="M319 105Q370 105 402 141T435 252Q435 327 403 363T320 399Q269 399 235 363T201 252Q201 177 234 141T319 105ZM363 -10Q306 -10 266 14T201 80V-172H55V695H201V427Q226 468 266 490T362 513Q407
513 447 497T518 449T567 368T585 252Q585 186 567 137T519 55T448 6T363 -10Z" />
<glyph unicode="&#xff;" glyph-name="ydieresis" horiz-adv-x="542" d="M133 -181Q102 -181 79 -177T32 -161V-37Q50 -49 75 -57T130 -66Q160 -66 178 -56T209 -27L10 503H163L281 154L396 503H530L356 6Q339 -40 321 -75T278 -133T218 -169T133 -181ZM398 556Q362
556 337 581T312 640Q312 676 337 700T398 725Q435 725 460 701T486 640Q486 606 461 581T398 556ZM174 556Q137 556 112 581T87 640Q87 676 112 700T174 725Q210 725 235 701T261 640Q261 623 254 608T236 582T208 563T174 556Z" />
<glyph unicode="&#x100;" glyph-name="Amacron" horiz-adv-x="684" d="M330 558L235 285H425L330 558ZM468 162H192L136 0H11L254 695H430L673 0H524L468 162ZM161 873H523V769H161V873Z" />
<glyph unicode="&#x101;" glyph-name="amacron" horiz-adv-x="532" d="M238 91Q269 91 288 104T317 136T331 171T335 195V224H283Q227 224 201 205T175 153Q175 123 192 107T238 91ZM349 0Q346 14 344 35T339 75Q331 60 319 45T290 17T248 -2T192 -10Q161 -10
132 -1T81 26T46 71T32 135Q32 216 96 260T280 305H335V323Q335 368 312 383T240 399Q186 399 142 386T64 357V471Q99 488 151 500T267 513Q367 513 424 472T481 336V81Q481 64 482 39T485 0H349ZM104 675H428V576H104V675Z" />
<glyph unicode="&#x102;" glyph-name="Abreve" horiz-adv-x="684" d="M330 558L235 285H425L330 558ZM468 162H192L136 0H11L254 695H430L673 0H524L468 162ZM343 742Q299 742 267 755T214 789T183 839T173 900H280Q280 873 296 858T343 842Q374 842 389 857T405
900H513Q513 868 503 840T471 790T418 755T343 742Z" />
<glyph unicode="&#x103;" glyph-name="abreve" horiz-adv-x="532" d="M238 91Q269 91 288 104T317 136T331 171T335 195V224H283Q227 224 201 205T175 153Q175 123 192 107T238 91ZM349 0Q346 14 344 35T339 75Q331 60 319 45T290 17T248 -2T192 -10Q161 -10 132
-1T81 26T46 71T32 135Q32 216 96 260T280 305H335V323Q335 368 312 383T240 399Q186 399 142 386T64 357V471Q99 488 151 500T267 513Q367 513 424 472T481 336V81Q481 64 482 39T485 0H349ZM266 557Q224 557 194 569T143 603T114 651T104 709H205Q205 682 221
668T266 653Q326 653 326 709H428Q428 679 419 652T389 603T339 570T266 557Z" />
<glyph unicode="&#x104;" glyph-name="Aogonek" horiz-adv-x="684" d="M603 -182Q544 -182 512 -159T480 -97Q480 -68 494 -49T529 -16L468 162H192L136 0H11L254 695H430L673 0H656Q634 -11 616 -30T598 -73Q598 -84 606 -92T632 -101Q643 -101 651 -99T668 -94V-170Q661
-174 644 -178T603 -182ZM330 558L235 285H425L330 558Z" />
<glyph unicode="&#x105;" glyph-name="aogonek" horiz-adv-x="532" d="M434 -182Q375 -182 343 -159T311 -97Q311 -69 324 -51T355 -20Q352 -11 350 1T345 26T342 52T339 75Q331 60 319 45T290 17T248 -2T192 -10Q161 -10 132 -2T81 25T46 70T32 134Q32 215 96
259T280 303H335V323Q335 368 312 383T240 399Q186 399 142 386T64 357V471Q99 488 151 500T267 513Q367 513 424 472T481 336V81Q481 64 482 39T485 0Q465 -11 447 -30T429 -73Q429 -84 437 -92T463 -101Q474 -101 482 -99T499 -94V-170Q492 -174 475 -178T434
-182ZM238 94Q269 94 288 107T317 138T331 173T335 198V221H283Q227 221 201 203T175 152Q175 122 192 108T238 94Z" />
<glyph unicode="&#x106;" glyph-name="Cacute" horiz-adv-x="633" d="M398 -10Q314 -10 247 14T132 84T60 196T34 347Q34 431 59 497T131 609T246 679T398 704Q470 704 519 692T594 662V536Q562 557 514 569T407 582Q295 582 242 524T189 347Q189 229 242 171T408
112Q466 112 513 125T594 160V37Q568 20 520 5T398 -10ZM359 887H535L414 755H285L359 887Z" />
<glyph unicode="&#x107;" glyph-name="cacute" horiz-adv-x="498" d="M304 -10Q241 -10 190 7T103 59T48 141T29 252Q29 313 48 361T103 444T190 495T304 513Q364 513 403 501T465 471V359Q451 368 436 375T404 388T366 396T318 399Q178 399 178 252Q178 177 213
141T316 105Q344 105 365 108T404 116T436 128T465 145V32Q442 17 403 4T304 -10ZM280 724H429L307 570H202L280 724Z" />
<glyph unicode="&#x108;" glyph-name="Ccircumflex" horiz-adv-x="633" d="M398 -10Q314 -10 247 14T132 84T60 196T34 347Q34 431 59 497T131 609T246 679T398 704Q470 704 519 692T594 662V536Q562 557 514 569T407 582Q295 582 242 524T189 347Q189 229 242
171T408 112Q466 112 513 125T594 160V37Q568 20 520 5T398 -10ZM378 824L310 754H198L304 897H451L556 754H445L378 824Z" />
<glyph unicode="&#x109;" glyph-name="ccircumflex" horiz-adv-x="498" d="M304 -10Q241 -10 190 7T103 59T48 141T29 252Q29 313 48 361T103 444T190 495T304 513Q364 513 403 501T465 471V359Q451 368 436 375T404 388T366 396T318 399Q178 399 178 252Q178
177 213 141T316 105Q344 105 365 108T404 116T436 128T465 145V32Q442 17 403 4T304 -10ZM283 637L223 570H112L209 714H356L453 570H341L283 637Z" />
<glyph unicode="&#x10a;" glyph-name="Cdotaccent" horiz-adv-x="633" d="M398 -10Q314 -10 247 14T132 84T60 196T34 347Q34 431 59 497T131 609T246 679T398 704Q470 704 519 692T594 662V536Q562 557 514 569T407 582Q295 582 242 524T189 347Q189 229 242
171T408 112Q466 112 513 125T594 160V37Q568 20 520 5T398 -10ZM377 750Q359 750 344 757T316 775T297 802T290 834Q290 852 297 867T316 894T343 912T377 919Q414 919 440 895T466 834Q466 800 440 775T377 750Z" />
<glyph unicode="&#x10b;" glyph-name="cdotaccent" horiz-adv-x="498" d="M304 -10Q241 -10 190 7T103 59T48 141T29 252Q29 313 48 361T103 444T190 495T304 513Q364 513 403 501T465 471V359Q451 368 436 375T404 388T366 396T318 399Q178 399 178 252Q178 177
213 141T316 105Q344 105 365 108T404 116T436 128T465 145V32Q442 17 403 4T304 -10ZM282 556Q264 556 249 563T221 581T202 608T195 640Q195 658 202 673T221 700T248 718T282 725Q319 725 345 701T371 640Q371 606 345 581T282 556Z" />
<glyph unicode="&#x10c;" glyph-name="Ccaron" horiz-adv-x="633" d="M398 -10Q314 -10 247 14T132 84T60 196T34 347Q34 431 59 497T131 609T246 679T398 704Q470 704 519 692T594 662V536Q562 557 514 569T407 582Q295 582 242 524T189 347Q189 229 242 171T408
112Q466 112 513 125T594 160V37Q568 20 520 5T398 -10ZM305 754L199 897H311L379 827L446 897H557L452 754H305Z" />
<glyph unicode="&#x10d;" glyph-name="ccaron" horiz-adv-x="498" d="M304 -10Q241 -10 190 7T103 59T48 141T29 252Q29 313 48 361T103 444T190 495T304 513Q364 513 403 501T465 471V359Q451 368 436 375T404 388T366 396T318 399Q178 399 178 252Q178 177 213
141T316 105Q344 105 365 108T404 116T436 128T465 145V32Q442 17 403 4T304 -10ZM209 570L112 714H223L283 647L341 714H453L356 570H209Z" />
<glyph unicode="&#x10e;" glyph-name="Dcaron" horiz-adv-x="707" d="M215 572V122H302Q350 122 390 136T458 180T503 256T519 365Q519 426 504 466T461 529T395 562T311 572H215ZM65 695H303Q382 695 449 679T566 625T644 525T673 371Q673 279 645 210T566 94T446
24T294 0H65V695ZM282 754L176 897H288L356 827L423 897H534L429 754H282Z" />
<glyph unicode="&#x10f;" glyph-name="dcaron" horiz-adv-x="611" d="M296 105Q345 105 378 141T412 252Q412 327 380 363T297 399Q246 399 212 362T178 252Q178 178 211 142T296 105ZM415 87Q391 42 351 16T253 -10Q211 -10 171 6T99 54T48 136T29 252Q29 318
48 367T98 449T170 497T254 513Q309 513 347 493T411 436V695H556V0H421L415 87ZM593 512L611 695H741L685 512H593Z" />
<glyph unicode="&#x110;" glyph-name="Dcroat" horiz-adv-x="736" d="M244 297V122H331Q379 122 419 136T487 180T532 256T548 365Q548 426 533 466T489 529T423 562T340 572H244V414H397V297H244ZM94 297H5V414H94V695H332Q411 695 478 679T595 625T673 525T702
371Q702 279 674 210T595 94T475 24T323 0H94V297Z" />
<glyph unicode="&#x111;" glyph-name="dcroat" horiz-adv-x="611" d="M265 639H618V545H265V639ZM296 105Q345 105 378 141T412 252Q412 327 380 363T297 399Q246 399 212 362T178 252Q178 178 211 142T296 105ZM415 87Q391 42 351 16T253 -10Q211 -10 171 6T99
54T48 136T29 252Q29 318 48 367T98 449T170 497T254 513Q309 513 347 493T411 436V695H556V0H421L415 87Z" />
<glyph unicode="&#x112;" glyph-name="Emacron" horiz-adv-x="589" d="M65 695H536V572H215V420H486V298H215V122H541V0H65V695ZM131 873H493V769H131V873Z" />
<glyph unicode="&#x113;" glyph-name="emacron" horiz-adv-x="559" d="M293 408Q251 408 223 382T184 308H380Q382 358 360 383T293 408ZM500 30Q488 24 474 17T439 4T391 -6T325 -10Q172 -10 101 59T29 252Q29 313 48 361T101 444T184 495T290 513Q349 513 396
494T475 438T519 344T519 212H181Q189 158 223 131T332 104Q363 104 388 107T433 116T469 129T500 143V30ZM128 675H452V576H128V675Z" />
<glyph unicode="&#x114;" glyph-name="Ebreve" horiz-adv-x="589" d="M65 695H536V572H215V420H486V298H215V122H541V0H65V695ZM313 742Q269 742 237 755T184 789T153 839T143 900H250Q250 873 266 858T313 842Q344 842 359 857T375 900H483Q483 868 473 840T441
790T388 755T313 742Z" />
<glyph unicode="&#x115;" glyph-name="ebreve" horiz-adv-x="559" d="M293 408Q251 408 223 382T184 308H380Q382 358 360 383T293 408ZM500 30Q488 24 474 17T439 4T391 -6T325 -10Q172 -10 101 59T29 252Q29 313 48 361T101 444T184 495T290 513Q349 513 396
494T475 438T519 344T519 212H181Q189 158 223 131T332 104Q363 104 388 107T433 116T469 129T500 143V30ZM289 557Q247 557 217 569T166 603T137 651T127 709H228Q228 682 244 668T289 653Q349 653 349 709H451Q451 679 442 652T412 603T362 570T289 557Z" />
<glyph unicode="&#x116;" glyph-name="Edotaccent" horiz-adv-x="589" d="M65 695H536V572H215V420H486V298H215V122H541V0H65V695ZM312 750Q294 750 279 757T251 775T232 802T225 834Q225 852 232 867T251 894T278 912T312 919Q349 919 375 895T401 834Q401 800
375 775T312 750Z" />
<glyph unicode="&#x117;" glyph-name="edotaccent" horiz-adv-x="559" d="M293 408Q251 408 223 382T184 308H380Q382 358 360 383T293 408ZM500 30Q488 24 474 17T439 4T391 -6T325 -10Q172 -10 101 59T29 252Q29 313 48 361T101 444T184 495T290 513Q349 513
396 494T475 438T519 344T519 212H181Q189 158 223 131T332 104Q363 104 388 107T433 116T469 129T500 143V30ZM289 556Q271 556 256 563T228 581T209 608T202 640Q202 658 209 673T228 700T255 718T289 725Q326 725 352 701T378 640Q378 606 352 581T289 556Z"
/>
<glyph unicode="&#x118;" glyph-name="Eogonek" horiz-adv-x="589" d="M65 695H536V572H215V420H486V298H215V122H541V0H65V695ZM421 -182Q361 -182 330 -159T298 -97Q298 -76 305 -61T324 -34T351 -14T381 0H472Q452 -11 434 -30T415 -73Q415 -84 424 -92T450
-101Q461 -101 469 -99T486 -94V-170Q479 -174 462 -178T421 -182Z" />
<glyph unicode="&#x119;" glyph-name="eogonek" horiz-adv-x="559" d="M293 399Q251 399 223 376T184 307H380Q379 355 357 377T293 399ZM434 -170Q427 -174 409 -178T368 -182Q309 -182 277 -159T245 -97Q245 -63 263 -43T307 -10Q163 -6 96 63T29 252Q29 313
48 361T101 444T184 495T290 513Q349 513 396 495T475 439T519 345T519 215H180Q187 160 221 133T332 105Q363 105 388 108T433 117T469 130T500 144V30Q487 23 471 16T432 1Q401 -10 382 -29T363 -73Q363 -84 371 -92T398 -101Q415 -101 434 -94V-170Z" />
<glyph unicode="&#x11a;" glyph-name="Ecaron" horiz-adv-x="589" d="M65 695H536V572H215V420H486V298H215V122H541V0H65V695ZM239 754L133 897H245L313 827L380 897H491L386 754H239Z" />
<glyph unicode="&#x11b;" glyph-name="ecaron" horiz-adv-x="559" d="M293 408Q251 408 223 382T184 308H380Q382 358 360 383T293 408ZM500 30Q488 24 474 17T439 4T391 -6T325 -10Q172 -10 101 59T29 252Q29 313 48 361T101 444T184 495T290 513Q349 513 396
494T475 438T519 344T519 212H181Q189 158 223 131T332 104Q363 104 388 107T433 116T469 129T500 143V30ZM216 570L119 714H230L290 647L348 714H460L363 570H216Z" />
<glyph unicode="&#x11c;" glyph-name="Gcircumflex" horiz-adv-x="723" d="M688 279Q688 218 669 165T612 73T515 12T379 -10Q301 -10 238 15T129 86T59 198T34 347Q34 430 58 496T130 608T247 679T408 704Q452 704 486 699T547 687T596 669T636 649V522Q593 547
541 564T417 582Q295 582 242 521T189 347Q189 235 238 174T380 112Q460 112 497 153T537 258H360V380H688V279V279ZM375 824L307 754H195L301 897H448L553 754H442L375 824Z" />
<glyph unicode="&#x11d;" glyph-name="gcircumflex" horiz-adv-x="608" d="M293 135Q341 135 372 167T403 266Q403 333 372 366T292 399Q244 399 211 366T178 266Q178 200 211 168T293 135ZM250 -174Q201 -174 166 -167T107 -152Q80 -142 61 -130V-17Q80 -29 107
-38Q130 -46 166 -52T250 -59Q286 -59 314 -54T361 -34T391 9T402 84V105Q379 67 341 44T249 20Q205 20 166 35T95 81T46 158T28 266Q28 328 46 374T95 451T166 497T251 513Q306 513 344 491T407 429Q408 447 410 469T416 503H552Q550 490 549 465T547 423V92Q547
29 531 -20T480 -104T388 -156T250 -174ZM290 637L230 570H119L216 714H363L460 570H348L290 637Z" />
<glyph unicode="&#x11e;" glyph-name="Gbreve" horiz-adv-x="723" d="M688 279Q688 218 669 165T612 73T515 12T379 -10Q301 -10 238 15T129 86T59 198T34 347Q34 430 58 496T130 608T247 679T408 704Q452 704 486 699T547 687T596 669T636 649V522Q593 547 541
564T417 582Q295 582 242 521T189 347Q189 235 238 174T380 112Q460 112 497 153T537 258H360V380H688V279V279ZM375 742Q331 742 299 755T246 789T215 839T205 900H312Q312 873 328 858T375 842Q406 842 421 857T437 900H545Q545 868 535 840T503 790T450 755T375
742Z" />
<glyph unicode="&#x11f;" glyph-name="gbreve" horiz-adv-x="608" d="M293 135Q341 135 372 167T403 266Q403 333 372 366T292 399Q244 399 211 366T178 266Q178 200 211 168T293 135ZM250 -174Q201 -174 166 -167T107 -152Q80 -142 61 -130V-17Q80 -29 107 -38Q130
-46 166 -52T250 -59Q286 -59 314 -54T361 -34T391 9T402 84V105Q379 67 341 44T249 20Q205 20 166 35T95 81T46 158T28 266Q28 328 46 374T95 451T166 497T251 513Q306 513 344 491T407 429Q408 447 410 469T416 503H552Q550 490 549 465T547 423V92Q547 29 531
-20T480 -104T388 -156T250 -174ZM290 557Q248 557 218 569T167 603T138 651T128 709H229Q229 682 245 668T290 653Q350 653 350 709H452Q452 679 443 652T413 603T363 570T290 557Z" />
<glyph unicode="&#x120;" glyph-name="Gdotaccent" horiz-adv-x="723" d="M688 279Q688 218 669 165T612 73T515 12T379 -10Q301 -10 238 15T129 86T59 198T34 347Q34 430 58 496T130 608T247 679T408 704Q452 704 486 699T547 687T596 669T636 649V522Q593 547
541 564T417 582Q295 582 242 521T189 347Q189 235 238 174T380 112Q460 112 497 153T537 258H360V380H688V279V279ZM374 750Q356 750 341 757T313 775T294 802T287 834Q287 852 294 867T313 894T340 912T374 919Q411 919 437 895T463 834Q463 800 437 775T374
750Z" />
<glyph unicode="&#x121;" glyph-name="gdotaccent" horiz-adv-x="608" d="M293 135Q341 135 372 167T403 266Q403 333 372 366T292 399Q244 399 211 366T178 266Q178 200 211 168T293 135ZM250 -174Q201 -174 166 -167T107 -152Q80 -142 61 -130V-17Q80 -29 107
-38Q130 -46 166 -52T250 -59Q286 -59 314 -54T361 -34T391 9T402 84V105Q379 67 341 44T249 20Q205 20 166 35T95 81T46 158T28 266Q28 328 46 374T95 451T166 497T251 513Q306 513 344 491T407 429Q408 447 410 469T416 503H552Q550 490 549 465T547 423V92Q547
29 531 -20T480 -104T388 -156T250 -174ZM289 556Q271 556 256 563T228 581T209 608T202 640Q202 658 209 673T228 700T255 718T289 725Q326 725 352 701T378 640Q378 606 352 581T289 556Z" />
<glyph unicode="&#x122;" glyph-name="uni0122" horiz-adv-x="723" d="M688 279Q688 218 669 165T612 73T515 12T379 -10Q301 -10 238 15T129 86T59 198T34 347Q34 430 58 496T130 608T247 679T408 704Q452 704 486 699T547 687T596 669T636 649V522Q593 547 541
564T417 582Q295 582 242 521T189 347Q189 235 238 174T380 112Q460 112 497 153T537 258H360V380H688V279V279ZM299 -241Q316 -227 329 -212T354 -176Q331 -170 318 -153T304 -110Q304 -81 323 -62T373 -42Q405 -42 427 -60T450 -117Q450 -156 430 -187T386 -241H299Z"
/>
<glyph unicode="&#x123;" glyph-name="uni0123" horiz-adv-x="608" d="M293 135Q341 135 372 167T403 266Q403 333 372 366T292 399Q244 399 211 366T178 266Q178 200 211 168T293 135ZM250 -174Q201 -174 166 -167T107 -152Q80 -142 61 -130V-17Q80 -29 107 -38Q130
-46 166 -52T250 -59Q286 -59 314 -54T361 -34T391 9T402 84V105Q379 67 341 44T249 20Q205 20 166 35T95 81T46 158T28 266Q28 328 46 374T95 451T166 497T251 513Q306 513 344 491T407 429Q408 447 410 469T416 503H552Q550 490 549 465T547 423V92Q547 29 531
-20T480 -104T388 -156T250 -174ZM290 580Q258 580 236 599T214 656Q214 694 234 725T278 779H364Q347 765 334 750T310 715Q333 709 346 692T360 648Q360 619 341 600T290 580Z" />
<glyph unicode="&#x124;" glyph-name="Hcircumflex" horiz-adv-x="719" d="M503 285H215V0H65V695H215V407H503V695H653V0H503V285ZM359 824L291 754H179L285 897H432L537 754H426L359 824Z" />
<glyph unicode="&#x125;" glyph-name="hcircumflex" horiz-adv-x="580" d="M311 399Q273 399 246 385T201 348V0H55V695H201V517L200 430H201Q223 465 260 489T358 513Q394 513 425 503T480 473T517 423T530 351V0H384V337Q384 371 365 385T311 399ZM304 824L236
754H124L230 897H377L482 754H371L304 824Z" />
<glyph unicode="&#x126;" glyph-name="Hbar" horiz-adv-x="748" d="M-1 586H749V478H-1V586ZM518 285H230V0H80V695H230V407H518V695H668V0H518V285Z" />
<glyph unicode="&#x127;" glyph-name="hbar" horiz-adv-x="580" d="M-7 639H347V545H-7V639ZM311 399Q273 399 246 385T201 348V0H55V695H201V517L200 430H201Q223 465 260 489T358 513Q394 513 425 503T480 473T517 423T530 351V0H384V337Q384 371 365 385T311 399Z" />
<glyph unicode="&#x128;" glyph-name="Itilde" horiz-adv-x="281" d="M215 695V0H65V695H215ZM214 744Q207 777 210 806T226 856T261 889T314 901Q339 901 359 895T395 881T426 867T455 860Q475 860 484 871T491 908H576Q583 875 580 846T564 796T529 763T477
751Q452 751 433 757T397 771T365 785T335 792Q316 792 307 782T300 744H214V744Z" />
<glyph unicode="&#x129;" glyph-name="itilde" horiz-adv-x="258" d="M202 503V0H56V503H202ZM221 566Q216 593 220 618T236 664T270 696T320 708Q342 708 359 702T392 688T420 674T449 667Q464 667 472 676T478 715H550Q554 688 551 663T535 617T501 584T450
572Q428 572 411 578T380 592T351 606T322 613Q308 613 300 604T293 566H221V566Z" />
<glyph unicode="&#x12a;" glyph-name="Imacron" horiz-adv-x="281" d="M215 695V0H65V695H215ZM214 873H576V769H214V873Z" />
<glyph unicode="&#x12b;" glyph-name="imacron" horiz-adv-x="258" d="M4 675H255V576H4V675ZM202 503V0H56V503H202Z" />
<glyph unicode="&#x12c;" glyph-name="Ibreve" horiz-adv-x="281" d="M215 695V0H65V695H215ZM396 742Q352 742 320 755T267 789T236 839T226 900H333Q333 873 349 858T396 842Q427 842 442 857T458 900H566Q566 868 556 840T524 790T471 755T396 742Z" />
<glyph unicode="&#x12d;" glyph-name="ibreve" horiz-adv-x="258" d="M202 503V0H56V503H202ZM386 557Q344 557 314 569T263 603T234 651T224 709H325Q325 682 341 668T386 653Q446 653 446 709H548Q548 679 539 652T509 603T459 570T386 557Z" />
<glyph unicode="&#x12e;" glyph-name="Iogonek" horiz-adv-x="281" d="M164 -182Q105 -182 73 -159T41 -97Q41 -76 48 -61T68 -34T94 -14T124 0L65 -1V695H215V0Q195 -11 177 -30T159 -73Q159 -84 167 -92T193 -101Q204 -101 212 -99T229 -94V-170Q222 -174 205
-178T164 -182Z" />
<glyph unicode="&#x12f;" glyph-name="iogonek" horiz-adv-x="258" d="M129 556Q92 556 67 581T41 640Q41 676 66 700T129 725Q147 725 163 719T191 701T210 674T217 640Q217 623 210 608T191 582T163 563T129 556ZM144 -182Q85 -182 53 -159T21 -97Q21 -76 28
-61T48 -34T74 -14T104 0L56 -1V503H202V0H195Q175 -11 157 -30T139 -73Q139 -84 147 -92T174 -101Q184 -101 192 -99T209 -94V-170Q202 -174 185 -178T144 -182Z" />
<glyph unicode="&#x130;" glyph-name="Idotaccent" horiz-adv-x="281" d="M215 695V0H65V695H215ZM395 750Q377 750 362 757T334 775T315 802T308 834Q308 852 315 867T334 894T361 912T395 919Q432 919 458 895T484 834Q484 800 458 775T395 750Z" />
<glyph unicode="&#x131;" glyph-name="dotlessi" horiz-adv-x="258" d="M202 503V0H56V503H202Z" />
<glyph unicode="&#x132;" glyph-name="IJ" horiz-adv-x="657" d="M215 695V0H65V695H215ZM599 695V165Q599 128 588 96T552 41T491 4T402 -10Q374 -10 344 -6T286 12V134Q310 122 328 117T369 112Q396 112 412 119T438 138T450 167T453 204V695H599Z" />
<glyph unicode="&#x133;" glyph-name="ij" horiz-adv-x="509" d="M129 556Q92 556 67 581T41 640Q41 676 66 700T129 725Q147 725 163 719T191 701T210 674T217 640Q217 623 210 608T191 582T163 563T129 556ZM202 503V0H56V503H202ZM380 556Q362 556 346 563T318
581T299 608T292 640Q292 676 318 700T380 725Q417 725 443 701T469 640Q469 606 443 581T380 556ZM453 -15Q453 -94 405 -137T268 -181Q242 -181 218 -177T171 -161V-47Q183 -58 200 -62T237 -67Q277 -67 293 -48T309 4V503H453V-15Z" />
<glyph unicode="&#x134;" glyph-name="Jcircumflex" horiz-adv-x="400" d="M341 695V165Q341 128 330 96T294 41T233 4T144 -10Q116 -10 86 -6T28 12V134Q52 122 70 117T111 112Q138 112 154 119T180 138T192 167T195 204V695H341ZM269 824L201 754H89L195 897H342L447
754H336L269 824Z" />
<glyph unicode="&#x135;" glyph-name="jcircumflex" horiz-adv-x="271" d="M216 -15Q216 -94 168 -137T31 -181Q5 -181 -19 -177T-66 -161V-47Q-54 -58 -37 -62T0 -67Q40 -67 56 -48T72 4V503H216V-15ZM401 637L341 570H230L327 714H474L571 570H459L401 637Z" />
<glyph unicode="&#x136;" glyph-name="uni0136" horiz-adv-x="658" d="M277 278H215V0H65V695H215V401H284L485 695H639L402 348L649 0H473L277 278ZM239 -241Q256 -227 269 -212T294 -176Q271 -170 258 -153T244 -110Q244 -81 263 -62T313 -42Q345 -42 367 -60T390
-117Q390 -156 370 -187T326 -241H239Z" />
<glyph unicode="&#x137;" glyph-name="uni0137" horiz-adv-x="543" d="M243 192H201V0H55V695H201V305H245L386 503H529L358 264L543 0H378L243 192ZM195 -241Q212 -227 225 -212T250 -176Q227 -170 214 -153T200 -110Q200 -81 219 -62T269 -42Q301 -42 323 -60T346
-117Q346 -156 326 -187T282 -241H195Z" />
<glyph unicode="&#x139;" glyph-name="Lacute" horiz-adv-x="540" d="M65 695H215V122H509V0H65V695ZM393 887H569L448 755H319L393 887Z" />
<glyph unicode="&#x13a;" glyph-name="lacute" horiz-adv-x="257" d="M201 695V0H55V695H201ZM365 887H541L420 755H291L365 887Z" />
<glyph unicode="&#x13b;" glyph-name="uni013B" horiz-adv-x="540" d="M65 695H215V122H509V0H65V695ZM206 -241Q223 -227 236 -212T261 -176Q238 -170 225 -153T211 -110Q211 -81 230 -62T280 -42Q312 -42 334 -60T357 -117Q357 -156 337 -187T293 -241H206Z" />
<glyph unicode="&#x13c;" glyph-name="uni013C" horiz-adv-x="257" d="M201 695V0H55V695H201ZM310 -241Q327 -227 340 -212T365 -176Q342 -170 329 -153T315 -110Q315 -81 334 -62T384 -42Q416 -42 438 -60T461 -117Q461 -156 441 -187T397 -241H310Z" />
<glyph unicode="&#x13d;" glyph-name="Lcaron" horiz-adv-x="540" d="M65 695H215V122H509V0H65V695ZM264 512L282 695H412L356 512H264Z" />
<glyph unicode="&#x13e;" glyph-name="lcaron" horiz-adv-x="257" d="M201 695V0H55V695H201ZM237 512L255 695H385L329 512H237Z" />
<glyph unicode="&#x13f;" glyph-name="Ldot" horiz-adv-x="564" d="M65 695H215V122H509V0H65V695ZM469 288Q449 288 432 295T402 315T382 345T375 380Q375 399 382 416T402 445T432 465T469 472Q489 472 506 465T536 446T556 416T564 380Q564 362 557 345T537
316T507 296T469 288Z" />
<glyph unicode="&#x140;" glyph-name="ldot" horiz-adv-x="445" d="M201 695V0H55V695H201ZM352 264Q333 264 317 271T288 290T269 318T262 352Q262 370 269 386T288 415T316 433T352 440Q371 440 387 434T416 415T435 387T443 352Q443 335 436 319T416 291T388
272T352 264Z" />
<glyph unicode="&#x141;" glyph-name="Lslash" horiz-adv-x="539" d="M-3 288L391 521V398L-3 165V288ZM65 695H215V122H509V0H65V695Z" />
<glyph unicode="&#x142;" glyph-name="lslash" horiz-adv-x="327" d="M17 292L310 523V402L17 171V292ZM237 695V0H91V695H237Z" />
<glyph unicode="&#x143;" glyph-name="Nacute" horiz-adv-x="716" d="M197 508V0H65V695H255L519 192V695H650V0H464L197 508ZM352 887H528L407 755H278L352 887Z" />
<glyph unicode="&#x144;" glyph-name="nacute" horiz-adv-x="580" d="M311 399Q273 399 246 385T201 348V0H55V503H192L198 431H200Q221 466 259 489T358 513Q394 513 425 503T480 473T517 423T530 351V0H384V337Q384 371 365 385T311 399ZM296 724H445L323 570H218L296
724Z" />
<glyph unicode="&#x145;" glyph-name="uni0145" horiz-adv-x="716" d="M197 508V0H65V695H255L519 192V695H650V0H464L197 508ZM295 -241Q312 -227 325 -212T350 -176Q327 -170 314 -153T300 -110Q300 -81 319 -62T369 -42Q401 -42 423 -60T446 -117Q446 -156
426 -187T382 -241H295Z" />
<glyph unicode="&#x146;" glyph-name="uni0146" horiz-adv-x="580" d="M311 399Q273 399 246 385T201 348V0H55V503H192L198 431H200Q221 466 259 489T358 513Q394 513 425 503T480 473T517 423T530 351V0H384V337Q384 371 365 385T311 399ZM221 -241Q238 -227
251 -212T276 -176Q253 -170 240 -153T226 -110Q226 -81 245 -62T295 -42Q327 -42 349 -60T372 -117Q372 -156 352 -187T308 -241H221Z" />
<glyph unicode="&#x147;" glyph-name="Ncaron" horiz-adv-x="716" d="M197 508V0H65V695H255L519 192V695H650V0H464L197 508ZM297 754L191 897H303L371 827L438 897H549L444 754H297Z" />
<glyph unicode="&#x148;" glyph-name="ncaron" horiz-adv-x="580" d="M311 399Q273 399 246 385T201 348V0H55V503H192L198 431H200Q221 466 259 489T358 513Q394 513 425 503T480 473T517 423T530 351V0H384V337Q384 371 365 385T311 399ZM224 570L127 714H238L298
647L356 714H468L371 570H224Z" />
<glyph unicode="&#x149;" glyph-name="napostrophe" horiz-adv-x="588" d="M341 399Q303 399 276 385T231 348V0H85V503H222L228 431H230Q251 466 289 489T388 513Q424 513 455 503T510 473T547 423T560 351V0H414V337Q414 371 395 385T341 399ZM185 432Q208 455
227 481T254 542Q220 551 207 572T193 619Q193 654 216 677T281 701Q322 701 346 676T371 603Q371 577 364 553T343 506T314 466T281 432H185Z" />
<glyph unicode="&#x14a;" glyph-name="Eng" horiz-adv-x="716" d="M452 -193Q425 -193 395 -189T337 -173V-51Q361 -62 380 -66T422 -71Q476 -71 495 -52T518 0H464L197 508V0H65V695H255L519 192V695H650V-18Q650 -55 639 -87T603 -142T542 -179T452 -193Z" />
<glyph unicode="&#x14b;" glyph-name="eng" horiz-adv-x="579" d="M343 -181Q317 -181 294 -177T247 -161V-47Q259 -58 276 -62T313 -67Q353 -67 368 -48T384 4V337Q384 371 365 385T311 399Q273 399 246 385T201 348V0H55V503H192L198 431H200Q221 466 259 489T358
513Q394 513 425 503T480 473T517 423T530 351V-16Q530 -94 481 -137T343 -181Z" />
<glyph unicode="&#x14c;" glyph-name="Omacron" horiz-adv-x="753" d="M376 -10Q304 -10 242 13T133 80T61 191T34 345Q34 432 60 499T133 611T241 680T376 704Q448 704 510 682T619 614T693 503T720 350Q720 263 693 196T620 83T511 14T376 -10ZM376 112Q416
112 451 124T511 165T550 238T565 347Q565 411 551 456T511 529T451 569T376 582Q336 582 302 570T242 529T203 456T189 347Q189 283 203 238T242 165T301 125T376 112ZM195 873H557V769H195V873Z" />
<glyph unicode="&#x14d;" glyph-name="omacron" horiz-adv-x="574" d="M286 -10Q232 -10 185 7T104 57T49 139T29 252Q29 315 49 364T103 446T185 496T286 513Q341 513 388 496T471 446T526 364T546 252Q546 188 526 139T471 57T389 7T286 -10ZM286 105Q334 105
365 141T396 252Q396 327 365 363T286 399Q240 399 209 363T178 252Q178 177 209 141T286 105ZM127 675H451V576H127V675Z" />
<glyph unicode="&#x14e;" glyph-name="Obreve" horiz-adv-x="753" d="M376 -10Q304 -10 242 13T133 80T61 191T34 345Q34 432 60 499T133 611T241 680T376 704Q448 704 510 682T619 614T693 503T720 350Q720 263 693 196T620 83T511 14T376 -10ZM376 112Q416 112
451 124T511 165T550 238T565 347Q565 411 551 456T511 529T451 569T376 582Q336 582 302 570T242 529T203 456T189 347Q189 283 203 238T242 165T301 125T376 112ZM377 742Q333 742 301 755T248 789T217 839T207 900H314Q314 873 330 858T377 842Q408 842 423
857T439 900H547Q547 868 537 840T505 790T452 755T377 742Z" />
<glyph unicode="&#x14f;" glyph-name="obreve" horiz-adv-x="574" d="M286 -10Q232 -10 185 7T104 57T49 139T29 252Q29 315 49 364T103 446T185 496T286 513Q341 513 388 496T471 446T526 364T546 252Q546 188 526 139T471 57T389 7T286 -10ZM286 105Q334 105
365 141T396 252Q396 327 365 363T286 399Q240 399 209 363T178 252Q178 177 209 141T286 105ZM289 557Q247 557 217 569T166 603T137 651T127 709H228Q228 682 244 668T289 653Q349 653 349 709H451Q451 679 442 652T412 603T362 570T289 557Z" />
<glyph unicode="&#x150;" glyph-name="Ohungarumlaut" horiz-adv-x="753" d="M376 -10Q304 -10 242 13T133 80T61 191T34 345Q34 432 60 499T133 611T241 680T376 704Q448 704 510 682T619 614T693 503T720 350Q720 263 693 196T620 83T511 14T376 -10ZM376 112Q416
112 451 124T511 165T550 238T565 347Q565 411 551 456T511 529T451 569T376 582Q336 582 302 570T242 529T203 456T189 347Q189 283 203 238T242 165T301 125T376 112ZM413 755L453 887H598L512 755H413ZM225 755L264 887H411L323 755H225Z" />
<glyph unicode="&#x151;" glyph-name="ohungarumlaut" horiz-adv-x="574" d="M286 -10Q232 -10 185 7T104 57T49 139T29 252Q29 315 49 364T103 446T185 496T286 513Q341 513 388 496T471 446T526 364T546 252Q546 188 526 139T471 57T389 7T286 -10ZM286 105Q334
105 365 141T396 252Q396 327 365 363T286 399Q240 399 209 363T178 252Q178 177 209 141T286 105ZM311 570L367 724H496L414 570H311ZM145 570L201 724H330L247 570H145Z" />
<glyph unicode="&#x152;" glyph-name="OE" horiz-adv-x="994" d="M471 122V572H398Q353 572 315 561T249 524T205 456T189 352Q189 289 205 245T249 174T318 135T407 122H471ZM415 0Q332 0 263 21T142 87T63 199T34 358Q34 450 62 514T141 619T259 677T406 695H941V572H620V420H891V298H620V122H946V0H415Z"
/>
<glyph unicode="&#x153;" glyph-name="oe" horiz-adv-x="926" d="M660 405Q618 405 590 381T552 308H747Q749 358 727 381T660 405ZM286 105Q334 105 365 141T396 252Q396 327 365 363T286 399Q240 399 209 363T178 252Q178 177 209 141T286 105ZM867 30Q855 24
841 17T807 4T761 -6T699 -10Q616 -10 560 13T470 81Q438 36 389 13T278 -10Q227 -10 182 7T102 57T49 139T29 252Q29 315 48 364T102 446T181 496T278 513Q340 513 389 490T471 422Q503 467 552 490T665 513Q721 513 767 494T844 438T887 344T887 213H548Q556
159 590 132T699 105Q730 105 755 108T800 117T836 130T867 144V30Z" />
<glyph unicode="&#x154;" glyph-name="Racute" horiz-adv-x="649" d="M215 572V382H315Q379 382 412 403T446 478Q446 530 413 551T314 572H215ZM299 266H215V0H65V695H314Q455 695 525 644T595 478Q595 396 560 350T460 284L627 0H455L299 266ZM306 887H482L361
755H232L306 887Z" />
<glyph unicode="&#x155;" glyph-name="racute" horiz-adv-x="395" d="M371 367Q315 374 271 360T201 317V0H55V503H192L198 403H200Q228 454 272 482T371 513V367V367ZM224 724H373L251 570H146L224 724Z" />
<glyph unicode="&#x156;" glyph-name="uni0156" horiz-adv-x="649" d="M215 572V382H315Q379 382 412 403T446 478Q446 530 413 551T314 572H215ZM299 266H215V0H65V695H314Q455 695 525 644T595 478Q595 396 560 350T460 284L627 0H455L299 266ZM250 -241Q267
-227 280 -212T305 -176Q282 -170 269 -153T255 -110Q255 -81 274 -62T324 -42Q356 -42 378 -60T401 -117Q401 -156 381 -187T337 -241H250Z" />
<glyph unicode="&#x157;" glyph-name="uni0157" horiz-adv-x="395" d="M371 367Q315 374 271 360T201 317V0H55V503H192L198 403H200Q228 454 272 482T371 513V367V367ZM151 -241Q168 -227 181 -212T206 -176Q183 -170 170 -153T156 -110Q156 -81 175 -62T225
-42Q257 -42 279 -60T302 -117Q302 -156 282 -187T238 -241H151Z" />
<glyph unicode="&#x158;" glyph-name="Rcaron" horiz-adv-x="649" d="M215 572V382H315Q379 382 412 403T446 478Q446 530 413 551T314 572H215ZM299 266H215V0H65V695H314Q455 695 525 644T595 478Q595 396 560 350T460 284L627 0H455L299 266ZM251 754L145 897H257L325
827L392 897H503L398 754H251Z" />
<glyph unicode="&#x159;" glyph-name="rcaron" horiz-adv-x="395" d="M371 367Q315 374 271 360T201 317V0H55V503H192L198 403H200Q228 454 272 482T371 513V367V367ZM152 570L55 714H166L226 647L284 714H396L299 570H152Z" />
<glyph unicode="&#x15a;" glyph-name="Sacute" horiz-adv-x="578" d="M270 -10Q228 -10 194 -5T133 10T85 29T48 51V174Q63 163 86 152T139 132T200 118T266 112Q297 112 322 115T365 127T393 150T403 186Q403 210 393 226T363 253T318 271T259 285Q221 294 183
307T113 344T63 405T43 499Q43 550 63 588T120 652T208 691T323 704Q397 704 442 690T510 662V539Q480 559 435 570T330 582Q192 582 192 510Q192 488 202 474T231 451T273 436T324 424Q365 415 406 402T479 366T532 305T553 207Q553 142 529 101T466 34T375 0T270
-10ZM276 887H452L331 755H202L276 887Z" />
<glyph unicode="&#x15b;" glyph-name="sacute" horiz-adv-x="461" d="M226 -10Q190 -10 160 -4T106 10T65 28T39 46V150Q49 142 65 133T104 116T155 103T219 97Q245 97 261 100T287 110T300 125T304 144Q304 162 295 171T270 185T234 192T192 199Q165 204 137
213T87 239T50 283T36 351Q36 427 90 470T247 513Q307 513 347 500T404 474V371Q384 385 348 396T254 408Q201 408 183 396T164 364Q164 349 173 341T197 329T233 322T275 316Q302 312 330 304T381 278T418 231T433 159Q433 112 416 80T369 27T303 -1T226 -10ZM230
724H379L257 570H152L230 724Z" />
<glyph unicode="&#x15c;" glyph-name="Scircumflex" horiz-adv-x="578" d="M270 -10Q228 -10 194 -5T133 10T85 29T48 51V174Q63 163 86 152T139 132T200 118T266 112Q297 112 322 115T365 127T393 150T403 186Q403 210 393 226T363 253T318 271T259 285Q221 294
183 307T113 344T63 405T43 499Q43 550 63 588T120 652T208 691T323 704Q397 704 442 690T510 662V539Q480 559 435 570T330 582Q192 582 192 510Q192 488 202 474T231 451T273 436T324 424Q365 415 406 402T479 366T532 305T553 207Q553 142 529 101T466 34T375
0T270 -10ZM295 824L227 754H115L221 897H368L473 754H362L295 824Z" />
<glyph unicode="&#x15d;" glyph-name="scircumflex" horiz-adv-x="461" d="M226 -10Q190 -10 160 -4T106 10T65 28T39 46V150Q49 142 65 133T104 116T155 103T219 97Q245 97 261 100T287 110T300 125T304 144Q304 162 295 171T270 185T234 192T192 199Q165 204
137 213T87 239T50 283T36 351Q36 427 90 470T247 513Q307 513 347 500T404 474V371Q384 385 348 396T254 408Q201 408 183 396T164 364Q164 349 173 341T197 329T233 322T275 316Q302 312 330 304T381 278T418 231T433 159Q433 112 416 80T369 27T303 -1T226 -10ZM232
637L172 570H61L158 714H305L402 570H290L232 637Z" />
<glyph unicode="&#x15e;" glyph-name="uni015E" horiz-adv-x="578" d="M270 -10Q228 -10 194 -5T133 10T85 29T48 51V174Q63 163 86 152T139 132T200 118T266 112Q297 112 322 115T365 127T393 150T403 186Q403 210 393 226T363 253T318 271T259 285Q221 294 183
307T113 344T63 405T43 499Q43 550 63 588T120 652T208 691T323 704Q397 704 442 690T510 662V539Q480 559 435 570T330 582Q192 582 192 510Q192 488 202 474T231 451T273 436T324 424Q365 415 406 402T479 366T532 305T553 207Q553 142 529 101T466 34T375 0T270
-10ZM368 19L312 -181H169L257 19H368Z" />
<glyph unicode="&#x15f;" glyph-name="uni015F" horiz-adv-x="461" d="M226 -10Q190 -10 160 -4T106 10T65 28T39 46V150Q49 142 65 133T104 116T155 103T219 97Q245 97 261 100T287 110T300 125T304 144Q304 162 295 171T270 185T234 192T192 199Q165 204 137
213T87 239T50 283T36 351Q36 427 90 470T247 513Q307 513 347 500T404 474V371Q384 385 348 396T254 408Q201 408 183 396T164 364Q164 349 173 341T197 329T233 322T275 316Q302 312 330 304T381 278T418 231T433 159Q433 112 416 80T369 27T303 -1T226 -10ZM307
19L251 -181H108L196 19H307Z" />
<glyph unicode="&#x160;" glyph-name="Scaron" horiz-adv-x="578" d="M270 -10Q228 -10 194 -5T133 10T85 29T48 51V174Q63 163 86 152T139 132T200 118T266 112Q297 112 322 115T365 127T393 150T403 186Q403 210 393 226T363 253T318 271T259 285Q221 294 183
307T113 344T63 405T43 499Q43 550 63 588T120 652T208 691T323 704Q397 704 442 690T510 662V539Q480 559 435 570T330 582Q192 582 192 510Q192 488 202 474T231 451T273 436T324 424Q365 415 406 402T479 366T532 305T553 207Q553 142 529 101T466 34T375 0T270
-10ZM221 754L115 897H227L295 827L362 897H473L368 754H221Z" />
<glyph unicode="&#x161;" glyph-name="scaron" horiz-adv-x="461" d="M226 -10Q190 -10 160 -4T106 10T65 28T39 46V150Q49 142 65 133T104 116T155 103T219 97Q245 97 261 100T287 110T300 125T304 144Q304 162 295 171T270 185T234 192T192 199Q165 204 137
213T87 239T50 283T36 351Q36 427 90 470T247 513Q307 513 347 500T404 474V371Q384 385 348 396T254 408Q201 408 183 396T164 364Q164 349 173 341T197 329T233 322T275 316Q302 312 330 304T381 278T418 231T433 159Q433 112 416 80T369 27T303 -1T226 -10ZM156
570L59 714H170L230 647L288 714H400L303 570H156Z" />
<glyph unicode="&#x162;" glyph-name="Tcommaaccent" horiz-adv-x="598" d="M374 572V0H224V572H17V695H580V572H374ZM223 -241Q240 -227 253 -212T278 -176Q255 -170 242 -153T228 -110Q228 -81 247 -62T297 -42Q329 -42 351 -60T374 -117Q374 -156 354 -187T310
-241H223Z" />
<glyph unicode="&#x163;" glyph-name="tcommaaccent" horiz-adv-x="391" d="M355 21Q335 8 306 -1T235 -10Q190 -10 160 2T111 35T85 86T77 148V390H17V503H77V609H222V503H364V390H222V164Q222 134 234 120T276 105Q304 105 323 113T355 135V21V21ZM381 -241Q398
-227 411 -212T436 -176Q413 -170 400 -153T386 -110Q386 -81 405 -62T455 -42Q487 -42 509 -60T532 -117Q532 -156 512 -187T468 -241H381Z" />
<glyph unicode="&#x164;" glyph-name="Tcaron" horiz-adv-x="598" d="M374 572V0H224V572H17V695H580V572H374ZM226 754L120 897H232L300 827L367 897H478L373 754H226Z" />
<glyph unicode="&#x165;" glyph-name="tcaron" horiz-adv-x="391" d="M355 21Q335 8 306 -1T235 -10Q190 -10 160 2T111 35T85 86T77 148V390H17V503H77V609H222V503H364V390H222V164Q222 134 234 120T276 105Q304 105 323 113T355 135V21V21ZM266 553L284 736H414L358
553H266Z" />
<glyph unicode="&#x166;" glyph-name="Tbar" horiz-adv-x="565" d="M85 427H513V318H85V427ZM374 572V0H224V572H17V695H580V572H374Z" />
<glyph unicode="&#x167;" glyph-name="tbar" horiz-adv-x="391" d="M17 316H364V217H17V316ZM355 21Q335 8 306 -1T235 -10Q190 -10 160 2T111 35T85 86T77 148V390H17V503H77V609H222V503H364V390H222V164Q222 134 234 120T276 105Q304 105 323 113T355 135V21V21Z" />
<glyph unicode="&#x168;" glyph-name="Utilde" horiz-adv-x="661" d="M50 695H201V257Q201 184 239 148T343 112Q408 112 443 148T479 257V695H610V247Q610 185 591 138T537 57T451 7T337 -10Q276 -10 224 6T133 55T72 134T50 243V695ZM161 744Q154 777 157 806T173
856T208 889T261 901Q286 901 306 895T342 881T373 867T402 860Q422 860 431 871T438 908H523Q530 875 527 846T511 796T476 763T424 751Q399 751 380 757T344 771T312 785T282 792Q263 792 254 782T247 744H161V744Z" />
<glyph unicode="&#x169;" glyph-name="utilde" horiz-adv-x="574" d="M374 73Q354 38 316 14T216 -10Q144 -10 97 32T50 159V503H198V167Q198 130 218 118T268 105Q304 105 330 118T373 155V503H517V0H382L376 73H374V73ZM124 566Q119 593 123 618T139 664T173
696T223 708Q245 708 262 702T295 688T323 674T352 667Q367 667 375 676T381 715H453Q457 688 454 663T438 617T404 584T353 572Q331 572 314 578T283 592T254 606T225 613Q211 613 203 604T196 566H124V566Z" />
<glyph unicode="&#x16a;" glyph-name="Umacron" horiz-adv-x="661" d="M50 695H201V257Q201 184 239 148T343 112Q408 112 443 148T479 257V695H610V247Q610 185 591 138T537 57T451 7T337 -10Q276 -10 224 6T133 55T72 134T50 243V695ZM161 873H523V769H161V873Z" />
<glyph unicode="&#x16b;" glyph-name="umacron" horiz-adv-x="574" d="M374 73Q354 38 316 14T216 -10Q144 -10 97 32T50 159V503H198V167Q198 130 218 118T268 105Q304 105 330 118T373 155V503H517V0H382L376 73H374V73ZM127 675H451V576H127V675Z" />
<glyph unicode="&#x16c;" glyph-name="Ubreve" horiz-adv-x="661" d="M50 695H201V257Q201 184 239 148T343 112Q408 112 443 148T479 257V695H610V247Q610 185 591 138T537 57T451 7T337 -10Q276 -10 224 6T133 55T72 134T50 243V695ZM343 742Q299 742 267 755T214
789T183 839T173 900H280Q280 873 296 858T343 842Q374 842 389 857T405 900H513Q513 868 503 840T471 790T418 755T343 742Z" />
<glyph unicode="&#x16d;" glyph-name="ubreve" horiz-adv-x="574" d="M374 73Q354 38 316 14T216 -10Q144 -10 97 32T50 159V503H198V167Q198 130 218 118T268 105Q304 105 330 118T373 155V503H517V0H382L376 73H374V73ZM289 557Q247 557 217 569T166 603T137
651T127 709H228Q228 682 244 668T289 653Q349 653 349 709H451Q451 679 442 652T412 603T362 570T289 557Z" />
<glyph unicode="&#x16e;" glyph-name="Uring" horiz-adv-x="661" d="M50 695H201V257Q201 184 239 148T343 112Q408 112 443 148T479 257V695H610V247Q610 185 591 138T537 57T451 7T337 -10Q276 -10 224 6T133 55T72 134T50 243V695ZM341 735Q315 735 292 744T251
770T224 810T214 861Q214 889 224 912T251 951T291 977T341 987Q368 987 391 978T431 952T458 912T468 861Q468 834 458 811T431 771T391 745T341 735ZM341 813Q362 813 375 826T389 861Q389 882 376 896T341 911Q320 911 308 897T295 861Q295 840 307 827T341
813Z" />
<glyph unicode="&#x16f;" glyph-name="uring" horiz-adv-x="574" d="M374 73Q354 38 316 14T216 -10Q144 -10 97 32T50 159V503H198V167Q198 130 218 118T268 105Q304 105 330 118T373 155V503H517V0H382L376 73H374V73ZM288 551Q262 551 239 560T198 586T171
626T161 677Q161 705 171 728T198 768T238 794T288 804Q315 804 338 795T378 768T405 728T415 677Q415 650 405 627T378 587T338 561T288 551ZM288 629Q309 629 322 642T336 677Q336 699 323 713T288 727Q267 727 255 713T242 677Q242 656 254 643T288 629Z" />
<glyph unicode="&#x170;" glyph-name="Uhungarumlaut" horiz-adv-x="661" d="M50 695H201V257Q201 184 239 148T343 112Q408 112 443 148T479 257V695H610V247Q610 185 591 138T537 57T451 7T337 -10Q276 -10 224 6T133 55T72 134T50 243V695ZM379 755L419 887H564L478
755H379ZM191 755L230 887H377L289 755H191Z" />
<glyph unicode="&#x171;" glyph-name="uhungarumlaut" horiz-adv-x="574" d="M374 73Q354 38 316 14T216 -10Q144 -10 97 32T50 159V503H198V167Q198 130 218 118T268 105Q304 105 330 118T373 155V503H517V0H382L376 73H374V73ZM311 570L367 724H496L414 570H311ZM145
570L201 724H330L247 570H145Z" />
<glyph unicode="&#x172;" glyph-name="Uogonek" horiz-adv-x="661" d="M381 -182Q322 -182 290 -159T258 -97Q258 -62 278 -42T324 -10Q265 -8 215 9T128 58T71 136T50 243V695H201V257Q201 184 239 148T343 112Q408 112 443 148T479 257V695H610V247Q610 154
568 94T450 5Q415 -8 396 -28T376 -73Q376 -84 384 -92T410 -101Q421 -101 429 -99T446 -94V-170Q439 -174 422 -178T381 -182Z" />
<glyph unicode="&#x173;" glyph-name="uogonek" horiz-adv-x="574" d="M467 -182Q407 -182 375 -159T343 -97Q343 -70 355 -52T387 -20L376 73H374Q354 38 316 14T216 -10Q144 -10 97 32T50 159V503H198V167Q198 130 218 118T268 105Q304 105 330 118T373 155V503H517V0Q497
-11 479 -30T461 -73Q461 -84 469 -92T496 -101Q513 -101 532 -94V-170Q525 -174 508 -178T467 -182Z" />
<glyph unicode="&#x174;" glyph-name="Wcircumflex" horiz-adv-x="967" d="M18 695H171L273 165L415 695H567L709 169L819 695H949L803 0H611L483 485L356 0H164L18 695ZM485 824L417 754H305L411 897H558L663 754H552L485 824Z" />
<glyph unicode="&#x175;" glyph-name="wcircumflex" horiz-adv-x="809" d="M19 503H165L238 127L340 503H482L583 126L656 503H789L685 0H487L403 325L321 0H124L19 503ZM405 637L345 570H234L331 714H478L575 570H463L405 637Z" />
<glyph unicode="&#x176;" glyph-name="Ycircumflex" horiz-adv-x="593" d="M222 0V294L-1 695H163L307 421L457 695H594L372 291V0H222ZM316 824L248 754H136L242 897H389L494 754H383L316 824Z" />
<glyph unicode="&#x177;" glyph-name="ycircumflex" horiz-adv-x="539" d="M133 -181Q102 -181 79 -177T32 -161V-37Q50 -49 75 -57T130 -66Q160 -66 178 -56T209 -27L10 503H163L281 154L396 503H530L356 6Q339 -40 321 -75T278 -133T218 -169T133 -181ZM287
637L227 570H116L213 714H360L457 570H345L287 637Z" />
<glyph unicode="&#x178;" glyph-name="Ydieresis" horiz-adv-x="593" d="M222 0V294L-1 695H163L307 421L457 695H594L372 291V0H222ZM442 750Q405 750 379 775T353 834Q353 870 379 894T442 919Q478 919 504 895T530 834Q530 817 523 802T504 776T476 757T442
750ZM188 750Q170 750 155 757T128 775T109 802T102 834Q102 870 127 894T188 919Q226 919 251 895T277 834Q277 800 252 775T188 750Z" />
<glyph unicode="&#x179;" glyph-name="Zacute" horiz-adv-x="604" d="M34 0V110L390 572H45V695H569V583L210 122H570V0H34ZM287 887H463L342 755H213L287 887Z" />
<glyph unicode="&#x17a;" glyph-name="zacute" horiz-adv-x="481" d="M33 0V100L273 394H41V503H451V412L210 110H451V0H33ZM249 724H398L276 570H171L249 724Z" />
<glyph unicode="&#x17b;" glyph-name="Zdotaccent" horiz-adv-x="604" d="M34 0V110L390 572H45V695H569V583L210 122H570V0H34ZM305 750Q287 750 272 757T244 775T225 802T218 834Q218 852 225 867T244 894T271 912T305 919Q342 919 368 895T394 834Q394 800
368 775T305 750Z" />
<glyph unicode="&#x17c;" glyph-name="zdotaccent" horiz-adv-x="481" d="M33 0V100L273 394H41V503H451V412L210 110H451V0H33ZM251 556Q233 556 218 563T190 581T171 608T164 640Q164 658 171 673T190 700T217 718T251 725Q288 725 314 701T340 640Q340 606
314 581T251 556Z" />
<glyph unicode="&#x17d;" glyph-name="Zcaron" horiz-adv-x="604" d="M34 0V110L390 572H45V695H569V583L210 122H570V0H34ZM232 754L126 897H238L306 827L373 897H484L379 754H232Z" />
<glyph unicode="&#x17e;" glyph-name="zcaron" horiz-adv-x="481" d="M33 0V100L273 394H41V503H451V412L210 110H451V0H33ZM178 570L81 714H192L252 647L310 714H422L325 570H178Z" />
<glyph unicode="&#x192;" glyph-name="uni0192" horiz-adv-x="446" d="M0 -181Q-22 -181 -36 -180T-59 -176V-59Q-51 -61 -32 -62T-1 -64Q39 -64 55 -43T78 16L129 333H63L84 441H146L157 507Q175 612 230 658T371 704Q392 704 406 702T428 698V582Q420 584 401
585T370 587Q331 587 315 567T292 507L281 441H390L369 333H263L211 16Q194 -89 140 -135T0 -181Z" />
<glyph unicode="&#x1fa;" glyph-name="Aringacute" horiz-adv-x="684" d="M330 558L235 285H425L330 558ZM468 162H192L136 0H11L254 695H430L673 0H524L468 162ZM342 735Q316 735 293 744T252 770T225 810T215 861Q215 889 225 912T252 951T292 977T342 987Q369
987 392 978T432 952T459 912T469 861Q469 834 459 811T432 771T392 745T342 735ZM342 813Q363 813 376 826T390 861Q390 882 377 896T342 911Q321 911 309 897T296 861Q296 840 308 827T342 813ZM327 1158H503L382 1026H253L327 1158Z" />
<glyph unicode="&#x1fb;" glyph-name="aringacute" horiz-adv-x="532" d="M238 91Q269 91 288 104T317 136T331 171T335 195V224H283Q227 224 201 205T175 153Q175 123 192 107T238 91ZM349 0Q346 14 344 35T339 75Q331 60 319 45T290 17T248 -2T192 -10Q161 -10
132 -1T81 26T46 71T32 135Q32 216 96 260T280 305H335V323Q335 368 312 383T240 399Q186 399 142 386T64 357V471Q99 488 151 500T267 513Q367 513 424 472T481 336V81Q481 64 482 39T485 0H349ZM275 551Q249 551 226 560T185 586T158 626T148 677Q148 705 158
728T185 768T225 794T275 804Q302 804 325 795T365 768T392 728T402 677Q402 650 392 627T365 587T325 561T275 551ZM275 629Q296 629 309 642T323 677Q323 699 310 713T275 727Q254 727 242 713T229 677Q229 656 241 643T275 629ZM260 973H436L315 841H186L260
973Z" />
<glyph unicode="&#x1fc;" glyph-name="AEacute" horiz-adv-x="990" d="M467 617L307 306H467V617ZM467 183H244L150 0H11L368 695H937V572H617V420H887V298H617V122H942V0H467V183ZM602 887H778L657 755H528L602 887Z" />
<glyph unicode="&#x1fd;" glyph-name="aeacute" horiz-adv-x="855" d="M593 405Q551 405 524 380T487 305H677Q677 355 656 380T593 405ZM798 30Q786 24 772 17T738 4T691 -6T625 -10Q541 -10 484 14T395 85Q386 68 370 52T330 21T272 -1T193 -10Q161 -10 132
-2T81 25T46 70T32 134Q32 214 96 259T280 305H336V323Q336 368 313 383T241 399Q187 399 142 386T64 357V471Q99 488 152 500T268 513Q323 513 364 498T430 451Q492 513 591 513Q649 513 696 494T774 438T817 344T817 213H484Q492 159 524 132T632 105Q694 105
731 117T798 144V30ZM238 94Q269 94 288 107T318 138T332 173T336 198V219H283Q227 219 201 201T175 152Q175 122 192 108T238 94ZM466 724H615L493 570H388L466 724Z" />
<glyph unicode="&#x1fe;" glyph-name="Oslashacute" horiz-adv-x="753" d="M189 347Q189 302 196 267T217 204L451 569Q418 582 376 582Q336 582 302 570T242 529T203 456T189 347ZM376 112Q416 112 451 124T511 165T550 238T565 347Q565 403 555 443T525 511L282
134Q322 112 376 112ZM376 -10Q285 -10 212 25L152 -68H42L136 78Q88 123 61 189T34 345Q34 432 60 499T133 611T241 680T376 704Q455 704 521 677L575 762H686L601 630Q656 585 688 516T720 350Q720 263 693 196T620 83T511 14T376 -10ZM358 887H534L413 755H284L358
887Z" />
<glyph unicode="&#x1ff;" glyph-name="oslashacute" horiz-adv-x="574" d="M178 252Q178 205 192 171L323 393Q306 399 286 399Q240 399 209 363T178 252ZM286 105Q334 105 365 141T396 252Q396 297 384 329L256 109Q268 105 286 105ZM286 -10Q239 -10 194 4L147
-78H44L117 45Q76 78 53 130T29 252Q29 315 49 364T103 446T185 496T286 513Q341 513 385 497L435 581H530L458 457Q499 424 522 373T546 252Q546 188 526 139T471 57T389 7T286 -10ZM285 724H434L312 570H207L285 724Z" />
<glyph unicode="&#x218;" glyph-name="uni0218" horiz-adv-x="578" d="M270 -10Q228 -10 194 -5T133 10T85 29T48 51V174Q63 163 86 152T139 132T200 118T266 112Q297 112 322 115T365 127T393 150T403 186Q403 210 393 226T363 253T318 271T259 285Q221 294 183
307T113 344T63 405T43 499Q43 550 63 588T120 652T208 691T323 704Q397 704 442 690T510 662V539Q480 559 435 570T330 582Q192 582 192 510Q192 488 202 474T231 451T273 436T324 424Q365 415 406 402T479 366T532 305T553 207Q553 142 529 101T466 34T375 0T270
-10ZM220 -241Q237 -227 250 -212T275 -176Q252 -170 239 -153T225 -110Q225 -81 244 -62T294 -42Q326 -42 348 -60T371 -117Q371 -156 351 -187T307 -241H220Z" />
<glyph unicode="&#x219;" glyph-name="uni0219" horiz-adv-x="461" d="M226 -10Q190 -10 160 -4T106 10T65 28T39 46V150Q49 142 65 133T104 116T155 103T219 97Q245 97 261 100T287 110T300 125T304 144Q304 162 295 171T270 185T234 192T192 199Q165 204 137
213T87 239T50 283T36 351Q36 427 90 470T247 513Q307 513 347 500T404 474V371Q384 385 348 396T254 408Q201 408 183 396T164 364Q164 349 173 341T197 329T233 322T275 316Q302 312 330 304T381 278T418 231T433 159Q433 112 416 80T369 27T303 -1T226 -10ZM157
-241Q174 -227 187 -212T212 -176Q189 -170 176 -153T162 -110Q162 -81 181 -62T231 -42Q263 -42 285 -60T308 -117Q308 -156 288 -187T244 -241H157Z" />
<glyph unicode="&#x237;" glyph-name="uni0237" horiz-adv-x="271" d="M216 -15Q216 -94 168 -137T31 -181Q5 -181 -19 -177T-66 -161V-47Q-54 -58 -37 -62T0 -67Q40 -67 56 -48T72 4V503H216V-15Z" />
<glyph unicode="&#x2c6;" glyph-name="circumflex" horiz-adv-x="425" d="M213 637L153 570H42L139 714H286L383 570H271L213 637Z" />
<glyph unicode="&#x2c7;" glyph-name="caron" horiz-adv-x="425" d="M139 570L42 714H153L213 647L271 714H383L286 570H139Z" />
<glyph unicode="&#x2d8;" glyph-name="breve" horiz-adv-x="424" d="M212 557Q170 557 140 569T89 603T60 651T50 709H151Q151 682 167 668T212 653Q272 653 272 709H374Q374 679 365 652T335 603T285 570T212 557Z" />
<glyph unicode="&#x2d9;" glyph-name="dotaccent" horiz-adv-x="425" d="M212 556Q194 556 179 563T151 581T132 608T125 640Q125 658 132 673T151 700T178 718T212 725Q249 725 275 701T301 640Q301 606 275 581T212 556Z" />
<glyph unicode="&#x2da;" glyph-name="ring" horiz-adv-x="425" d="M212 551Q186 551 163 560T122 586T95 626T85 677Q85 705 95 728T122 768T162 794T212 804Q239 804 262 795T302 768T329 728T339 677Q339 650 329 627T302 587T262 561T212 551ZM212 629Q233
629 246 642T260 677Q260 699 247 713T212 727Q191 727 179 713T166 677Q166 656 178 643T212 629Z" />
<glyph unicode="&#x2db;" glyph-name="ogonek" horiz-adv-x="424" d="M232 -182Q172 -182 141 -159T109 -97Q109 -76 116 -61T135 -34T162 -14T192 0H283Q263 -11 245 -30T226 -73Q226 -84 235 -92T261 -101Q272 -101 280 -99T297 -94V-170Q290 -174 273 -178T232 -182Z" />
<glyph unicode="&#x2dc;" glyph-name="tilde" horiz-adv-x="425" d="M48 566Q43 593 47 618T63 664T97 696T147 708Q169 708 186 702T219 688T247 674T276 667Q291 667 299 676T305 715H377Q381 688 378 663T362 617T328 584T277 572Q255 572 238 578T207 592T178
606T149 613Q135 613 127 604T120 566H48V566Z" />
<glyph unicode="&#x2dd;" glyph-name="hungarumlaut" horiz-adv-x="425" d="M217 570L273 724H402L320 570H217ZM51 570L107 724H236L153 570H51Z" />
<glyph unicode="&#x401;" glyph-name="afii10023" horiz-adv-x="572" d="M189 744Q157 744 135 766T112 821Q112 853 134 874T189 896Q221 896 243 875T265 821Q265 789 243 767T189 744ZM405 744Q373 744 351 766T329 821Q329 853 351 874T405 896Q437 896 460
875T483 821Q483 805 477 791T461 767T436 750T405 744ZM65 695H536V572H215V420H486V298H215V122H541V0H65V695Z" />
<glyph unicode="&#x402;" glyph-name="afii10051" horiz-adv-x="762" d="M465 0Q527 0 555 41T584 157Q584 238 553 280T449 322Q417 322 382 313T316 287V401Q340 421 379 432T467 443Q528 443 577 425T661 371T714 283T733 161Q733 23 662 -49T465 -122V0ZM374
572V0H224V572H17V695H580V572H374Z" />
<glyph unicode="&#x403;" glyph-name="afii10052" horiz-adv-x="522" d="M279 887H455L334 755H205L279 887ZM215 572V0H65V695H487V572H215Z" />
<glyph unicode="&#x404;" glyph-name="afii10053" horiz-adv-x="633" d="M595 37Q569 20 520 5T398 -10Q314 -10 247 14T133 84T60 196T34 347Q34 431 59 497T131 609T246 679T398 704Q471 704 519 692T594 662V536Q562 557 514 569T407 582Q214 582 189 405H481V283H190Q218
112 408 112Q467 112 514 125T595 160V37V37Z" />
<glyph unicode="&#x405;" glyph-name="afii10054" horiz-adv-x="578" d="M270 -10Q228 -10 194 -5T133 10T85 29T48 51V174Q63 163 86 152T139 132T200 118T266 112Q297 112 322 115T365 127T393 150T403 186Q403 210 393 226T363 253T318 271T259 285Q221 294
183 307T113 344T63 405T43 499Q43 550 63 588T120 652T208 691T323 704Q397 704 442 690T510 662V539Q480 559 435 570T330 582Q192 582 192 510Q192 488 202 474T231 451T273 436T324 424Q365 415 406 402T479 366T532 305T553 207Q553 142 529 101T466 34T375
0T270 -10Z" />
<glyph unicode="&#x406;" glyph-name="afii10055" horiz-adv-x="281" d="M215 695V0H65V695H215Z" />
<glyph unicode="&#x407;" glyph-name="afii10056" horiz-adv-x="281" d="M215 695V0H65V695H215ZM506 750Q469 750 443 775T417 834Q417 870 443 894T506 919Q542 919 568 895T594 834Q594 817 587 802T568 776T540 757T506 750ZM252 750Q234 750 219 757T192
775T173 802T166 834Q166 870 191 894T252 919Q290 919 315 895T341 834Q341 800 316 775T252 750Z" />
<glyph unicode="&#x408;" glyph-name="afii10057" horiz-adv-x="400" d="M341 695V165Q341 128 330 96T294 41T233 4T144 -10Q116 -10 86 -6T28 12V134Q52 122 70 117T111 112Q138 112 154 119T180 138T192 167T195 204V695H341Z" />
<glyph unicode="&#x409;" glyph-name="afii10058" horiz-adv-x="998" d="M249 183Q229 80 168 34T18 0V137Q63 132 86 157T119 234Q133 294 138 410T145 695H602V458H684Q823 458 898 404T973 238Q973 176 953 131T895 57T804 14T684 0H452V572H279Q276 448 270
353T249 183ZM602 335V122H684Q751 122 787 146T823 231Q823 335 684 335H602Z" />
<glyph unicode="&#x40a;" glyph-name="afii10059" horiz-adv-x="1050" d="M735 122Q803 122 838 146T873 231Q873 335 736 335H576V458H736Q875 458 949 404T1023 238Q1023 176 1003 131T946 57T855 14T735 0H576V122H735V122ZM503 285H215V0H65V695H215V407H503V695H653V0H503V285Z"
/>
<glyph unicode="&#x40b;" glyph-name="afii10060" horiz-adv-x="754" d="M316 399Q338 416 376 430T479 444Q530 443 571 431T642 394T687 331T703 241V0H553V227Q553 256 546 275T526 305T495 321T455 326Q417 326 382 315T316 283V399ZM374 572V0H224V572H17V695H580V572H374Z"
/>
<glyph unicode="&#x40c;" glyph-name="afii10061" horiz-adv-x="658" d="M277 278H215V0H65V695H215V401H284L485 695H639L402 348L649 0H473L277 278ZM307 887H483L362 755H233L307 887Z" />
<glyph unicode="&#x40e;" glyph-name="afii10062" horiz-adv-x="619" d="M316 728Q268 728 233 740T175 774T140 825T128 889H258Q258 853 273 838T316 823Q342 823 357 838T372 889H503Q503 855 492 826T457 775T398 741T316 728ZM405 191Q380 132 352 92T290
29T213 -1T117 0V129Q168 124 201 135T255 170L2 695H160L328 334L470 695H618L405 191V191Z" />
<glyph unicode="&#x40f;" glyph-name="afii10145" horiz-adv-x="702" d="M419 0L414 -166H288L283 0H65V695H215V122H487V695H637V0H419Z" />
<glyph unicode="&#x410;" glyph-name="afii10017" horiz-adv-x="699" d="M330 558L235 285H425L330 558ZM468 162H192L136 0H11L254 695H430L673 0H524L468 162Z" />
<glyph unicode="&#x411;" glyph-name="afii10018" horiz-adv-x="622" d="M215 308V122H298Q364 122 400 142T436 217Q436 308 299 308H215ZM65 695H534V572H215V431H299Q437 431 511 380T586 223Q586 164 566 122T508 53T417 13T298 0H65V695Z" />
<glyph unicode="&#x412;" glyph-name="afii10019" horiz-adv-x="644" d="M215 572V419H325Q373 419 403 438T434 500Q434 543 407 557T331 572H215ZM215 297V122H329Q386 122 420 141T455 212Q455 259 422 278T320 297H215ZM65 695H305Q441 695 512 657T583 526Q583
451 539 413T419 361Q512 350 560 313T608 201Q608 147 585 109T521 46T425 11T303 0H65V695Z" />
<glyph unicode="&#x413;" glyph-name="afii10020" horiz-adv-x="522" d="M215 572V0H65V695H487V572H215Z" />
<glyph unicode="&#x414;" glyph-name="afii10021" horiz-adv-x="770" d="M496 571H292Q287 484 281 413T267 286T246 187T215 113H496V571ZM604 0H146L137 -166H11V113H58Q83 134 101 177T131 291T151 460T165 695H646V113H740V-166H613L604 0Z" />
<glyph unicode="&#x415;" glyph-name="afii10022" horiz-adv-x="572" d="M65 695H536V572H215V420H486V298H215V122H541V0H65V695Z" />
<glyph unicode="&#x416;" glyph-name="afii10024" horiz-adv-x="949" d="M9 -2L247 346L12 695H163L361 402H397V695H547V402H585L787 695H933L698 353L940 0H772L578 289H547V0H397V289H366L172 0L9 -2Z" />
<glyph unicode="&#x417;" glyph-name="afii10025" horiz-adv-x="581" d="M254 -11Q178 -11 124 4T39 36V159Q77 140 135 126T255 111Q318 111 355 133T392 209Q392 258 361 277T264 297H161V419H267Q314 419 342 439T371 502Q371 549 339 566T249 583Q189 583
133 570T40 537V660Q70 677 126 691T260 705Q385 705 452 660T519 523Q519 454 480 417T380 364Q457 351 500 312T544 197Q544 141 522 102T460 38T368 1T254 -11Z" />
<glyph unicode="&#x418;" glyph-name="afii10026" horiz-adv-x="757" d="M65 0V695H215V216L540 695H692V0H541V478L216 0H65Z" />
<glyph unicode="&#x419;" glyph-name="afii10027" horiz-adv-x="757" d="M371 728Q323 728 288 740T230 774T195 825T183 889H313Q313 853 328 838T371 823Q397 823 412 838T427 889H558Q558 855 547 826T512 775T453 741T371 728ZM65 0V695H215V216L540 695H692V0H541V478L216
0H65Z" />
<glyph unicode="&#x41a;" glyph-name="afii10028" horiz-adv-x="658" d="M277 278H215V0H65V695H215V401H284L485 695H639L402 348L649 0H473L277 278Z" />
<glyph unicode="&#x41b;" glyph-name="afii10029" horiz-adv-x="667" d="M249 183Q229 80 168 34T18 0V137Q63 132 86 157T119 234Q133 294 138 410T145 695H602V0H452V572H279Q276 448 270 353T249 183Z" />
<glyph unicode="&#x41c;" glyph-name="afii10030" horiz-adv-x="852" d="M197 479V0H65V695H259L425 266L609 695H786V0H636V472L480 107H349L197 479Z" />
<glyph unicode="&#x41d;" glyph-name="afii10031" horiz-adv-x="718" d="M503 285H215V0H65V695H215V407H503V695H653V0H503V285Z" />
<glyph unicode="&#x41e;" glyph-name="afii10032" horiz-adv-x="753" d="M376 -10Q304 -10 242 13T133 80T61 191T34 345Q34 432 60 499T133 611T241 680T376 704Q448 704 510 682T619 614T693 503T720 350Q720 263 693 196T620 83T511 14T376 -10ZM376 112Q416
112 451 124T511 165T550 238T565 347Q565 411 551 456T511 529T451 569T376 582Q336 582 302 570T242 529T203 456T189 347Q189 283 203 238T242 165T301 125T376 112Z" />
<glyph unicode="&#x41f;" glyph-name="afii10033" horiz-adv-x="701" d="M485 572H215V0H65V695H635V0H485V572Z" />
<glyph unicode="&#x420;" glyph-name="afii10034" horiz-adv-x="611" d="M215 572V359H298Q365 359 400 383T436 468Q436 572 299 572H215ZM215 237V0H65V695H299Q436 695 511 644T586 474Q586 412 566 368T508 294T417 251T298 237H215Z" />
<glyph unicode="&#x421;" glyph-name="afii10035" horiz-adv-x="642" d="M398 -10Q314 -10 247 14T132 84T60 196T34 347Q34 431 59 497T131 609T246 679T398 704Q470 704 519 692T594 662V536Q562 557 514 569T407 582Q295 582 242 524T189 347Q189 229 242 171T408
112Q466 112 513 125T594 160V37Q568 20 520 5T398 -10Z" />
<glyph unicode="&#x422;" glyph-name="afii10036" horiz-adv-x="598" d="M374 572V0H224V572H17V695H580V572H374Z" />
<glyph unicode="&#x423;" glyph-name="afii10037" horiz-adv-x="619" d="M405 191Q380 132 352 92T290 29T213 -1T117 0V129Q168 124 201 135T255 170L2 695H160L328 334L470 695H618L405 191V191Z" />
<glyph unicode="&#x424;" glyph-name="afii10038" horiz-adv-x="803" d="M327 78Q262 80 207 97T112 148T48 231T25 344Q25 408 48 457T111 540T207 591T327 611V703H477V611Q541 609 596 592T692 541T756 458T779 344Q779 280 756 231T693 149T597 98T477 78V-10H327V78ZM629
344Q629 386 618 415T586 462T537 488T477 499V191Q509 192 537 201T585 228T617 274T629 344ZM327 499Q295 497 268 489T220 462T187 415T175 344Q175 303 187 275T219 228T267 201T327 191V499Z" />
<glyph unicode="&#x425;" glyph-name="afii10039" horiz-adv-x="624" d="M300 245L158 0H11L224 352L8 695H174L325 454L461 695H610L400 349L617 0H448L300 245Z" />
<glyph unicode="&#x426;" glyph-name="afii10040" horiz-adv-x="758" d="M603 -166L594 0H65V695H215V112H486V695H635V112H729V-166H603Z" />
<glyph unicode="&#x427;" glyph-name="afii10041" horiz-adv-x="682" d="M467 0V315Q430 282 384 265T280 247Q230 247 189 262T118 308T72 388T55 502V695H206V502Q206 472 210 448T226 406T257 380T306 370Q362 370 400 393T467 461V695H617V0H467Z" />
<glyph unicode="&#x428;" glyph-name="afii10042" horiz-adv-x="929" d="M65 695H215V112H391V695H540V112H715V695H864V0H65V695Z" />
<glyph unicode="&#x429;" glyph-name="afii10043" horiz-adv-x="984" d="M832 -166L823 0H65V695H215V112H391V695H540V112H715V695H864V112H957V-166H832Z" />
<glyph unicode="&#x42a;" glyph-name="afii10044" horiz-adv-x="735" d="M338 335V122H420Q487 122 522 146T558 230Q558 335 421 335H338ZM188 572H29V695H338V457H421Q560 457 634 403T708 237Q708 175 688 131T630 57T539 14T420 0H188V572Z" />
<glyph unicode="&#x42b;" glyph-name="afii10045" horiz-adv-x="854" d="M788 695V0H638V695H788ZM215 335V122H289Q355 122 391 146T427 230Q427 335 290 335H215ZM65 695H215V457H290Q428 457 503 403T578 237Q578 175 558 131T500 57T409 14T289 0H65V695Z" />
<glyph unicode="&#x42c;" glyph-name="afii10046" horiz-adv-x="612" d="M215 335V122H298Q364 122 400 146T436 230Q436 335 299 335H215ZM65 695H215V457H299Q437 457 511 403T586 237Q586 175 566 131T508 57T417 14T298 0H65V695Z" />
<glyph unicode="&#x42d;" glyph-name="afii10047" horiz-adv-x="642" d="M243 -11Q170 -11 117 4T38 36V159Q71 137 122 124T233 111Q333 111 384 154T448 285H174V407H448Q437 495 386 539T234 583Q174 583 123 571T38 537V660Q64 677 117 691T243 705Q329 705
396 681T511 610T582 498T607 347Q607 263 582 197T511 84T396 14T243 -11Z" />
<glyph unicode="&#x42e;" glyph-name="afii10048" horiz-adv-x="993" d="M627 -11Q563 -11 507 8T408 64T336 157T298 285H215V0H65V695H215V407H299Q308 479 336 534T408 628T508 685T627 705Q696 705 757 682T863 615T934 504T960 350Q960 263 934 196T863 83T757
13T627 -11ZM627 111Q665 111 697 124T754 165T791 238T805 347Q805 411 792 456T754 529T698 570T627 583Q589 583 557 571T500 530T463 456T449 347Q449 283 462 238T500 165T556 124T627 111Z" />
<glyph unicode="&#x42f;" glyph-name="afii10049" horiz-adv-x="648" d="M433 381V572H342Q279 572 246 550T212 475Q212 424 243 403T332 381H433ZM433 265H351L186 0H19L200 281Q128 303 95 352T62 470Q62 524 82 566T139 636T228 680T344 695H583V0H433V265Z" />
<glyph unicode="&#x430;" glyph-name="afii10065" horiz-adv-x="532" d="M238 91Q269 91 288 104T317 136T331 171T335 195V224H283Q227 224 201 205T175 153Q175 123 192 107T238 91ZM349 0Q346 14 344 35T339 75Q331 60 319 45T290 17T248 -2T192 -10Q161 -10
132 -1T81 26T46 71T32 135Q32 216 96 260T280 305H335V323Q335 368 312 383T240 399Q186 399 142 386T64 357V471Q99 488 151 500T267 513Q367 513 424 472T481 336V81Q481 64 482 39T485 0H349Z" />
<glyph unicode="&#x431;" glyph-name="afii10066" horiz-adv-x="578" d="M291 -10Q236 -10 189 9T107 65T53 158T33 288Q33 366 40 424T63 524T100 597T153 649Q194 678 240 691T340 707Q382 708 411 711T460 717T492 726T516 737V606Q505 600 493 596T462 588T415
583T347 577Q304 575 271 565T212 532Q185 508 169 467T148 362Q168 425 215 458T337 492Q377 492 415 476T484 428T532 351T550 248Q550 185 530 137T475 56T393 7T291 -10ZM291 105Q339 105 369 139T400 244Q400 313 370 347T291 381Q244 381 214 347T183 244Q183
173 213 139T291 105Z" />
<glyph unicode="&#x432;" glyph-name="afii10067" horiz-adv-x="530" d="M199 401V303H260Q292 303 312 314T332 352Q332 380 315 390T266 401H199ZM199 210V103H264Q301 103 324 113T348 154Q348 183 327 196T258 210H199ZM55 503H277Q382 503 429 473T477 382Q477
334 448 307T359 265Q429 254 462 227T495 143Q495 71 437 36T275 0H55V503Z" />
<glyph unicode="&#x433;" glyph-name="afii10068" horiz-adv-x="415" d="M200 390V0H55V503H392V390H200Z" />
<glyph unicode="&#x434;" glyph-name="afii10069" horiz-adv-x="624" d="M371 390H250Q245 292 235 225T204 113H371V390ZM472 0H142L135 -144H10V113H57Q76 134 88 166T107 246T119 357T128 503H515V113H605V-144H480L472 0Z" />
<glyph unicode="&#x435;" glyph-name="afii10070" horiz-adv-x="559" d="M293 408Q251 408 223 382T184 308H380Q382 358 360 383T293 408ZM500 30Q488 24 474 17T439 4T391 -6T325 -10Q172 -10 101 59T29 252Q29 313 48 361T101 444T184 495T290 513Q349 513
396 494T475 438T519 344T519 212H181Q189 158 223 131T332 104Q363 104 388 107T433 116T469 129T500 143V30Z" />
<glyph unicode="&#x436;" glyph-name="afii10072" horiz-adv-x="779" d="M283 192L162 0H2L169 259L12 503H157L282 305H317V503H462V305H497L624 503H766L612 263L778 0H612L495 192H462V0H317V192H283Z" />
<glyph unicode="&#x437;" glyph-name="afii10073" horiz-adv-x="467" d="M211 -10Q176 -10 149 -6T101 4T67 18T44 31V142Q68 124 109 112T201 99Q285 99 285 153Q285 179 265 191T200 204H122V307H200Q233 307 252 318T271 354Q271 383 252 393T197 404Q146 404
111 392T49 362V473Q72 487 114 500T226 513Q317 513 365 481T414 383Q414 335 386 307T299 264Q368 254 400 227T433 143Q433 105 416 76T369 28T299 0T211 -10Z" />
<glyph unicode="&#x438;" glyph-name="afii10074" horiz-adv-x="611" d="M55 503H199V189L416 503H556V0H413V315L197 0H55V503Z" />
<glyph unicode="&#x439;" glyph-name="afii10075" horiz-adv-x="611" d="M302 554Q259 554 228 566T175 598T144 645T134 705H251Q251 673 264 661T302 648Q325 648 339 660T353 705H470Q470 673 460 646T428 598T376 566T302 554ZM55 503H199V189L416 503H556V0H413V315L197
0H55V503Z" />
<glyph unicode="&#x43a;" glyph-name="afii10076" horiz-adv-x="545" d="M242 192H201V0H55V503H201V305H245L386 503H529L359 266L543 0H374L242 192Z" />
<glyph unicode="&#x43b;" glyph-name="afii10077" horiz-adv-x="564" d="M363 390H246Q244 290 236 212T203 83T135 10T19 0V129Q54 121 74 139T103 204T115 325T117 503H507V0H363V390Z" />
<glyph unicode="&#x43c;" glyph-name="afii10078" horiz-adv-x="719" d="M183 315V0H55V503H242L358 223L481 503H663V0H519V315L397 39H297L183 315Z" />
<glyph unicode="&#x43d;" glyph-name="afii10079" horiz-adv-x="584" d="M383 199H201V0H55V503H201V313H383V503H529V0H383V199Z" />
<glyph unicode="&#x43e;" glyph-name="afii10080" horiz-adv-x="574" d="M286 -10Q232 -10 185 7T104 57T49 139T29 252Q29 315 49 364T103 446T185 496T286 513Q341 513 388 496T471 446T526 364T546 252Q546 188 526 139T471 57T389 7T286 -10ZM286 105Q334
105 365 141T396 252Q396 327 365 363T286 399Q240 399 209 363T178 252Q178 177 209 141T286 105Z" />
<glyph unicode="&#x43f;" glyph-name="afii10081" horiz-adv-x="573" d="M372 390H201V0H55V503H517V0H372V390Z" />
<glyph unicode="&#x440;" glyph-name="afii10082" horiz-adv-x="611" d="M317 105Q368 105 400 141T433 252Q433 327 401 363T318 399Q267 399 234 363T200 252Q200 177 233 141T317 105ZM362 -10Q305 -10 266 13T201 77V-172H55V503H192L198 423Q224 465 264
489T361 513Q406 513 446 497T517 449T565 368T583 252Q583 186 565 137T517 55T447 6T362 -10Z" />
<glyph unicode="&#x441;" glyph-name="afii10083" horiz-adv-x="499" d="M304 -10Q241 -10 190 7T103 59T48 141T29 252Q29 313 48 361T103 444T190 495T304 513Q364 513 403 501T465 471V359Q451 368 436 375T404 388T366 396T318 399Q178 399 178 252Q178 177
213 141T316 105Q344 105 365 108T404 116T436 128T465 145V32Q442 17 403 4T304 -10Z" />
<glyph unicode="&#x442;" glyph-name="afii10084" horiz-adv-x="469" d="M306 390V0H161V390H16V503H454V390H306Z" />
<glyph unicode="&#x443;" glyph-name="afii10085" horiz-adv-x="542" d="M133 -181Q102 -181 79 -177T32 -161V-37Q50 -49 75 -57T130 -66Q160 -66 178 -56T209 -27L10 503H163L281 154L396 503H530L356 6Q339 -40 321 -75T278 -133T218 -169T133 -181Z" />
<glyph unicode="&#x444;" glyph-name="afii10086" horiz-adv-x="735" d="M296 -7Q237 -3 188 16T104 68T49 147T29 252Q29 311 49 357T104 436T188 488T296 511V705H440V511Q498 507 547 488T632 436T687 357T707 252Q707 193 687 147T632 68T548 16T440 -7V-172H296V-7ZM296
404Q239 397 208 359T177 252Q177 185 208 147T296 101V404ZM558 252Q558 320 528 358T440 404V101Q497 108 527 146T558 252Z" />
<glyph unicode="&#x445;" glyph-name="afii10087" horiz-adv-x="519" d="M244 166L138 0H1L173 262L15 503H177L276 352L368 503H504L346 257L516 0H354L244 166Z" />
<glyph unicode="&#x446;" glyph-name="afii10088" horiz-adv-x="619" d="M475 -144L467 0H55V503H201V113H379V503H525V113H600V-144H475Z" />
<glyph unicode="&#x447;" glyph-name="afii10089" horiz-adv-x="561" d="M360 0V217Q339 191 301 175T213 159Q135 159 91 205T47 347V503H192V356Q192 316 210 298T264 279Q301 279 324 293T360 333V503H505V0H360Z" />
<glyph unicode="&#x448;" glyph-name="afii10090" horiz-adv-x="785" d="M55 503H201V113H320V503H466V113H584V503H729V0H55V503Z" />
<glyph unicode="&#x449;" glyph-name="afii10091" horiz-adv-x="823" d="M679 -144L671 0H55V503H201V113H320V503H466V113H584V503H729V113H804V-144H679Z" />
<glyph unicode="&#x44a;" glyph-name="afii10092" horiz-adv-x="607" d="M292 247V107H353Q391 107 413 123T436 177Q436 247 354 247H292ZM146 390H16V503H292V355H355Q465 355 525 311T586 181Q586 137 569 103T521 46T447 12T353 0H146V390Z" />
<glyph unicode="&#x44b;" glyph-name="afii10093" horiz-adv-x="726" d="M670 0H525V503H670V0ZM201 247V107H254Q291 107 314 123T337 177Q337 247 255 247H201ZM55 503H201V355H255Q366 355 426 311T487 181Q487 137 470 103T422 46T348 12T254 0H55V503Z" />
<glyph unicode="&#x44c;" glyph-name="afii10094" horiz-adv-x="516" d="M201 247V107H263Q300 107 322 123T345 177Q345 247 264 247H201ZM55 503H201V355H265Q374 355 435 311T496 181Q496 137 479 103T431 46T357 12T263 0H55V503Z" />
<glyph unicode="&#x44d;" glyph-name="afii10095" horiz-adv-x="502" d="M200 -10Q138 -10 100 3T38 32V145Q53 136 67 129T99 116T137 108T186 105Q297 105 321 199H142V312H319Q293 399 185 399Q131 399 100 388T39 359V471Q62 488 100 500T200 513Q263 513
314 496T400 444T455 362T474 252Q474 190 455 142T401 59T314 8T200 -10Z" />
<glyph unicode="&#x44e;" glyph-name="afii10096" horiz-adv-x="779" d="M500 -10Q454 -10 414 3T341 43T288 109T259 199H201V0H55V503H201V313H260Q269 362 290 399T343 461T415 500T500 513Q553 513 599 496T678 446T731 364T751 252Q751 188 732 139T679 57T599
7T500 -10ZM500 105Q545 105 573 141T601 252Q601 327 573 363T500 399Q458 399 430 363T402 252Q402 177 430 141T500 105Z" />
<glyph unicode="&#x44f;" glyph-name="afii10097" horiz-adv-x="529" d="M329 266V395H275Q238 395 216 381T193 332Q193 297 213 282T275 266H329ZM329 157H281L175 0H19L153 190Q100 209 72 245T43 338Q43 377 60 407T108 459T181 492T275 503H473V0H329V157Z" />
<glyph unicode="&#x451;" glyph-name="afii10071" horiz-adv-x="559" d="M176 562Q146 562 124 584T101 637Q101 669 123 691T176 713Q208 713 231 691T254 637Q254 607 231 585T176 562ZM393 562Q362 562 340 584T317 637Q317 669 339 691T393 713Q425 713 447
691T470 637Q470 607 448 585T393 562ZM293 408Q251 408 223 382T184 308H380Q382 358 360 383T293 408ZM500 30Q488 24 474 17T439 4T391 -6T325 -10Q172 -10 101 59T29 252Q29 313 48 361T101 444T184 495T290 513Q349 513 396 494T475 438T519 344T519 212H181Q189
158 223 131T332 104Q363 104 388 107T433 116T469 129T500 143V30Z" />
<glyph unicode="&#x452;" glyph-name="afii10099" horiz-adv-x="580" d="M-7 639H347V545H-7V639ZM530 -15Q530 -94 481 -137T343 -181Q317 -181 294 -177T247 -161V-47Q259 -58 276 -62T313 -67Q353 -67 368 -48T384 4V123H530V-15ZM311 399Q273 399 246 385T201
348V0H55V695H201V517L200 430H201Q223 465 260 489T358 513Q394 513 425 503T480 473T517 423T530 351V0H384V337Q384 371 365 385T311 399Z" />
<glyph unicode="&#x453;" glyph-name="afii10100" horiz-adv-x="415" d="M200 390V0H55V503H392V390H200ZM235 724H384L262 570H157L235 724Z" />
<glyph unicode="&#x454;" glyph-name="afii10101" horiz-adv-x="498" d="M465 32Q442 17 403 4T304 -10Q241 -10 190 7T103 59T48 141T29 252Q29 313 48 361T102 444T189 495T303 513Q363 513 402 501T464 471V359Q450 368 435 375T403 388T365 396T317 399Q201
399 176 308H357V195H176Q201 105 316 105Q344 105 365 108T404 116T436 128T465 145V32V32Z" />
<glyph unicode="&#x455;" glyph-name="afii10102" horiz-adv-x="462" d="M226 -10Q190 -10 160 -4T106 10T65 28T39 46V150Q49 142 65 133T104 116T155 103T219 97Q245 97 261 100T287 110T300 125T304 144Q304 162 295 171T270 185T234 192T192 199Q165 204 137
213T87 239T50 283T36 351Q36 427 90 470T247 513Q307 513 347 500T404 474V371Q384 385 348 396T254 408Q201 408 183 396T164 364Q164 349 173 341T197 329T233 322T275 316Q302 312 330 304T381 278T418 231T433 159Q433 112 416 80T369 27T303 -1T226 -10Z"
/>
<glyph unicode="&#x456;" glyph-name="afii10103" horiz-adv-x="258" d="M129 556Q92 556 67 581T41 640Q41 676 66 700T129 725Q147 725 163 719T191 701T210 674T217 640Q217 623 210 608T191 582T163 563T129 556ZM202 503V0H56V503H202Z" />
<glyph unicode="&#x457;" glyph-name="afii10104" horiz-adv-x="258" d="M231 555Q194 555 169 580T143 640Q143 676 168 701T231 726Q249 726 265 720T293 701T312 674T319 640Q319 623 312 608T293 581T265 562T231 555ZM27 555Q-8 555 -34 580T-60 640Q-60
658 -53 673T-34 701T-6 719T27 726Q64 726 89 701T115 640Q115 605 90 580T27 555ZM202 503V0H56V503H202Z" />
<glyph unicode="&#x458;" glyph-name="afii10105" horiz-adv-x="271" d="M143 556Q125 556 109 563T81 581T62 608T55 640Q55 676 81 700T143 725Q180 725 206 701T232 640Q232 606 206 581T143 556ZM216 -15Q216 -94 168 -137T31 -181Q5 -181 -19 -177T-66 -161V-47Q-54
-58 -37 -62T0 -67Q40 -67 56 -48T72 4V503H216V-15Z" />
<glyph unicode="&#x459;" glyph-name="afii10106" horiz-adv-x="823" d="M569 107Q606 107 629 123T652 177Q652 247 570 247H491V355H571Q682 355 742 311T802 181Q802 137 785 103T737 46T663 12T569 0H491V107H569V107ZM363 390H246Q244 290 236 212T203 83T135
10T19 0V129Q54 121 74 139T103 204T115 325T117 503H507V0H363V390Z" />
<glyph unicode="&#x45a;" glyph-name="afii10107" horiz-adv-x="844" d="M591 107Q628 107 651 123T674 177Q674 247 591 247H513V355H592Q702 355 763 311T824 181Q824 137 807 103T759 46T685 12T591 0H513V107H591V107ZM383 199H201V0H55V503H201V313H383V503H529V0H383V199Z"
/>
<glyph unicode="&#x45b;" glyph-name="afii10108" horiz-adv-x="580" d="M-7 639H347V545H-7V639ZM311 399Q273 399 246 385T201 348V0H55V695H201V517L200 430H201Q223 465 260 489T358 513Q394 513 425 503T480 473T517 423T530 351V0H384V337Q384 371 365 385T311
399Z" />
<glyph unicode="&#x45c;" glyph-name="afii10109" horiz-adv-x="545" d="M242 192H201V0H55V503H201V305H245L386 503H529L359 266L543 0H374L242 192ZM243 724H392L270 570H165L243 724Z" />
<glyph unicode="&#x45e;" glyph-name="afii10110" horiz-adv-x="542" d="M279 554Q236 554 205 566T152 598T121 645T110 705H228Q228 673 241 661T279 648Q302 648 316 660T330 705H447Q447 673 437 646T405 598T353 566T279 554ZM133 -181Q102 -181 79 -177T32
-161V-37Q50 -49 75 -57T130 -66Q160 -66 178 -56T209 -27L10 503H163L281 154L396 503H530L356 6Q339 -40 321 -75T278 -133T218 -169T133 -181Z" />
<glyph unicode="&#x45f;" glyph-name="afii10193" horiz-adv-x="582" d="M357 0L353 -144H228L224 0H55V503H201V113H379V503H525V0H357Z" />
<glyph unicode="&#x490;" glyph-name="afii10050" horiz-adv-x="512" d="M487 851V572H346L362 851H487ZM215 572V0H65V695H487V572H215Z" />
<glyph unicode="&#x491;" glyph-name="afii10098" horiz-adv-x="411" d="M392 647V390H252L267 647H392ZM200 390V0H55V503H392V390H200Z" />
<glyph unicode="&#x492;" glyph-name="uni0492" horiz-adv-x="552" d="M15 404H397V296H15V404ZM245 572V0H95V695H517V572H245Z" />
<glyph unicode="&#x493;" glyph-name="uni0493" horiz-adv-x="442" d="M22 293H346V195H22V293ZM227 390V0H82V503H419V390H227Z" />
<glyph unicode="&#x49a;" glyph-name="uni049A" horiz-adv-x="669" d="M533 -166L524 0H484V112H659V-166H533ZM277 278H215V0H65V695H215V401H284L485 695H639L402 348L649 0H473L277 278Z" />
<glyph unicode="&#x49b;" glyph-name="uni049B" horiz-adv-x="559" d="M425 -144L417 0H385V113H547V-144H425ZM242 192H201V0H55V503H201V305H245L386 503H529L359 266L543 0H374L242 192Z" />
<glyph unicode="&#x4a2;" glyph-name="uni04A2" horiz-adv-x="776" d="M621 -166L612 0H569V112H747V-166H621ZM503 285H215V0H65V695H215V407H503V695H653V0H503V285Z" />
<glyph unicode="&#x4a3;" glyph-name="uni04A3" horiz-adv-x="623" d="M482 -144L474 0H414V113H604V-144H482ZM383 199H201V0H55V503H201V313H383V503H529V0H383V199Z" />
<glyph unicode="&#x4ae;" glyph-name="uni04AE" horiz-adv-x="605" d="M222 0V294L-1 695H163L307 421L457 695H594L372 291V0H222Z" />
<glyph unicode="&#x4af;" glyph-name="uni04AF" horiz-adv-x="515" d="M184 -172V34L1 503H152L268 198L383 503H514L329 31V-172H184Z" />
<glyph unicode="&#x4b0;" glyph-name="uni04B0" horiz-adv-x="605" d="M71 318H523V209H71V318ZM222 0V294L-1 695H163L307 421L457 695H594L372 291V0H222Z" />
<glyph unicode="&#x4b1;" glyph-name="uni04B1" horiz-adv-x="515" d="M39 114H474V0H39V114ZM184 -172V34L1 503H152L268 198L383 503H514L329 31V-172H184Z" />
<glyph unicode="&#x4ba;" glyph-name="uni04BA" horiz-adv-x="663" d="M196 695V380Q233 413 279 430T383 448Q433 448 474 433T545 387T591 307T608 193V0H457V193Q457 223 453 247T437 289T406 315T357 325Q301 325 263 302T196 234V0H46V695H196Z" />
<glyph unicode="&#x4bb;" glyph-name="uni04BB" horiz-adv-x="560" d="M200 503V286Q221 312 259 328T347 344Q425 344 469 298T513 156V0H368V147Q368 187 350 205T296 224Q259 224 236 210T200 170V0H55V503H200Z" />
<glyph unicode="&#x4d8;" glyph-name="uni04D8" horiz-adv-x="716" d="M356 -10Q195 -10 114 77T33 332V401H524Q513 489 463 535T305 582Q234 582 182 565T86 522V649Q104 659 125 669T174 686T236 699T315 704Q405 704 474 680T589 609T658 496T682 347Q682
264 660 198T595 86T493 15T356 -10ZM355 112Q430 112 471 156T523 282H185Q194 112 355 112Z" />
<glyph unicode="&#x4d9;" glyph-name="afii10846" horiz-adv-x="555" d="M262 95Q304 95 332 121T371 195H175Q173 145 195 120T262 95ZM55 473Q67 479 81 486T116 499T164 509T230 513Q383 513 454 444T526 251Q526 190 507 142T454 59T371 8T265 -10Q206 -10
159 9T80 65T36 159T36 291H374Q366 345 332 372T223 399Q192 399 167 396T122 387T86 374T55 360V473Z" />
<glyph unicode="&#x4e8;" glyph-name="uni04E8" horiz-adv-x="753" d="M376 -10Q304 -10 242 13T133 80T61 191T34 345Q34 432 60 499T133 611T241 680T376 704Q448 704 510 682T619 614T693 503T720 350Q720 263 693 196T620 83T511 14T376 -10ZM376 582Q341
582 310 573T254 543T212 490T187 410H567Q559 457 542 489T499 542T443 572T376 582ZM376 112Q412 112 443 121T500 152T543 206T567 288H187Q194 240 211 207T253 152T309 122T376 112Z" />
<glyph unicode="&#x4e9;" glyph-name="uni04E9" horiz-adv-x="574" d="M286 -10Q232 -10 185 7T104 57T49 139T29 252Q29 315 49 364T103 446T185 496T286 513Q341 513 388 496T471 446T526 364T546 252Q546 188 526 139T471 57T389 7T286 -10ZM286 402Q244 402
216 379T176 308H397Q386 356 358 379T286 402ZM286 102Q331 102 360 127T399 204H174Q183 152 212 127T286 102Z" />
</font>
</defs>
</svg>
